%TF.GenerationSoftware,KiCad,Pcbnew,(6.0.0)*%
%TF.CreationDate,2022-10-11T16:26:00+09:00*%
%TF.ProjectId,JoyStick,4a6f7953-7469-4636-9b2e-6b696361645f,rev?*%
%TF.SameCoordinates,PX5d42830PY70a3730*%
%TF.FileFunction,Copper,L2,Bot*%
%TF.FilePolarity,Positive*%
%FSLAX46Y46*%
G04 Gerber Fmt 4.6, Leading zero omitted, Abs format (unit mm)*
G04 Created by KiCad (PCBNEW (6.0.0)) date 2022-10-11 16:26:00*
%MOMM*%
%LPD*%
G01*
G04 APERTURE LIST*
%TA.AperFunction,ComponentPad*%
%ADD10R,1.700000X1.700000*%
%TD*%
%TA.AperFunction,ComponentPad*%
%ADD11O,1.700000X1.700000*%
%TD*%
%TA.AperFunction,ViaPad*%
%ADD12C,4.000000*%
%TD*%
%TA.AperFunction,Conductor*%
%ADD13C,2.000000*%
%TD*%
G04 APERTURE END LIST*
D10*
%TO.P,J5,1,Pin_1*%
%TO.N,/GND*%
X19040000Y8185000D03*
D11*
%TO.P,J5,2,Pin_2*%
%TO.N,/ADC2*%
X16500000Y8185000D03*
%TO.P,J5,3,Pin_3*%
%TO.N,/ADC1*%
X13960000Y8185000D03*
%TO.P,J5,4,Pin_4*%
%TO.N,/VDD*%
X11420000Y8185000D03*
%TD*%
D10*
%TO.P,J4,1,Pin_1*%
%TO.N,/ADC2*%
X26670000Y19050000D03*
D11*
%TO.P,J4,2,Pin_2*%
%TO.N,/GND*%
X26670000Y16510000D03*
%TD*%
D10*
%TO.P,J3,1,Pin_1*%
%TO.N,/ADC2*%
X3810000Y19050000D03*
D11*
%TO.P,J3,2,Pin_2*%
%TO.N,/GND*%
X3810000Y16510000D03*
%TD*%
D10*
%TO.P,J2,1,Pin_1*%
%TO.N,/VDD*%
X26670000Y41910000D03*
D11*
%TO.P,J2,2,Pin_2*%
%TO.N,/ADC1*%
X26670000Y39370000D03*
%TD*%
D10*
%TO.P,J1,1,Pin_1*%
%TO.N,/VDD*%
X3810000Y41910000D03*
D11*
%TO.P,J1,2,Pin_2*%
%TO.N,/ADC1*%
X3810000Y39370000D03*
%TD*%
D12*
%TO.N,*%
X3810000Y52070000D03*
X26670000Y52070000D03*
X26670000Y3810000D03*
X3810000Y3810000D03*
%TD*%
D13*
%TO.N,/GND*%
X10467508Y5885480D02*
X18585480Y5885480D01*
X3810000Y12542988D02*
X10467508Y5885480D01*
X18585480Y5885480D02*
X19040000Y6340000D01*
X3810000Y16510000D02*
X3810000Y12542988D01*
X19040000Y6340000D02*
X19040000Y8185000D01*
X21590000Y16510000D02*
X26670000Y16510000D01*
X19040000Y13960000D02*
X21590000Y16510000D01*
X19040000Y8185000D02*
X19040000Y13960000D01*
%TO.N,/ADC2*%
X16500000Y15230000D02*
X16500000Y8185000D01*
X20320000Y19050000D02*
X16500000Y15230000D01*
X26670000Y19050000D02*
X20320000Y19050000D01*
%TO.N,/ADC1*%
X17780000Y39370000D02*
X26670000Y39370000D01*
X13960000Y35550000D02*
X17780000Y39370000D01*
X13960000Y8185000D02*
X13960000Y35550000D01*
%TO.N,/VDD*%
X11430000Y38100000D02*
X11430000Y40640000D01*
X11430000Y40640000D02*
X12700000Y41910000D01*
X12700000Y41910000D02*
X11430000Y41910000D01*
X15240000Y41910000D02*
X12700000Y41910000D01*
X10795000Y38735000D02*
X11430000Y38100000D01*
X7620000Y41910000D02*
X10795000Y38735000D01*
X11430000Y41910000D02*
X3810000Y41910000D01*
X10795000Y41275000D02*
X10795000Y38735000D01*
X11430000Y41910000D02*
X10795000Y41275000D01*
X11430000Y38100000D02*
X15240000Y41910000D01*
X26670000Y41910000D02*
X15240000Y41910000D01*
X11420000Y15230000D02*
X11420000Y8185000D01*
X11430000Y15240000D02*
X11420000Y15230000D01*
X11430000Y38100000D02*
X11430000Y15240000D01*
X3810000Y41910000D02*
X7620000Y41910000D01*
%TD*%
%TA.AperFunction,Conductor*%
%TO.N,/GND*%
G36*
X29914121Y55351998D02*
G01*
X29960614Y55298342D01*
X29972000Y55246000D01*
X29972000Y634000D01*
X29951998Y565879D01*
X29898342Y519386D01*
X29846000Y508000D01*
X634000Y508000D01*
X565879Y528002D01*
X519386Y581658D01*
X508000Y634000D01*
X508000Y3810000D01*
X1296540Y3810000D01*
X1316359Y3494980D01*
X1375505Y3184928D01*
X1473044Y2884734D01*
X1474731Y2881148D01*
X1474733Y2881144D01*
X1605750Y2602717D01*
X1605754Y2602710D01*
X1607438Y2599131D01*
X1776568Y2332625D01*
X1977767Y2089418D01*
X2207860Y1873346D01*
X2463221Y1687816D01*
X2739821Y1535753D01*
X2743490Y1534300D01*
X2743495Y1534298D01*
X3029628Y1421010D01*
X3033298Y1419557D01*
X3339025Y1341060D01*
X3652179Y1301500D01*
X3967821Y1301500D01*
X4280975Y1341060D01*
X4586702Y1419557D01*
X4590372Y1421010D01*
X4876505Y1534298D01*
X4876510Y1534300D01*
X4880179Y1535753D01*
X5156779Y1687816D01*
X5412140Y1873346D01*
X5642233Y2089418D01*
X5843432Y2332625D01*
X6012562Y2599131D01*
X6014246Y2602710D01*
X6014250Y2602717D01*
X6145267Y2881144D01*
X6145269Y2881148D01*
X6146956Y2884734D01*
X6244495Y3184928D01*
X6303641Y3494980D01*
X6323460Y3810000D01*
X24156540Y3810000D01*
X24176359Y3494980D01*
X24235505Y3184928D01*
X24333044Y2884734D01*
X24334731Y2881148D01*
X24334733Y2881144D01*
X24465750Y2602717D01*
X24465754Y2602710D01*
X24467438Y2599131D01*
X24636568Y2332625D01*
X24837767Y2089418D01*
X25067860Y1873346D01*
X25323221Y1687816D01*
X25599821Y1535753D01*
X25603490Y1534300D01*
X25603495Y1534298D01*
X25889628Y1421010D01*
X25893298Y1419557D01*
X26199025Y1341060D01*
X26512179Y1301500D01*
X26827821Y1301500D01*
X27140975Y1341060D01*
X27446702Y1419557D01*
X27450372Y1421010D01*
X27736505Y1534298D01*
X27736510Y1534300D01*
X27740179Y1535753D01*
X28016779Y1687816D01*
X28272140Y1873346D01*
X28502233Y2089418D01*
X28703432Y2332625D01*
X28872562Y2599131D01*
X28874246Y2602710D01*
X28874250Y2602717D01*
X29005267Y2881144D01*
X29005269Y2881148D01*
X29006956Y2884734D01*
X29104495Y3184928D01*
X29163641Y3494980D01*
X29183460Y3810000D01*
X29163641Y4125020D01*
X29104495Y4435072D01*
X29006956Y4735266D01*
X29005267Y4738856D01*
X28874250Y5017283D01*
X28874246Y5017290D01*
X28872562Y5020869D01*
X28703432Y5287375D01*
X28502233Y5530582D01*
X28272140Y5746654D01*
X28016779Y5932184D01*
X27740179Y6084247D01*
X27736510Y6085700D01*
X27736505Y6085702D01*
X27450372Y6198990D01*
X27450371Y6198990D01*
X27446702Y6200443D01*
X27140975Y6278940D01*
X26827821Y6318500D01*
X26512179Y6318500D01*
X26199025Y6278940D01*
X25893298Y6200443D01*
X25889629Y6198990D01*
X25889628Y6198990D01*
X25603495Y6085702D01*
X25603490Y6085700D01*
X25599821Y6084247D01*
X25323221Y5932184D01*
X25067860Y5746654D01*
X24837767Y5530582D01*
X24636568Y5287375D01*
X24467438Y5020869D01*
X24465754Y5017290D01*
X24465750Y5017283D01*
X24334733Y4738856D01*
X24333044Y4735266D01*
X24235505Y4435072D01*
X24176359Y4125020D01*
X24156540Y3810000D01*
X6323460Y3810000D01*
X6303641Y4125020D01*
X6244495Y4435072D01*
X6146956Y4735266D01*
X6145267Y4738856D01*
X6014250Y5017283D01*
X6014246Y5017290D01*
X6012562Y5020869D01*
X5843432Y5287375D01*
X5642233Y5530582D01*
X5412140Y5746654D01*
X5156779Y5932184D01*
X4880179Y6084247D01*
X4876510Y6085700D01*
X4876505Y6085702D01*
X4590372Y6198990D01*
X4590371Y6198990D01*
X4586702Y6200443D01*
X4280975Y6278940D01*
X3967821Y6318500D01*
X3652179Y6318500D01*
X3339025Y6278940D01*
X3033298Y6200443D01*
X3029629Y6198990D01*
X3029628Y6198990D01*
X2743495Y6085702D01*
X2743490Y6085700D01*
X2739821Y6084247D01*
X2463221Y5932184D01*
X2207860Y5746654D01*
X1977767Y5530582D01*
X1776568Y5287375D01*
X1607438Y5020869D01*
X1605754Y5017290D01*
X1605750Y5017283D01*
X1474733Y4738856D01*
X1473044Y4735266D01*
X1375505Y4435072D01*
X1316359Y4125020D01*
X1296540Y3810000D01*
X508000Y3810000D01*
X508000Y18151866D01*
X2451500Y18151866D01*
X2458255Y18089684D01*
X2509385Y17953295D01*
X2596739Y17836739D01*
X2713295Y17749385D01*
X2849684Y17698255D01*
X2911866Y17691500D01*
X4708134Y17691500D01*
X4770316Y17698255D01*
X4906705Y17749385D01*
X5023261Y17836739D01*
X5110615Y17953295D01*
X5161745Y18089684D01*
X5168500Y18151866D01*
X5168500Y19948134D01*
X5161745Y20010316D01*
X5110615Y20146705D01*
X5023261Y20263261D01*
X4906705Y20350615D01*
X4770316Y20401745D01*
X4708134Y20408500D01*
X2911866Y20408500D01*
X2849684Y20401745D01*
X2713295Y20350615D01*
X2596739Y20263261D01*
X2509385Y20146705D01*
X2458255Y20010316D01*
X2451500Y19948134D01*
X2451500Y18151866D01*
X508000Y18151866D01*
X508000Y41857183D01*
X2297514Y41857183D01*
X2298095Y41852163D01*
X2298095Y41852159D01*
X2313923Y41715369D01*
X2325415Y41616044D01*
X2326791Y41611180D01*
X2326792Y41611177D01*
X2372476Y41449734D01*
X2391510Y41382468D01*
X2393644Y41377892D01*
X2393646Y41377886D01*
X2439695Y41279134D01*
X2451500Y41225884D01*
X2451500Y41011866D01*
X2458255Y40949684D01*
X2509385Y40813295D01*
X2596739Y40696739D01*
X2713295Y40609385D01*
X2721704Y40606233D01*
X2721705Y40606232D01*
X2830451Y40565465D01*
X2887216Y40522824D01*
X2911916Y40456262D01*
X2896709Y40386913D01*
X2877316Y40360432D01*
X2750629Y40227862D01*
X2747715Y40223590D01*
X2747714Y40223589D01*
X2722349Y40186405D01*
X2624743Y40043320D01*
X2609003Y40009410D01*
X2559198Y39902114D01*
X2530688Y39840695D01*
X2470989Y39625430D01*
X2447251Y39403305D01*
X2447548Y39398152D01*
X2447548Y39398149D01*
X2453011Y39303410D01*
X2460110Y39180285D01*
X2461247Y39175239D01*
X2461248Y39175233D01*
X2481119Y39087061D01*
X2509222Y38962361D01*
X2593266Y38755384D01*
X2709987Y38564912D01*
X2856250Y38396062D01*
X3028126Y38253368D01*
X3221000Y38140662D01*
X3429692Y38060970D01*
X3434760Y38059939D01*
X3434763Y38059938D01*
X3542017Y38038117D01*
X3648597Y38016433D01*
X3653772Y38016243D01*
X3653774Y38016243D01*
X3866673Y38008436D01*
X3866677Y38008436D01*
X3871837Y38008247D01*
X3876957Y38008903D01*
X3876959Y38008903D01*
X4088288Y38035975D01*
X4088289Y38035975D01*
X4093416Y38036632D01*
X4098366Y38038117D01*
X4302429Y38099339D01*
X4302434Y38099341D01*
X4307384Y38100826D01*
X4507994Y38199104D01*
X4689860Y38328827D01*
X4848096Y38486511D01*
X4907594Y38569311D01*
X4975435Y38663723D01*
X4978453Y38667923D01*
X5077430Y38868189D01*
X5142370Y39081931D01*
X5171529Y39303410D01*
X5173156Y39370000D01*
X5154852Y39592639D01*
X5100431Y39809298D01*
X5011354Y40014160D01*
X4891638Y40199213D01*
X4891637Y40199215D01*
X4890014Y40201723D01*
X4890532Y40202058D01*
X4866151Y40264798D01*
X4880295Y40334371D01*
X4929808Y40385254D01*
X4991696Y40401500D01*
X6942969Y40401500D01*
X7011090Y40381498D01*
X7032064Y40364595D01*
X9691625Y37705034D01*
X9697044Y37699264D01*
X9740350Y37650142D01*
X9740353Y37650139D01*
X9743698Y37646345D01*
X9747606Y37643135D01*
X9747607Y37643134D01*
X9775989Y37619821D01*
X9785108Y37611551D01*
X9884595Y37512064D01*
X9918621Y37449752D01*
X9921500Y37422969D01*
X9921500Y15440828D01*
X9921253Y15432946D01*
X9920001Y15413051D01*
X9918415Y15399547D01*
X9912821Y15367164D01*
X9911500Y15338075D01*
X9911500Y15281892D01*
X9911251Y15273981D01*
X9906822Y15203587D01*
X9907316Y15198552D01*
X9910899Y15162008D01*
X9911500Y15149712D01*
X9911500Y8123999D01*
X9911702Y8121491D01*
X9911702Y8121486D01*
X9917943Y8043926D01*
X9926060Y7943035D01*
X9983963Y7707294D01*
X10078812Y7483844D01*
X10208167Y7278433D01*
X10211512Y7274639D01*
X10365350Y7100142D01*
X10365353Y7100139D01*
X10368698Y7096345D01*
X10372606Y7093135D01*
X10372607Y7093134D01*
X10479242Y7005544D01*
X10556278Y6942266D01*
X10766078Y6820159D01*
X10770801Y6818346D01*
X10987978Y6734980D01*
X10987982Y6734979D01*
X10992702Y6733167D01*
X10997652Y6732133D01*
X10997655Y6732132D01*
X11225369Y6684560D01*
X11225373Y6684560D01*
X11230320Y6683526D01*
X11472817Y6672514D01*
X11477837Y6673095D01*
X11477841Y6673095D01*
X11708929Y6699833D01*
X11708933Y6699834D01*
X11713956Y6700415D01*
X11718820Y6701791D01*
X11718823Y6701792D01*
X11942669Y6765134D01*
X11942668Y6765134D01*
X11947532Y6766510D01*
X11952108Y6768644D01*
X11952114Y6768646D01*
X12162954Y6866962D01*
X12162958Y6866964D01*
X12167536Y6869099D01*
X12368307Y7005544D01*
X12544681Y7172332D01*
X12589465Y7230907D01*
X12646730Y7272875D01*
X12717593Y7277220D01*
X12784075Y7237703D01*
X12905350Y7100142D01*
X12905353Y7100139D01*
X12908698Y7096345D01*
X12912606Y7093135D01*
X12912607Y7093134D01*
X13019242Y7005544D01*
X13096278Y6942266D01*
X13306078Y6820159D01*
X13310801Y6818346D01*
X13527978Y6734980D01*
X13527982Y6734979D01*
X13532702Y6733167D01*
X13537652Y6732133D01*
X13537655Y6732132D01*
X13765369Y6684560D01*
X13765373Y6684560D01*
X13770320Y6683526D01*
X14012817Y6672514D01*
X14017837Y6673095D01*
X14017841Y6673095D01*
X14248929Y6699833D01*
X14248933Y6699834D01*
X14253956Y6700415D01*
X14258820Y6701791D01*
X14258823Y6701792D01*
X14482669Y6765134D01*
X14482668Y6765134D01*
X14487532Y6766510D01*
X14492108Y6768644D01*
X14492114Y6768646D01*
X14702954Y6866962D01*
X14702958Y6866964D01*
X14707536Y6869099D01*
X14908307Y7005544D01*
X15084681Y7172332D01*
X15129465Y7230907D01*
X15186730Y7272875D01*
X15257593Y7277220D01*
X15324075Y7237703D01*
X15445350Y7100142D01*
X15445353Y7100139D01*
X15448698Y7096345D01*
X15452606Y7093135D01*
X15452607Y7093134D01*
X15559242Y7005544D01*
X15636278Y6942266D01*
X15846078Y6820159D01*
X15850801Y6818346D01*
X16067978Y6734980D01*
X16067982Y6734979D01*
X16072702Y6733167D01*
X16077652Y6732133D01*
X16077655Y6732132D01*
X16305369Y6684560D01*
X16305373Y6684560D01*
X16310320Y6683526D01*
X16552817Y6672514D01*
X16557837Y6673095D01*
X16557841Y6673095D01*
X16788929Y6699833D01*
X16788933Y6699834D01*
X16793956Y6700415D01*
X16798820Y6701791D01*
X16798823Y6701792D01*
X17022669Y6765134D01*
X17022668Y6765134D01*
X17027532Y6766510D01*
X17032108Y6768644D01*
X17032114Y6768646D01*
X17242954Y6866962D01*
X17242958Y6866964D01*
X17247536Y6869099D01*
X17448307Y7005544D01*
X17624681Y7172332D01*
X17704874Y7277220D01*
X17769047Y7361154D01*
X17769050Y7361158D01*
X17772120Y7365174D01*
X17886831Y7579109D01*
X17965862Y7808631D01*
X18007179Y8047836D01*
X18008500Y8076925D01*
X18008500Y14552969D01*
X18028502Y14621090D01*
X18045405Y14642064D01*
X20907936Y17504595D01*
X20970248Y17538621D01*
X20997031Y17541500D01*
X26731001Y17541500D01*
X26733509Y17541702D01*
X26733514Y17541702D01*
X26906924Y17555654D01*
X26906929Y17555655D01*
X26911965Y17556060D01*
X26916873Y17557266D01*
X26916876Y17557266D01*
X27142792Y17612756D01*
X27147706Y17613963D01*
X27152358Y17615938D01*
X27152362Y17615939D01*
X27306776Y17681484D01*
X27356008Y17691500D01*
X27568134Y17691500D01*
X27630316Y17698255D01*
X27766705Y17749385D01*
X27883261Y17836739D01*
X27970615Y17953295D01*
X28021745Y18089684D01*
X28028500Y18151866D01*
X28028500Y18356207D01*
X28036869Y18401361D01*
X28120020Y18617978D01*
X28120021Y18617982D01*
X28121833Y18622702D01*
X28171474Y18860320D01*
X28182486Y19102817D01*
X28154585Y19343956D01*
X28088490Y19577532D01*
X28086356Y19582108D01*
X28086354Y19582114D01*
X28040305Y19680866D01*
X28028500Y19734116D01*
X28028500Y19948134D01*
X28021745Y20010316D01*
X27970615Y20146705D01*
X27883261Y20263261D01*
X27766705Y20350615D01*
X27630316Y20401745D01*
X27568134Y20408500D01*
X27360376Y20408500D01*
X27300836Y20423455D01*
X27275891Y20436831D01*
X27046369Y20515862D01*
X26929184Y20536103D01*
X26811074Y20556504D01*
X26811068Y20556505D01*
X26807164Y20557179D01*
X26803203Y20557359D01*
X26803202Y20557359D01*
X26779494Y20558436D01*
X26779475Y20558436D01*
X26778075Y20558500D01*
X20344016Y20558500D01*
X20340498Y20558549D01*
X20245850Y20561193D01*
X20245847Y20561193D01*
X20240795Y20561334D01*
X20162902Y20550941D01*
X20156361Y20550242D01*
X20127668Y20547933D01*
X20083077Y20544346D01*
X20083073Y20544345D01*
X20078035Y20543940D01*
X20046122Y20536101D01*
X20032742Y20533574D01*
X20000180Y20529229D01*
X19995339Y20527768D01*
X19995337Y20527767D01*
X19924971Y20506522D01*
X19918610Y20504781D01*
X19842294Y20486037D01*
X19837634Y20484059D01*
X19812049Y20473199D01*
X19799239Y20468562D01*
X19767792Y20459067D01*
X19763244Y20456849D01*
X19763237Y20456846D01*
X19697182Y20424629D01*
X19691180Y20421893D01*
X19646496Y20402925D01*
X19618844Y20391188D01*
X19594532Y20375877D01*
X19591044Y20373681D01*
X19579140Y20367055D01*
X19549612Y20352654D01*
X19545475Y20349735D01*
X19545474Y20349735D01*
X19485403Y20307359D01*
X19479914Y20303699D01*
X19424245Y20268642D01*
X19413433Y20261833D01*
X19409644Y20258492D01*
X19409638Y20258488D01*
X19388783Y20240102D01*
X19378088Y20231656D01*
X19351253Y20212726D01*
X19329750Y20193091D01*
X19290034Y20153375D01*
X19284264Y20147956D01*
X19235142Y20104650D01*
X19235139Y20104647D01*
X19231345Y20101302D01*
X19228135Y20097394D01*
X19228134Y20097393D01*
X19204821Y20069011D01*
X19196551Y20059892D01*
X15683595Y16546936D01*
X15621283Y16512910D01*
X15550468Y16517975D01*
X15493632Y16560522D01*
X15468821Y16627042D01*
X15468500Y16636031D01*
X15468500Y34872969D01*
X15488502Y34941090D01*
X15505405Y34962064D01*
X18367936Y37824595D01*
X18430248Y37858621D01*
X18457031Y37861500D01*
X26731001Y37861500D01*
X26733509Y37861702D01*
X26733514Y37861702D01*
X26906924Y37875654D01*
X26906929Y37875655D01*
X26911965Y37876060D01*
X26916873Y37877266D01*
X26916876Y37877266D01*
X27142792Y37932756D01*
X27147706Y37933963D01*
X27152358Y37935938D01*
X27152362Y37935939D01*
X27341993Y38016433D01*
X27371156Y38028812D01*
X27489131Y38103105D01*
X27572288Y38155472D01*
X27572291Y38155474D01*
X27576567Y38158167D01*
X27688301Y38256673D01*
X27754858Y38315350D01*
X27754861Y38315353D01*
X27758655Y38318698D01*
X27761866Y38322607D01*
X27909526Y38502372D01*
X27909528Y38502375D01*
X27912734Y38506278D01*
X28034841Y38716078D01*
X28036654Y38720801D01*
X28120020Y38937978D01*
X28120021Y38937982D01*
X28121833Y38942702D01*
X28149885Y39076977D01*
X28170440Y39175369D01*
X28170440Y39175373D01*
X28171474Y39180320D01*
X28182486Y39422817D01*
X28159043Y39625430D01*
X28155167Y39658929D01*
X28155166Y39658933D01*
X28154585Y39663956D01*
X28088490Y39897532D01*
X28086356Y39902108D01*
X28086354Y39902114D01*
X27988038Y40112954D01*
X27988036Y40112958D01*
X27985901Y40117536D01*
X27849456Y40318307D01*
X27845977Y40321986D01*
X27845973Y40321991D01*
X27751126Y40422289D01*
X27718854Y40485527D01*
X27725894Y40556174D01*
X27767109Y40609688D01*
X27773892Y40614771D01*
X27883261Y40696739D01*
X27970615Y40813295D01*
X28021745Y40949684D01*
X28028500Y41011866D01*
X28028500Y41216207D01*
X28036869Y41261361D01*
X28120020Y41477978D01*
X28120021Y41477982D01*
X28121833Y41482702D01*
X28171474Y41720320D01*
X28182486Y41962817D01*
X28167235Y42094627D01*
X28155167Y42198929D01*
X28155166Y42198933D01*
X28154585Y42203956D01*
X28115517Y42342022D01*
X28089866Y42432669D01*
X28088490Y42437532D01*
X28086356Y42442108D01*
X28086354Y42442114D01*
X28040305Y42540866D01*
X28028500Y42594116D01*
X28028500Y42808134D01*
X28021745Y42870316D01*
X27970615Y43006705D01*
X27883261Y43123261D01*
X27766705Y43210615D01*
X27630316Y43261745D01*
X27568134Y43268500D01*
X27360376Y43268500D01*
X27300836Y43283455D01*
X27275891Y43296831D01*
X27046369Y43375862D01*
X26947022Y43393022D01*
X26811074Y43416504D01*
X26811068Y43416505D01*
X26807164Y43417179D01*
X26803203Y43417359D01*
X26803202Y43417359D01*
X26779494Y43418436D01*
X26779475Y43418436D01*
X26778075Y43418500D01*
X15264016Y43418500D01*
X15260498Y43418549D01*
X15165850Y43421193D01*
X15165847Y43421193D01*
X15160795Y43421334D01*
X15147850Y43419607D01*
X15131188Y43418500D01*
X12724002Y43418500D01*
X12720483Y43418549D01*
X12625850Y43421193D01*
X12625847Y43421193D01*
X12620795Y43421334D01*
X12607850Y43419607D01*
X12591188Y43418500D01*
X11454016Y43418500D01*
X11450498Y43418549D01*
X11355850Y43421193D01*
X11355847Y43421193D01*
X11350795Y43421334D01*
X11337850Y43419607D01*
X11321188Y43418500D01*
X7671892Y43418500D01*
X7663980Y43418749D01*
X7658386Y43419101D01*
X7593587Y43423178D01*
X7557169Y43419607D01*
X7552008Y43419101D01*
X7539712Y43418500D01*
X3748999Y43418500D01*
X3746491Y43418298D01*
X3746486Y43418298D01*
X3573076Y43404346D01*
X3573071Y43404345D01*
X3568035Y43403940D01*
X3563127Y43402734D01*
X3563124Y43402734D01*
X3447007Y43374213D01*
X3332294Y43346037D01*
X3327642Y43344062D01*
X3327638Y43344061D01*
X3173224Y43278516D01*
X3123992Y43268500D01*
X2911866Y43268500D01*
X2849684Y43261745D01*
X2713295Y43210615D01*
X2596739Y43123261D01*
X2509385Y43006705D01*
X2458255Y42870316D01*
X2451500Y42808134D01*
X2451500Y42603793D01*
X2443131Y42558639D01*
X2398402Y42442114D01*
X2358167Y42337298D01*
X2308526Y42099680D01*
X2297514Y41857183D01*
X508000Y41857183D01*
X508000Y52070000D01*
X1296540Y52070000D01*
X1316359Y51754980D01*
X1375505Y51444928D01*
X1473044Y51144734D01*
X1474731Y51141148D01*
X1474733Y51141144D01*
X1605750Y50862717D01*
X1605754Y50862710D01*
X1607438Y50859131D01*
X1776568Y50592625D01*
X1977767Y50349418D01*
X2207860Y50133346D01*
X2463221Y49947816D01*
X2739821Y49795753D01*
X2743490Y49794300D01*
X2743495Y49794298D01*
X3029628Y49681010D01*
X3033298Y49679557D01*
X3339025Y49601060D01*
X3652179Y49561500D01*
X3967821Y49561500D01*
X4280975Y49601060D01*
X4586702Y49679557D01*
X4590372Y49681010D01*
X4876505Y49794298D01*
X4876510Y49794300D01*
X4880179Y49795753D01*
X5156779Y49947816D01*
X5412140Y50133346D01*
X5642233Y50349418D01*
X5843432Y50592625D01*
X6012562Y50859131D01*
X6014246Y50862710D01*
X6014250Y50862717D01*
X6145267Y51141144D01*
X6145269Y51141148D01*
X6146956Y51144734D01*
X6244495Y51444928D01*
X6303641Y51754980D01*
X6323460Y52070000D01*
X24156540Y52070000D01*
X24176359Y51754980D01*
X24235505Y51444928D01*
X24333044Y51144734D01*
X24334731Y51141148D01*
X24334733Y51141144D01*
X24465750Y50862717D01*
X24465754Y50862710D01*
X24467438Y50859131D01*
X24636568Y50592625D01*
X24837767Y50349418D01*
X25067860Y50133346D01*
X25323221Y49947816D01*
X25599821Y49795753D01*
X25603490Y49794300D01*
X25603495Y49794298D01*
X25889628Y49681010D01*
X25893298Y49679557D01*
X26199025Y49601060D01*
X26512179Y49561500D01*
X26827821Y49561500D01*
X27140975Y49601060D01*
X27446702Y49679557D01*
X27450372Y49681010D01*
X27736505Y49794298D01*
X27736510Y49794300D01*
X27740179Y49795753D01*
X28016779Y49947816D01*
X28272140Y50133346D01*
X28502233Y50349418D01*
X28703432Y50592625D01*
X28872562Y50859131D01*
X28874246Y50862710D01*
X28874250Y50862717D01*
X29005267Y51141144D01*
X29005269Y51141148D01*
X29006956Y51144734D01*
X29104495Y51444928D01*
X29163641Y51754980D01*
X29183460Y52070000D01*
X29163641Y52385020D01*
X29104495Y52695072D01*
X29006956Y52995266D01*
X29005267Y52998856D01*
X28874250Y53277283D01*
X28874246Y53277290D01*
X28872562Y53280869D01*
X28703432Y53547375D01*
X28502233Y53790582D01*
X28272140Y54006654D01*
X28016779Y54192184D01*
X27740179Y54344247D01*
X27736510Y54345700D01*
X27736505Y54345702D01*
X27450372Y54458990D01*
X27450371Y54458990D01*
X27446702Y54460443D01*
X27140975Y54538940D01*
X26827821Y54578500D01*
X26512179Y54578500D01*
X26199025Y54538940D01*
X25893298Y54460443D01*
X25889629Y54458990D01*
X25889628Y54458990D01*
X25603495Y54345702D01*
X25603490Y54345700D01*
X25599821Y54344247D01*
X25323221Y54192184D01*
X25067860Y54006654D01*
X24837767Y53790582D01*
X24636568Y53547375D01*
X24467438Y53280869D01*
X24465754Y53277290D01*
X24465750Y53277283D01*
X24334733Y52998856D01*
X24333044Y52995266D01*
X24235505Y52695072D01*
X24176359Y52385020D01*
X24156540Y52070000D01*
X6323460Y52070000D01*
X6303641Y52385020D01*
X6244495Y52695072D01*
X6146956Y52995266D01*
X6145267Y52998856D01*
X6014250Y53277283D01*
X6014246Y53277290D01*
X6012562Y53280869D01*
X5843432Y53547375D01*
X5642233Y53790582D01*
X5412140Y54006654D01*
X5156779Y54192184D01*
X4880179Y54344247D01*
X4876510Y54345700D01*
X4876505Y54345702D01*
X4590372Y54458990D01*
X4590371Y54458990D01*
X4586702Y54460443D01*
X4280975Y54538940D01*
X3967821Y54578500D01*
X3652179Y54578500D01*
X3339025Y54538940D01*
X3033298Y54460443D01*
X3029629Y54458990D01*
X3029628Y54458990D01*
X2743495Y54345702D01*
X2743490Y54345700D01*
X2739821Y54344247D01*
X2463221Y54192184D01*
X2207860Y54006654D01*
X1977767Y53790582D01*
X1776568Y53547375D01*
X1607438Y53280869D01*
X1605754Y53277290D01*
X1605750Y53277283D01*
X1474733Y52998856D01*
X1473044Y52995266D01*
X1375505Y52695072D01*
X1316359Y52385020D01*
X1296540Y52070000D01*
X508000Y52070000D01*
X508000Y55246000D01*
X528002Y55314121D01*
X581658Y55360614D01*
X634000Y55372000D01*
X29846000Y55372000D01*
X29914121Y55351998D01*
G37*
%TD.AperFunction*%
%TD*%
M02*
