%TF.GenerationSoftware,KiCad,Pcbnew,(6.0.0)*%
%TF.CreationDate,2022-10-11T16:26:00+09:00*%
%TF.ProjectId,JoyStick,4a6f7953-7469-4636-9b2e-6b696361645f,rev?*%
%TF.SameCoordinates,PX5d42830PY70a3730*%
%TF.FileFunction,Legend,Top*%
%TF.FilePolarity,Positive*%
%FSLAX46Y46*%
G04 Gerber Fmt 4.6, Leading zero omitted, Abs format (unit mm)*
G04 Created by KiCad (PCBNEW (6.0.0)) date 2022-10-11 16:26:00*
%MOMM*%
%LPD*%
G01*
G04 APERTURE LIST*
%ADD10C,0.150000*%
%ADD11C,0.120000*%
G04 APERTURE END LIST*
D10*
X1270000Y46990000D02*
X29210000Y46990000D01*
X1270000Y11430000D02*
X1270000Y46990000D01*
X29210000Y11430000D02*
X1270000Y11430000D01*
X29210000Y46990000D02*
X29210000Y11430000D01*
%TO.C,J5*%
X20762380Y3466667D02*
X21476666Y3466667D01*
X21619523Y3419048D01*
X21714761Y3323810D01*
X21762380Y3180953D01*
X21762380Y3085715D01*
X20762380Y4419048D02*
X20762380Y3942858D01*
X21238571Y3895239D01*
X21190952Y3942858D01*
X21143333Y4038096D01*
X21143333Y4276191D01*
X21190952Y4371429D01*
X21238571Y4419048D01*
X21333809Y4466667D01*
X21571904Y4466667D01*
X21667142Y4419048D01*
X21714761Y4371429D01*
X21762380Y4276191D01*
X21762380Y4038096D01*
X21714761Y3942858D01*
X21667142Y3895239D01*
%TO.C,J4*%
X26336666Y21927620D02*
X26336666Y21213334D01*
X26289047Y21070477D01*
X26193809Y20975239D01*
X26050952Y20927620D01*
X25955714Y20927620D01*
X27241428Y21594286D02*
X27241428Y20927620D01*
X27003333Y21975239D02*
X26765238Y21260953D01*
X27384285Y21260953D01*
%TO.C,J3*%
X3476666Y21927620D02*
X3476666Y21213334D01*
X3429047Y21070477D01*
X3333809Y20975239D01*
X3190952Y20927620D01*
X3095714Y20927620D01*
X3857619Y21927620D02*
X4476666Y21927620D01*
X4143333Y21546667D01*
X4286190Y21546667D01*
X4381428Y21499048D01*
X4429047Y21451429D01*
X4476666Y21356191D01*
X4476666Y21118096D01*
X4429047Y21022858D01*
X4381428Y20975239D01*
X4286190Y20927620D01*
X4000476Y20927620D01*
X3905238Y20975239D01*
X3857619Y21022858D01*
%TO.C,J2*%
X26336666Y44787620D02*
X26336666Y44073334D01*
X26289047Y43930477D01*
X26193809Y43835239D01*
X26050952Y43787620D01*
X25955714Y43787620D01*
X26765238Y44692381D02*
X26812857Y44740000D01*
X26908095Y44787620D01*
X27146190Y44787620D01*
X27241428Y44740000D01*
X27289047Y44692381D01*
X27336666Y44597143D01*
X27336666Y44501905D01*
X27289047Y44359048D01*
X26717619Y43787620D01*
X27336666Y43787620D01*
%TO.C,J1*%
X3476666Y44787620D02*
X3476666Y44073334D01*
X3429047Y43930477D01*
X3333809Y43835239D01*
X3190952Y43787620D01*
X3095714Y43787620D01*
X4476666Y43787620D02*
X3905238Y43787620D01*
X4190952Y43787620D02*
X4190952Y44787620D01*
X4095714Y44644762D01*
X4000476Y44549524D01*
X3905238Y44501905D01*
D11*
%TO.C,J5*%
X20370000Y6745000D02*
X10090000Y6745000D01*
X10090000Y6745000D02*
X10090000Y4085000D01*
X10090000Y4085000D02*
X20370000Y4085000D01*
X20370000Y4085000D02*
X20370000Y6745000D01*
X19420000Y4085000D02*
X19420000Y-1915000D01*
X19420000Y-1915000D02*
X18660000Y-1915000D01*
X18660000Y-1915000D02*
X18660000Y4085000D01*
X19360000Y4085000D02*
X19360000Y-1915000D01*
X19240000Y4085000D02*
X19240000Y-1915000D01*
X19120000Y4085000D02*
X19120000Y-1915000D01*
X19000000Y4085000D02*
X19000000Y-1915000D01*
X18880000Y4085000D02*
X18880000Y-1915000D01*
X18760000Y4085000D02*
X18760000Y-1915000D01*
X19420000Y7075000D02*
X19420000Y6745000D01*
X18660000Y7075000D02*
X18660000Y6745000D01*
X17770000Y6745000D02*
X17770000Y4085000D01*
X16880000Y4085000D02*
X16880000Y-1915000D01*
X16880000Y-1915000D02*
X16120000Y-1915000D01*
X16120000Y-1915000D02*
X16120000Y4085000D01*
X16880000Y7142071D02*
X16880000Y6745000D01*
X16120000Y7142071D02*
X16120000Y6745000D01*
X15230000Y6745000D02*
X15230000Y4085000D01*
X14340000Y4085000D02*
X14340000Y-1915000D01*
X14340000Y-1915000D02*
X13580000Y-1915000D01*
X13580000Y-1915000D02*
X13580000Y4085000D01*
X14340000Y7142071D02*
X14340000Y6745000D01*
X13580000Y7142071D02*
X13580000Y6745000D01*
X12690000Y6745000D02*
X12690000Y4085000D01*
X11800000Y4085000D02*
X11800000Y-1915000D01*
X11800000Y-1915000D02*
X11040000Y-1915000D01*
X11040000Y-1915000D02*
X11040000Y4085000D01*
X11800000Y7142071D02*
X11800000Y6745000D01*
X11040000Y7142071D02*
X11040000Y6745000D01*
X19040000Y9455000D02*
X20310000Y9455000D01*
X20310000Y9455000D02*
X20310000Y8185000D01*
%TO.C,J4*%
X25340000Y15180000D02*
X28000000Y15180000D01*
X25340000Y17780000D02*
X25340000Y15180000D01*
X28000000Y17780000D02*
X28000000Y15180000D01*
X25340000Y17780000D02*
X28000000Y17780000D01*
X25340000Y19050000D02*
X25340000Y20380000D01*
X25340000Y20380000D02*
X26670000Y20380000D01*
%TO.C,J3*%
X2480000Y15180000D02*
X5140000Y15180000D01*
X2480000Y17780000D02*
X2480000Y15180000D01*
X5140000Y17780000D02*
X5140000Y15180000D01*
X2480000Y17780000D02*
X5140000Y17780000D01*
X2480000Y19050000D02*
X2480000Y20380000D01*
X2480000Y20380000D02*
X3810000Y20380000D01*
%TO.C,J2*%
X25340000Y38040000D02*
X28000000Y38040000D01*
X25340000Y40640000D02*
X25340000Y38040000D01*
X28000000Y40640000D02*
X28000000Y38040000D01*
X25340000Y40640000D02*
X28000000Y40640000D01*
X25340000Y41910000D02*
X25340000Y43240000D01*
X25340000Y43240000D02*
X26670000Y43240000D01*
%TO.C,J1*%
X2480000Y38040000D02*
X5140000Y38040000D01*
X2480000Y40640000D02*
X2480000Y38040000D01*
X5140000Y40640000D02*
X5140000Y38040000D01*
X2480000Y40640000D02*
X5140000Y40640000D01*
X2480000Y41910000D02*
X2480000Y43240000D01*
X2480000Y43240000D02*
X3810000Y43240000D01*
%TD*%
M02*
