%TF.GenerationSoftware,KiCad,Pcbnew,(6.0.0)*%
%TF.CreationDate,2022-10-22T09:14:52+09:00*%
%TF.ProjectId,Controller2022_ver0.1,436f6e74-726f-46c6-9c65-72323032325f,rev?*%
%TF.SameCoordinates,PX14703d20PYda028c0*%
%TF.FileFunction,Paste,Bot*%
%TF.FilePolarity,Positive*%
%FSLAX46Y46*%
G04 Gerber Fmt 4.6, Leading zero omitted, Abs format (unit mm)*
G04 Created by KiCad (PCBNEW (6.0.0)) date 2022-10-22 09:14:52*
%MOMM*%
%LPD*%
G01*
G04 APERTURE LIST*
G04 Aperture macros list*
%AMRoundRect*
0 Rectangle with rounded corners*
0 $1 Rounding radius*
0 $2 $3 $4 $5 $6 $7 $8 $9 X,Y pos of 4 corners*
0 Add a 4 corners polygon primitive as box body*
4,1,4,$2,$3,$4,$5,$6,$7,$8,$9,$2,$3,0*
0 Add four circle primitives for the rounded corners*
1,1,$1+$1,$2,$3*
1,1,$1+$1,$4,$5*
1,1,$1+$1,$6,$7*
1,1,$1+$1,$8,$9*
0 Add four rect primitives between the rounded corners*
20,1,$1+$1,$2,$3,$4,$5,0*
20,1,$1+$1,$4,$5,$6,$7,0*
20,1,$1+$1,$6,$7,$8,$9,0*
20,1,$1+$1,$8,$9,$2,$3,0*%
G04 Aperture macros list end*
%ADD10RoundRect,0.250000X-0.350000X-0.450000X0.350000X-0.450000X0.350000X0.450000X-0.350000X0.450000X0*%
%ADD11R,2.510000X1.000000*%
%ADD12RoundRect,0.250000X-0.450000X0.350000X-0.450000X-0.350000X0.450000X-0.350000X0.450000X0.350000X0*%
%ADD13RoundRect,0.250000X0.450000X-0.350000X0.450000X0.350000X-0.450000X0.350000X-0.450000X-0.350000X0*%
%ADD14R,1.000000X3.150000*%
G04 APERTURE END LIST*
D10*
%TO.C,R15*%
X52340000Y144780000D03*
X54340000Y144780000D03*
%TD*%
%TO.C,R20*%
X87900000Y144780000D03*
X89900000Y144780000D03*
%TD*%
D11*
%TO.C,J4*%
X108335000Y95885000D03*
X105025000Y98425000D03*
X108335000Y100965000D03*
X105025000Y103505000D03*
X108335000Y106045000D03*
X105025000Y108585000D03*
X108335000Y111125000D03*
X105025000Y113665000D03*
X108335000Y116205000D03*
X105025000Y118745000D03*
X108335000Y121285000D03*
X105025000Y123825000D03*
X108335000Y126365000D03*
X105025000Y128905000D03*
X108335000Y131445000D03*
%TD*%
D12*
%TO.C,R5*%
X10160000Y102600000D03*
X10160000Y100600000D03*
%TD*%
%TO.C,R4*%
X10160000Y74660000D03*
X10160000Y72660000D03*
%TD*%
D10*
%TO.C,R17*%
X87900000Y38100000D03*
X89900000Y38100000D03*
%TD*%
%TO.C,R14*%
X52340000Y109220000D03*
X54340000Y109220000D03*
%TD*%
%TO.C,R13*%
X52340000Y73660000D03*
X54340000Y73660000D03*
%TD*%
D13*
%TO.C,R1*%
X151120000Y58960000D03*
X151120000Y60960000D03*
%TD*%
D12*
%TO.C,R8*%
X10160000Y186420000D03*
X10160000Y184420000D03*
%TD*%
D10*
%TO.C,R21*%
X87900000Y180340000D03*
X89900000Y180340000D03*
%TD*%
D11*
%TO.C,J5*%
X120900000Y95885000D03*
X124210000Y98425000D03*
X120900000Y100965000D03*
X124210000Y103505000D03*
X120900000Y106045000D03*
X124210000Y108585000D03*
X120900000Y111125000D03*
X124210000Y113665000D03*
X120900000Y116205000D03*
X124210000Y118745000D03*
X120900000Y121285000D03*
X124210000Y123825000D03*
X120900000Y126365000D03*
X124210000Y128905000D03*
X120900000Y131445000D03*
%TD*%
D13*
%TO.C,R9*%
X10160000Y202200000D03*
X10160000Y204200000D03*
%TD*%
D12*
%TO.C,R22*%
X186690000Y195945000D03*
X186690000Y193945000D03*
%TD*%
D14*
%TO.C,J2*%
X185420000Y81955000D03*
X185420000Y87005000D03*
X182880000Y81955000D03*
X182880000Y87005000D03*
X180340000Y81955000D03*
X180340000Y87005000D03*
X177800000Y81955000D03*
X177800000Y87005000D03*
X175260000Y81955000D03*
X175260000Y87005000D03*
X172720000Y81955000D03*
X172720000Y87005000D03*
X170180000Y81955000D03*
X170180000Y87005000D03*
X167640000Y81955000D03*
X167640000Y87005000D03*
X165100000Y81955000D03*
X165100000Y87005000D03*
X162560000Y81955000D03*
X162560000Y87005000D03*
X160020000Y81955000D03*
X160020000Y87005000D03*
X157480000Y81955000D03*
X157480000Y87005000D03*
X154940000Y81955000D03*
X154940000Y87005000D03*
X152400000Y81955000D03*
X152400000Y87005000D03*
X149860000Y81955000D03*
X149860000Y87005000D03*
X147320000Y81955000D03*
X147320000Y87005000D03*
X144780000Y81955000D03*
X144780000Y87005000D03*
X142240000Y81955000D03*
X142240000Y87005000D03*
X139700000Y81955000D03*
X139700000Y87005000D03*
%TD*%
D10*
%TO.C,R16*%
X52340000Y180340000D03*
X54340000Y180340000D03*
%TD*%
D13*
%TO.C,R10*%
X10160000Y227600000D03*
X10160000Y229600000D03*
%TD*%
D14*
%TO.C,J3*%
X185420000Y142900000D03*
X185420000Y147950000D03*
X182880000Y142900000D03*
X182880000Y147950000D03*
X180340000Y142900000D03*
X180340000Y147950000D03*
X177800000Y142900000D03*
X177800000Y147950000D03*
X175260000Y142900000D03*
X175260000Y147950000D03*
X172720000Y142900000D03*
X172720000Y147950000D03*
X170180000Y142900000D03*
X170180000Y147950000D03*
X167640000Y142900000D03*
X167640000Y147950000D03*
X165100000Y142900000D03*
X165100000Y147950000D03*
X162560000Y142900000D03*
X162560000Y147950000D03*
X160020000Y142900000D03*
X160020000Y147950000D03*
X157480000Y142900000D03*
X157480000Y147950000D03*
X154940000Y142900000D03*
X154940000Y147950000D03*
X152400000Y142900000D03*
X152400000Y147950000D03*
X149860000Y142900000D03*
X149860000Y147950000D03*
X147320000Y142900000D03*
X147320000Y147950000D03*
X144780000Y142900000D03*
X144780000Y147950000D03*
X142240000Y142900000D03*
X142240000Y147950000D03*
X139700000Y142900000D03*
X139700000Y147950000D03*
%TD*%
D12*
%TO.C,R2*%
X10160000Y21320000D03*
X10160000Y19320000D03*
%TD*%
D10*
%TO.C,R11*%
X134890000Y31750000D03*
X136890000Y31750000D03*
%TD*%
D12*
%TO.C,R3*%
X10160000Y46720000D03*
X10160000Y44720000D03*
%TD*%
D10*
%TO.C,R12*%
X52340000Y38100000D03*
X54340000Y38100000D03*
%TD*%
%TO.C,R18*%
X87900000Y73660000D03*
X89900000Y73660000D03*
%TD*%
%TO.C,R19*%
X87900000Y109220000D03*
X89900000Y109220000D03*
%TD*%
D13*
%TO.C,R7*%
X10160000Y146320000D03*
X10160000Y148320000D03*
%TD*%
D12*
%TO.C,R6*%
X10160000Y130540000D03*
X10160000Y128540000D03*
%TD*%
M02*
