%TF.GenerationSoftware,KiCad,Pcbnew,(6.0.0)*%
%TF.CreationDate,2022-10-22T09:14:52+09:00*%
%TF.ProjectId,Controller2022_ver0.1,436f6e74-726f-46c6-9c65-72323032325f,rev?*%
%TF.SameCoordinates,PX14703d20PYda028c0*%
%TF.FileFunction,Copper,L1,Top*%
%TF.FilePolarity,Positive*%
%FSLAX46Y46*%
G04 Gerber Fmt 4.6, Leading zero omitted, Abs format (unit mm)*
G04 Created by KiCad (PCBNEW (6.0.0)) date 2022-10-22 09:14:52*
%MOMM*%
%LPD*%
G01*
G04 APERTURE LIST*
%TA.AperFunction,ComponentPad*%
%ADD10R,1.800000X1.800000*%
%TD*%
%TA.AperFunction,ComponentPad*%
%ADD11C,1.800000*%
%TD*%
%TA.AperFunction,ComponentPad*%
%ADD12O,3.000000X2.500000*%
%TD*%
%TA.AperFunction,ComponentPad*%
%ADD13O,2.000000X3.800000*%
%TD*%
%TA.AperFunction,ComponentPad*%
%ADD14O,1.700000X3.400000*%
%TD*%
%TA.AperFunction,ComponentPad*%
%ADD15R,1.700000X1.700000*%
%TD*%
%TA.AperFunction,ComponentPad*%
%ADD16O,1.700000X1.700000*%
%TD*%
%TA.AperFunction,ComponentPad*%
%ADD17O,3.800000X2.000000*%
%TD*%
%TA.AperFunction,ComponentPad*%
%ADD18O,3.400000X1.700000*%
%TD*%
%TA.AperFunction,ComponentPad*%
%ADD19R,3.000000X4.500000*%
%TD*%
%TA.AperFunction,ComponentPad*%
%ADD20R,1.600000X1.600000*%
%TD*%
%TA.AperFunction,ComponentPad*%
%ADD21C,1.600000*%
%TD*%
%TA.AperFunction,ViaPad*%
%ADD22C,4.000000*%
%TD*%
%TA.AperFunction,ViaPad*%
%ADD23C,3.400000*%
%TD*%
%TA.AperFunction,ViaPad*%
%ADD24C,1.700000*%
%TD*%
%TA.AperFunction,Conductor*%
%ADD25C,1.000000*%
%TD*%
%TA.AperFunction,Conductor*%
%ADD26C,1.500000*%
%TD*%
%TA.AperFunction,Conductor*%
%ADD27C,2.000000*%
%TD*%
%TA.AperFunction,Conductor*%
%ADD28C,0.600000*%
%TD*%
G04 APERTURE END LIST*
D10*
%TO.P,D6,1,K*%
%TO.N,GND*%
X10160000Y153670000D03*
D11*
%TO.P,D6,2,A*%
%TO.N,Net-(D6-Pad2)*%
X10160000Y151130000D03*
%TD*%
D12*
%TO.P,SW9,1,1*%
%TO.N,/PB_12*%
X19150000Y205780000D03*
X31650000Y205780000D03*
%TO.P,SW9,2,2*%
%TO.N,GND*%
X31650000Y210780000D03*
X19150000Y210780000D03*
%TD*%
D10*
%TO.P,D17,1,K*%
%TO.N,/PB_9*%
X83820000Y71120000D03*
D11*
%TO.P,D17,2,A*%
%TO.N,Net-(D17-Pad2)*%
X83820000Y73660000D03*
%TD*%
D10*
%TO.P,D8,1,K*%
%TO.N,GND*%
X10160000Y209550000D03*
D11*
%TO.P,D8,2,A*%
%TO.N,Net-(D8-Pad2)*%
X10160000Y207010000D03*
%TD*%
D13*
%TO.P,SW16,*%
%TO.N,*%
X53340000Y170180000D03*
X63500000Y170180000D03*
D14*
%TO.P,SW16,1,A*%
%TO.N,/PB_15*%
X55880000Y170180000D03*
%TO.P,SW16,2,B*%
%TO.N,GND*%
X58420000Y170180000D03*
%TO.P,SW16,3,C*%
%TO.N,unconnected-(SW16-Pad3)*%
X60960000Y170180000D03*
%TD*%
D15*
%TO.P,J6,1,Pin_1*%
%TO.N,VCC*%
X133350000Y55880000D03*
D16*
%TO.P,J6,2,Pin_2*%
%TO.N,GND*%
X135890000Y55880000D03*
%TO.P,J6,3,Pin_3*%
%TO.N,/PH_1*%
X138430000Y55880000D03*
%TO.P,J6,4,Pin_4*%
%TO.N,/PC_13*%
X140970000Y55880000D03*
%TO.P,J6,5,Pin_5*%
%TO.N,/PB_7*%
X143510000Y55880000D03*
%TO.P,J6,6,Pin_6*%
%TO.N,/PC_3*%
X146050000Y55880000D03*
%TO.P,J6,7,Pin_7*%
%TO.N,/PC_7*%
X148590000Y55880000D03*
%TO.P,J6,8,Pin_8*%
%TO.N,/LED*%
X151130000Y55880000D03*
%TO.P,J6,9,Pin_9*%
%TO.N,/PC_2*%
X153670000Y55880000D03*
%TO.P,J6,10,Pin_10*%
%TO.N,unconnected-(J6-Pad10)*%
X156210000Y55880000D03*
%TO.P,J6,11,Pin_11*%
%TO.N,unconnected-(J6-Pad11)*%
X158750000Y55880000D03*
%TO.P,J6,12,Pin_12*%
%TO.N,unconnected-(J6-Pad12)*%
X161290000Y55880000D03*
%TO.P,J6,13,Pin_13*%
%TO.N,unconnected-(J6-Pad13)*%
X163830000Y55880000D03*
%TO.P,J6,14,Pin_14*%
%TO.N,unconnected-(J6-Pad14)*%
X166370000Y55880000D03*
%TD*%
D10*
%TO.P,D2,1,K*%
%TO.N,GND*%
X10160000Y39370000D03*
D11*
%TO.P,D2,2,A*%
%TO.N,Net-(D2-Pad2)*%
X10160000Y41910000D03*
%TD*%
D15*
%TO.P,J11,1,Pin_1*%
%TO.N,GND*%
X146040000Y11995000D03*
D16*
%TO.P,J11,2,Pin_2*%
%TO.N,/PC_0*%
X143500000Y11995000D03*
%TO.P,J11,3,Pin_3*%
%TO.N,/PC_1*%
X140960000Y11995000D03*
%TO.P,J11,4,Pin_4*%
%TO.N,+3V3*%
X138420000Y11995000D03*
%TD*%
D10*
%TO.P,D15,1,K*%
%TO.N,/PB_15*%
X48260000Y177800000D03*
D11*
%TO.P,D15,2,A*%
%TO.N,Net-(D15-Pad2)*%
X48260000Y180340000D03*
%TD*%
D10*
%TO.P,D10,1,K*%
%TO.N,/PA_15*%
X130810000Y34290000D03*
D11*
%TO.P,D10,2,A*%
%TO.N,Net-(D10-Pad2)*%
X130810000Y31750000D03*
%TD*%
D15*
%TO.P,J10,1,Pin_1*%
%TO.N,GND*%
X125740000Y236925000D03*
D16*
%TO.P,J10,2,Pin_2*%
%TO.N,/PA_7*%
X128280000Y236925000D03*
%TO.P,J10,3,Pin_3*%
%TO.N,/PA_6*%
X130820000Y236925000D03*
%TO.P,J10,4,Pin_4*%
%TO.N,+3V3*%
X133360000Y236925000D03*
%TD*%
D10*
%TO.P,D9,1,K*%
%TO.N,GND*%
X10160000Y234950000D03*
D11*
%TO.P,D9,2,A*%
%TO.N,Net-(D9-Pad2)*%
X10160000Y232410000D03*
%TD*%
D15*
%TO.P,J8,1,Pin_1*%
%TO.N,GND*%
X172725000Y236925000D03*
D16*
%TO.P,J8,2,Pin_2*%
%TO.N,unconnected-(J8-Pad2)*%
X175265000Y236925000D03*
%TO.P,J8,3,Pin_3*%
%TO.N,/PC_6*%
X177805000Y236925000D03*
%TO.P,J8,4,Pin_4*%
%TO.N,/PC_8*%
X180345000Y236925000D03*
%TO.P,J8,5,Pin_5*%
%TO.N,VCC*%
X182885000Y236925000D03*
%TD*%
D10*
%TO.P,D12,1,K*%
%TO.N,/PB_6*%
X48260000Y71120000D03*
D11*
%TO.P,D12,2,A*%
%TO.N,Net-(D12-Pad2)*%
X48260000Y73660000D03*
%TD*%
D13*
%TO.P,SW12,*%
%TO.N,*%
X53340000Y27940000D03*
X63500000Y27940000D03*
D14*
%TO.P,SW12,1,A*%
%TO.N,/PB_8*%
X55880000Y27940000D03*
%TO.P,SW12,2,B*%
%TO.N,GND*%
X58420000Y27940000D03*
%TO.P,SW12,3,C*%
%TO.N,unconnected-(SW12-Pad3)*%
X60960000Y27940000D03*
%TD*%
D13*
%TO.P,SW15,*%
%TO.N,*%
X53340000Y134620000D03*
X63500000Y134620000D03*
D14*
%TO.P,SW15,1,A*%
%TO.N,/PB_13*%
X55880000Y134620000D03*
%TO.P,SW15,2,B*%
%TO.N,GND*%
X58420000Y134620000D03*
%TO.P,SW15,3,C*%
%TO.N,unconnected-(SW15-Pad3)*%
X60960000Y134620000D03*
%TD*%
D10*
%TO.P,D21,1,K*%
%TO.N,GND*%
X186690000Y201930000D03*
D11*
%TO.P,D21,2,A*%
%TO.N,Net-(D21-Pad2)*%
X186690000Y199390000D03*
%TD*%
D12*
%TO.P,SW5,1,1*%
%TO.N,/PB_4*%
X31650000Y99020000D03*
X19150000Y99020000D03*
%TO.P,SW5,2,2*%
%TO.N,GND*%
X31650000Y94020000D03*
X19150000Y94020000D03*
%TD*%
%TO.P,SW3,1,1*%
%TO.N,/PA_8*%
X19150000Y43140000D03*
X31650000Y43140000D03*
%TO.P,SW3,2,2*%
%TO.N,GND*%
X19150000Y38140000D03*
X31650000Y38140000D03*
%TD*%
D13*
%TO.P,SW19,*%
%TO.N,*%
X88900000Y99060000D03*
X99060000Y99060000D03*
D14*
%TO.P,SW19,1,A*%
%TO.N,/PB_3*%
X91440000Y99060000D03*
%TO.P,SW19,2,B*%
%TO.N,GND*%
X93980000Y99060000D03*
%TO.P,SW19,3,C*%
%TO.N,unconnected-(SW19-Pad3)*%
X96520000Y99060000D03*
%TD*%
D12*
%TO.P,SW10,1,1*%
%TO.N,/PA_11*%
X31650000Y233720000D03*
X19150000Y233720000D03*
%TO.P,SW10,2,2*%
%TO.N,GND*%
X31650000Y238720000D03*
X19150000Y238720000D03*
%TD*%
D10*
%TO.P,D1,1,K*%
%TO.N,GND*%
X10160000Y13970000D03*
D11*
%TO.P,D1,2,A*%
%TO.N,Net-(D1-Pad2)*%
X10160000Y16510000D03*
%TD*%
D12*
%TO.P,SW2,1,1*%
%TO.N,/PA_9*%
X31650000Y15200000D03*
X19150000Y15200000D03*
%TO.P,SW2,2,2*%
%TO.N,GND*%
X19150000Y10200000D03*
X31650000Y10200000D03*
%TD*%
D10*
%TO.P,D13,1,K*%
%TO.N,/PB_5*%
X48260000Y106680000D03*
D11*
%TO.P,D13,2,A*%
%TO.N,Net-(D13-Pad2)*%
X48260000Y109220000D03*
%TD*%
D15*
%TO.P,J1,1,Pin_1*%
%TO.N,+5V*%
X186125000Y172720000D03*
D16*
%TO.P,J1,2,Pin_2*%
%TO.N,GND*%
X186125000Y170180000D03*
%TD*%
D12*
%TO.P,SW8,1,1*%
%TO.N,/PB_2*%
X19250000Y182880000D03*
X31750000Y182880000D03*
%TO.P,SW8,2,2*%
%TO.N,GND*%
X31750000Y177880000D03*
X19250000Y177880000D03*
%TD*%
D10*
%TO.P,D16,1,K*%
%TO.N,/PC_9*%
X83820000Y35560000D03*
D11*
%TO.P,D16,2,A*%
%TO.N,Net-(D16-Pad2)*%
X83820000Y38100000D03*
%TD*%
D13*
%TO.P,SW11,*%
%TO.N,*%
X154940000Y33020000D03*
X144780000Y33020000D03*
D14*
%TO.P,SW11,1,A*%
%TO.N,/PA_15*%
X147320000Y33020000D03*
%TO.P,SW11,2,B*%
%TO.N,GND*%
X149860000Y33020000D03*
%TO.P,SW11,3,C*%
%TO.N,unconnected-(SW11-Pad3)*%
X152400000Y33020000D03*
%TD*%
D13*
%TO.P,SW17,*%
%TO.N,*%
X99060000Y27940000D03*
X88900000Y27940000D03*
D14*
%TO.P,SW17,1,A*%
%TO.N,/PC_9*%
X91440000Y27940000D03*
%TO.P,SW17,2,B*%
%TO.N,GND*%
X93980000Y27940000D03*
%TO.P,SW17,3,C*%
%TO.N,unconnected-(SW17-Pad3)*%
X96520000Y27940000D03*
%TD*%
D10*
%TO.P,D14,1,K*%
%TO.N,/PB_13*%
X48260000Y142240000D03*
D11*
%TO.P,D14,2,A*%
%TO.N,Net-(D14-Pad2)*%
X48260000Y144780000D03*
%TD*%
D10*
%TO.P,D3,1,K*%
%TO.N,GND*%
X10160000Y67310000D03*
D11*
%TO.P,D3,2,A*%
%TO.N,Net-(D3-Pad2)*%
X10160000Y69850000D03*
%TD*%
D15*
%TO.P,J9,1,Pin_1*%
%TO.N,GND*%
X184150000Y11995000D03*
D16*
%TO.P,J9,2,Pin_2*%
%TO.N,/PD_2*%
X181610000Y11995000D03*
%TO.P,J9,3,Pin_3*%
%TO.N,/PC_11*%
X179070000Y11995000D03*
%TO.P,J9,4,Pin_4*%
%TO.N,/PC_10*%
X176530000Y11995000D03*
%TO.P,J9,5,Pin_5*%
%TO.N,/PC_12*%
X173990000Y11995000D03*
%TO.P,J9,6,Pin_6*%
%TO.N,+3V3*%
X171450000Y11995000D03*
%TD*%
D10*
%TO.P,D18,1,K*%
%TO.N,/PB_3*%
X83820000Y106680000D03*
D11*
%TO.P,D18,2,A*%
%TO.N,Net-(D18-Pad2)*%
X83820000Y109220000D03*
%TD*%
D13*
%TO.P,SW20,*%
%TO.N,*%
X88900000Y134620000D03*
X99060000Y134620000D03*
D14*
%TO.P,SW20,1,A*%
%TO.N,/PC_4*%
X91440000Y134620000D03*
%TO.P,SW20,2,B*%
%TO.N,GND*%
X93980000Y134620000D03*
%TO.P,SW20,3,C*%
%TO.N,unconnected-(SW20-Pad3)*%
X96520000Y134620000D03*
%TD*%
D17*
%TO.P,SW1,*%
%TO.N,*%
X186690000Y179705000D03*
X186690000Y189865000D03*
D18*
%TO.P,SW1,1,A*%
%TO.N,VCC*%
X186690000Y187325000D03*
%TO.P,SW1,2,B*%
%TO.N,+5V*%
X186690000Y184785000D03*
%TO.P,SW1,3,C*%
%TO.N,unconnected-(SW1-Pad3)*%
X186690000Y182245000D03*
%TD*%
D10*
%TO.P,D4,1,K*%
%TO.N,GND*%
X10160000Y95250000D03*
D11*
%TO.P,D4,2,A*%
%TO.N,Net-(D4-Pad2)*%
X10160000Y97790000D03*
%TD*%
D12*
%TO.P,SW6,1,1*%
%TO.N,/PA_10*%
X19150000Y126960000D03*
X31650000Y126960000D03*
%TO.P,SW6,2,2*%
%TO.N,GND*%
X19150000Y121960000D03*
X31650000Y121960000D03*
%TD*%
D19*
%TO.P,RV2,*%
%TO.N,*%
X56285661Y221630000D03*
X65085661Y221630000D03*
D14*
%TO.P,RV2,1,1*%
%TO.N,+3V3*%
X58145661Y214630000D03*
%TO.P,RV2,2,2*%
%TO.N,/PB_0*%
X60685661Y214630000D03*
%TO.P,RV2,3,3*%
%TO.N,GND*%
X63225661Y214630000D03*
%TD*%
D10*
%TO.P,D20,1,K*%
%TO.N,/PB_1*%
X83820000Y177800000D03*
D11*
%TO.P,D20,2,A*%
%TO.N,Net-(D20-Pad2)*%
X83820000Y180340000D03*
%TD*%
D15*
%TO.P,J7,1,Pin_1*%
%TO.N,GND*%
X147325000Y236925000D03*
D16*
%TO.P,J7,2,Pin_2*%
%TO.N,unconnected-(J7-Pad2)*%
X149865000Y236925000D03*
%TO.P,J7,3,Pin_3*%
%TO.N,/PA_12*%
X152405000Y236925000D03*
%TO.P,J7,4,Pin_4*%
%TO.N,/PC_5*%
X154945000Y236925000D03*
%TO.P,J7,5,Pin_5*%
%TO.N,VCC*%
X157485000Y236925000D03*
%TD*%
D13*
%TO.P,SW13,*%
%TO.N,*%
X63500000Y63500000D03*
X53340000Y63500000D03*
D14*
%TO.P,SW13,1,A*%
%TO.N,/PB_6*%
X55880000Y63500000D03*
%TO.P,SW13,2,B*%
%TO.N,GND*%
X58420000Y63500000D03*
%TO.P,SW13,3,C*%
%TO.N,unconnected-(SW13-Pad3)*%
X60960000Y63500000D03*
%TD*%
D10*
%TO.P,D11,1,K*%
%TO.N,/PB_8*%
X48260000Y35560000D03*
D11*
%TO.P,D11,2,A*%
%TO.N,Net-(D11-Pad2)*%
X48260000Y38100000D03*
%TD*%
D20*
%TO.P,C1,1*%
%TO.N,VCC*%
X185420000Y162560000D03*
D21*
%TO.P,C1,2*%
%TO.N,GND*%
X185420000Y160060000D03*
%TD*%
D10*
%TO.P,D5,1,K*%
%TO.N,GND*%
X10160000Y123190000D03*
D11*
%TO.P,D5,2,A*%
%TO.N,Net-(D5-Pad2)*%
X10160000Y125730000D03*
%TD*%
D12*
%TO.P,SW4,1,1*%
%TO.N,/PB_10*%
X19150000Y71080000D03*
X31650000Y71080000D03*
%TO.P,SW4,2,2*%
%TO.N,GND*%
X19150000Y66080000D03*
X31650000Y66080000D03*
%TD*%
%TO.P,SW7,1,1*%
%TO.N,/PB_14*%
X19150000Y149900000D03*
X31650000Y149900000D03*
%TO.P,SW7,2,2*%
%TO.N,GND*%
X31650000Y154900000D03*
X19150000Y154900000D03*
%TD*%
D13*
%TO.P,SW18,*%
%TO.N,*%
X88900000Y63500000D03*
X99060000Y63500000D03*
D14*
%TO.P,SW18,1,A*%
%TO.N,/PB_9*%
X91440000Y63500000D03*
%TO.P,SW18,2,B*%
%TO.N,GND*%
X93980000Y63500000D03*
%TO.P,SW18,3,C*%
%TO.N,unconnected-(SW18-Pad3)*%
X96520000Y63500000D03*
%TD*%
D13*
%TO.P,SW21,*%
%TO.N,*%
X99060000Y170180000D03*
X88900000Y170180000D03*
D14*
%TO.P,SW21,1,A*%
%TO.N,/PB_1*%
X91440000Y170180000D03*
%TO.P,SW21,2,B*%
%TO.N,GND*%
X93980000Y170180000D03*
%TO.P,SW21,3,C*%
%TO.N,unconnected-(SW21-Pad3)*%
X96520000Y170180000D03*
%TD*%
D13*
%TO.P,SW14,*%
%TO.N,*%
X63500000Y99060000D03*
X53340000Y99060000D03*
D14*
%TO.P,SW14,1,A*%
%TO.N,/PB_5*%
X55880000Y99060000D03*
%TO.P,SW14,2,B*%
%TO.N,GND*%
X58420000Y99060000D03*
%TO.P,SW14,3,C*%
%TO.N,unconnected-(SW14-Pad3)*%
X60960000Y99060000D03*
%TD*%
D10*
%TO.P,D19,1,K*%
%TO.N,/PC_4*%
X83820000Y142240000D03*
D11*
%TO.P,D19,2,A*%
%TO.N,Net-(D19-Pad2)*%
X83820000Y144780000D03*
%TD*%
D19*
%TO.P,RV1,*%
%TO.N,*%
X106000000Y221630000D03*
X97200000Y221630000D03*
D14*
%TO.P,RV1,1,1*%
%TO.N,+3V3*%
X99060000Y214630000D03*
%TO.P,RV1,2,2*%
%TO.N,/PA_4*%
X101600000Y214630000D03*
%TO.P,RV1,3,3*%
%TO.N,GND*%
X104140000Y214630000D03*
%TD*%
D10*
%TO.P,D7,1,K*%
%TO.N,GND*%
X10160000Y179070000D03*
D11*
%TO.P,D7,2,A*%
%TO.N,Net-(D7-Pad2)*%
X10160000Y181610000D03*
%TD*%
D22*
%TO.N,*%
X8890000Y240030000D03*
X189230000Y8890000D03*
D23*
X127635000Y137160000D03*
D22*
X189230000Y240030000D03*
D23*
X172085000Y137160000D03*
D22*
X8890000Y8890000D03*
D24*
%TO.N,VCC*%
X190500000Y153670000D03*
X190500000Y119380000D03*
X137160000Y119380000D03*
X139065000Y76200000D03*
X139520500Y119380000D03*
X177800000Y119380000D03*
X127000000Y103505000D03*
X177800000Y153670000D03*
%TO.N,GND*%
X68580000Y170180000D03*
X95250000Y229870000D03*
X127000000Y99060000D03*
X160020000Y233045000D03*
X93980000Y138430000D03*
X68580000Y138430000D03*
X167640000Y60960000D03*
X135890000Y15240000D03*
X107950000Y229870000D03*
X173990000Y60960000D03*
X125730000Y233045000D03*
X93980000Y102870000D03*
X93980000Y31750000D03*
X68580000Y31750000D03*
X68580000Y102870000D03*
X137160000Y116840000D03*
X68580000Y99060000D03*
X68580000Y109220000D03*
X133350000Y233045000D03*
X68580000Y67310000D03*
X168275000Y15875000D03*
X173355000Y233045000D03*
X68580000Y73660000D03*
X186690000Y15875000D03*
X148937500Y14892500D03*
X68580000Y180340000D03*
X93980000Y67310000D03*
X68580000Y134620000D03*
X68580000Y173990000D03*
X68580000Y214630000D03*
X68580000Y38100000D03*
X93980000Y173990000D03*
X149860000Y233045000D03*
X182245000Y233045000D03*
X68580000Y144780000D03*
X68580000Y63500000D03*
%TO.N,/PA_15*%
X144780000Y38100000D03*
X134620000Y38100000D03*
%TO.N,/PB_7*%
X158750000Y65149500D03*
X143510000Y64770000D03*
%TO.N,/PC_13*%
X156210000Y67310000D03*
X140970000Y67310000D03*
%TO.N,/PA_0*%
X140970000Y114300000D03*
X140928072Y128725500D03*
%TO.N,/PA_1*%
X142875000Y113030000D03*
X142875000Y127000000D03*
%TO.N,/PH_1*%
X146050000Y78740000D03*
X139700000Y71120000D03*
%TO.N,/PA_4*%
X146685000Y161925000D03*
X146685000Y100965000D03*
%TO.N,/PB_0*%
X144685497Y100965000D03*
X144685497Y161925000D03*
%TO.N,/PA_6*%
X167099503Y158750000D03*
X167005000Y132080000D03*
%TO.N,/PA_7*%
X165100000Y133985000D03*
X165100000Y158750000D03*
%TO.N,/PC_7*%
X148590000Y127635000D03*
X148590000Y69850000D03*
%TO.N,+3V3*%
X71120000Y220980000D03*
X71120000Y144780000D03*
X71120000Y170180000D03*
X71120000Y134620000D03*
X71120000Y109220000D03*
X71120000Y204290500D03*
X173990000Y63500000D03*
X71120000Y99060000D03*
X71120000Y38100000D03*
X71120000Y73660000D03*
X71120000Y63500000D03*
X151130000Y63500000D03*
%TD*%
D25*
%TO.N,VCC*%
X177800000Y153670000D02*
X190500000Y153670000D01*
X177800000Y119380000D02*
X190500000Y119380000D01*
X139520500Y119380000D02*
X139065000Y118924500D01*
X139065000Y118924500D02*
X139065000Y76200000D01*
X127000000Y103505000D02*
X135255000Y111760000D01*
X135255000Y117475000D02*
X137160000Y119380000D01*
X135255000Y111760000D02*
X135255000Y117475000D01*
%TO.N,GND*%
X68580000Y180340000D02*
X68580000Y214630000D01*
D26*
X173990000Y60960000D02*
X167640000Y60960000D01*
D25*
X137160000Y109220000D02*
X137160000Y116840000D01*
X135890000Y15240000D02*
X148590000Y15240000D01*
X148590000Y15240000D02*
X148937500Y14892500D01*
X93980000Y31750000D02*
X68580000Y31750000D01*
X93980000Y173990000D02*
X68580000Y173990000D01*
X68580000Y38100000D02*
X68580000Y63500000D01*
D27*
X149860000Y233045000D02*
X160020000Y233045000D01*
D26*
X168275000Y15875000D02*
X186690000Y15875000D01*
D28*
X93980000Y102870000D02*
X68580000Y102870000D01*
D27*
X125730000Y233045000D02*
X133350000Y233045000D01*
D25*
X68580000Y109220000D02*
X68580000Y134620000D01*
X127000000Y99060000D02*
X137160000Y109220000D01*
D27*
X182245000Y233045000D02*
X173355000Y233045000D01*
D25*
X68580000Y144780000D02*
X68580000Y170180000D01*
X68580000Y73660000D02*
X68580000Y99060000D01*
D27*
X107950000Y229870000D02*
X95250000Y229870000D01*
D25*
X93980000Y67310000D02*
X68580000Y67310000D01*
X93980000Y138430000D02*
X68580000Y138430000D01*
D26*
%TO.N,/PA_15*%
X144780000Y38100000D02*
X134620000Y38100000D01*
D25*
%TO.N,/PB_7*%
X158750000Y65149500D02*
X158749989Y65149511D01*
X158749989Y65149511D02*
X143889511Y65149511D01*
X143889511Y65149511D02*
X143510000Y64770000D01*
%TO.N,/PC_13*%
X156210000Y67310000D02*
X140970000Y67310000D01*
D28*
%TO.N,/PA_0*%
X140970000Y128683572D02*
X140928072Y128725500D01*
X140970000Y114300000D02*
X140970000Y128683572D01*
%TO.N,/PA_1*%
X142875000Y113030000D02*
X142875000Y127000000D01*
D25*
%TO.N,/PH_1*%
X139700000Y71120000D02*
X146050000Y77470000D01*
X146050000Y77470000D02*
X146050000Y78740000D01*
%TO.N,/PA_4*%
X146685000Y100965000D02*
X146685000Y161925000D01*
%TO.N,/PB_0*%
X144780000Y101059503D02*
X144780000Y161830497D01*
X144685497Y100965000D02*
X144780000Y101059503D01*
X144780000Y161830497D02*
X144685497Y161925000D01*
%TO.N,/PA_6*%
X167005000Y158655497D02*
X167005000Y132080000D01*
X167099503Y158750000D02*
X167005000Y158655497D01*
%TO.N,/PA_7*%
X165100000Y133985000D02*
X165100000Y158750000D01*
%TO.N,/PC_7*%
X148590000Y127635000D02*
X148590000Y69850000D01*
%TO.N,+3V3*%
X173990000Y63500000D02*
X151130000Y63500000D01*
X71120000Y38100000D02*
X71120000Y63500000D01*
X71120000Y204470000D02*
X71120000Y220980000D01*
X71120000Y144780000D02*
X71120000Y170180000D01*
X71120000Y109220000D02*
X71120000Y134620000D01*
X71120000Y73660000D02*
X71120000Y99060000D01*
%TD*%
M02*
