M48
; DRILL file {KiCad (6.0.0)} date Sat Oct 22 09:15:07 2022
; FORMAT={-:-/ absolute / metric / decimal}
; #@! TF.CreationDate,2022-10-22T09:15:07+09:00
; #@! TF.GenerationSoftware,Kicad,Pcbnew,(6.0.0)
; #@! TF.FileFunction,MixedPlating,1,2
FMAT,2
METRIC
; #@! TA.AperFunction,Plated,PTH,ComponentDrill
T1C0.800
; #@! TA.AperFunction,Plated,PTH,ComponentDrill
T2C0.900
; #@! TA.AperFunction,Plated,PTH,ViaDrill
T3C1.000
; #@! TA.AperFunction,Plated,PTH,ComponentDrill
T4C1.000
; #@! TA.AperFunction,Plated,PTH,ComponentDrill
T5C1.200
; #@! TA.AperFunction,Plated,PTH,ViaDrill
T6C3.000
%
G90
G05
T1
X185.42Y162.56
X185.42Y160.06
T2
X10.16Y234.95
X10.16Y232.41
X10.16Y209.55
X10.16Y207.01
X10.16Y181.61
X10.16Y179.07
X10.16Y153.67
X10.16Y151.13
X10.16Y125.73
X10.16Y123.19
X10.16Y97.79
X10.16Y95.25
X10.16Y69.85
X10.16Y67.31
X10.16Y41.91
X10.16Y39.37
X10.16Y16.51
X10.16Y13.97
X48.26Y180.34
X48.26Y177.8
X48.26Y144.78
X48.26Y142.24
X48.26Y109.22
X48.26Y106.68
X48.26Y73.66
X48.26Y71.12
X48.26Y38.1
X48.26Y35.56
X83.82Y180.34
X83.82Y177.8
X83.82Y144.78
X83.82Y142.24
X83.82Y109.22
X83.82Y106.68
X83.82Y73.66
X83.82Y71.12
X83.82Y38.1
X83.82Y35.56
X130.81Y34.29
X130.81Y31.75
X186.69Y201.93
X186.69Y199.39
T3
X68.58Y214.63
X68.58Y180.34
X68.58Y173.99
X68.58Y170.18
X68.58Y144.78
X68.58Y138.43
X68.58Y134.62
X68.58Y109.22
X68.58Y102.87
X68.58Y99.06
X68.58Y73.66
X68.58Y67.31
X68.58Y63.5
X68.58Y38.1
X68.58Y31.75
X71.12Y220.98
X71.12Y204.29
X71.12Y170.18
X71.12Y144.78
X71.12Y134.62
X71.12Y109.22
X71.12Y99.06
X71.12Y73.66
X71.12Y63.5
X71.12Y38.1
X93.98Y173.99
X93.98Y138.43
X93.98Y102.87
X93.98Y67.31
X93.98Y31.75
X95.25Y229.87
X107.95Y229.87
X125.73Y233.045
X127.0Y103.505
X127.0Y99.06
X133.35Y233.045
X134.62Y38.1
X135.89Y15.24
X137.16Y119.38
X137.16Y116.84
X139.065Y76.2
X139.52Y119.38
X139.7Y71.12
X140.928Y128.725
X140.97Y114.3
X140.97Y67.31
X142.875Y127.0
X142.875Y113.03
X143.51Y64.77
X144.685Y161.925
X144.685Y100.965
X144.78Y38.1
X146.05Y78.74
X146.685Y161.925
X146.685Y100.965
X148.59Y127.635
X148.59Y69.85
X148.938Y14.893
X149.86Y233.045
X151.13Y63.5
X156.21Y67.31
X158.75Y65.15
X160.02Y233.045
X165.1Y158.75
X165.1Y133.985
X167.005Y132.08
X167.1Y158.75
X167.64Y60.96
X168.275Y15.875
X173.355Y233.045
X173.99Y63.5
X173.99Y60.96
X177.8Y153.67
X177.8Y119.38
X182.245Y233.045
X186.69Y15.875
X190.5Y153.67
X190.5Y119.38
T4
X53.34Y170.18
X53.34Y134.62
X53.34Y99.06
X53.34Y63.5
X53.34Y27.94
X55.88Y170.18
X55.88Y134.62
X55.88Y99.06
X55.88Y63.5
X55.88Y27.94
X56.286Y221.63
X58.146Y214.63
X58.42Y170.18
X58.42Y134.62
X58.42Y99.06
X58.42Y63.5
X58.42Y27.94
X60.686Y214.63
X60.96Y170.18
X60.96Y134.62
X60.96Y99.06
X60.96Y63.5
X60.96Y27.94
X63.226Y214.63
X63.5Y170.18
X63.5Y134.62
X63.5Y99.06
X63.5Y63.5
X63.5Y27.94
X65.086Y221.63
X88.9Y170.18
X88.9Y134.62
X88.9Y99.06
X88.9Y63.5
X88.9Y27.94
X91.44Y170.18
X91.44Y134.62
X91.44Y99.06
X91.44Y63.5
X91.44Y27.94
X93.98Y170.18
X93.98Y134.62
X93.98Y99.06
X93.98Y63.5
X93.98Y27.94
X96.52Y170.18
X96.52Y134.62
X96.52Y99.06
X96.52Y63.5
X96.52Y27.94
X97.2Y221.63
X99.06Y214.63
X99.06Y170.18
X99.06Y134.62
X99.06Y99.06
X99.06Y63.5
X99.06Y27.94
X101.6Y214.63
X104.14Y214.63
X106.0Y221.63
X125.74Y236.925
X128.28Y236.925
X130.82Y236.925
X133.35Y55.88
X133.36Y236.925
X135.89Y55.88
X138.42Y11.995
X138.43Y55.88
X140.96Y11.995
X140.97Y55.88
X143.5Y11.995
X143.51Y55.88
X144.78Y33.02
X146.04Y11.995
X146.05Y55.88
X147.32Y33.02
X147.325Y236.925
X148.59Y55.88
X149.86Y33.02
X149.865Y236.925
X151.13Y55.88
X152.4Y33.02
X152.405Y236.925
X153.67Y55.88
X154.94Y33.02
X154.945Y236.925
X156.21Y55.88
X157.485Y236.925
X158.75Y55.88
X161.29Y55.88
X163.83Y55.88
X166.37Y55.88
X171.45Y11.995
X172.725Y236.925
X173.99Y11.995
X175.265Y236.925
X176.53Y11.995
X177.805Y236.925
X179.07Y11.995
X180.345Y236.925
X181.61Y11.995
X182.885Y236.925
X184.15Y11.995
X186.125Y172.72
X186.125Y170.18
X186.69Y189.865
X186.69Y187.325
X186.69Y184.785
X186.69Y182.245
X186.69Y179.705
T5
X19.15Y238.72
X19.15Y233.72
X19.15Y210.78
X19.15Y205.78
X19.15Y154.9
X19.15Y149.9
X19.15Y126.96
X19.15Y121.96
X19.15Y99.02
X19.15Y94.02
X19.15Y71.08
X19.15Y66.08
X19.15Y43.14
X19.15Y38.14
X19.15Y15.2
X19.15Y10.2
X19.25Y182.88
X19.25Y177.88
X31.65Y238.72
X31.65Y233.72
X31.65Y210.78
X31.65Y205.78
X31.65Y154.9
X31.65Y149.9
X31.65Y126.96
X31.65Y121.96
X31.65Y99.02
X31.65Y94.02
X31.65Y71.08
X31.65Y66.08
X31.65Y43.14
X31.65Y38.14
X31.65Y15.2
X31.65Y10.2
X31.75Y182.88
X31.75Y177.88
T6
X8.89Y240.03
X8.89Y8.89
X127.635Y137.16
X172.085Y137.16
X189.23Y240.03
X189.23Y8.89
T0
M30
