%TF.GenerationSoftware,KiCad,Pcbnew,(6.0.0)*%
%TF.CreationDate,2022-10-22T09:14:53+09:00*%
%TF.ProjectId,Controller2022_ver0.1,436f6e74-726f-46c6-9c65-72323032325f,rev?*%
%TF.SameCoordinates,PX14703d20PYda028c0*%
%TF.FileFunction,Legend,Top*%
%TF.FilePolarity,Positive*%
%FSLAX46Y46*%
G04 Gerber Fmt 4.6, Leading zero omitted, Abs format (unit mm)*
G04 Created by KiCad (PCBNEW (6.0.0)) date 2022-10-22 09:14:53*
%MOMM*%
%LPD*%
G01*
G04 APERTURE LIST*
%ADD10C,0.150000*%
%ADD11C,0.120000*%
G04 APERTURE END LIST*
D10*
%TO.C,D6*%
X14572380Y151661905D02*
X13572380Y151661905D01*
X13572380Y151900000D01*
X13620000Y152042858D01*
X13715238Y152138096D01*
X13810476Y152185715D01*
X14000952Y152233334D01*
X14143809Y152233334D01*
X14334285Y152185715D01*
X14429523Y152138096D01*
X14524761Y152042858D01*
X14572380Y151900000D01*
X14572380Y151661905D01*
X13572380Y153090477D02*
X13572380Y152900000D01*
X13620000Y152804762D01*
X13667619Y152757143D01*
X13810476Y152661905D01*
X14000952Y152614286D01*
X14381904Y152614286D01*
X14477142Y152661905D01*
X14524761Y152709524D01*
X14572380Y152804762D01*
X14572380Y152995239D01*
X14524761Y153090477D01*
X14477142Y153138096D01*
X14381904Y153185715D01*
X14143809Y153185715D01*
X14048571Y153138096D01*
X14000952Y153090477D01*
X13953333Y152995239D01*
X13953333Y152804762D01*
X14000952Y152709524D01*
X14048571Y152661905D01*
X14143809Y152614286D01*
%TO.C,SW9*%
X23966666Y200715239D02*
X24109523Y200667620D01*
X24347619Y200667620D01*
X24442857Y200715239D01*
X24490476Y200762858D01*
X24538095Y200858096D01*
X24538095Y200953334D01*
X24490476Y201048572D01*
X24442857Y201096191D01*
X24347619Y201143810D01*
X24157142Y201191429D01*
X24061904Y201239048D01*
X24014285Y201286667D01*
X23966666Y201381905D01*
X23966666Y201477143D01*
X24014285Y201572381D01*
X24061904Y201620000D01*
X24157142Y201667620D01*
X24395238Y201667620D01*
X24538095Y201620000D01*
X24871428Y201667620D02*
X25109523Y200667620D01*
X25300000Y201381905D01*
X25490476Y200667620D01*
X25728571Y201667620D01*
X26157142Y200667620D02*
X26347619Y200667620D01*
X26442857Y200715239D01*
X26490476Y200762858D01*
X26585714Y200905715D01*
X26633333Y201096191D01*
X26633333Y201477143D01*
X26585714Y201572381D01*
X26538095Y201620000D01*
X26442857Y201667620D01*
X26252380Y201667620D01*
X26157142Y201620000D01*
X26109523Y201572381D01*
X26061904Y201477143D01*
X26061904Y201239048D01*
X26109523Y201143810D01*
X26157142Y201096191D01*
X26252380Y201048572D01*
X26442857Y201048572D01*
X26538095Y201096191D01*
X26585714Y201143810D01*
X26633333Y201239048D01*
%TO.C,D17*%
X80312380Y71175715D02*
X79312380Y71175715D01*
X79312380Y71413810D01*
X79360000Y71556667D01*
X79455238Y71651905D01*
X79550476Y71699524D01*
X79740952Y71747143D01*
X79883809Y71747143D01*
X80074285Y71699524D01*
X80169523Y71651905D01*
X80264761Y71556667D01*
X80312380Y71413810D01*
X80312380Y71175715D01*
X80312380Y72699524D02*
X80312380Y72128096D01*
X80312380Y72413810D02*
X79312380Y72413810D01*
X79455238Y72318572D01*
X79550476Y72223334D01*
X79598095Y72128096D01*
X79312380Y73032858D02*
X79312380Y73699524D01*
X80312380Y73270953D01*
%TO.C,D8*%
X14572380Y207541905D02*
X13572380Y207541905D01*
X13572380Y207780000D01*
X13620000Y207922858D01*
X13715238Y208018096D01*
X13810476Y208065715D01*
X14000952Y208113334D01*
X14143809Y208113334D01*
X14334285Y208065715D01*
X14429523Y208018096D01*
X14524761Y207922858D01*
X14572380Y207780000D01*
X14572380Y207541905D01*
X14000952Y208684762D02*
X13953333Y208589524D01*
X13905714Y208541905D01*
X13810476Y208494286D01*
X13762857Y208494286D01*
X13667619Y208541905D01*
X13620000Y208589524D01*
X13572380Y208684762D01*
X13572380Y208875239D01*
X13620000Y208970477D01*
X13667619Y209018096D01*
X13762857Y209065715D01*
X13810476Y209065715D01*
X13905714Y209018096D01*
X13953333Y208970477D01*
X14000952Y208875239D01*
X14000952Y208684762D01*
X14048571Y208589524D01*
X14096190Y208541905D01*
X14191428Y208494286D01*
X14381904Y208494286D01*
X14477142Y208541905D01*
X14524761Y208589524D01*
X14572380Y208684762D01*
X14572380Y208875239D01*
X14524761Y208970477D01*
X14477142Y209018096D01*
X14381904Y209065715D01*
X14191428Y209065715D01*
X14096190Y209018096D01*
X14048571Y208970477D01*
X14000952Y208875239D01*
%TO.C,SW16*%
X56610476Y173585239D02*
X56753333Y173537620D01*
X56991428Y173537620D01*
X57086666Y173585239D01*
X57134285Y173632858D01*
X57181904Y173728096D01*
X57181904Y173823334D01*
X57134285Y173918572D01*
X57086666Y173966191D01*
X56991428Y174013810D01*
X56800952Y174061429D01*
X56705714Y174109048D01*
X56658095Y174156667D01*
X56610476Y174251905D01*
X56610476Y174347143D01*
X56658095Y174442381D01*
X56705714Y174490000D01*
X56800952Y174537620D01*
X57039047Y174537620D01*
X57181904Y174490000D01*
X57515238Y174537620D02*
X57753333Y173537620D01*
X57943809Y174251905D01*
X58134285Y173537620D01*
X58372380Y174537620D01*
X59277142Y173537620D02*
X58705714Y173537620D01*
X58991428Y173537620D02*
X58991428Y174537620D01*
X58896190Y174394762D01*
X58800952Y174299524D01*
X58705714Y174251905D01*
X60134285Y174537620D02*
X59943809Y174537620D01*
X59848571Y174490000D01*
X59800952Y174442381D01*
X59705714Y174299524D01*
X59658095Y174109048D01*
X59658095Y173728096D01*
X59705714Y173632858D01*
X59753333Y173585239D01*
X59848571Y173537620D01*
X60039047Y173537620D01*
X60134285Y173585239D01*
X60181904Y173632858D01*
X60229523Y173728096D01*
X60229523Y173966191D01*
X60181904Y174061429D01*
X60134285Y174109048D01*
X60039047Y174156667D01*
X59848571Y174156667D01*
X59753333Y174109048D01*
X59705714Y174061429D01*
X59658095Y173966191D01*
%TO.C,J6*%
X130472380Y55546667D02*
X131186666Y55546667D01*
X131329523Y55499048D01*
X131424761Y55403810D01*
X131472380Y55260953D01*
X131472380Y55165715D01*
X130472380Y56451429D02*
X130472380Y56260953D01*
X130520000Y56165715D01*
X130567619Y56118096D01*
X130710476Y56022858D01*
X130900952Y55975239D01*
X131281904Y55975239D01*
X131377142Y56022858D01*
X131424761Y56070477D01*
X131472380Y56165715D01*
X131472380Y56356191D01*
X131424761Y56451429D01*
X131377142Y56499048D01*
X131281904Y56546667D01*
X131043809Y56546667D01*
X130948571Y56499048D01*
X130900952Y56451429D01*
X130853333Y56356191D01*
X130853333Y56165715D01*
X130900952Y56070477D01*
X130948571Y56022858D01*
X131043809Y55975239D01*
%TO.C,D2*%
X6652380Y39901905D02*
X5652380Y39901905D01*
X5652380Y40140000D01*
X5700000Y40282858D01*
X5795238Y40378096D01*
X5890476Y40425715D01*
X6080952Y40473334D01*
X6223809Y40473334D01*
X6414285Y40425715D01*
X6509523Y40378096D01*
X6604761Y40282858D01*
X6652380Y40140000D01*
X6652380Y39901905D01*
X5747619Y40854286D02*
X5700000Y40901905D01*
X5652380Y40997143D01*
X5652380Y41235239D01*
X5700000Y41330477D01*
X5747619Y41378096D01*
X5842857Y41425715D01*
X5938095Y41425715D01*
X6080952Y41378096D01*
X6652380Y40806667D01*
X6652380Y41425715D01*
%TO.C,J11*%
X147762380Y6800477D02*
X148476666Y6800477D01*
X148619523Y6752858D01*
X148714761Y6657620D01*
X148762380Y6514762D01*
X148762380Y6419524D01*
X148762380Y7800477D02*
X148762380Y7229048D01*
X148762380Y7514762D02*
X147762380Y7514762D01*
X147905238Y7419524D01*
X148000476Y7324286D01*
X148048095Y7229048D01*
X148762380Y8752858D02*
X148762380Y8181429D01*
X148762380Y8467143D02*
X147762380Y8467143D01*
X147905238Y8371905D01*
X148000476Y8276667D01*
X148048095Y8181429D01*
%TO.C,D15*%
X44752380Y177855715D02*
X43752380Y177855715D01*
X43752380Y178093810D01*
X43800000Y178236667D01*
X43895238Y178331905D01*
X43990476Y178379524D01*
X44180952Y178427143D01*
X44323809Y178427143D01*
X44514285Y178379524D01*
X44609523Y178331905D01*
X44704761Y178236667D01*
X44752380Y178093810D01*
X44752380Y177855715D01*
X44752380Y179379524D02*
X44752380Y178808096D01*
X44752380Y179093810D02*
X43752380Y179093810D01*
X43895238Y178998572D01*
X43990476Y178903334D01*
X44038095Y178808096D01*
X43752380Y180284286D02*
X43752380Y179808096D01*
X44228571Y179760477D01*
X44180952Y179808096D01*
X44133333Y179903334D01*
X44133333Y180141429D01*
X44180952Y180236667D01*
X44228571Y180284286D01*
X44323809Y180331905D01*
X44561904Y180331905D01*
X44657142Y180284286D01*
X44704761Y180236667D01*
X44752380Y180141429D01*
X44752380Y179903334D01*
X44704761Y179808096D01*
X44657142Y179760477D01*
%TO.C,D10*%
X135222380Y31805715D02*
X134222380Y31805715D01*
X134222380Y32043810D01*
X134270000Y32186667D01*
X134365238Y32281905D01*
X134460476Y32329524D01*
X134650952Y32377143D01*
X134793809Y32377143D01*
X134984285Y32329524D01*
X135079523Y32281905D01*
X135174761Y32186667D01*
X135222380Y32043810D01*
X135222380Y31805715D01*
X135222380Y33329524D02*
X135222380Y32758096D01*
X135222380Y33043810D02*
X134222380Y33043810D01*
X134365238Y32948572D01*
X134460476Y32853334D01*
X134508095Y32758096D01*
X134222380Y33948572D02*
X134222380Y34043810D01*
X134270000Y34139048D01*
X134317619Y34186667D01*
X134412857Y34234286D01*
X134603333Y34281905D01*
X134841428Y34281905D01*
X135031904Y34234286D01*
X135127142Y34186667D01*
X135174761Y34139048D01*
X135222380Y34043810D01*
X135222380Y33948572D01*
X135174761Y33853334D01*
X135127142Y33805715D01*
X135031904Y33758096D01*
X134841428Y33710477D01*
X134603333Y33710477D01*
X134412857Y33758096D01*
X134317619Y33805715D01*
X134270000Y33853334D01*
X134222380Y33948572D01*
%TO.C,J10*%
X122922380Y240500476D02*
X123636666Y240500476D01*
X123779523Y240452857D01*
X123874761Y240357619D01*
X123922380Y240214761D01*
X123922380Y240119523D01*
X123922380Y241500476D02*
X123922380Y240929047D01*
X123922380Y241214761D02*
X122922380Y241214761D01*
X123065238Y241119523D01*
X123160476Y241024285D01*
X123208095Y240929047D01*
X122922380Y242119523D02*
X122922380Y242214761D01*
X122970000Y242310000D01*
X123017619Y242357619D01*
X123112857Y242405238D01*
X123303333Y242452857D01*
X123541428Y242452857D01*
X123731904Y242405238D01*
X123827142Y242357619D01*
X123874761Y242310000D01*
X123922380Y242214761D01*
X123922380Y242119523D01*
X123874761Y242024285D01*
X123827142Y241976666D01*
X123731904Y241929047D01*
X123541428Y241881428D01*
X123303333Y241881428D01*
X123112857Y241929047D01*
X123017619Y241976666D01*
X122970000Y242024285D01*
X122922380Y242119523D01*
%TO.C,D9*%
X14572380Y232941904D02*
X13572380Y232941904D01*
X13572380Y233180000D01*
X13620000Y233322857D01*
X13715238Y233418095D01*
X13810476Y233465714D01*
X14000952Y233513333D01*
X14143809Y233513333D01*
X14334285Y233465714D01*
X14429523Y233418095D01*
X14524761Y233322857D01*
X14572380Y233180000D01*
X14572380Y232941904D01*
X14572380Y233989523D02*
X14572380Y234180000D01*
X14524761Y234275238D01*
X14477142Y234322857D01*
X14334285Y234418095D01*
X14143809Y234465714D01*
X13762857Y234465714D01*
X13667619Y234418095D01*
X13620000Y234370476D01*
X13572380Y234275238D01*
X13572380Y234084761D01*
X13620000Y233989523D01*
X13667619Y233941904D01*
X13762857Y233894285D01*
X14000952Y233894285D01*
X14096190Y233941904D01*
X14143809Y233989523D01*
X14191428Y234084761D01*
X14191428Y234275238D01*
X14143809Y234370476D01*
X14096190Y234418095D01*
X14000952Y234465714D01*
%TO.C,J8*%
X169907380Y240976666D02*
X170621666Y240976666D01*
X170764523Y240929047D01*
X170859761Y240833809D01*
X170907380Y240690952D01*
X170907380Y240595714D01*
X170335952Y241595714D02*
X170288333Y241500476D01*
X170240714Y241452857D01*
X170145476Y241405238D01*
X170097857Y241405238D01*
X170002619Y241452857D01*
X169955000Y241500476D01*
X169907380Y241595714D01*
X169907380Y241786190D01*
X169955000Y241881428D01*
X170002619Y241929047D01*
X170097857Y241976666D01*
X170145476Y241976666D01*
X170240714Y241929047D01*
X170288333Y241881428D01*
X170335952Y241786190D01*
X170335952Y241595714D01*
X170383571Y241500476D01*
X170431190Y241452857D01*
X170526428Y241405238D01*
X170716904Y241405238D01*
X170812142Y241452857D01*
X170859761Y241500476D01*
X170907380Y241595714D01*
X170907380Y241786190D01*
X170859761Y241881428D01*
X170812142Y241929047D01*
X170716904Y241976666D01*
X170526428Y241976666D01*
X170431190Y241929047D01*
X170383571Y241881428D01*
X170335952Y241786190D01*
%TO.C,D12*%
X44752380Y71175715D02*
X43752380Y71175715D01*
X43752380Y71413810D01*
X43800000Y71556667D01*
X43895238Y71651905D01*
X43990476Y71699524D01*
X44180952Y71747143D01*
X44323809Y71747143D01*
X44514285Y71699524D01*
X44609523Y71651905D01*
X44704761Y71556667D01*
X44752380Y71413810D01*
X44752380Y71175715D01*
X44752380Y72699524D02*
X44752380Y72128096D01*
X44752380Y72413810D02*
X43752380Y72413810D01*
X43895238Y72318572D01*
X43990476Y72223334D01*
X44038095Y72128096D01*
X43847619Y73080477D02*
X43800000Y73128096D01*
X43752380Y73223334D01*
X43752380Y73461429D01*
X43800000Y73556667D01*
X43847619Y73604286D01*
X43942857Y73651905D01*
X44038095Y73651905D01*
X44180952Y73604286D01*
X44752380Y73032858D01*
X44752380Y73651905D01*
%TO.C,SW12*%
X56610476Y31345239D02*
X56753333Y31297620D01*
X56991428Y31297620D01*
X57086666Y31345239D01*
X57134285Y31392858D01*
X57181904Y31488096D01*
X57181904Y31583334D01*
X57134285Y31678572D01*
X57086666Y31726191D01*
X56991428Y31773810D01*
X56800952Y31821429D01*
X56705714Y31869048D01*
X56658095Y31916667D01*
X56610476Y32011905D01*
X56610476Y32107143D01*
X56658095Y32202381D01*
X56705714Y32250000D01*
X56800952Y32297620D01*
X57039047Y32297620D01*
X57181904Y32250000D01*
X57515238Y32297620D02*
X57753333Y31297620D01*
X57943809Y32011905D01*
X58134285Y31297620D01*
X58372380Y32297620D01*
X59277142Y31297620D02*
X58705714Y31297620D01*
X58991428Y31297620D02*
X58991428Y32297620D01*
X58896190Y32154762D01*
X58800952Y32059524D01*
X58705714Y32011905D01*
X59658095Y32202381D02*
X59705714Y32250000D01*
X59800952Y32297620D01*
X60039047Y32297620D01*
X60134285Y32250000D01*
X60181904Y32202381D01*
X60229523Y32107143D01*
X60229523Y32011905D01*
X60181904Y31869048D01*
X59610476Y31297620D01*
X60229523Y31297620D01*
%TO.C,SW15*%
X56610476Y138025239D02*
X56753333Y137977620D01*
X56991428Y137977620D01*
X57086666Y138025239D01*
X57134285Y138072858D01*
X57181904Y138168096D01*
X57181904Y138263334D01*
X57134285Y138358572D01*
X57086666Y138406191D01*
X56991428Y138453810D01*
X56800952Y138501429D01*
X56705714Y138549048D01*
X56658095Y138596667D01*
X56610476Y138691905D01*
X56610476Y138787143D01*
X56658095Y138882381D01*
X56705714Y138930000D01*
X56800952Y138977620D01*
X57039047Y138977620D01*
X57181904Y138930000D01*
X57515238Y138977620D02*
X57753333Y137977620D01*
X57943809Y138691905D01*
X58134285Y137977620D01*
X58372380Y138977620D01*
X59277142Y137977620D02*
X58705714Y137977620D01*
X58991428Y137977620D02*
X58991428Y138977620D01*
X58896190Y138834762D01*
X58800952Y138739524D01*
X58705714Y138691905D01*
X60181904Y138977620D02*
X59705714Y138977620D01*
X59658095Y138501429D01*
X59705714Y138549048D01*
X59800952Y138596667D01*
X60039047Y138596667D01*
X60134285Y138549048D01*
X60181904Y138501429D01*
X60229523Y138406191D01*
X60229523Y138168096D01*
X60181904Y138072858D01*
X60134285Y138025239D01*
X60039047Y137977620D01*
X59800952Y137977620D01*
X59705714Y138025239D01*
X59658095Y138072858D01*
%TO.C,D21*%
X191102380Y199445715D02*
X190102380Y199445715D01*
X190102380Y199683810D01*
X190150000Y199826667D01*
X190245238Y199921905D01*
X190340476Y199969524D01*
X190530952Y200017143D01*
X190673809Y200017143D01*
X190864285Y199969524D01*
X190959523Y199921905D01*
X191054761Y199826667D01*
X191102380Y199683810D01*
X191102380Y199445715D01*
X190197619Y200398096D02*
X190150000Y200445715D01*
X190102380Y200540953D01*
X190102380Y200779048D01*
X190150000Y200874286D01*
X190197619Y200921905D01*
X190292857Y200969524D01*
X190388095Y200969524D01*
X190530952Y200921905D01*
X191102380Y200350477D01*
X191102380Y200969524D01*
X191102380Y201921905D02*
X191102380Y201350477D01*
X191102380Y201636191D02*
X190102380Y201636191D01*
X190245238Y201540953D01*
X190340476Y201445715D01*
X190388095Y201350477D01*
%TO.C,SW5*%
X24166666Y103275239D02*
X24309523Y103227620D01*
X24547619Y103227620D01*
X24642857Y103275239D01*
X24690476Y103322858D01*
X24738095Y103418096D01*
X24738095Y103513334D01*
X24690476Y103608572D01*
X24642857Y103656191D01*
X24547619Y103703810D01*
X24357142Y103751429D01*
X24261904Y103799048D01*
X24214285Y103846667D01*
X24166666Y103941905D01*
X24166666Y104037143D01*
X24214285Y104132381D01*
X24261904Y104180000D01*
X24357142Y104227620D01*
X24595238Y104227620D01*
X24738095Y104180000D01*
X25071428Y104227620D02*
X25309523Y103227620D01*
X25500000Y103941905D01*
X25690476Y103227620D01*
X25928571Y104227620D01*
X26785714Y104227620D02*
X26309523Y104227620D01*
X26261904Y103751429D01*
X26309523Y103799048D01*
X26404761Y103846667D01*
X26642857Y103846667D01*
X26738095Y103799048D01*
X26785714Y103751429D01*
X26833333Y103656191D01*
X26833333Y103418096D01*
X26785714Y103322858D01*
X26738095Y103275239D01*
X26642857Y103227620D01*
X26404761Y103227620D01*
X26309523Y103275239D01*
X26261904Y103322858D01*
%TO.C,SW3*%
X24166666Y47395239D02*
X24309523Y47347620D01*
X24547619Y47347620D01*
X24642857Y47395239D01*
X24690476Y47442858D01*
X24738095Y47538096D01*
X24738095Y47633334D01*
X24690476Y47728572D01*
X24642857Y47776191D01*
X24547619Y47823810D01*
X24357142Y47871429D01*
X24261904Y47919048D01*
X24214285Y47966667D01*
X24166666Y48061905D01*
X24166666Y48157143D01*
X24214285Y48252381D01*
X24261904Y48300000D01*
X24357142Y48347620D01*
X24595238Y48347620D01*
X24738095Y48300000D01*
X25071428Y48347620D02*
X25309523Y47347620D01*
X25500000Y48061905D01*
X25690476Y47347620D01*
X25928571Y48347620D01*
X26214285Y48347620D02*
X26833333Y48347620D01*
X26500000Y47966667D01*
X26642857Y47966667D01*
X26738095Y47919048D01*
X26785714Y47871429D01*
X26833333Y47776191D01*
X26833333Y47538096D01*
X26785714Y47442858D01*
X26738095Y47395239D01*
X26642857Y47347620D01*
X26357142Y47347620D01*
X26261904Y47395239D01*
X26214285Y47442858D01*
%TO.C,SW19*%
X92170476Y102465239D02*
X92313333Y102417620D01*
X92551428Y102417620D01*
X92646666Y102465239D01*
X92694285Y102512858D01*
X92741904Y102608096D01*
X92741904Y102703334D01*
X92694285Y102798572D01*
X92646666Y102846191D01*
X92551428Y102893810D01*
X92360952Y102941429D01*
X92265714Y102989048D01*
X92218095Y103036667D01*
X92170476Y103131905D01*
X92170476Y103227143D01*
X92218095Y103322381D01*
X92265714Y103370000D01*
X92360952Y103417620D01*
X92599047Y103417620D01*
X92741904Y103370000D01*
X93075238Y103417620D02*
X93313333Y102417620D01*
X93503809Y103131905D01*
X93694285Y102417620D01*
X93932380Y103417620D01*
X94837142Y102417620D02*
X94265714Y102417620D01*
X94551428Y102417620D02*
X94551428Y103417620D01*
X94456190Y103274762D01*
X94360952Y103179524D01*
X94265714Y103131905D01*
X95313333Y102417620D02*
X95503809Y102417620D01*
X95599047Y102465239D01*
X95646666Y102512858D01*
X95741904Y102655715D01*
X95789523Y102846191D01*
X95789523Y103227143D01*
X95741904Y103322381D01*
X95694285Y103370000D01*
X95599047Y103417620D01*
X95408571Y103417620D01*
X95313333Y103370000D01*
X95265714Y103322381D01*
X95218095Y103227143D01*
X95218095Y102989048D01*
X95265714Y102893810D01*
X95313333Y102846191D01*
X95408571Y102798572D01*
X95599047Y102798572D01*
X95694285Y102846191D01*
X95741904Y102893810D01*
X95789523Y102989048D01*
%TO.C,SW10*%
X23490476Y228655238D02*
X23633333Y228607619D01*
X23871428Y228607619D01*
X23966666Y228655238D01*
X24014285Y228702857D01*
X24061904Y228798095D01*
X24061904Y228893333D01*
X24014285Y228988571D01*
X23966666Y229036190D01*
X23871428Y229083809D01*
X23680952Y229131428D01*
X23585714Y229179047D01*
X23538095Y229226666D01*
X23490476Y229321904D01*
X23490476Y229417142D01*
X23538095Y229512380D01*
X23585714Y229560000D01*
X23680952Y229607619D01*
X23919047Y229607619D01*
X24061904Y229560000D01*
X24395238Y229607619D02*
X24633333Y228607619D01*
X24823809Y229321904D01*
X25014285Y228607619D01*
X25252380Y229607619D01*
X26157142Y228607619D02*
X25585714Y228607619D01*
X25871428Y228607619D02*
X25871428Y229607619D01*
X25776190Y229464761D01*
X25680952Y229369523D01*
X25585714Y229321904D01*
X26776190Y229607619D02*
X26871428Y229607619D01*
X26966666Y229560000D01*
X27014285Y229512380D01*
X27061904Y229417142D01*
X27109523Y229226666D01*
X27109523Y228988571D01*
X27061904Y228798095D01*
X27014285Y228702857D01*
X26966666Y228655238D01*
X26871428Y228607619D01*
X26776190Y228607619D01*
X26680952Y228655238D01*
X26633333Y228702857D01*
X26585714Y228798095D01*
X26538095Y228988571D01*
X26538095Y229226666D01*
X26585714Y229417142D01*
X26633333Y229512380D01*
X26680952Y229560000D01*
X26776190Y229607619D01*
%TO.C,D1*%
X6652380Y14501905D02*
X5652380Y14501905D01*
X5652380Y14740000D01*
X5700000Y14882858D01*
X5795238Y14978096D01*
X5890476Y15025715D01*
X6080952Y15073334D01*
X6223809Y15073334D01*
X6414285Y15025715D01*
X6509523Y14978096D01*
X6604761Y14882858D01*
X6652380Y14740000D01*
X6652380Y14501905D01*
X6652380Y16025715D02*
X6652380Y15454286D01*
X6652380Y15740000D02*
X5652380Y15740000D01*
X5795238Y15644762D01*
X5890476Y15549524D01*
X5938095Y15454286D01*
%TO.C,SW2*%
X24466666Y19315239D02*
X24609523Y19267620D01*
X24847619Y19267620D01*
X24942857Y19315239D01*
X24990476Y19362858D01*
X25038095Y19458096D01*
X25038095Y19553334D01*
X24990476Y19648572D01*
X24942857Y19696191D01*
X24847619Y19743810D01*
X24657142Y19791429D01*
X24561904Y19839048D01*
X24514285Y19886667D01*
X24466666Y19981905D01*
X24466666Y20077143D01*
X24514285Y20172381D01*
X24561904Y20220000D01*
X24657142Y20267620D01*
X24895238Y20267620D01*
X25038095Y20220000D01*
X25371428Y20267620D02*
X25609523Y19267620D01*
X25800000Y19981905D01*
X25990476Y19267620D01*
X26228571Y20267620D01*
X26561904Y20172381D02*
X26609523Y20220000D01*
X26704761Y20267620D01*
X26942857Y20267620D01*
X27038095Y20220000D01*
X27085714Y20172381D01*
X27133333Y20077143D01*
X27133333Y19981905D01*
X27085714Y19839048D01*
X26514285Y19267620D01*
X27133333Y19267620D01*
%TO.C,D13*%
X44752380Y106735715D02*
X43752380Y106735715D01*
X43752380Y106973810D01*
X43800000Y107116667D01*
X43895238Y107211905D01*
X43990476Y107259524D01*
X44180952Y107307143D01*
X44323809Y107307143D01*
X44514285Y107259524D01*
X44609523Y107211905D01*
X44704761Y107116667D01*
X44752380Y106973810D01*
X44752380Y106735715D01*
X44752380Y108259524D02*
X44752380Y107688096D01*
X44752380Y107973810D02*
X43752380Y107973810D01*
X43895238Y107878572D01*
X43990476Y107783334D01*
X44038095Y107688096D01*
X43752380Y108592858D02*
X43752380Y109211905D01*
X44133333Y108878572D01*
X44133333Y109021429D01*
X44180952Y109116667D01*
X44228571Y109164286D01*
X44323809Y109211905D01*
X44561904Y109211905D01*
X44657142Y109164286D01*
X44704761Y109116667D01*
X44752380Y109021429D01*
X44752380Y108735715D01*
X44704761Y108640477D01*
X44657142Y108592858D01*
%TO.C,J1*%
X190176666Y175537620D02*
X190176666Y174823334D01*
X190129047Y174680477D01*
X190033809Y174585239D01*
X189890952Y174537620D01*
X189795714Y174537620D01*
X191176666Y174537620D02*
X190605238Y174537620D01*
X190890952Y174537620D02*
X190890952Y175537620D01*
X190795714Y175394762D01*
X190700476Y175299524D01*
X190605238Y175251905D01*
%TO.C,SW8*%
X24266666Y187135239D02*
X24409523Y187087620D01*
X24647619Y187087620D01*
X24742857Y187135239D01*
X24790476Y187182858D01*
X24838095Y187278096D01*
X24838095Y187373334D01*
X24790476Y187468572D01*
X24742857Y187516191D01*
X24647619Y187563810D01*
X24457142Y187611429D01*
X24361904Y187659048D01*
X24314285Y187706667D01*
X24266666Y187801905D01*
X24266666Y187897143D01*
X24314285Y187992381D01*
X24361904Y188040000D01*
X24457142Y188087620D01*
X24695238Y188087620D01*
X24838095Y188040000D01*
X25171428Y188087620D02*
X25409523Y187087620D01*
X25600000Y187801905D01*
X25790476Y187087620D01*
X26028571Y188087620D01*
X26552380Y187659048D02*
X26457142Y187706667D01*
X26409523Y187754286D01*
X26361904Y187849524D01*
X26361904Y187897143D01*
X26409523Y187992381D01*
X26457142Y188040000D01*
X26552380Y188087620D01*
X26742857Y188087620D01*
X26838095Y188040000D01*
X26885714Y187992381D01*
X26933333Y187897143D01*
X26933333Y187849524D01*
X26885714Y187754286D01*
X26838095Y187706667D01*
X26742857Y187659048D01*
X26552380Y187659048D01*
X26457142Y187611429D01*
X26409523Y187563810D01*
X26361904Y187468572D01*
X26361904Y187278096D01*
X26409523Y187182858D01*
X26457142Y187135239D01*
X26552380Y187087620D01*
X26742857Y187087620D01*
X26838095Y187135239D01*
X26885714Y187182858D01*
X26933333Y187278096D01*
X26933333Y187468572D01*
X26885714Y187563810D01*
X26838095Y187611429D01*
X26742857Y187659048D01*
%TO.C,D16*%
X80312380Y35615715D02*
X79312380Y35615715D01*
X79312380Y35853810D01*
X79360000Y35996667D01*
X79455238Y36091905D01*
X79550476Y36139524D01*
X79740952Y36187143D01*
X79883809Y36187143D01*
X80074285Y36139524D01*
X80169523Y36091905D01*
X80264761Y35996667D01*
X80312380Y35853810D01*
X80312380Y35615715D01*
X80312380Y37139524D02*
X80312380Y36568096D01*
X80312380Y36853810D02*
X79312380Y36853810D01*
X79455238Y36758572D01*
X79550476Y36663334D01*
X79598095Y36568096D01*
X79312380Y37996667D02*
X79312380Y37806191D01*
X79360000Y37710953D01*
X79407619Y37663334D01*
X79550476Y37568096D01*
X79740952Y37520477D01*
X80121904Y37520477D01*
X80217142Y37568096D01*
X80264761Y37615715D01*
X80312380Y37710953D01*
X80312380Y37901429D01*
X80264761Y37996667D01*
X80217142Y38044286D01*
X80121904Y38091905D01*
X79883809Y38091905D01*
X79788571Y38044286D01*
X79740952Y37996667D01*
X79693333Y37901429D01*
X79693333Y37710953D01*
X79740952Y37615715D01*
X79788571Y37568096D01*
X79883809Y37520477D01*
%TO.C,SW11*%
X148050476Y36425239D02*
X148193333Y36377620D01*
X148431428Y36377620D01*
X148526666Y36425239D01*
X148574285Y36472858D01*
X148621904Y36568096D01*
X148621904Y36663334D01*
X148574285Y36758572D01*
X148526666Y36806191D01*
X148431428Y36853810D01*
X148240952Y36901429D01*
X148145714Y36949048D01*
X148098095Y36996667D01*
X148050476Y37091905D01*
X148050476Y37187143D01*
X148098095Y37282381D01*
X148145714Y37330000D01*
X148240952Y37377620D01*
X148479047Y37377620D01*
X148621904Y37330000D01*
X148955238Y37377620D02*
X149193333Y36377620D01*
X149383809Y37091905D01*
X149574285Y36377620D01*
X149812380Y37377620D01*
X150717142Y36377620D02*
X150145714Y36377620D01*
X150431428Y36377620D02*
X150431428Y37377620D01*
X150336190Y37234762D01*
X150240952Y37139524D01*
X150145714Y37091905D01*
X151669523Y36377620D02*
X151098095Y36377620D01*
X151383809Y36377620D02*
X151383809Y37377620D01*
X151288571Y37234762D01*
X151193333Y37139524D01*
X151098095Y37091905D01*
%TO.C,SW17*%
X92170476Y31345239D02*
X92313333Y31297620D01*
X92551428Y31297620D01*
X92646666Y31345239D01*
X92694285Y31392858D01*
X92741904Y31488096D01*
X92741904Y31583334D01*
X92694285Y31678572D01*
X92646666Y31726191D01*
X92551428Y31773810D01*
X92360952Y31821429D01*
X92265714Y31869048D01*
X92218095Y31916667D01*
X92170476Y32011905D01*
X92170476Y32107143D01*
X92218095Y32202381D01*
X92265714Y32250000D01*
X92360952Y32297620D01*
X92599047Y32297620D01*
X92741904Y32250000D01*
X93075238Y32297620D02*
X93313333Y31297620D01*
X93503809Y32011905D01*
X93694285Y31297620D01*
X93932380Y32297620D01*
X94837142Y31297620D02*
X94265714Y31297620D01*
X94551428Y31297620D02*
X94551428Y32297620D01*
X94456190Y32154762D01*
X94360952Y32059524D01*
X94265714Y32011905D01*
X95170476Y32297620D02*
X95837142Y32297620D01*
X95408571Y31297620D01*
%TO.C,D14*%
X44752380Y142295715D02*
X43752380Y142295715D01*
X43752380Y142533810D01*
X43800000Y142676667D01*
X43895238Y142771905D01*
X43990476Y142819524D01*
X44180952Y142867143D01*
X44323809Y142867143D01*
X44514285Y142819524D01*
X44609523Y142771905D01*
X44704761Y142676667D01*
X44752380Y142533810D01*
X44752380Y142295715D01*
X44752380Y143819524D02*
X44752380Y143248096D01*
X44752380Y143533810D02*
X43752380Y143533810D01*
X43895238Y143438572D01*
X43990476Y143343334D01*
X44038095Y143248096D01*
X44085714Y144676667D02*
X44752380Y144676667D01*
X43704761Y144438572D02*
X44419047Y144200477D01*
X44419047Y144819524D01*
%TO.C,D3*%
X6652380Y67841905D02*
X5652380Y67841905D01*
X5652380Y68080000D01*
X5700000Y68222858D01*
X5795238Y68318096D01*
X5890476Y68365715D01*
X6080952Y68413334D01*
X6223809Y68413334D01*
X6414285Y68365715D01*
X6509523Y68318096D01*
X6604761Y68222858D01*
X6652380Y68080000D01*
X6652380Y67841905D01*
X5652380Y68746667D02*
X5652380Y69365715D01*
X6033333Y69032381D01*
X6033333Y69175239D01*
X6080952Y69270477D01*
X6128571Y69318096D01*
X6223809Y69365715D01*
X6461904Y69365715D01*
X6557142Y69318096D01*
X6604761Y69270477D01*
X6652380Y69175239D01*
X6652380Y68889524D01*
X6604761Y68794286D01*
X6557142Y68746667D01*
%TO.C,J9*%
X185872380Y7276667D02*
X186586666Y7276667D01*
X186729523Y7229048D01*
X186824761Y7133810D01*
X186872380Y6990953D01*
X186872380Y6895715D01*
X186872380Y7800477D02*
X186872380Y7990953D01*
X186824761Y8086191D01*
X186777142Y8133810D01*
X186634285Y8229048D01*
X186443809Y8276667D01*
X186062857Y8276667D01*
X185967619Y8229048D01*
X185920000Y8181429D01*
X185872380Y8086191D01*
X185872380Y7895715D01*
X185920000Y7800477D01*
X185967619Y7752858D01*
X186062857Y7705239D01*
X186300952Y7705239D01*
X186396190Y7752858D01*
X186443809Y7800477D01*
X186491428Y7895715D01*
X186491428Y8086191D01*
X186443809Y8181429D01*
X186396190Y8229048D01*
X186300952Y8276667D01*
%TO.C,D18*%
X80312380Y106735715D02*
X79312380Y106735715D01*
X79312380Y106973810D01*
X79360000Y107116667D01*
X79455238Y107211905D01*
X79550476Y107259524D01*
X79740952Y107307143D01*
X79883809Y107307143D01*
X80074285Y107259524D01*
X80169523Y107211905D01*
X80264761Y107116667D01*
X80312380Y106973810D01*
X80312380Y106735715D01*
X80312380Y108259524D02*
X80312380Y107688096D01*
X80312380Y107973810D02*
X79312380Y107973810D01*
X79455238Y107878572D01*
X79550476Y107783334D01*
X79598095Y107688096D01*
X79740952Y108830953D02*
X79693333Y108735715D01*
X79645714Y108688096D01*
X79550476Y108640477D01*
X79502857Y108640477D01*
X79407619Y108688096D01*
X79360000Y108735715D01*
X79312380Y108830953D01*
X79312380Y109021429D01*
X79360000Y109116667D01*
X79407619Y109164286D01*
X79502857Y109211905D01*
X79550476Y109211905D01*
X79645714Y109164286D01*
X79693333Y109116667D01*
X79740952Y109021429D01*
X79740952Y108830953D01*
X79788571Y108735715D01*
X79836190Y108688096D01*
X79931428Y108640477D01*
X80121904Y108640477D01*
X80217142Y108688096D01*
X80264761Y108735715D01*
X80312380Y108830953D01*
X80312380Y109021429D01*
X80264761Y109116667D01*
X80217142Y109164286D01*
X80121904Y109211905D01*
X79931428Y109211905D01*
X79836190Y109164286D01*
X79788571Y109116667D01*
X79740952Y109021429D01*
%TO.C,SW20*%
X92170476Y138025239D02*
X92313333Y137977620D01*
X92551428Y137977620D01*
X92646666Y138025239D01*
X92694285Y138072858D01*
X92741904Y138168096D01*
X92741904Y138263334D01*
X92694285Y138358572D01*
X92646666Y138406191D01*
X92551428Y138453810D01*
X92360952Y138501429D01*
X92265714Y138549048D01*
X92218095Y138596667D01*
X92170476Y138691905D01*
X92170476Y138787143D01*
X92218095Y138882381D01*
X92265714Y138930000D01*
X92360952Y138977620D01*
X92599047Y138977620D01*
X92741904Y138930000D01*
X93075238Y138977620D02*
X93313333Y137977620D01*
X93503809Y138691905D01*
X93694285Y137977620D01*
X93932380Y138977620D01*
X94265714Y138882381D02*
X94313333Y138930000D01*
X94408571Y138977620D01*
X94646666Y138977620D01*
X94741904Y138930000D01*
X94789523Y138882381D01*
X94837142Y138787143D01*
X94837142Y138691905D01*
X94789523Y138549048D01*
X94218095Y137977620D01*
X94837142Y137977620D01*
X95456190Y138977620D02*
X95551428Y138977620D01*
X95646666Y138930000D01*
X95694285Y138882381D01*
X95741904Y138787143D01*
X95789523Y138596667D01*
X95789523Y138358572D01*
X95741904Y138168096D01*
X95694285Y138072858D01*
X95646666Y138025239D01*
X95551428Y137977620D01*
X95456190Y137977620D01*
X95360952Y138025239D01*
X95313333Y138072858D01*
X95265714Y138168096D01*
X95218095Y138358572D01*
X95218095Y138596667D01*
X95265714Y138787143D01*
X95313333Y138882381D01*
X95360952Y138930000D01*
X95456190Y138977620D01*
%TO.C,SW1*%
X190095238Y186118334D02*
X190047619Y185975477D01*
X190047619Y185737381D01*
X190095238Y185642143D01*
X190142857Y185594524D01*
X190238095Y185546905D01*
X190333333Y185546905D01*
X190428571Y185594524D01*
X190476190Y185642143D01*
X190523809Y185737381D01*
X190571428Y185927858D01*
X190619047Y186023096D01*
X190666666Y186070715D01*
X190761904Y186118334D01*
X190857142Y186118334D01*
X190952380Y186070715D01*
X191000000Y186023096D01*
X191047619Y185927858D01*
X191047619Y185689762D01*
X191000000Y185546905D01*
X191047619Y185213572D02*
X190047619Y184975477D01*
X190761904Y184785000D01*
X190047619Y184594524D01*
X191047619Y184356429D01*
X190047619Y183451667D02*
X190047619Y184023096D01*
X190047619Y183737381D02*
X191047619Y183737381D01*
X190904761Y183832620D01*
X190809523Y183927858D01*
X190761904Y184023096D01*
%TO.C,D4*%
X6652380Y95781905D02*
X5652380Y95781905D01*
X5652380Y96020000D01*
X5700000Y96162858D01*
X5795238Y96258096D01*
X5890476Y96305715D01*
X6080952Y96353334D01*
X6223809Y96353334D01*
X6414285Y96305715D01*
X6509523Y96258096D01*
X6604761Y96162858D01*
X6652380Y96020000D01*
X6652380Y95781905D01*
X5985714Y97210477D02*
X6652380Y97210477D01*
X5604761Y96972381D02*
X6319047Y96734286D01*
X6319047Y97353334D01*
%TO.C,SW6*%
X24166666Y131215239D02*
X24309523Y131167620D01*
X24547619Y131167620D01*
X24642857Y131215239D01*
X24690476Y131262858D01*
X24738095Y131358096D01*
X24738095Y131453334D01*
X24690476Y131548572D01*
X24642857Y131596191D01*
X24547619Y131643810D01*
X24357142Y131691429D01*
X24261904Y131739048D01*
X24214285Y131786667D01*
X24166666Y131881905D01*
X24166666Y131977143D01*
X24214285Y132072381D01*
X24261904Y132120000D01*
X24357142Y132167620D01*
X24595238Y132167620D01*
X24738095Y132120000D01*
X25071428Y132167620D02*
X25309523Y131167620D01*
X25500000Y131881905D01*
X25690476Y131167620D01*
X25928571Y132167620D01*
X26738095Y132167620D02*
X26547619Y132167620D01*
X26452380Y132120000D01*
X26404761Y132072381D01*
X26309523Y131929524D01*
X26261904Y131739048D01*
X26261904Y131358096D01*
X26309523Y131262858D01*
X26357142Y131215239D01*
X26452380Y131167620D01*
X26642857Y131167620D01*
X26738095Y131215239D01*
X26785714Y131262858D01*
X26833333Y131358096D01*
X26833333Y131596191D01*
X26785714Y131691429D01*
X26738095Y131739048D01*
X26642857Y131786667D01*
X26452380Y131786667D01*
X26357142Y131739048D01*
X26309523Y131691429D01*
X26261904Y131596191D01*
%TO.C,RV2*%
X60090422Y229417619D02*
X59757089Y229893809D01*
X59518994Y229417619D02*
X59518994Y230417619D01*
X59899946Y230417619D01*
X59995184Y230370000D01*
X60042803Y230322380D01*
X60090422Y230227142D01*
X60090422Y230084285D01*
X60042803Y229989047D01*
X59995184Y229941428D01*
X59899946Y229893809D01*
X59518994Y229893809D01*
X60376137Y230417619D02*
X60709470Y229417619D01*
X61042803Y230417619D01*
X61328518Y230322380D02*
X61376137Y230370000D01*
X61471375Y230417619D01*
X61709470Y230417619D01*
X61804708Y230370000D01*
X61852327Y230322380D01*
X61899946Y230227142D01*
X61899946Y230131904D01*
X61852327Y229989047D01*
X61280899Y229417619D01*
X61899946Y229417619D01*
%TO.C,D20*%
X80312380Y177855715D02*
X79312380Y177855715D01*
X79312380Y178093810D01*
X79360000Y178236667D01*
X79455238Y178331905D01*
X79550476Y178379524D01*
X79740952Y178427143D01*
X79883809Y178427143D01*
X80074285Y178379524D01*
X80169523Y178331905D01*
X80264761Y178236667D01*
X80312380Y178093810D01*
X80312380Y177855715D01*
X79407619Y178808096D02*
X79360000Y178855715D01*
X79312380Y178950953D01*
X79312380Y179189048D01*
X79360000Y179284286D01*
X79407619Y179331905D01*
X79502857Y179379524D01*
X79598095Y179379524D01*
X79740952Y179331905D01*
X80312380Y178760477D01*
X80312380Y179379524D01*
X79312380Y179998572D02*
X79312380Y180093810D01*
X79360000Y180189048D01*
X79407619Y180236667D01*
X79502857Y180284286D01*
X79693333Y180331905D01*
X79931428Y180331905D01*
X80121904Y180284286D01*
X80217142Y180236667D01*
X80264761Y180189048D01*
X80312380Y180093810D01*
X80312380Y179998572D01*
X80264761Y179903334D01*
X80217142Y179855715D01*
X80121904Y179808096D01*
X79931428Y179760477D01*
X79693333Y179760477D01*
X79502857Y179808096D01*
X79407619Y179855715D01*
X79360000Y179903334D01*
X79312380Y179998572D01*
%TO.C,J7*%
X144507380Y240976666D02*
X145221666Y240976666D01*
X145364523Y240929047D01*
X145459761Y240833809D01*
X145507380Y240690952D01*
X145507380Y240595714D01*
X144507380Y241357619D02*
X144507380Y242024285D01*
X145507380Y241595714D01*
%TO.C,SW13*%
X56610476Y66905239D02*
X56753333Y66857620D01*
X56991428Y66857620D01*
X57086666Y66905239D01*
X57134285Y66952858D01*
X57181904Y67048096D01*
X57181904Y67143334D01*
X57134285Y67238572D01*
X57086666Y67286191D01*
X56991428Y67333810D01*
X56800952Y67381429D01*
X56705714Y67429048D01*
X56658095Y67476667D01*
X56610476Y67571905D01*
X56610476Y67667143D01*
X56658095Y67762381D01*
X56705714Y67810000D01*
X56800952Y67857620D01*
X57039047Y67857620D01*
X57181904Y67810000D01*
X57515238Y67857620D02*
X57753333Y66857620D01*
X57943809Y67571905D01*
X58134285Y66857620D01*
X58372380Y67857620D01*
X59277142Y66857620D02*
X58705714Y66857620D01*
X58991428Y66857620D02*
X58991428Y67857620D01*
X58896190Y67714762D01*
X58800952Y67619524D01*
X58705714Y67571905D01*
X59610476Y67857620D02*
X60229523Y67857620D01*
X59896190Y67476667D01*
X60039047Y67476667D01*
X60134285Y67429048D01*
X60181904Y67381429D01*
X60229523Y67286191D01*
X60229523Y67048096D01*
X60181904Y66952858D01*
X60134285Y66905239D01*
X60039047Y66857620D01*
X59753333Y66857620D01*
X59658095Y66905239D01*
X59610476Y66952858D01*
%TO.C,D11*%
X44752380Y35615715D02*
X43752380Y35615715D01*
X43752380Y35853810D01*
X43800000Y35996667D01*
X43895238Y36091905D01*
X43990476Y36139524D01*
X44180952Y36187143D01*
X44323809Y36187143D01*
X44514285Y36139524D01*
X44609523Y36091905D01*
X44704761Y35996667D01*
X44752380Y35853810D01*
X44752380Y35615715D01*
X44752380Y37139524D02*
X44752380Y36568096D01*
X44752380Y36853810D02*
X43752380Y36853810D01*
X43895238Y36758572D01*
X43990476Y36663334D01*
X44038095Y36568096D01*
X44752380Y38091905D02*
X44752380Y37520477D01*
X44752380Y37806191D02*
X43752380Y37806191D01*
X43895238Y37710953D01*
X43990476Y37615715D01*
X44038095Y37520477D01*
%TO.C,C1*%
X187637142Y157313334D02*
X187684761Y157265715D01*
X187732380Y157122858D01*
X187732380Y157027620D01*
X187684761Y156884762D01*
X187589523Y156789524D01*
X187494285Y156741905D01*
X187303809Y156694286D01*
X187160952Y156694286D01*
X186970476Y156741905D01*
X186875238Y156789524D01*
X186780000Y156884762D01*
X186732380Y157027620D01*
X186732380Y157122858D01*
X186780000Y157265715D01*
X186827619Y157313334D01*
X187732380Y158265715D02*
X187732380Y157694286D01*
X187732380Y157980000D02*
X186732380Y157980000D01*
X186875238Y157884762D01*
X186970476Y157789524D01*
X187018095Y157694286D01*
%TO.C,D5*%
X6652380Y123721905D02*
X5652380Y123721905D01*
X5652380Y123960000D01*
X5700000Y124102858D01*
X5795238Y124198096D01*
X5890476Y124245715D01*
X6080952Y124293334D01*
X6223809Y124293334D01*
X6414285Y124245715D01*
X6509523Y124198096D01*
X6604761Y124102858D01*
X6652380Y123960000D01*
X6652380Y123721905D01*
X5652380Y125198096D02*
X5652380Y124721905D01*
X6128571Y124674286D01*
X6080952Y124721905D01*
X6033333Y124817143D01*
X6033333Y125055239D01*
X6080952Y125150477D01*
X6128571Y125198096D01*
X6223809Y125245715D01*
X6461904Y125245715D01*
X6557142Y125198096D01*
X6604761Y125150477D01*
X6652380Y125055239D01*
X6652380Y124817143D01*
X6604761Y124721905D01*
X6557142Y124674286D01*
%TO.C,SW4*%
X24166666Y75335239D02*
X24309523Y75287620D01*
X24547619Y75287620D01*
X24642857Y75335239D01*
X24690476Y75382858D01*
X24738095Y75478096D01*
X24738095Y75573334D01*
X24690476Y75668572D01*
X24642857Y75716191D01*
X24547619Y75763810D01*
X24357142Y75811429D01*
X24261904Y75859048D01*
X24214285Y75906667D01*
X24166666Y76001905D01*
X24166666Y76097143D01*
X24214285Y76192381D01*
X24261904Y76240000D01*
X24357142Y76287620D01*
X24595238Y76287620D01*
X24738095Y76240000D01*
X25071428Y76287620D02*
X25309523Y75287620D01*
X25500000Y76001905D01*
X25690476Y75287620D01*
X25928571Y76287620D01*
X26738095Y75954286D02*
X26738095Y75287620D01*
X26500000Y76335239D02*
X26261904Y75620953D01*
X26880952Y75620953D01*
%TO.C,SW7*%
X23966666Y144835239D02*
X24109523Y144787620D01*
X24347619Y144787620D01*
X24442857Y144835239D01*
X24490476Y144882858D01*
X24538095Y144978096D01*
X24538095Y145073334D01*
X24490476Y145168572D01*
X24442857Y145216191D01*
X24347619Y145263810D01*
X24157142Y145311429D01*
X24061904Y145359048D01*
X24014285Y145406667D01*
X23966666Y145501905D01*
X23966666Y145597143D01*
X24014285Y145692381D01*
X24061904Y145740000D01*
X24157142Y145787620D01*
X24395238Y145787620D01*
X24538095Y145740000D01*
X24871428Y145787620D02*
X25109523Y144787620D01*
X25300000Y145501905D01*
X25490476Y144787620D01*
X25728571Y145787620D01*
X26014285Y145787620D02*
X26680952Y145787620D01*
X26252380Y144787620D01*
%TO.C,SW18*%
X92170476Y66905239D02*
X92313333Y66857620D01*
X92551428Y66857620D01*
X92646666Y66905239D01*
X92694285Y66952858D01*
X92741904Y67048096D01*
X92741904Y67143334D01*
X92694285Y67238572D01*
X92646666Y67286191D01*
X92551428Y67333810D01*
X92360952Y67381429D01*
X92265714Y67429048D01*
X92218095Y67476667D01*
X92170476Y67571905D01*
X92170476Y67667143D01*
X92218095Y67762381D01*
X92265714Y67810000D01*
X92360952Y67857620D01*
X92599047Y67857620D01*
X92741904Y67810000D01*
X93075238Y67857620D02*
X93313333Y66857620D01*
X93503809Y67571905D01*
X93694285Y66857620D01*
X93932380Y67857620D01*
X94837142Y66857620D02*
X94265714Y66857620D01*
X94551428Y66857620D02*
X94551428Y67857620D01*
X94456190Y67714762D01*
X94360952Y67619524D01*
X94265714Y67571905D01*
X95408571Y67429048D02*
X95313333Y67476667D01*
X95265714Y67524286D01*
X95218095Y67619524D01*
X95218095Y67667143D01*
X95265714Y67762381D01*
X95313333Y67810000D01*
X95408571Y67857620D01*
X95599047Y67857620D01*
X95694285Y67810000D01*
X95741904Y67762381D01*
X95789523Y67667143D01*
X95789523Y67619524D01*
X95741904Y67524286D01*
X95694285Y67476667D01*
X95599047Y67429048D01*
X95408571Y67429048D01*
X95313333Y67381429D01*
X95265714Y67333810D01*
X95218095Y67238572D01*
X95218095Y67048096D01*
X95265714Y66952858D01*
X95313333Y66905239D01*
X95408571Y66857620D01*
X95599047Y66857620D01*
X95694285Y66905239D01*
X95741904Y66952858D01*
X95789523Y67048096D01*
X95789523Y67238572D01*
X95741904Y67333810D01*
X95694285Y67381429D01*
X95599047Y67429048D01*
%TO.C,SW21*%
X92170476Y173585239D02*
X92313333Y173537620D01*
X92551428Y173537620D01*
X92646666Y173585239D01*
X92694285Y173632858D01*
X92741904Y173728096D01*
X92741904Y173823334D01*
X92694285Y173918572D01*
X92646666Y173966191D01*
X92551428Y174013810D01*
X92360952Y174061429D01*
X92265714Y174109048D01*
X92218095Y174156667D01*
X92170476Y174251905D01*
X92170476Y174347143D01*
X92218095Y174442381D01*
X92265714Y174490000D01*
X92360952Y174537620D01*
X92599047Y174537620D01*
X92741904Y174490000D01*
X93075238Y174537620D02*
X93313333Y173537620D01*
X93503809Y174251905D01*
X93694285Y173537620D01*
X93932380Y174537620D01*
X94265714Y174442381D02*
X94313333Y174490000D01*
X94408571Y174537620D01*
X94646666Y174537620D01*
X94741904Y174490000D01*
X94789523Y174442381D01*
X94837142Y174347143D01*
X94837142Y174251905D01*
X94789523Y174109048D01*
X94218095Y173537620D01*
X94837142Y173537620D01*
X95789523Y173537620D02*
X95218095Y173537620D01*
X95503809Y173537620D02*
X95503809Y174537620D01*
X95408571Y174394762D01*
X95313333Y174299524D01*
X95218095Y174251905D01*
%TO.C,SW14*%
X56610476Y102465239D02*
X56753333Y102417620D01*
X56991428Y102417620D01*
X57086666Y102465239D01*
X57134285Y102512858D01*
X57181904Y102608096D01*
X57181904Y102703334D01*
X57134285Y102798572D01*
X57086666Y102846191D01*
X56991428Y102893810D01*
X56800952Y102941429D01*
X56705714Y102989048D01*
X56658095Y103036667D01*
X56610476Y103131905D01*
X56610476Y103227143D01*
X56658095Y103322381D01*
X56705714Y103370000D01*
X56800952Y103417620D01*
X57039047Y103417620D01*
X57181904Y103370000D01*
X57515238Y103417620D02*
X57753333Y102417620D01*
X57943809Y103131905D01*
X58134285Y102417620D01*
X58372380Y103417620D01*
X59277142Y102417620D02*
X58705714Y102417620D01*
X58991428Y102417620D02*
X58991428Y103417620D01*
X58896190Y103274762D01*
X58800952Y103179524D01*
X58705714Y103131905D01*
X60134285Y103084286D02*
X60134285Y102417620D01*
X59896190Y103465239D02*
X59658095Y102750953D01*
X60277142Y102750953D01*
%TO.C,D19*%
X80312380Y142295715D02*
X79312380Y142295715D01*
X79312380Y142533810D01*
X79360000Y142676667D01*
X79455238Y142771905D01*
X79550476Y142819524D01*
X79740952Y142867143D01*
X79883809Y142867143D01*
X80074285Y142819524D01*
X80169523Y142771905D01*
X80264761Y142676667D01*
X80312380Y142533810D01*
X80312380Y142295715D01*
X80312380Y143819524D02*
X80312380Y143248096D01*
X80312380Y143533810D02*
X79312380Y143533810D01*
X79455238Y143438572D01*
X79550476Y143343334D01*
X79598095Y143248096D01*
X80312380Y144295715D02*
X80312380Y144486191D01*
X80264761Y144581429D01*
X80217142Y144629048D01*
X80074285Y144724286D01*
X79883809Y144771905D01*
X79502857Y144771905D01*
X79407619Y144724286D01*
X79360000Y144676667D01*
X79312380Y144581429D01*
X79312380Y144390953D01*
X79360000Y144295715D01*
X79407619Y144248096D01*
X79502857Y144200477D01*
X79740952Y144200477D01*
X79836190Y144248096D01*
X79883809Y144295715D01*
X79931428Y144390953D01*
X79931428Y144581429D01*
X79883809Y144676667D01*
X79836190Y144724286D01*
X79740952Y144771905D01*
%TO.C,RV1*%
X101004761Y229417619D02*
X100671428Y229893809D01*
X100433333Y229417619D02*
X100433333Y230417619D01*
X100814285Y230417619D01*
X100909523Y230370000D01*
X100957142Y230322380D01*
X101004761Y230227142D01*
X101004761Y230084285D01*
X100957142Y229989047D01*
X100909523Y229941428D01*
X100814285Y229893809D01*
X100433333Y229893809D01*
X101290476Y230417619D02*
X101623809Y229417619D01*
X101957142Y230417619D01*
X102814285Y229417619D02*
X102242857Y229417619D01*
X102528571Y229417619D02*
X102528571Y230417619D01*
X102433333Y230274761D01*
X102338095Y230179523D01*
X102242857Y230131904D01*
%TO.C,D7*%
X6652380Y179601905D02*
X5652380Y179601905D01*
X5652380Y179840000D01*
X5700000Y179982858D01*
X5795238Y180078096D01*
X5890476Y180125715D01*
X6080952Y180173334D01*
X6223809Y180173334D01*
X6414285Y180125715D01*
X6509523Y180078096D01*
X6604761Y179982858D01*
X6652380Y179840000D01*
X6652380Y179601905D01*
X5652380Y180506667D02*
X5652380Y181173334D01*
X6652380Y180744762D01*
D11*
%TO.C,D6*%
X11705000Y154960000D02*
X8615000Y154960000D01*
X8615170Y154960000D02*
G75*
G03*
X10160462Y149410000I1544830J-2560000D01*
G01*
X10159538Y149410000D02*
G75*
G03*
X11704830Y154960000I462J2990000D01*
G01*
X12660000Y152400000D02*
G75*
G03*
X12660000Y152400000I-2500000J0D01*
G01*
%TO.C,SW9*%
X19250000Y207310000D02*
X19250000Y209250000D01*
X19250000Y212310000D02*
X19250000Y214430000D01*
X31550000Y202130000D02*
X19250000Y202130000D01*
X31550000Y214430000D02*
X31550000Y212310000D01*
X19250000Y202130000D02*
X19250000Y204250000D01*
X19250000Y214430000D02*
X31550000Y214430000D01*
X31550000Y209250000D02*
X31550000Y207310000D01*
X31550000Y204250000D02*
X31550000Y202130000D01*
X29879050Y208320000D02*
G75*
G03*
X29879050Y208320000I-4579050J0D01*
G01*
%TO.C,D17*%
X82275000Y69830000D02*
X85365000Y69830000D01*
X83820462Y75380000D02*
G75*
G03*
X82275170Y69830000I-462J-2990000D01*
G01*
X85364830Y69830000D02*
G75*
G03*
X83819538Y75380000I-1544830J2560000D01*
G01*
X86320000Y72390000D02*
G75*
G03*
X86320000Y72390000I-2500000J0D01*
G01*
%TO.C,D8*%
X11705000Y210840000D02*
X8615000Y210840000D01*
X8615170Y210840000D02*
G75*
G03*
X10160462Y205290000I1544830J-2560000D01*
G01*
X10159538Y205290000D02*
G75*
G03*
X11704830Y210840000I462J2990000D01*
G01*
X12660000Y208280000D02*
G75*
G03*
X12660000Y208280000I-2500000J0D01*
G01*
%TO.C,SW16*%
X53086000Y172720000D02*
X63754000Y172720000D01*
X63754000Y167640000D02*
X53086000Y167640000D01*
X53086000Y167640000D02*
X53086000Y168148000D01*
X63754000Y172212000D02*
X63754000Y172720000D01*
X63754000Y167640000D02*
X63754000Y168148000D01*
X53086000Y172212000D02*
X53086000Y172720000D01*
%TO.C,J6*%
X167700000Y54550000D02*
X167700000Y57210000D01*
X133350000Y54550000D02*
X132020000Y54550000D01*
X134620000Y57210000D02*
X167700000Y57210000D01*
X134620000Y54550000D02*
X134620000Y57210000D01*
X132020000Y54550000D02*
X132020000Y55880000D01*
X134620000Y54550000D02*
X167700000Y54550000D01*
%TO.C,D2*%
X8615000Y38080000D02*
X11705000Y38080000D01*
X11704830Y38080000D02*
G75*
G03*
X10159538Y43630000I-1544830J2560000D01*
G01*
X10160462Y43630000D02*
G75*
G03*
X8615170Y38080000I-462J-2990000D01*
G01*
X12660000Y40640000D02*
G75*
G03*
X12660000Y40640000I-2500000J0D01*
G01*
%TO.C,J11*%
X141340000Y1895000D02*
X140580000Y1895000D01*
X138800000Y1895000D02*
X138040000Y1895000D01*
X143120000Y1895000D02*
X143120000Y7895000D01*
X140580000Y1895000D02*
X140580000Y7895000D01*
X141340000Y10952071D02*
X141340000Y10555000D01*
X145660000Y1895000D02*
X145660000Y7895000D01*
X138040000Y1895000D02*
X138040000Y7895000D01*
X146120000Y7895000D02*
X146120000Y1895000D01*
X147370000Y7895000D02*
X147370000Y10555000D01*
X138040000Y10952071D02*
X138040000Y10555000D01*
X145760000Y7895000D02*
X145760000Y1895000D01*
X143120000Y10952071D02*
X143120000Y10555000D01*
X146040000Y13265000D02*
X147310000Y13265000D01*
X145880000Y7895000D02*
X145880000Y1895000D01*
X139690000Y10555000D02*
X139690000Y7895000D01*
X144770000Y10555000D02*
X144770000Y7895000D01*
X146420000Y7895000D02*
X146420000Y1895000D01*
X140580000Y10952071D02*
X140580000Y10555000D01*
X141340000Y7895000D02*
X141340000Y1895000D01*
X145660000Y10885000D02*
X145660000Y10555000D01*
X146360000Y7895000D02*
X146360000Y1895000D01*
X146240000Y7895000D02*
X146240000Y1895000D01*
X146000000Y7895000D02*
X146000000Y1895000D01*
X142230000Y10555000D02*
X142230000Y7895000D01*
X147310000Y13265000D02*
X147310000Y11995000D01*
X143880000Y10952071D02*
X143880000Y10555000D01*
X143880000Y7895000D02*
X143880000Y1895000D01*
X146420000Y10885000D02*
X146420000Y10555000D01*
X147370000Y10555000D02*
X137090000Y10555000D01*
X143880000Y1895000D02*
X143120000Y1895000D01*
X137090000Y10555000D02*
X137090000Y7895000D01*
X138800000Y7895000D02*
X138800000Y1895000D01*
X146420000Y1895000D02*
X145660000Y1895000D01*
X138800000Y10952071D02*
X138800000Y10555000D01*
X137090000Y7895000D02*
X147370000Y7895000D01*
%TO.C,D15*%
X46715000Y176510000D02*
X49805000Y176510000D01*
X48260462Y182060000D02*
G75*
G03*
X46715170Y176510000I-462J-2990000D01*
G01*
X49804830Y176510000D02*
G75*
G03*
X48259538Y182060000I-1544830J2560000D01*
G01*
X50760000Y179070000D02*
G75*
G03*
X50760000Y179070000I-2500000J0D01*
G01*
%TO.C,D10*%
X132355000Y35580000D02*
X129265000Y35580000D01*
X129265170Y35580000D02*
G75*
G03*
X130810462Y30030000I1544830J-2560000D01*
G01*
X130809538Y30030000D02*
G75*
G03*
X132354830Y35580000I462J2990000D01*
G01*
X133310000Y33020000D02*
G75*
G03*
X133310000Y33020000I-2500000J0D01*
G01*
%TO.C,J10*%
X125740000Y235655000D02*
X124470000Y235655000D01*
X124470000Y235655000D02*
X124470000Y236925000D01*
X127900000Y247025000D02*
X128660000Y247025000D01*
X125420000Y241025000D02*
X125420000Y247025000D01*
X131200000Y247025000D02*
X131200000Y241025000D01*
X126120000Y238035000D02*
X126120000Y238365000D01*
X130440000Y241025000D02*
X130440000Y247025000D01*
X124410000Y238365000D02*
X134690000Y238365000D01*
X125360000Y247025000D02*
X126120000Y247025000D01*
X130440000Y247025000D02*
X131200000Y247025000D01*
X132090000Y238365000D02*
X132090000Y241025000D01*
X131200000Y237967929D02*
X131200000Y238365000D01*
X125360000Y238035000D02*
X125360000Y238365000D01*
X132980000Y241025000D02*
X132980000Y247025000D01*
X126020000Y241025000D02*
X126020000Y247025000D01*
X125540000Y241025000D02*
X125540000Y247025000D01*
X129550000Y238365000D02*
X129550000Y241025000D01*
X127900000Y237967929D02*
X127900000Y238365000D01*
X125780000Y241025000D02*
X125780000Y247025000D01*
X127900000Y241025000D02*
X127900000Y247025000D01*
X125360000Y241025000D02*
X125360000Y247025000D01*
X128660000Y237967929D02*
X128660000Y238365000D01*
X134690000Y241025000D02*
X124410000Y241025000D01*
X130440000Y237967929D02*
X130440000Y238365000D01*
X128660000Y247025000D02*
X128660000Y241025000D01*
X134690000Y238365000D02*
X134690000Y241025000D01*
X126120000Y247025000D02*
X126120000Y241025000D01*
X124410000Y241025000D02*
X124410000Y238365000D01*
X132980000Y237967929D02*
X132980000Y238365000D01*
X133740000Y247025000D02*
X133740000Y241025000D01*
X125900000Y241025000D02*
X125900000Y247025000D01*
X133740000Y237967929D02*
X133740000Y238365000D01*
X127010000Y238365000D02*
X127010000Y241025000D01*
X132980000Y247025000D02*
X133740000Y247025000D01*
X125660000Y241025000D02*
X125660000Y247025000D01*
%TO.C,D9*%
X11705000Y236240000D02*
X8615000Y236240000D01*
X8615170Y236240000D02*
G75*
G03*
X10160462Y230690000I1544830J-2560000D01*
G01*
X10159538Y230690000D02*
G75*
G03*
X11704830Y236240000I462J2990000D01*
G01*
X12660000Y233680000D02*
G75*
G03*
X12660000Y233680000I-2500000J0D01*
G01*
%TO.C,J8*%
X174885000Y237967929D02*
X174885000Y238365000D01*
X172645000Y241025000D02*
X172645000Y247025000D01*
X184215000Y238365000D02*
X184215000Y241025000D01*
X177425000Y247025000D02*
X178185000Y247025000D01*
X178185000Y237967929D02*
X178185000Y238365000D01*
X171455000Y235655000D02*
X171455000Y236925000D01*
X173005000Y241025000D02*
X173005000Y247025000D01*
X172525000Y241025000D02*
X172525000Y247025000D01*
X173105000Y238035000D02*
X173105000Y238365000D01*
X173995000Y238365000D02*
X173995000Y241025000D01*
X172885000Y241025000D02*
X172885000Y247025000D01*
X171395000Y241025000D02*
X171395000Y238365000D01*
X182505000Y237967929D02*
X182505000Y238365000D01*
X172765000Y241025000D02*
X172765000Y247025000D01*
X182505000Y241025000D02*
X182505000Y247025000D01*
X184215000Y241025000D02*
X171395000Y241025000D01*
X179965000Y247025000D02*
X180725000Y247025000D01*
X173105000Y247025000D02*
X173105000Y241025000D01*
X171395000Y238365000D02*
X184215000Y238365000D01*
X172345000Y241025000D02*
X172345000Y247025000D01*
X177425000Y237967929D02*
X177425000Y238365000D01*
X175645000Y237967929D02*
X175645000Y238365000D01*
X172345000Y238035000D02*
X172345000Y238365000D01*
X176535000Y238365000D02*
X176535000Y241025000D01*
X172725000Y235655000D02*
X171455000Y235655000D01*
X179965000Y237967929D02*
X179965000Y238365000D01*
X179075000Y238365000D02*
X179075000Y241025000D01*
X183265000Y237967929D02*
X183265000Y238365000D01*
X175645000Y247025000D02*
X175645000Y241025000D01*
X180725000Y237967929D02*
X180725000Y238365000D01*
X180725000Y247025000D02*
X180725000Y241025000D01*
X174885000Y247025000D02*
X175645000Y247025000D01*
X183265000Y247025000D02*
X183265000Y241025000D01*
X172405000Y241025000D02*
X172405000Y247025000D01*
X179965000Y241025000D02*
X179965000Y247025000D01*
X174885000Y241025000D02*
X174885000Y247025000D01*
X178185000Y247025000D02*
X178185000Y241025000D01*
X177425000Y241025000D02*
X177425000Y247025000D01*
X172345000Y247025000D02*
X173105000Y247025000D01*
X181615000Y238365000D02*
X181615000Y241025000D01*
X182505000Y247025000D02*
X183265000Y247025000D01*
%TO.C,D12*%
X46715000Y69830000D02*
X49805000Y69830000D01*
X48260462Y75380000D02*
G75*
G03*
X46715170Y69830000I-462J-2990000D01*
G01*
X49804830Y69830000D02*
G75*
G03*
X48259538Y75380000I-1544830J2560000D01*
G01*
X50760000Y72390000D02*
G75*
G03*
X50760000Y72390000I-2500000J0D01*
G01*
%TO.C,SW12*%
X53086000Y30480000D02*
X63754000Y30480000D01*
X53086000Y25400000D02*
X53086000Y25908000D01*
X53086000Y29972000D02*
X53086000Y30480000D01*
X63754000Y29972000D02*
X63754000Y30480000D01*
X63754000Y25400000D02*
X53086000Y25400000D01*
X63754000Y25400000D02*
X63754000Y25908000D01*
%TO.C,SW15*%
X63754000Y136652000D02*
X63754000Y137160000D01*
X53086000Y136652000D02*
X53086000Y137160000D01*
X53086000Y132080000D02*
X53086000Y132588000D01*
X63754000Y132080000D02*
X53086000Y132080000D01*
X63754000Y132080000D02*
X63754000Y132588000D01*
X53086000Y137160000D02*
X63754000Y137160000D01*
%TO.C,D21*%
X188235000Y203220000D02*
X185145000Y203220000D01*
X186689538Y197670000D02*
G75*
G03*
X188234830Y203220000I462J2990000D01*
G01*
X185145170Y203220000D02*
G75*
G03*
X186690462Y197670000I1544830J-2560000D01*
G01*
X189190000Y200660000D02*
G75*
G03*
X189190000Y200660000I-2500000J0D01*
G01*
%TO.C,SW5*%
X19250000Y100550000D02*
X19250000Y102670000D01*
X31550000Y92490000D02*
X31550000Y90370000D01*
X19250000Y102670000D02*
X31550000Y102670000D01*
X31550000Y90370000D02*
X19250000Y90370000D01*
X19250000Y90370000D02*
X19250000Y92490000D01*
X31550000Y102670000D02*
X31550000Y100550000D01*
X19250000Y95550000D02*
X19250000Y97490000D01*
X31550000Y97490000D02*
X31550000Y95550000D01*
X30079050Y96480000D02*
G75*
G03*
X30079050Y96480000I-4579050J0D01*
G01*
%TO.C,SW3*%
X31550000Y34490000D02*
X19250000Y34490000D01*
X19250000Y39670000D02*
X19250000Y41610000D01*
X19250000Y34490000D02*
X19250000Y36610000D01*
X31550000Y46790000D02*
X31550000Y44670000D01*
X19250000Y46790000D02*
X31550000Y46790000D01*
X19250000Y44670000D02*
X19250000Y46790000D01*
X31550000Y36610000D02*
X31550000Y34490000D01*
X31550000Y41610000D02*
X31550000Y39670000D01*
X30079050Y40600000D02*
G75*
G03*
X30079050Y40600000I-4579050J0D01*
G01*
%TO.C,SW19*%
X88646000Y101092000D02*
X88646000Y101600000D01*
X99314000Y96520000D02*
X99314000Y97028000D01*
X99314000Y101092000D02*
X99314000Y101600000D01*
X88646000Y96520000D02*
X88646000Y97028000D01*
X88646000Y101600000D02*
X99314000Y101600000D01*
X99314000Y96520000D02*
X88646000Y96520000D01*
%TO.C,SW10*%
X19250000Y240250000D02*
X19250000Y242370000D01*
X31550000Y230070000D02*
X19250000Y230070000D01*
X19250000Y235250000D02*
X19250000Y237190000D01*
X31550000Y242370000D02*
X31550000Y240250000D01*
X31550000Y237190000D02*
X31550000Y235250000D01*
X19250000Y242370000D02*
X31550000Y242370000D01*
X19250000Y230070000D02*
X19250000Y232190000D01*
X31550000Y232190000D02*
X31550000Y230070000D01*
X29879050Y236260000D02*
G75*
G03*
X29879050Y236260000I-4579050J0D01*
G01*
%TO.C,D1*%
X8615000Y12680000D02*
X11705000Y12680000D01*
X11704830Y12680000D02*
G75*
G03*
X10159538Y18230000I-1544830J2560000D01*
G01*
X10160462Y18230000D02*
G75*
G03*
X8615170Y12680000I-462J-2990000D01*
G01*
X12660000Y15240000D02*
G75*
G03*
X12660000Y15240000I-2500000J0D01*
G01*
%TO.C,SW2*%
X31550000Y18850000D02*
X31550000Y16730000D01*
X19250000Y6550000D02*
X19250000Y8670000D01*
X19250000Y18850000D02*
X31550000Y18850000D01*
X31550000Y6550000D02*
X19250000Y6550000D01*
X19250000Y16730000D02*
X19250000Y18850000D01*
X31550000Y13670000D02*
X31550000Y11730000D01*
X19250000Y11730000D02*
X19250000Y13670000D01*
X31550000Y8670000D02*
X31550000Y6550000D01*
X30079050Y12660000D02*
G75*
G03*
X30079050Y12660000I-4579050J0D01*
G01*
%TO.C,D13*%
X46715000Y105390000D02*
X49805000Y105390000D01*
X48260462Y110940000D02*
G75*
G03*
X46715170Y105390000I-462J-2990000D01*
G01*
X49804830Y105390000D02*
G75*
G03*
X48259538Y110940000I-1544830J2560000D01*
G01*
X50760000Y107950000D02*
G75*
G03*
X50760000Y107950000I-2500000J0D01*
G01*
%TO.C,J1*%
X187235000Y172340000D02*
X187565000Y172340000D01*
X190225000Y173100000D02*
X196225000Y173100000D01*
X190225000Y168850000D02*
X190225000Y174050000D01*
X187565000Y174050000D02*
X187565000Y168850000D01*
X184855000Y173990000D02*
X186125000Y173990000D01*
X190225000Y174050000D02*
X187565000Y174050000D01*
X190225000Y172560000D02*
X196225000Y172560000D01*
X184855000Y172720000D02*
X184855000Y173990000D01*
X187167929Y170560000D02*
X187565000Y170560000D01*
X187565000Y171450000D02*
X190225000Y171450000D01*
X196225000Y170560000D02*
X196225000Y169800000D01*
X187565000Y168850000D02*
X190225000Y168850000D01*
X190225000Y172800000D02*
X196225000Y172800000D01*
X196225000Y169800000D02*
X190225000Y169800000D01*
X190225000Y173040000D02*
X196225000Y173040000D01*
X190225000Y172680000D02*
X196225000Y172680000D01*
X190225000Y170560000D02*
X196225000Y170560000D01*
X187235000Y173100000D02*
X187565000Y173100000D01*
X196225000Y172340000D02*
X190225000Y172340000D01*
X196225000Y173100000D02*
X196225000Y172340000D01*
X190225000Y172920000D02*
X196225000Y172920000D01*
X187167929Y169800000D02*
X187565000Y169800000D01*
X190225000Y172440000D02*
X196225000Y172440000D01*
%TO.C,SW8*%
X31650000Y186530000D02*
X31650000Y184410000D01*
X31650000Y174230000D02*
X19350000Y174230000D01*
X31650000Y181350000D02*
X31650000Y179410000D01*
X19350000Y186530000D02*
X31650000Y186530000D01*
X19350000Y184410000D02*
X19350000Y186530000D01*
X19350000Y174230000D02*
X19350000Y176350000D01*
X31650000Y176350000D02*
X31650000Y174230000D01*
X19350000Y179410000D02*
X19350000Y181350000D01*
X30179050Y180340000D02*
G75*
G03*
X30179050Y180340000I-4579050J0D01*
G01*
%TO.C,D16*%
X82275000Y34270000D02*
X85365000Y34270000D01*
X85364830Y34270000D02*
G75*
G03*
X83819538Y39820000I-1544830J2560000D01*
G01*
X83820462Y39820000D02*
G75*
G03*
X82275170Y34270000I-462J-2990000D01*
G01*
X86320000Y36830000D02*
G75*
G03*
X86320000Y36830000I-2500000J0D01*
G01*
%TO.C,SW11*%
X155194000Y35052000D02*
X155194000Y35560000D01*
X144526000Y35052000D02*
X144526000Y35560000D01*
X144526000Y35560000D02*
X155194000Y35560000D01*
X155194000Y30480000D02*
X144526000Y30480000D01*
X155194000Y30480000D02*
X155194000Y30988000D01*
X144526000Y30480000D02*
X144526000Y30988000D01*
%TO.C,SW17*%
X88646000Y25400000D02*
X88646000Y25908000D01*
X99314000Y29972000D02*
X99314000Y30480000D01*
X88646000Y30480000D02*
X99314000Y30480000D01*
X88646000Y29972000D02*
X88646000Y30480000D01*
X99314000Y25400000D02*
X88646000Y25400000D01*
X99314000Y25400000D02*
X99314000Y25908000D01*
%TO.C,D14*%
X46715000Y140950000D02*
X49805000Y140950000D01*
X48260462Y146500000D02*
G75*
G03*
X46715170Y140950000I-462J-2990000D01*
G01*
X49804830Y140950000D02*
G75*
G03*
X48259538Y146500000I-1544830J2560000D01*
G01*
X50760000Y143510000D02*
G75*
G03*
X50760000Y143510000I-2500000J0D01*
G01*
%TO.C,D3*%
X8615000Y66020000D02*
X11705000Y66020000D01*
X11704830Y66020000D02*
G75*
G03*
X10159538Y71570000I-1544830J2560000D01*
G01*
X10160462Y71570000D02*
G75*
G03*
X8615170Y66020000I-462J-2990000D01*
G01*
X12660000Y68580000D02*
G75*
G03*
X12660000Y68580000I-2500000J0D01*
G01*
%TO.C,J9*%
X184350000Y7895000D02*
X184350000Y1895000D01*
X181230000Y1895000D02*
X181230000Y7895000D01*
X178690000Y1895000D02*
X178690000Y7895000D01*
X181230000Y10952071D02*
X181230000Y10555000D01*
X185480000Y7895000D02*
X185480000Y10555000D01*
X176910000Y10952071D02*
X176910000Y10555000D01*
X171070000Y10952071D02*
X171070000Y10555000D01*
X185480000Y10555000D02*
X170120000Y10555000D01*
X181990000Y7895000D02*
X181990000Y1895000D01*
X183870000Y7895000D02*
X183870000Y1895000D01*
X174370000Y10952071D02*
X174370000Y10555000D01*
X176150000Y10952071D02*
X176150000Y10555000D01*
X178690000Y10952071D02*
X178690000Y10555000D01*
X174370000Y1895000D02*
X173610000Y1895000D01*
X170120000Y10555000D02*
X170120000Y7895000D01*
X171830000Y7895000D02*
X171830000Y1895000D01*
X179450000Y1895000D02*
X178690000Y1895000D01*
X173610000Y10952071D02*
X173610000Y10555000D01*
X184470000Y7895000D02*
X184470000Y1895000D01*
X183990000Y7895000D02*
X183990000Y1895000D01*
X176150000Y1895000D02*
X176150000Y7895000D01*
X170120000Y7895000D02*
X185480000Y7895000D01*
X171070000Y1895000D02*
X171070000Y7895000D01*
X179450000Y10952071D02*
X179450000Y10555000D01*
X184530000Y10885000D02*
X184530000Y10555000D01*
X184530000Y7895000D02*
X184530000Y1895000D01*
X175260000Y10555000D02*
X175260000Y7895000D01*
X181990000Y10952071D02*
X181990000Y10555000D01*
X173610000Y1895000D02*
X173610000Y7895000D01*
X176910000Y7895000D02*
X176910000Y1895000D01*
X184230000Y7895000D02*
X184230000Y1895000D01*
X184150000Y13265000D02*
X185420000Y13265000D01*
X174370000Y7895000D02*
X174370000Y1895000D01*
X184530000Y1895000D02*
X183770000Y1895000D01*
X182880000Y10555000D02*
X182880000Y7895000D01*
X171830000Y1895000D02*
X171070000Y1895000D01*
X172720000Y10555000D02*
X172720000Y7895000D01*
X177800000Y10555000D02*
X177800000Y7895000D01*
X179450000Y7895000D02*
X179450000Y1895000D01*
X183770000Y10885000D02*
X183770000Y10555000D01*
X176910000Y1895000D02*
X176150000Y1895000D01*
X171830000Y10952071D02*
X171830000Y10555000D01*
X184110000Y7895000D02*
X184110000Y1895000D01*
X185420000Y13265000D02*
X185420000Y11995000D01*
X183770000Y1895000D02*
X183770000Y7895000D01*
X181990000Y1895000D02*
X181230000Y1895000D01*
X180340000Y10555000D02*
X180340000Y7895000D01*
%TO.C,D18*%
X82275000Y105390000D02*
X85365000Y105390000D01*
X83820462Y110940000D02*
G75*
G03*
X82275170Y105390000I-462J-2990000D01*
G01*
X85364830Y105390000D02*
G75*
G03*
X83819538Y110940000I-1544830J2560000D01*
G01*
X86320000Y107950000D02*
G75*
G03*
X86320000Y107950000I-2500000J0D01*
G01*
%TO.C,SW20*%
X88646000Y136652000D02*
X88646000Y137160000D01*
X99314000Y132080000D02*
X88646000Y132080000D01*
X99314000Y132080000D02*
X99314000Y132588000D01*
X88646000Y137160000D02*
X99314000Y137160000D01*
X99314000Y136652000D02*
X99314000Y137160000D01*
X88646000Y132080000D02*
X88646000Y132588000D01*
%TO.C,SW1*%
X188722000Y190119000D02*
X189230000Y190119000D01*
X188722000Y179451000D02*
X189230000Y179451000D01*
X184150000Y190119000D02*
X184658000Y190119000D01*
X184150000Y179451000D02*
X184150000Y190119000D01*
X189230000Y190119000D02*
X189230000Y179451000D01*
X184150000Y179451000D02*
X184658000Y179451000D01*
%TO.C,D4*%
X8615000Y93960000D02*
X11705000Y93960000D01*
X10160462Y99510000D02*
G75*
G03*
X8615170Y93960000I-462J-2990000D01*
G01*
X11704830Y93960000D02*
G75*
G03*
X10159538Y99510000I-1544830J2560000D01*
G01*
X12660000Y96520000D02*
G75*
G03*
X12660000Y96520000I-2500000J0D01*
G01*
%TO.C,SW6*%
X19250000Y118310000D02*
X19250000Y120430000D01*
X31550000Y120430000D02*
X31550000Y118310000D01*
X31550000Y125430000D02*
X31550000Y123490000D01*
X19250000Y123490000D02*
X19250000Y125430000D01*
X19250000Y130610000D02*
X31550000Y130610000D01*
X19250000Y128490000D02*
X19250000Y130610000D01*
X31550000Y118310000D02*
X19250000Y118310000D01*
X31550000Y130610000D02*
X31550000Y128490000D01*
X30079050Y124420000D02*
G75*
G03*
X30079050Y124420000I-4579050J0D01*
G01*
%TO.C,RV2*%
X58677615Y221615000D02*
X61320661Y219710000D01*
X65765661Y224028000D02*
X65765661Y224790000D01*
X65765661Y227330000D02*
X65765661Y224790000D01*
X65765661Y218440000D02*
X65765661Y219202000D01*
X55605661Y227330000D02*
X65765661Y227330000D01*
X65765661Y214122000D02*
X65765661Y214630000D01*
X55605661Y214630000D02*
X55605661Y218440000D01*
X65765661Y218440000D02*
X65765661Y214630000D01*
X55605661Y224028000D02*
X55605661Y224790000D01*
X55605661Y214630000D02*
X55605661Y214122000D01*
X55605661Y224790000D02*
X55605661Y227330000D01*
X61701661Y214122000D02*
X62209661Y214122000D01*
X55605661Y214122000D02*
X57129661Y214122000D01*
X64241661Y214122000D02*
X65765661Y214122000D01*
X55605661Y219202000D02*
X55605661Y218440000D01*
X59161661Y214122000D02*
X59669661Y214122000D01*
X62693707Y221615000D02*
G75*
G03*
X62693707Y221615000I-2008046J0D01*
G01*
%TO.C,D20*%
X82275000Y176510000D02*
X85365000Y176510000D01*
X85364830Y176510000D02*
G75*
G03*
X83819538Y182060000I-1544830J2560000D01*
G01*
X83820462Y182060000D02*
G75*
G03*
X82275170Y176510000I-462J-2990000D01*
G01*
X86320000Y179070000D02*
G75*
G03*
X86320000Y179070000I-2500000J0D01*
G01*
%TO.C,J7*%
X147705000Y238035000D02*
X147705000Y238365000D01*
X157105000Y237967929D02*
X157105000Y238365000D01*
X155325000Y247025000D02*
X155325000Y241025000D01*
X147125000Y241025000D02*
X147125000Y247025000D01*
X146055000Y235655000D02*
X146055000Y236925000D01*
X152025000Y241025000D02*
X152025000Y247025000D01*
X158815000Y241025000D02*
X145995000Y241025000D01*
X147325000Y235655000D02*
X146055000Y235655000D01*
X148595000Y238365000D02*
X148595000Y241025000D01*
X146945000Y238035000D02*
X146945000Y238365000D01*
X157865000Y247025000D02*
X157865000Y241025000D01*
X157105000Y247025000D02*
X157865000Y247025000D01*
X147365000Y241025000D02*
X147365000Y247025000D01*
X154565000Y247025000D02*
X155325000Y247025000D01*
X147605000Y241025000D02*
X147605000Y247025000D01*
X152785000Y247025000D02*
X152785000Y241025000D01*
X153675000Y238365000D02*
X153675000Y241025000D01*
X145995000Y238365000D02*
X158815000Y238365000D01*
X156215000Y238365000D02*
X156215000Y241025000D01*
X150245000Y247025000D02*
X150245000Y241025000D01*
X146945000Y247025000D02*
X147705000Y247025000D01*
X147705000Y247025000D02*
X147705000Y241025000D01*
X147485000Y241025000D02*
X147485000Y247025000D01*
X152025000Y247025000D02*
X152785000Y247025000D01*
X155325000Y237967929D02*
X155325000Y238365000D01*
X158815000Y238365000D02*
X158815000Y241025000D01*
X157865000Y237967929D02*
X157865000Y238365000D01*
X154565000Y237967929D02*
X154565000Y238365000D01*
X149485000Y247025000D02*
X150245000Y247025000D01*
X145995000Y241025000D02*
X145995000Y238365000D01*
X147245000Y241025000D02*
X147245000Y247025000D01*
X157105000Y241025000D02*
X157105000Y247025000D01*
X146945000Y241025000D02*
X146945000Y247025000D01*
X149485000Y237967929D02*
X149485000Y238365000D01*
X151135000Y238365000D02*
X151135000Y241025000D01*
X154565000Y241025000D02*
X154565000Y247025000D01*
X149485000Y241025000D02*
X149485000Y247025000D01*
X147005000Y241025000D02*
X147005000Y247025000D01*
X152785000Y237967929D02*
X152785000Y238365000D01*
X152025000Y237967929D02*
X152025000Y238365000D01*
X150245000Y237967929D02*
X150245000Y238365000D01*
%TO.C,SW13*%
X63754000Y60960000D02*
X63754000Y61468000D01*
X53086000Y66040000D02*
X63754000Y66040000D01*
X63754000Y60960000D02*
X53086000Y60960000D01*
X63754000Y65532000D02*
X63754000Y66040000D01*
X53086000Y60960000D02*
X53086000Y61468000D01*
X53086000Y65532000D02*
X53086000Y66040000D01*
%TO.C,D11*%
X46715000Y34270000D02*
X49805000Y34270000D01*
X48260462Y39820000D02*
G75*
G03*
X46715170Y34270000I-462J-2990000D01*
G01*
X49804830Y34270000D02*
G75*
G03*
X48259538Y39820000I-1544830J2560000D01*
G01*
X50760000Y36830000D02*
G75*
G03*
X50760000Y36830000I-2500000J0D01*
G01*
%TO.C,C1*%
X184380000Y160229000D02*
X182373000Y160229000D01*
X188644000Y161110000D02*
X182196000Y161110000D01*
X188453000Y160189000D02*
X186460000Y160189000D01*
X187763000Y159069000D02*
X186460000Y159069000D01*
X184380000Y159229000D02*
X182936000Y159229000D01*
X188530000Y160429000D02*
X186460000Y160429000D01*
X188296000Y159829000D02*
X186460000Y159829000D01*
X186770000Y158349000D02*
X184070000Y158349000D01*
X187968000Y159309000D02*
X186460000Y159309000D01*
X184380000Y159389000D02*
X182813000Y159389000D01*
X184380000Y161030000D02*
X182202000Y161030000D01*
X184380000Y160990000D02*
X182205000Y160990000D01*
X184380000Y159829000D02*
X182544000Y159829000D01*
X188609000Y160790000D02*
X186460000Y160790000D01*
X188631000Y160950000D02*
X186460000Y160950000D01*
X187196000Y158589000D02*
X183644000Y158589000D01*
X184380000Y160790000D02*
X182231000Y160790000D01*
X187070000Y158509000D02*
X183770000Y158509000D01*
X184380000Y160349000D02*
X182334000Y160349000D01*
X184380000Y160309000D02*
X182346000Y160309000D01*
X188650000Y161270000D02*
X182190000Y161270000D01*
X188056000Y159429000D02*
X186460000Y159429000D01*
X188626000Y160910000D02*
X186460000Y160910000D01*
X184380000Y159989000D02*
X182468000Y159989000D01*
X184380000Y159549000D02*
X182704000Y159549000D01*
X184380000Y160149000D02*
X182402000Y160149000D01*
X187998000Y159349000D02*
X186460000Y159349000D01*
X186929000Y158429000D02*
X183911000Y158429000D01*
X186585000Y158269000D02*
X184255000Y158269000D01*
X184380000Y159949000D02*
X182486000Y159949000D01*
X185822000Y158069000D02*
X185018000Y158069000D01*
X188518000Y160389000D02*
X186460000Y160389000D01*
X184380000Y159749000D02*
X182586000Y159749000D01*
X188467000Y160229000D02*
X186460000Y160229000D01*
X188336000Y159909000D02*
X186460000Y159909000D01*
X184380000Y160830000D02*
X182225000Y160830000D01*
X187415000Y158749000D02*
X183425000Y158749000D01*
X184380000Y159309000D02*
X182872000Y159309000D01*
X184380000Y159509000D02*
X182730000Y159509000D01*
X184380000Y160870000D02*
X182219000Y160870000D01*
X184380000Y159469000D02*
X182756000Y159469000D01*
X186222000Y158149000D02*
X184618000Y158149000D01*
X188316000Y159869000D02*
X186460000Y159869000D01*
X186053000Y158109000D02*
X184787000Y158109000D01*
X187904000Y159229000D02*
X186460000Y159229000D01*
X188602000Y160750000D02*
X186460000Y160750000D01*
X187836000Y159149000D02*
X186460000Y159149000D01*
X187870000Y159189000D02*
X186460000Y159189000D01*
X188506000Y160349000D02*
X186460000Y160349000D01*
X188541000Y160469000D02*
X186460000Y160469000D01*
X184380000Y159709000D02*
X182608000Y159709000D01*
X188647000Y161150000D02*
X182193000Y161150000D01*
X188372000Y159989000D02*
X186460000Y159989000D01*
X184380000Y160670000D02*
X182253000Y160670000D01*
X188254000Y159749000D02*
X186460000Y159749000D01*
X184380000Y159869000D02*
X182524000Y159869000D01*
X184380000Y159429000D02*
X182784000Y159429000D01*
X188621000Y160870000D02*
X186460000Y160870000D01*
X184380000Y160069000D02*
X182434000Y160069000D01*
X188422000Y160109000D02*
X186460000Y160109000D01*
X188136000Y159549000D02*
X186460000Y159549000D01*
X188354000Y159949000D02*
X186460000Y159949000D01*
X187574000Y164495241D02*
X186944000Y164495241D01*
X186360000Y158189000D02*
X184480000Y158189000D01*
X187259000Y164810241D02*
X187259000Y164180241D01*
X184380000Y159069000D02*
X183077000Y159069000D01*
X184380000Y161070000D02*
X182198000Y161070000D01*
X188162000Y159589000D02*
X186460000Y159589000D01*
X187644000Y158949000D02*
X183196000Y158949000D01*
X184380000Y159269000D02*
X182904000Y159269000D01*
X187936000Y159269000D02*
X186460000Y159269000D01*
X187364000Y158709000D02*
X183476000Y158709000D01*
X184380000Y160509000D02*
X182289000Y160509000D01*
X187602000Y158909000D02*
X183238000Y158909000D01*
X188587000Y160670000D02*
X186460000Y160670000D01*
X184380000Y160109000D02*
X182418000Y160109000D01*
X184380000Y160469000D02*
X182299000Y160469000D01*
X184380000Y160589000D02*
X182270000Y160589000D01*
X187001000Y158469000D02*
X183839000Y158469000D01*
X187134000Y158549000D02*
X183706000Y158549000D01*
X188494000Y160309000D02*
X186460000Y160309000D01*
X188650000Y161310000D02*
X182190000Y161310000D01*
X186479000Y158229000D02*
X184361000Y158229000D01*
X188276000Y159789000D02*
X186460000Y159789000D01*
X188084000Y159469000D02*
X186460000Y159469000D01*
X184380000Y160630000D02*
X182261000Y160630000D01*
X184380000Y160429000D02*
X182310000Y160429000D01*
X188642000Y161070000D02*
X186460000Y161070000D01*
X184380000Y159909000D02*
X182504000Y159909000D01*
X188110000Y159509000D02*
X186460000Y159509000D01*
X184380000Y159629000D02*
X182654000Y159629000D01*
X184380000Y160029000D02*
X182450000Y160029000D01*
X187685000Y158989000D02*
X183155000Y158989000D01*
X184380000Y160950000D02*
X182209000Y160950000D01*
X188481000Y160269000D02*
X186460000Y160269000D01*
X188635000Y160990000D02*
X186460000Y160990000D01*
X187557000Y158869000D02*
X183283000Y158869000D01*
X188186000Y159629000D02*
X186460000Y159629000D01*
X184380000Y159189000D02*
X182970000Y159189000D01*
X187800000Y159109000D02*
X186460000Y159109000D01*
X184380000Y159149000D02*
X183004000Y159149000D01*
X187254000Y158629000D02*
X183586000Y158629000D01*
X188638000Y161030000D02*
X186460000Y161030000D01*
X184380000Y159029000D02*
X183115000Y159029000D01*
X184380000Y160549000D02*
X182279000Y160549000D01*
X184380000Y159589000D02*
X182678000Y159589000D01*
X184380000Y159349000D02*
X182842000Y159349000D01*
X188027000Y159389000D02*
X186460000Y159389000D01*
X184380000Y160269000D02*
X182359000Y160269000D01*
X188570000Y160589000D02*
X186460000Y160589000D01*
X186852000Y158389000D02*
X183988000Y158389000D01*
X188650000Y161230000D02*
X182190000Y161230000D01*
X184380000Y160189000D02*
X182387000Y160189000D01*
X184380000Y159669000D02*
X182630000Y159669000D01*
X188579000Y160630000D02*
X186460000Y160630000D01*
X184380000Y160910000D02*
X182214000Y160910000D01*
X188551000Y160509000D02*
X186460000Y160509000D01*
X188561000Y160549000D02*
X186460000Y160549000D01*
X187310000Y158669000D02*
X183530000Y158669000D01*
X184380000Y160750000D02*
X182238000Y160750000D01*
X187725000Y159029000D02*
X186460000Y159029000D01*
X187512000Y158829000D02*
X183328000Y158829000D01*
X188648000Y161190000D02*
X182192000Y161190000D01*
X184380000Y160389000D02*
X182322000Y160389000D01*
X188438000Y160149000D02*
X186460000Y160149000D01*
X186682000Y158309000D02*
X184158000Y158309000D01*
X184380000Y160710000D02*
X182245000Y160710000D01*
X184380000Y159789000D02*
X182564000Y159789000D01*
X188210000Y159669000D02*
X186460000Y159669000D01*
X188615000Y160830000D02*
X186460000Y160830000D01*
X184380000Y159109000D02*
X183040000Y159109000D01*
X187464000Y158789000D02*
X183376000Y158789000D01*
X188390000Y160029000D02*
X186460000Y160029000D01*
X188406000Y160069000D02*
X186460000Y160069000D01*
X188232000Y159709000D02*
X186460000Y159709000D01*
X188595000Y160710000D02*
X186460000Y160710000D01*
X188690000Y161310000D02*
G75*
G03*
X188690000Y161310000I-3270000J0D01*
G01*
%TO.C,D5*%
X8615000Y121900000D02*
X11705000Y121900000D01*
X11704830Y121900000D02*
G75*
G03*
X10159538Y127450000I-1544830J2560000D01*
G01*
X10160462Y127450000D02*
G75*
G03*
X8615170Y121900000I-462J-2990000D01*
G01*
X12660000Y124460000D02*
G75*
G03*
X12660000Y124460000I-2500000J0D01*
G01*
%TO.C,SW4*%
X31550000Y62430000D02*
X19250000Y62430000D01*
X31550000Y69550000D02*
X31550000Y67610000D01*
X19250000Y72610000D02*
X19250000Y74730000D01*
X19250000Y67610000D02*
X19250000Y69550000D01*
X19250000Y74730000D02*
X31550000Y74730000D01*
X31550000Y74730000D02*
X31550000Y72610000D01*
X19250000Y62430000D02*
X19250000Y64550000D01*
X31550000Y64550000D02*
X31550000Y62430000D01*
X30079050Y68540000D02*
G75*
G03*
X30079050Y68540000I-4579050J0D01*
G01*
%TO.C,SW7*%
X31550000Y158550000D02*
X31550000Y156430000D01*
X19250000Y158550000D02*
X31550000Y158550000D01*
X19250000Y151430000D02*
X19250000Y153370000D01*
X31550000Y153370000D02*
X31550000Y151430000D01*
X31550000Y146250000D02*
X19250000Y146250000D01*
X19250000Y156430000D02*
X19250000Y158550000D01*
X31550000Y148370000D02*
X31550000Y146250000D01*
X19250000Y146250000D02*
X19250000Y148370000D01*
X29879050Y152440000D02*
G75*
G03*
X29879050Y152440000I-4579050J0D01*
G01*
%TO.C,SW18*%
X99314000Y65532000D02*
X99314000Y66040000D01*
X88646000Y65532000D02*
X88646000Y66040000D01*
X88646000Y66040000D02*
X99314000Y66040000D01*
X88646000Y60960000D02*
X88646000Y61468000D01*
X99314000Y60960000D02*
X88646000Y60960000D01*
X99314000Y60960000D02*
X99314000Y61468000D01*
%TO.C,SW21*%
X88646000Y167640000D02*
X88646000Y168148000D01*
X99314000Y172212000D02*
X99314000Y172720000D01*
X99314000Y167640000D02*
X99314000Y168148000D01*
X88646000Y172212000D02*
X88646000Y172720000D01*
X99314000Y167640000D02*
X88646000Y167640000D01*
X88646000Y172720000D02*
X99314000Y172720000D01*
%TO.C,SW14*%
X63754000Y101092000D02*
X63754000Y101600000D01*
X53086000Y96520000D02*
X53086000Y97028000D01*
X53086000Y101092000D02*
X53086000Y101600000D01*
X63754000Y96520000D02*
X53086000Y96520000D01*
X63754000Y96520000D02*
X63754000Y97028000D01*
X53086000Y101600000D02*
X63754000Y101600000D01*
%TO.C,D19*%
X82275000Y140950000D02*
X85365000Y140950000D01*
X83820462Y146500000D02*
G75*
G03*
X82275170Y140950000I-462J-2990000D01*
G01*
X85364830Y140950000D02*
G75*
G03*
X83819538Y146500000I-1544830J2560000D01*
G01*
X86320000Y143510000D02*
G75*
G03*
X86320000Y143510000I-2500000J0D01*
G01*
%TO.C,RV1*%
X96520000Y224790000D02*
X96520000Y227330000D01*
X106680000Y214122000D02*
X106680000Y214630000D01*
X96520000Y214630000D02*
X96520000Y214122000D01*
X106680000Y227330000D02*
X106680000Y224790000D01*
X99591954Y221615000D02*
X102235000Y219710000D01*
X96520000Y219202000D02*
X96520000Y218440000D01*
X96520000Y224028000D02*
X96520000Y224790000D01*
X96520000Y227330000D02*
X106680000Y227330000D01*
X100076000Y214122000D02*
X100584000Y214122000D01*
X96520000Y214122000D02*
X98044000Y214122000D01*
X106680000Y218440000D02*
X106680000Y214630000D01*
X105156000Y214122000D02*
X106680000Y214122000D01*
X106680000Y224028000D02*
X106680000Y224790000D01*
X106680000Y218440000D02*
X106680000Y219202000D01*
X96520000Y214630000D02*
X96520000Y218440000D01*
X102616000Y214122000D02*
X103124000Y214122000D01*
X103608046Y221615000D02*
G75*
G03*
X103608046Y221615000I-2008046J0D01*
G01*
%TO.C,D7*%
X8615000Y177780000D02*
X11705000Y177780000D01*
X11704830Y177780000D02*
G75*
G03*
X10159538Y183330000I-1544830J2560000D01*
G01*
X10160462Y183330000D02*
G75*
G03*
X8615170Y177780000I-462J-2990000D01*
G01*
X12660000Y180340000D02*
G75*
G03*
X12660000Y180340000I-2500000J0D01*
G01*
%TD*%
M02*
