%TF.GenerationSoftware,KiCad,Pcbnew,(6.0.0)*%
%TF.CreationDate,2022-10-22T09:14:53+09:00*%
%TF.ProjectId,Controller2022_ver0.1,436f6e74-726f-46c6-9c65-72323032325f,rev?*%
%TF.SameCoordinates,PX14703d20PYda028c0*%
%TF.FileFunction,Soldermask,Bot*%
%TF.FilePolarity,Negative*%
%FSLAX46Y46*%
G04 Gerber Fmt 4.6, Leading zero omitted, Abs format (unit mm)*
G04 Created by KiCad (PCBNEW (6.0.0)) date 2022-10-22 09:14:53*
%MOMM*%
%LPD*%
G01*
G04 APERTURE LIST*
G04 Aperture macros list*
%AMRoundRect*
0 Rectangle with rounded corners*
0 $1 Rounding radius*
0 $2 $3 $4 $5 $6 $7 $8 $9 X,Y pos of 4 corners*
0 Add a 4 corners polygon primitive as box body*
4,1,4,$2,$3,$4,$5,$6,$7,$8,$9,$2,$3,0*
0 Add four circle primitives for the rounded corners*
1,1,$1+$1,$2,$3*
1,1,$1+$1,$4,$5*
1,1,$1+$1,$6,$7*
1,1,$1+$1,$8,$9*
0 Add four rect primitives between the rounded corners*
20,1,$1+$1,$2,$3,$4,$5,0*
20,1,$1+$1,$4,$5,$6,$7,0*
20,1,$1+$1,$6,$7,$8,$9,0*
20,1,$1+$1,$8,$9,$2,$3,0*%
G04 Aperture macros list end*
%ADD10R,1.800000X1.800000*%
%ADD11C,1.800000*%
%ADD12O,3.000000X2.500000*%
%ADD13O,2.000000X3.800000*%
%ADD14O,1.700000X3.400000*%
%ADD15R,1.700000X1.700000*%
%ADD16O,1.700000X1.700000*%
%ADD17O,3.800000X2.000000*%
%ADD18O,3.400000X1.700000*%
%ADD19R,3.000000X4.500000*%
%ADD20R,1.600000X1.600000*%
%ADD21C,1.600000*%
%ADD22RoundRect,0.250000X-0.350000X-0.450000X0.350000X-0.450000X0.350000X0.450000X-0.350000X0.450000X0*%
%ADD23R,2.510000X1.000000*%
%ADD24RoundRect,0.250000X-0.450000X0.350000X-0.450000X-0.350000X0.450000X-0.350000X0.450000X0.350000X0*%
%ADD25RoundRect,0.250000X0.450000X-0.350000X0.450000X0.350000X-0.450000X0.350000X-0.450000X-0.350000X0*%
%ADD26R,1.000000X3.150000*%
G04 APERTURE END LIST*
D10*
%TO.C,D6*%
X10160000Y153670000D03*
D11*
X10160000Y151130000D03*
%TD*%
D12*
%TO.C,SW9*%
X19150000Y205780000D03*
X31650000Y205780000D03*
X31650000Y210780000D03*
X19150000Y210780000D03*
%TD*%
D10*
%TO.C,D17*%
X83820000Y71120000D03*
D11*
X83820000Y73660000D03*
%TD*%
D10*
%TO.C,D8*%
X10160000Y209550000D03*
D11*
X10160000Y207010000D03*
%TD*%
D13*
%TO.C,SW16*%
X53340000Y170180000D03*
X63500000Y170180000D03*
D14*
X55880000Y170180000D03*
X58420000Y170180000D03*
X60960000Y170180000D03*
%TD*%
D15*
%TO.C,J6*%
X133350000Y55880000D03*
D16*
X135890000Y55880000D03*
X138430000Y55880000D03*
X140970000Y55880000D03*
X143510000Y55880000D03*
X146050000Y55880000D03*
X148590000Y55880000D03*
X151130000Y55880000D03*
X153670000Y55880000D03*
X156210000Y55880000D03*
X158750000Y55880000D03*
X161290000Y55880000D03*
X163830000Y55880000D03*
X166370000Y55880000D03*
%TD*%
D10*
%TO.C,D2*%
X10160000Y39370000D03*
D11*
X10160000Y41910000D03*
%TD*%
D15*
%TO.C,J11*%
X146040000Y11995000D03*
D16*
X143500000Y11995000D03*
X140960000Y11995000D03*
X138420000Y11995000D03*
%TD*%
D10*
%TO.C,D15*%
X48260000Y177800000D03*
D11*
X48260000Y180340000D03*
%TD*%
D10*
%TO.C,D10*%
X130810000Y34290000D03*
D11*
X130810000Y31750000D03*
%TD*%
D15*
%TO.C,J10*%
X125740000Y236925000D03*
D16*
X128280000Y236925000D03*
X130820000Y236925000D03*
X133360000Y236925000D03*
%TD*%
D10*
%TO.C,D9*%
X10160000Y234950000D03*
D11*
X10160000Y232410000D03*
%TD*%
D15*
%TO.C,J8*%
X172725000Y236925000D03*
D16*
X175265000Y236925000D03*
X177805000Y236925000D03*
X180345000Y236925000D03*
X182885000Y236925000D03*
%TD*%
D10*
%TO.C,D12*%
X48260000Y71120000D03*
D11*
X48260000Y73660000D03*
%TD*%
D13*
%TO.C,SW12*%
X53340000Y27940000D03*
X63500000Y27940000D03*
D14*
X55880000Y27940000D03*
X58420000Y27940000D03*
X60960000Y27940000D03*
%TD*%
D13*
%TO.C,SW15*%
X53340000Y134620000D03*
X63500000Y134620000D03*
D14*
X55880000Y134620000D03*
X58420000Y134620000D03*
X60960000Y134620000D03*
%TD*%
D10*
%TO.C,D21*%
X186690000Y201930000D03*
D11*
X186690000Y199390000D03*
%TD*%
D12*
%TO.C,SW5*%
X31650000Y99020000D03*
X19150000Y99020000D03*
X31650000Y94020000D03*
X19150000Y94020000D03*
%TD*%
%TO.C,SW3*%
X19150000Y43140000D03*
X31650000Y43140000D03*
X19150000Y38140000D03*
X31650000Y38140000D03*
%TD*%
D13*
%TO.C,SW19*%
X88900000Y99060000D03*
X99060000Y99060000D03*
D14*
X91440000Y99060000D03*
X93980000Y99060000D03*
X96520000Y99060000D03*
%TD*%
D12*
%TO.C,SW10*%
X31650000Y233720000D03*
X19150000Y233720000D03*
X31650000Y238720000D03*
X19150000Y238720000D03*
%TD*%
D10*
%TO.C,D1*%
X10160000Y13970000D03*
D11*
X10160000Y16510000D03*
%TD*%
D12*
%TO.C,SW2*%
X31650000Y15200000D03*
X19150000Y15200000D03*
X19150000Y10200000D03*
X31650000Y10200000D03*
%TD*%
D10*
%TO.C,D13*%
X48260000Y106680000D03*
D11*
X48260000Y109220000D03*
%TD*%
D15*
%TO.C,J1*%
X186125000Y172720000D03*
D16*
X186125000Y170180000D03*
%TD*%
D12*
%TO.C,SW8*%
X19250000Y182880000D03*
X31750000Y182880000D03*
X31750000Y177880000D03*
X19250000Y177880000D03*
%TD*%
D10*
%TO.C,D16*%
X83820000Y35560000D03*
D11*
X83820000Y38100000D03*
%TD*%
D13*
%TO.C,SW11*%
X154940000Y33020000D03*
X144780000Y33020000D03*
D14*
X147320000Y33020000D03*
X149860000Y33020000D03*
X152400000Y33020000D03*
%TD*%
D13*
%TO.C,SW17*%
X99060000Y27940000D03*
X88900000Y27940000D03*
D14*
X91440000Y27940000D03*
X93980000Y27940000D03*
X96520000Y27940000D03*
%TD*%
D10*
%TO.C,D14*%
X48260000Y142240000D03*
D11*
X48260000Y144780000D03*
%TD*%
D10*
%TO.C,D3*%
X10160000Y67310000D03*
D11*
X10160000Y69850000D03*
%TD*%
D15*
%TO.C,J9*%
X184150000Y11995000D03*
D16*
X181610000Y11995000D03*
X179070000Y11995000D03*
X176530000Y11995000D03*
X173990000Y11995000D03*
X171450000Y11995000D03*
%TD*%
D10*
%TO.C,D18*%
X83820000Y106680000D03*
D11*
X83820000Y109220000D03*
%TD*%
D13*
%TO.C,SW20*%
X88900000Y134620000D03*
X99060000Y134620000D03*
D14*
X91440000Y134620000D03*
X93980000Y134620000D03*
X96520000Y134620000D03*
%TD*%
D17*
%TO.C,SW1*%
X186690000Y179705000D03*
X186690000Y189865000D03*
D18*
X186690000Y187325000D03*
X186690000Y184785000D03*
X186690000Y182245000D03*
%TD*%
D10*
%TO.C,D4*%
X10160000Y95250000D03*
D11*
X10160000Y97790000D03*
%TD*%
D12*
%TO.C,SW6*%
X19150000Y126960000D03*
X31650000Y126960000D03*
X19150000Y121960000D03*
X31650000Y121960000D03*
%TD*%
D19*
%TO.C,RV2*%
X56285661Y221630000D03*
X65085661Y221630000D03*
D14*
X58145661Y214630000D03*
X60685661Y214630000D03*
X63225661Y214630000D03*
%TD*%
D10*
%TO.C,D20*%
X83820000Y177800000D03*
D11*
X83820000Y180340000D03*
%TD*%
D15*
%TO.C,J7*%
X147325000Y236925000D03*
D16*
X149865000Y236925000D03*
X152405000Y236925000D03*
X154945000Y236925000D03*
X157485000Y236925000D03*
%TD*%
D13*
%TO.C,SW13*%
X63500000Y63500000D03*
X53340000Y63500000D03*
D14*
X55880000Y63500000D03*
X58420000Y63500000D03*
X60960000Y63500000D03*
%TD*%
D10*
%TO.C,D11*%
X48260000Y35560000D03*
D11*
X48260000Y38100000D03*
%TD*%
D20*
%TO.C,C1*%
X185420000Y162560000D03*
D21*
X185420000Y160060000D03*
%TD*%
D10*
%TO.C,D5*%
X10160000Y123190000D03*
D11*
X10160000Y125730000D03*
%TD*%
D12*
%TO.C,SW4*%
X19150000Y71080000D03*
X31650000Y71080000D03*
X19150000Y66080000D03*
X31650000Y66080000D03*
%TD*%
%TO.C,SW7*%
X19150000Y149900000D03*
X31650000Y149900000D03*
X31650000Y154900000D03*
X19150000Y154900000D03*
%TD*%
D13*
%TO.C,SW18*%
X88900000Y63500000D03*
X99060000Y63500000D03*
D14*
X91440000Y63500000D03*
X93980000Y63500000D03*
X96520000Y63500000D03*
%TD*%
D13*
%TO.C,SW21*%
X99060000Y170180000D03*
X88900000Y170180000D03*
D14*
X91440000Y170180000D03*
X93980000Y170180000D03*
X96520000Y170180000D03*
%TD*%
D13*
%TO.C,SW14*%
X63500000Y99060000D03*
X53340000Y99060000D03*
D14*
X55880000Y99060000D03*
X58420000Y99060000D03*
X60960000Y99060000D03*
%TD*%
D10*
%TO.C,D19*%
X83820000Y142240000D03*
D11*
X83820000Y144780000D03*
%TD*%
D19*
%TO.C,RV1*%
X106000000Y221630000D03*
X97200000Y221630000D03*
D14*
X99060000Y214630000D03*
X101600000Y214630000D03*
X104140000Y214630000D03*
%TD*%
D10*
%TO.C,D7*%
X10160000Y179070000D03*
D11*
X10160000Y181610000D03*
%TD*%
D22*
%TO.C,R15*%
X52340000Y144780000D03*
X54340000Y144780000D03*
%TD*%
%TO.C,R20*%
X87900000Y144780000D03*
X89900000Y144780000D03*
%TD*%
D23*
%TO.C,J4*%
X108335000Y95885000D03*
X105025000Y98425000D03*
X108335000Y100965000D03*
X105025000Y103505000D03*
X108335000Y106045000D03*
X105025000Y108585000D03*
X108335000Y111125000D03*
X105025000Y113665000D03*
X108335000Y116205000D03*
X105025000Y118745000D03*
X108335000Y121285000D03*
X105025000Y123825000D03*
X108335000Y126365000D03*
X105025000Y128905000D03*
X108335000Y131445000D03*
%TD*%
D24*
%TO.C,R5*%
X10160000Y102600000D03*
X10160000Y100600000D03*
%TD*%
%TO.C,R4*%
X10160000Y74660000D03*
X10160000Y72660000D03*
%TD*%
D22*
%TO.C,R17*%
X87900000Y38100000D03*
X89900000Y38100000D03*
%TD*%
%TO.C,R14*%
X52340000Y109220000D03*
X54340000Y109220000D03*
%TD*%
%TO.C,R13*%
X52340000Y73660000D03*
X54340000Y73660000D03*
%TD*%
D25*
%TO.C,R1*%
X151120000Y58960000D03*
X151120000Y60960000D03*
%TD*%
D24*
%TO.C,R8*%
X10160000Y186420000D03*
X10160000Y184420000D03*
%TD*%
D22*
%TO.C,R21*%
X87900000Y180340000D03*
X89900000Y180340000D03*
%TD*%
D23*
%TO.C,J5*%
X120900000Y95885000D03*
X124210000Y98425000D03*
X120900000Y100965000D03*
X124210000Y103505000D03*
X120900000Y106045000D03*
X124210000Y108585000D03*
X120900000Y111125000D03*
X124210000Y113665000D03*
X120900000Y116205000D03*
X124210000Y118745000D03*
X120900000Y121285000D03*
X124210000Y123825000D03*
X120900000Y126365000D03*
X124210000Y128905000D03*
X120900000Y131445000D03*
%TD*%
D25*
%TO.C,R9*%
X10160000Y202200000D03*
X10160000Y204200000D03*
%TD*%
D24*
%TO.C,R22*%
X186690000Y195945000D03*
X186690000Y193945000D03*
%TD*%
D26*
%TO.C,J2*%
X185420000Y81955000D03*
X185420000Y87005000D03*
X182880000Y81955000D03*
X182880000Y87005000D03*
X180340000Y81955000D03*
X180340000Y87005000D03*
X177800000Y81955000D03*
X177800000Y87005000D03*
X175260000Y81955000D03*
X175260000Y87005000D03*
X172720000Y81955000D03*
X172720000Y87005000D03*
X170180000Y81955000D03*
X170180000Y87005000D03*
X167640000Y81955000D03*
X167640000Y87005000D03*
X165100000Y81955000D03*
X165100000Y87005000D03*
X162560000Y81955000D03*
X162560000Y87005000D03*
X160020000Y81955000D03*
X160020000Y87005000D03*
X157480000Y81955000D03*
X157480000Y87005000D03*
X154940000Y81955000D03*
X154940000Y87005000D03*
X152400000Y81955000D03*
X152400000Y87005000D03*
X149860000Y81955000D03*
X149860000Y87005000D03*
X147320000Y81955000D03*
X147320000Y87005000D03*
X144780000Y81955000D03*
X144780000Y87005000D03*
X142240000Y81955000D03*
X142240000Y87005000D03*
X139700000Y81955000D03*
X139700000Y87005000D03*
%TD*%
D22*
%TO.C,R16*%
X52340000Y180340000D03*
X54340000Y180340000D03*
%TD*%
D25*
%TO.C,R10*%
X10160000Y227600000D03*
X10160000Y229600000D03*
%TD*%
D26*
%TO.C,J3*%
X185420000Y142900000D03*
X185420000Y147950000D03*
X182880000Y142900000D03*
X182880000Y147950000D03*
X180340000Y142900000D03*
X180340000Y147950000D03*
X177800000Y142900000D03*
X177800000Y147950000D03*
X175260000Y142900000D03*
X175260000Y147950000D03*
X172720000Y142900000D03*
X172720000Y147950000D03*
X170180000Y142900000D03*
X170180000Y147950000D03*
X167640000Y142900000D03*
X167640000Y147950000D03*
X165100000Y142900000D03*
X165100000Y147950000D03*
X162560000Y142900000D03*
X162560000Y147950000D03*
X160020000Y142900000D03*
X160020000Y147950000D03*
X157480000Y142900000D03*
X157480000Y147950000D03*
X154940000Y142900000D03*
X154940000Y147950000D03*
X152400000Y142900000D03*
X152400000Y147950000D03*
X149860000Y142900000D03*
X149860000Y147950000D03*
X147320000Y142900000D03*
X147320000Y147950000D03*
X144780000Y142900000D03*
X144780000Y147950000D03*
X142240000Y142900000D03*
X142240000Y147950000D03*
X139700000Y142900000D03*
X139700000Y147950000D03*
%TD*%
D24*
%TO.C,R2*%
X10160000Y21320000D03*
X10160000Y19320000D03*
%TD*%
D22*
%TO.C,R11*%
X134890000Y31750000D03*
X136890000Y31750000D03*
%TD*%
D24*
%TO.C,R3*%
X10160000Y46720000D03*
X10160000Y44720000D03*
%TD*%
D22*
%TO.C,R12*%
X52340000Y38100000D03*
X54340000Y38100000D03*
%TD*%
%TO.C,R18*%
X87900000Y73660000D03*
X89900000Y73660000D03*
%TD*%
%TO.C,R19*%
X87900000Y109220000D03*
X89900000Y109220000D03*
%TD*%
D25*
%TO.C,R7*%
X10160000Y146320000D03*
X10160000Y148320000D03*
%TD*%
D24*
%TO.C,R6*%
X10160000Y130540000D03*
X10160000Y128540000D03*
%TD*%
M02*
