%TF.GenerationSoftware,KiCad,Pcbnew,(6.0.0)*%
%TF.CreationDate,2022-10-22T13:05:16+09:00*%
%TF.ProjectId,IM920_Conversion2,494d3932-305f-4436-9f6e-76657273696f,rev?*%
%TF.SameCoordinates,PX3b58df0PY54c81a0*%
%TF.FileFunction,Legend,Bot*%
%TF.FilePolarity,Positive*%
%FSLAX46Y46*%
G04 Gerber Fmt 4.6, Leading zero omitted, Abs format (unit mm)*
G04 Created by KiCad (PCBNEW (6.0.0)) date 2022-10-22 13:05:16*
%MOMM*%
%LPD*%
G01*
G04 APERTURE LIST*
%ADD10C,0.150000*%
%ADD11C,0.120000*%
G04 APERTURE END LIST*
D10*
%TO.C,C1*%
X6809166Y22877858D02*
X6856785Y22830239D01*
X6999642Y22782620D01*
X7094880Y22782620D01*
X7237738Y22830239D01*
X7332976Y22925477D01*
X7380595Y23020715D01*
X7428214Y23211191D01*
X7428214Y23354048D01*
X7380595Y23544524D01*
X7332976Y23639762D01*
X7237738Y23735000D01*
X7094880Y23782620D01*
X6999642Y23782620D01*
X6856785Y23735000D01*
X6809166Y23687381D01*
X5856785Y22782620D02*
X6428214Y22782620D01*
X6142500Y22782620D02*
X6142500Y23782620D01*
X6237738Y23639762D01*
X6332976Y23544524D01*
X6428214Y23496905D01*
%TO.C,R1*%
X26742380Y10326667D02*
X26266190Y10660000D01*
X26742380Y10898096D02*
X25742380Y10898096D01*
X25742380Y10517143D01*
X25790000Y10421905D01*
X25837619Y10374286D01*
X25932857Y10326667D01*
X26075714Y10326667D01*
X26170952Y10374286D01*
X26218571Y10421905D01*
X26266190Y10517143D01*
X26266190Y10898096D01*
X26742380Y9374286D02*
X26742380Y9945715D01*
X26742380Y9660000D02*
X25742380Y9660000D01*
X25885238Y9755239D01*
X25980476Y9850477D01*
X26028095Y9945715D01*
D11*
%TO.C,C1*%
X5573752Y23595000D02*
X5051248Y23595000D01*
X5573752Y22125000D02*
X5051248Y22125000D01*
%TO.C,R1*%
X28675000Y10387064D02*
X28675000Y9932936D01*
X27205000Y10387064D02*
X27205000Y9932936D01*
%TD*%
M02*
