%TF.GenerationSoftware,KiCad,Pcbnew,(6.0.0)*%
%TF.CreationDate,2022-10-22T13:05:16+09:00*%
%TF.ProjectId,IM920_Conversion2,494d3932-305f-4436-9f6e-76657273696f,rev?*%
%TF.SameCoordinates,PX3b58df0PY54c81a0*%
%TF.FileFunction,Legend,Top*%
%TF.FilePolarity,Positive*%
%FSLAX46Y46*%
G04 Gerber Fmt 4.6, Leading zero omitted, Abs format (unit mm)*
G04 Created by KiCad (PCBNEW (6.0.0)) date 2022-10-22 13:05:16*
%MOMM*%
%LPD*%
G01*
G04 APERTURE LIST*
%ADD10C,0.150000*%
%ADD11C,0.120000*%
G04 APERTURE END LIST*
D10*
X6350000Y50770000D02*
X36830000Y50770000D01*
X36830000Y50770000D02*
X36830000Y10130000D01*
X36830000Y10130000D02*
X6350000Y10130000D01*
X6350000Y10130000D02*
X6350000Y50770000D01*
%TO.C,J1*%
X8556666Y46057620D02*
X8556666Y45343334D01*
X8509047Y45200477D01*
X8413809Y45105239D01*
X8270952Y45057620D01*
X8175714Y45057620D01*
X9556666Y45057620D02*
X8985238Y45057620D01*
X9270952Y45057620D02*
X9270952Y46057620D01*
X9175714Y45914762D01*
X9080476Y45819524D01*
X8985238Y45771905D01*
%TO.C,J3*%
X36506666Y16792620D02*
X36506666Y16078334D01*
X36459047Y15935477D01*
X36363809Y15840239D01*
X36220952Y15792620D01*
X36125714Y15792620D01*
X36887619Y16792620D02*
X37506666Y16792620D01*
X37173333Y16411667D01*
X37316190Y16411667D01*
X37411428Y16364048D01*
X37459047Y16316429D01*
X37506666Y16221191D01*
X37506666Y15983096D01*
X37459047Y15887858D01*
X37411428Y15840239D01*
X37316190Y15792620D01*
X37030476Y15792620D01*
X36935238Y15840239D01*
X36887619Y15887858D01*
%TO.C,J4*%
X24582380Y6006667D02*
X25296666Y6006667D01*
X25439523Y5959048D01*
X25534761Y5863810D01*
X25582380Y5720953D01*
X25582380Y5625715D01*
X24915714Y6911429D02*
X25582380Y6911429D01*
X24534761Y6673334D02*
X25249047Y6435239D01*
X25249047Y7054286D01*
%TO.C,D1*%
X32281904Y667620D02*
X32281904Y1667620D01*
X32520000Y1667620D01*
X32662857Y1620000D01*
X32758095Y1524762D01*
X32805714Y1429524D01*
X32853333Y1239048D01*
X32853333Y1096191D01*
X32805714Y905715D01*
X32758095Y810477D01*
X32662857Y715239D01*
X32520000Y667620D01*
X32281904Y667620D01*
X33805714Y667620D02*
X33234285Y667620D01*
X33520000Y667620D02*
X33520000Y1667620D01*
X33424761Y1524762D01*
X33329523Y1429524D01*
X33234285Y1381905D01*
%TO.C,J2*%
X33956666Y46057620D02*
X33956666Y45343334D01*
X33909047Y45200477D01*
X33813809Y45105239D01*
X33670952Y45057620D01*
X33575714Y45057620D01*
X34385238Y45962381D02*
X34432857Y46010000D01*
X34528095Y46057620D01*
X34766190Y46057620D01*
X34861428Y46010000D01*
X34909047Y45962381D01*
X34956666Y45867143D01*
X34956666Y45771905D01*
X34909047Y45629048D01*
X34337619Y45057620D01*
X34956666Y45057620D01*
D11*
%TO.C,J1*%
X10220000Y41910000D02*
X10220000Y18990000D01*
X7560000Y43180000D02*
X7560000Y44510000D01*
X7560000Y41910000D02*
X10220000Y41910000D01*
X7560000Y41910000D02*
X7560000Y18990000D01*
X7560000Y18990000D02*
X10220000Y18990000D01*
X7560000Y44510000D02*
X8890000Y44510000D01*
%TO.C,J3*%
X31185000Y13975000D02*
X31185000Y15245000D01*
X36555000Y13935000D02*
X42555000Y13935000D01*
X31185000Y15245000D02*
X32455000Y15245000D01*
X33497929Y11815000D02*
X33895000Y11815000D01*
X33895000Y12705000D02*
X36555000Y12705000D01*
X42555000Y14355000D02*
X42555000Y13595000D01*
X36555000Y14355000D02*
X42555000Y14355000D01*
X36555000Y13815000D02*
X42555000Y13815000D01*
X33895000Y15305000D02*
X33895000Y10105000D01*
X33565000Y14355000D02*
X33895000Y14355000D01*
X36555000Y14295000D02*
X42555000Y14295000D01*
X42555000Y11055000D02*
X36555000Y11055000D01*
X36555000Y11815000D02*
X42555000Y11815000D01*
X33895000Y10105000D02*
X36555000Y10105000D01*
X33497929Y11055000D02*
X33895000Y11055000D01*
X36555000Y14175000D02*
X42555000Y14175000D01*
X42555000Y13595000D02*
X36555000Y13595000D01*
X36555000Y13695000D02*
X42555000Y13695000D01*
X42555000Y11815000D02*
X42555000Y11055000D01*
X36555000Y10105000D02*
X36555000Y15305000D01*
X33565000Y13595000D02*
X33895000Y13595000D01*
X36555000Y14055000D02*
X42555000Y14055000D01*
X36555000Y15305000D02*
X33895000Y15305000D01*
%TO.C,J4*%
X18160000Y625000D02*
X17400000Y625000D01*
X12320000Y625000D02*
X12320000Y6625000D01*
X22580000Y6625000D02*
X22580000Y625000D01*
X13080000Y9682071D02*
X13080000Y9285000D01*
X13080000Y6625000D02*
X13080000Y625000D01*
X9780000Y9682071D02*
X9780000Y9285000D01*
X10540000Y9682071D02*
X10540000Y9285000D01*
X12320000Y9682071D02*
X12320000Y9285000D01*
X13970000Y9285000D02*
X13970000Y6625000D01*
X22480000Y9615000D02*
X22480000Y9285000D01*
X22860000Y11995000D02*
X24130000Y11995000D01*
X19940000Y9682071D02*
X19940000Y9285000D01*
X22480000Y625000D02*
X22480000Y6625000D01*
X20700000Y625000D02*
X19940000Y625000D01*
X15620000Y6625000D02*
X15620000Y625000D01*
X23240000Y625000D02*
X22480000Y625000D01*
X22700000Y6625000D02*
X22700000Y625000D01*
X9780000Y625000D02*
X9780000Y6625000D01*
X18160000Y9682071D02*
X18160000Y9285000D01*
X17400000Y9682071D02*
X17400000Y9285000D01*
X10540000Y6625000D02*
X10540000Y625000D01*
X15620000Y9682071D02*
X15620000Y9285000D01*
X14860000Y9682071D02*
X14860000Y9285000D01*
X23180000Y6625000D02*
X23180000Y625000D01*
X13080000Y625000D02*
X12320000Y625000D01*
X24130000Y11995000D02*
X24130000Y10725000D01*
X20700000Y6625000D02*
X20700000Y625000D01*
X22940000Y6625000D02*
X22940000Y625000D01*
X8830000Y6625000D02*
X24190000Y6625000D01*
X17400000Y625000D02*
X17400000Y6625000D01*
X19050000Y9285000D02*
X19050000Y6625000D01*
X8830000Y9285000D02*
X8830000Y6625000D01*
X23240000Y9615000D02*
X23240000Y9285000D01*
X24190000Y6625000D02*
X24190000Y9285000D01*
X15620000Y625000D02*
X14860000Y625000D01*
X23060000Y6625000D02*
X23060000Y625000D01*
X21590000Y9285000D02*
X21590000Y6625000D01*
X23240000Y6625000D02*
X23240000Y625000D01*
X20700000Y9682071D02*
X20700000Y9285000D01*
X10540000Y625000D02*
X9780000Y625000D01*
X18160000Y6625000D02*
X18160000Y625000D01*
X19940000Y625000D02*
X19940000Y6625000D01*
X11430000Y9285000D02*
X11430000Y6625000D01*
X22820000Y6625000D02*
X22820000Y625000D01*
X14860000Y625000D02*
X14860000Y6625000D01*
X24190000Y9285000D02*
X8830000Y9285000D01*
X16510000Y9285000D02*
X16510000Y6625000D01*
%TO.C,D1*%
X35580000Y3535000D02*
X35580000Y6625000D01*
X35580000Y6624830D02*
G75*
G03*
X30030000Y5079538I-2560000J-1544830D01*
G01*
X30030000Y5080462D02*
G75*
G03*
X35580000Y3535170I2990000J-462D01*
G01*
X35520000Y5080000D02*
G75*
G03*
X35520000Y5080000I-2500000J0D01*
G01*
%TO.C,J2*%
X32960000Y41910000D02*
X35620000Y41910000D01*
X32960000Y41910000D02*
X32960000Y18990000D01*
X32960000Y18990000D02*
X35620000Y18990000D01*
X32960000Y44510000D02*
X34290000Y44510000D01*
X32960000Y43180000D02*
X32960000Y44510000D01*
X35620000Y41910000D02*
X35620000Y18990000D01*
%TD*%
M02*
