M48
; DRILL file {KiCad (6.0.0)} date Sat Oct 22 13:05:24 2022
; FORMAT={-:-/ absolute / metric / decimal}
; #@! TF.CreationDate,2022-10-22T13:05:24+09:00
; #@! TF.GenerationSoftware,Kicad,Pcbnew,(6.0.0)
; #@! TF.FileFunction,MixedPlating,1,2
FMAT,2
METRIC
; #@! TA.AperFunction,Plated,PTH,ComponentDrill
T1C0.900
; #@! TA.AperFunction,Plated,PTH,ViaDrill
T2C1.000
; #@! TA.AperFunction,Plated,PTH,ComponentDrill
T3C1.000
; #@! TA.AperFunction,Plated,PTH,ViaDrill
T4C3.000
%
G90
G05
T1
X31.75Y5.08
X34.29Y5.08
T2
X12.7Y15.24
X26.67Y15.24
T3
X8.89Y43.18
X8.89Y40.64
X8.89Y38.1
X8.89Y35.56
X8.89Y33.02
X8.89Y30.48
X8.89Y27.94
X8.89Y25.4
X8.89Y22.86
X8.89Y20.32
X10.16Y10.725
X12.7Y10.725
X15.24Y10.725
X17.78Y10.725
X20.32Y10.725
X22.86Y10.725
X32.455Y13.975
X32.455Y11.435
X34.29Y43.18
X34.29Y40.64
X34.29Y38.1
X34.29Y35.56
X34.29Y33.02
X34.29Y30.48
X34.29Y27.94
X34.29Y25.4
X34.29Y22.86
X34.29Y20.32
T4
X3.81Y48.26
X3.81Y3.81
X39.37Y48.26
X39.37Y3.81
T0
M30
