%TF.GenerationSoftware,KiCad,Pcbnew,(5.1.6)-1*%
%TF.CreationDate,2021-12-16T17:16:20+09:00*%
%TF.ProjectId,Mars_ver4.0.0_prototype,4d617273-5f76-4657-9234-2e302e305f70,rev?*%
%TF.SameCoordinates,PX66f2fb0PY9c3d8f0*%
%TF.FileFunction,Legend,Bot*%
%TF.FilePolarity,Positive*%
%FSLAX46Y46*%
G04 Gerber Fmt 4.6, Leading zero omitted, Abs format (unit mm)*
G04 Created by KiCad (PCBNEW (5.1.6)-1) date 2021-12-16 17:16:20*
%MOMM*%
%LPD*%
G01*
G04 APERTURE LIST*
%ADD10C,0.200000*%
%ADD11C,0.120000*%
%ADD12C,0.254000*%
%ADD13C,0.150000*%
G04 APERTURE END LIST*
D10*
%TO.C,D3*%
X64400000Y22690000D02*
X64400000Y26165000D01*
X62600000Y23365000D02*
X62600000Y26165000D01*
D11*
%TO.C,C3*%
X49788578Y18490000D02*
X49271422Y18490000D01*
X49788578Y17070000D02*
X49271422Y17070000D01*
%TO.C,C4*%
X38375000Y23657936D02*
X38375000Y24862064D01*
X36555000Y23657936D02*
X36555000Y24862064D01*
%TO.C,C5*%
X64210000Y18458922D02*
X64210000Y18976078D01*
X62790000Y18458922D02*
X62790000Y18976078D01*
%TO.C,C6*%
X54050000Y14228578D02*
X54050000Y13711422D01*
X52630000Y14228578D02*
X52630000Y13711422D01*
%TO.C,D3*%
D12*
X64074523Y25702381D02*
X62804523Y25702381D01*
X62804523Y25400000D01*
X62865000Y25218572D01*
X62985952Y25097620D01*
X63106904Y25037143D01*
X63348809Y24976667D01*
X63530238Y24976667D01*
X63772142Y25037143D01*
X63893095Y25097620D01*
X64014047Y25218572D01*
X64074523Y25400000D01*
X64074523Y25702381D01*
X62804523Y24553334D02*
X62804523Y23767143D01*
X63288333Y24190477D01*
X63288333Y24009048D01*
X63348809Y23888096D01*
X63409285Y23827620D01*
X63530238Y23767143D01*
X63832619Y23767143D01*
X63953571Y23827620D01*
X64014047Y23888096D01*
X64074523Y24009048D01*
X64074523Y24371905D01*
X64014047Y24492858D01*
X63953571Y24553334D01*
%TO.C,C3*%
D13*
X49696666Y19072858D02*
X49744285Y19025239D01*
X49887142Y18977620D01*
X49982380Y18977620D01*
X50125238Y19025239D01*
X50220476Y19120477D01*
X50268095Y19215715D01*
X50315714Y19406191D01*
X50315714Y19549048D01*
X50268095Y19739524D01*
X50220476Y19834762D01*
X50125238Y19930000D01*
X49982380Y19977620D01*
X49887142Y19977620D01*
X49744285Y19930000D01*
X49696666Y19882381D01*
X49363333Y19977620D02*
X48744285Y19977620D01*
X49077619Y19596667D01*
X48934761Y19596667D01*
X48839523Y19549048D01*
X48791904Y19501429D01*
X48744285Y19406191D01*
X48744285Y19168096D01*
X48791904Y19072858D01*
X48839523Y19025239D01*
X48934761Y18977620D01*
X49220476Y18977620D01*
X49315714Y19025239D01*
X49363333Y19072858D01*
%TO.C,C4*%
X39642142Y24426667D02*
X39689761Y24474286D01*
X39737380Y24617143D01*
X39737380Y24712381D01*
X39689761Y24855239D01*
X39594523Y24950477D01*
X39499285Y24998096D01*
X39308809Y25045715D01*
X39165952Y25045715D01*
X38975476Y24998096D01*
X38880238Y24950477D01*
X38785000Y24855239D01*
X38737380Y24712381D01*
X38737380Y24617143D01*
X38785000Y24474286D01*
X38832619Y24426667D01*
X39070714Y23569524D02*
X39737380Y23569524D01*
X38689761Y23807620D02*
X39404047Y24045715D01*
X39404047Y23426667D01*
%TO.C,C5*%
X65507142Y18884167D02*
X65554761Y18931786D01*
X65602380Y19074643D01*
X65602380Y19169881D01*
X65554761Y19312739D01*
X65459523Y19407977D01*
X65364285Y19455596D01*
X65173809Y19503215D01*
X65030952Y19503215D01*
X64840476Y19455596D01*
X64745238Y19407977D01*
X64650000Y19312739D01*
X64602380Y19169881D01*
X64602380Y19074643D01*
X64650000Y18931786D01*
X64697619Y18884167D01*
X64602380Y17979405D02*
X64602380Y18455596D01*
X65078571Y18503215D01*
X65030952Y18455596D01*
X64983333Y18360358D01*
X64983333Y18122262D01*
X65030952Y18027024D01*
X65078571Y17979405D01*
X65173809Y17931786D01*
X65411904Y17931786D01*
X65507142Y17979405D01*
X65554761Y18027024D01*
X65602380Y18122262D01*
X65602380Y18360358D01*
X65554761Y18455596D01*
X65507142Y18503215D01*
%TO.C,C6*%
X52047142Y14136667D02*
X52094761Y14184286D01*
X52142380Y14327143D01*
X52142380Y14422381D01*
X52094761Y14565239D01*
X51999523Y14660477D01*
X51904285Y14708096D01*
X51713809Y14755715D01*
X51570952Y14755715D01*
X51380476Y14708096D01*
X51285238Y14660477D01*
X51190000Y14565239D01*
X51142380Y14422381D01*
X51142380Y14327143D01*
X51190000Y14184286D01*
X51237619Y14136667D01*
X51142380Y13279524D02*
X51142380Y13470000D01*
X51190000Y13565239D01*
X51237619Y13612858D01*
X51380476Y13708096D01*
X51570952Y13755715D01*
X51951904Y13755715D01*
X52047142Y13708096D01*
X52094761Y13660477D01*
X52142380Y13565239D01*
X52142380Y13374762D01*
X52094761Y13279524D01*
X52047142Y13231905D01*
X51951904Y13184286D01*
X51713809Y13184286D01*
X51618571Y13231905D01*
X51570952Y13279524D01*
X51523333Y13374762D01*
X51523333Y13565239D01*
X51570952Y13660477D01*
X51618571Y13708096D01*
X51713809Y13755715D01*
%TD*%
M02*
