%TF.GenerationSoftware,KiCad,Pcbnew,(5.1.6)-1*%
%TF.CreationDate,2021-12-16T17:16:20+09:00*%
%TF.ProjectId,Mars_ver4.0.0_prototype,4d617273-5f76-4657-9234-2e302e305f70,rev?*%
%TF.SameCoordinates,PX66f2fb0PY9c3d8f0*%
%TF.FileFunction,Copper,L2,Bot*%
%TF.FilePolarity,Positive*%
%FSLAX46Y46*%
G04 Gerber Fmt 4.6, Leading zero omitted, Abs format (unit mm)*
G04 Created by KiCad (PCBNEW (5.1.6)-1) date 2021-12-16 17:16:20*
%MOMM*%
%LPD*%
G01*
G04 APERTURE LIST*
%TA.AperFunction,ComponentPad*%
%ADD10R,1.700000X1.700000*%
%TD*%
%TA.AperFunction,ComponentPad*%
%ADD11O,1.700000X1.700000*%
%TD*%
%TA.AperFunction,ComponentPad*%
%ADD12C,2.070000*%
%TD*%
%TA.AperFunction,ComponentPad*%
%ADD13R,2.070000X2.070000*%
%TD*%
%TA.AperFunction,ComponentPad*%
%ADD14C,1.600000*%
%TD*%
%TA.AperFunction,ComponentPad*%
%ADD15R,1.600000X1.600000*%
%TD*%
%TA.AperFunction,SMDPad,CuDef*%
%ADD16R,1.040000X1.000000*%
%TD*%
%TA.AperFunction,ComponentPad*%
%ADD17C,1.800000*%
%TD*%
%TA.AperFunction,ComponentPad*%
%ADD18R,1.800000X1.800000*%
%TD*%
%TA.AperFunction,ComponentPad*%
%ADD19O,1.600000X1.600000*%
%TD*%
%TA.AperFunction,ViaPad*%
%ADD20C,2.500000*%
%TD*%
%TA.AperFunction,ViaPad*%
%ADD21C,1.700000*%
%TD*%
%TA.AperFunction,ViaPad*%
%ADD22C,4.000000*%
%TD*%
%TA.AperFunction,ViaPad*%
%ADD23C,3.500000*%
%TD*%
%TA.AperFunction,Conductor*%
%ADD24C,1.000000*%
%TD*%
%TA.AperFunction,Conductor*%
%ADD25C,2.000000*%
%TD*%
%TA.AperFunction,Conductor*%
%ADD26C,2.400000*%
%TD*%
%TA.AperFunction,Conductor*%
%ADD27C,0.500000*%
%TD*%
%TA.AperFunction,Conductor*%
%ADD28C,0.400000*%
%TD*%
%TA.AperFunction,Conductor*%
%ADD29C,0.250000*%
%TD*%
%TA.AperFunction,Conductor*%
%ADD30C,0.300000*%
%TD*%
%TA.AperFunction,Conductor*%
%ADD31C,0.254000*%
%TD*%
G04 APERTURE END LIST*
D10*
%TO.P,J1,1*%
%TO.N,/PHASE_IN*%
X13970000Y73660000D03*
D11*
%TO.P,J1,2*%
%TO.N,/SR_IN*%
X16510000Y73660000D03*
%TO.P,J1,3*%
%TO.N,/PWMH_IN*%
X19050000Y73660000D03*
%TO.P,J1,4*%
%TO.N,/PWML_IN*%
X21590000Y73660000D03*
%TD*%
D10*
%TO.P,J3,1*%
%TO.N,/3.3V*%
X10795000Y45085000D03*
D11*
%TO.P,J3,2*%
%TO.N,/PWMH_IN*%
X10795000Y42545000D03*
%TO.P,J3,3*%
%TO.N,/PWML_IN*%
X10795000Y40005000D03*
%TO.P,J3,4*%
%TO.N,GND1*%
X10795000Y37465000D03*
%TD*%
%TO.P,J8,16*%
%TO.N,Net-(J8-Pad16)*%
X34290000Y25400000D03*
%TO.P,J8,15*%
%TO.N,/CP2*%
X31750000Y25400000D03*
%TO.P,J8,14*%
%TO.N,/CP1*%
X34290000Y22860000D03*
%TO.P,J8,13*%
%TO.N,GND*%
X31750000Y22860000D03*
%TO.P,J8,12*%
%TO.N,/NC*%
X34290000Y20320000D03*
%TO.P,J8,11*%
%TO.N,/PHASE*%
X31750000Y20320000D03*
%TO.P,J8,10*%
%TO.N,/V5*%
X34290000Y17780000D03*
%TO.P,J8,9*%
%TO.N,/SR*%
X31750000Y17780000D03*
%TO.P,J8,8*%
%TO.N,/PWML*%
X34290000Y15240000D03*
%TO.P,J8,7*%
%TO.N,/PWMH*%
X31750000Y15240000D03*
%TO.P,J8,6*%
%TO.N,/RESET*%
X34290000Y12700000D03*
%TO.P,J8,5*%
%TO.N,/FF1*%
X31750000Y12700000D03*
%TO.P,J8,4*%
%TO.N,/FF2*%
X34290000Y10160000D03*
%TO.P,J8,3*%
%TO.N,/RDEAD*%
X31750000Y10160000D03*
%TO.P,J8,2*%
%TO.N,/VDSTH*%
X34290000Y7620000D03*
D10*
%TO.P,J8,1*%
%TO.N,Net-(J8-Pad1)*%
X31750000Y7620000D03*
%TD*%
D12*
%TO.P,Q1,3*%
%TO.N,/SA*%
X40640000Y82550000D03*
%TO.P,Q1,2*%
%TO.N,+BATT*%
X43180000Y82550000D03*
D13*
%TO.P,Q1,1*%
%TO.N,Net-(Q1-Pad1)*%
X45720000Y82550000D03*
%TD*%
D12*
%TO.P,Q3,3*%
%TO.N,/SB*%
X40640000Y52070000D03*
%TO.P,Q3,2*%
%TO.N,+BATT*%
X43180000Y52070000D03*
D13*
%TO.P,Q3,1*%
%TO.N,Net-(Q3-Pad1)*%
X45720000Y52070000D03*
%TD*%
D10*
%TO.P,J7,1*%
%TO.N,GND*%
X29210000Y73660000D03*
D11*
%TO.P,J7,2*%
%TO.N,/RESET*%
X31750000Y73660000D03*
%TD*%
D14*
%TO.P,C11,2*%
%TO.N,GND*%
X68580000Y39450000D03*
D15*
%TO.P,C11,1*%
%TO.N,+BATT*%
X68580000Y44450000D03*
%TD*%
D11*
%TO.P,J9,2*%
%TO.N,/3.3V*%
X6350000Y73660000D03*
D10*
%TO.P,J9,1*%
%TO.N,GND1*%
X3810000Y73660000D03*
%TD*%
D14*
%TO.P,C8,2*%
%TO.N,GND*%
X52705000Y22780000D03*
%TO.P,C8,1*%
%TO.N,/VREG*%
X52705000Y17780000D03*
%TD*%
%TO.P,C7,2*%
%TO.N,GND*%
X38180000Y12780000D03*
%TO.P,C7,1*%
%TO.N,/V5*%
X38180000Y17780000D03*
%TD*%
D16*
%TO.P,D3,2*%
%TO.N,+BATT*%
X63500000Y26340000D03*
%TO.P,D3,1*%
%TO.N,/VBB*%
X63500000Y23190000D03*
%TD*%
D11*
%TO.P,J6,16*%
%TO.N,Net-(J6-Pad16)*%
X59690000Y25400000D03*
%TO.P,J6,15*%
%TO.N,/NC*%
X57150000Y25400000D03*
%TO.P,J6,14*%
%TO.N,/VBB*%
X59690000Y22860000D03*
%TO.P,J6,13*%
%TO.N,/GLA*%
X57150000Y22860000D03*
%TO.P,J6,12*%
%TO.N,/SA*%
X59690000Y20320000D03*
%TO.P,J6,11*%
%TO.N,/GHA*%
X57150000Y20320000D03*
%TO.P,J6,10*%
%TO.N,/CA*%
X59690000Y17780000D03*
%TO.P,J6,9*%
%TO.N,/VREG*%
X57150000Y17780000D03*
%TO.P,J6,8*%
%TO.N,/NC*%
X59690000Y15240000D03*
%TO.P,J6,7*%
%TO.N,/CB*%
X57150000Y15240000D03*
%TO.P,J6,6*%
%TO.N,/GHB*%
X59690000Y12700000D03*
%TO.P,J6,5*%
%TO.N,/SB*%
X57150000Y12700000D03*
%TO.P,J6,4*%
%TO.N,/GLB*%
X59690000Y10160000D03*
%TO.P,J6,3*%
%TO.N,GND*%
X57150000Y10160000D03*
%TO.P,J6,2*%
%TO.N,+BATT*%
X59690000Y7620000D03*
D10*
%TO.P,J6,1*%
%TO.N,Net-(J6-Pad1)*%
X57150000Y7620000D03*
%TD*%
D12*
%TO.P,Q4,3*%
%TO.N,GND*%
X55880000Y52070000D03*
%TO.P,Q4,2*%
%TO.N,/SB*%
X58420000Y52070000D03*
D13*
%TO.P,Q4,1*%
%TO.N,Net-(Q4-Pad1)*%
X60960000Y52070000D03*
%TD*%
D12*
%TO.P,Q2,3*%
%TO.N,GND*%
X55880000Y82550000D03*
%TO.P,Q2,2*%
%TO.N,/SA*%
X58420000Y82550000D03*
D13*
%TO.P,Q2,1*%
%TO.N,Net-(Q2-Pad1)*%
X60960000Y82550000D03*
%TD*%
D14*
%TO.P,C10,2*%
%TO.N,GND1*%
X5715000Y38815000D03*
%TO.P,C10,1*%
%TO.N,/3.3V*%
X5715000Y43815000D03*
%TD*%
%TO.P,C9,2*%
%TO.N,GND1*%
X5715000Y56595000D03*
%TO.P,C9,1*%
%TO.N,/3.3V*%
X5715000Y61595000D03*
%TD*%
%TO.P,C1,1*%
%TO.N,/V5*%
X23495000Y61595000D03*
%TO.P,C1,2*%
%TO.N,GND*%
X23495000Y56595000D03*
%TD*%
%TO.P,C2,1*%
%TO.N,/V5*%
X23495000Y43815000D03*
%TO.P,C2,2*%
%TO.N,GND*%
X23495000Y38815000D03*
%TD*%
%TO.P,C3,1*%
%TO.N,/VREG*%
%TA.AperFunction,SMDPad,CuDef*%
G36*
G01*
X50955000Y18236250D02*
X50955000Y17323750D01*
G75*
G02*
X50711250Y17080000I-243750J0D01*
G01*
X50223750Y17080000D01*
G75*
G02*
X49980000Y17323750I0J243750D01*
G01*
X49980000Y18236250D01*
G75*
G02*
X50223750Y18480000I243750J0D01*
G01*
X50711250Y18480000D01*
G75*
G02*
X50955000Y18236250I0J-243750D01*
G01*
G37*
%TD.AperFunction*%
%TO.P,C3,2*%
%TO.N,GND*%
%TA.AperFunction,SMDPad,CuDef*%
G36*
G01*
X49080000Y18236250D02*
X49080000Y17323750D01*
G75*
G02*
X48836250Y17080000I-243750J0D01*
G01*
X48348750Y17080000D01*
G75*
G02*
X48105000Y17323750I0J243750D01*
G01*
X48105000Y18236250D01*
G75*
G02*
X48348750Y18480000I243750J0D01*
G01*
X48836250Y18480000D01*
G75*
G02*
X49080000Y18236250I0J-243750D01*
G01*
G37*
%TD.AperFunction*%
%TD*%
%TO.P,C4,1*%
%TO.N,/CP1*%
%TA.AperFunction,SMDPad,CuDef*%
G36*
G01*
X38090000Y22235000D02*
X36840000Y22235000D01*
G75*
G02*
X36590000Y22485000I0J250000D01*
G01*
X36590000Y23235000D01*
G75*
G02*
X36840000Y23485000I250000J0D01*
G01*
X38090000Y23485000D01*
G75*
G02*
X38340000Y23235000I0J-250000D01*
G01*
X38340000Y22485000D01*
G75*
G02*
X38090000Y22235000I-250000J0D01*
G01*
G37*
%TD.AperFunction*%
%TO.P,C4,2*%
%TO.N,/CP2*%
%TA.AperFunction,SMDPad,CuDef*%
G36*
G01*
X38090000Y25035000D02*
X36840000Y25035000D01*
G75*
G02*
X36590000Y25285000I0J250000D01*
G01*
X36590000Y26035000D01*
G75*
G02*
X36840000Y26285000I250000J0D01*
G01*
X38090000Y26285000D01*
G75*
G02*
X38340000Y26035000I0J-250000D01*
G01*
X38340000Y25285000D01*
G75*
G02*
X38090000Y25035000I-250000J0D01*
G01*
G37*
%TD.AperFunction*%
%TD*%
%TO.P,C5,1*%
%TO.N,/CA*%
%TA.AperFunction,SMDPad,CuDef*%
G36*
G01*
X63956250Y17292500D02*
X63043750Y17292500D01*
G75*
G02*
X62800000Y17536250I0J243750D01*
G01*
X62800000Y18023750D01*
G75*
G02*
X63043750Y18267500I243750J0D01*
G01*
X63956250Y18267500D01*
G75*
G02*
X64200000Y18023750I0J-243750D01*
G01*
X64200000Y17536250D01*
G75*
G02*
X63956250Y17292500I-243750J0D01*
G01*
G37*
%TD.AperFunction*%
%TO.P,C5,2*%
%TO.N,/SA*%
%TA.AperFunction,SMDPad,CuDef*%
G36*
G01*
X63956250Y19167500D02*
X63043750Y19167500D01*
G75*
G02*
X62800000Y19411250I0J243750D01*
G01*
X62800000Y19898750D01*
G75*
G02*
X63043750Y20142500I243750J0D01*
G01*
X63956250Y20142500D01*
G75*
G02*
X64200000Y19898750I0J-243750D01*
G01*
X64200000Y19411250D01*
G75*
G02*
X63956250Y19167500I-243750J0D01*
G01*
G37*
%TD.AperFunction*%
%TD*%
%TO.P,C6,2*%
%TO.N,/SB*%
%TA.AperFunction,SMDPad,CuDef*%
G36*
G01*
X52883750Y13520000D02*
X53796250Y13520000D01*
G75*
G02*
X54040000Y13276250I0J-243750D01*
G01*
X54040000Y12788750D01*
G75*
G02*
X53796250Y12545000I-243750J0D01*
G01*
X52883750Y12545000D01*
G75*
G02*
X52640000Y12788750I0J243750D01*
G01*
X52640000Y13276250D01*
G75*
G02*
X52883750Y13520000I243750J0D01*
G01*
G37*
%TD.AperFunction*%
%TO.P,C6,1*%
%TO.N,/CB*%
%TA.AperFunction,SMDPad,CuDef*%
G36*
G01*
X52883750Y15395000D02*
X53796250Y15395000D01*
G75*
G02*
X54040000Y15151250I0J-243750D01*
G01*
X54040000Y14663750D01*
G75*
G02*
X53796250Y14420000I-243750J0D01*
G01*
X52883750Y14420000D01*
G75*
G02*
X52640000Y14663750I0J243750D01*
G01*
X52640000Y15151250D01*
G75*
G02*
X52883750Y15395000I243750J0D01*
G01*
G37*
%TD.AperFunction*%
%TD*%
D17*
%TO.P,D1,2*%
%TO.N,Net-(D1-Pad2)*%
X7620000Y27305000D03*
D18*
%TO.P,D1,1*%
%TO.N,/FF1*%
X7620000Y24765000D03*
%TD*%
%TO.P,D2,1*%
%TO.N,/FF2*%
X7620000Y18415000D03*
D17*
%TO.P,D2,2*%
%TO.N,Net-(D2-Pad2)*%
X7620000Y20955000D03*
%TD*%
D19*
%TO.P,R1,2*%
%TO.N,/V5*%
X12700000Y8255000D03*
D14*
%TO.P,R1,1*%
%TO.N,/VDSTH*%
X20320000Y8255000D03*
%TD*%
%TO.P,R2,1*%
%TO.N,GND*%
X12700000Y13335000D03*
D19*
%TO.P,R2,2*%
%TO.N,/VDSTH*%
X20320000Y13335000D03*
%TD*%
D14*
%TO.P,R3,1*%
%TO.N,/V5*%
X20320000Y26035000D03*
D19*
%TO.P,R3,2*%
%TO.N,Net-(D1-Pad2)*%
X12700000Y26035000D03*
%TD*%
%TO.P,R4,2*%
%TO.N,Net-(D2-Pad2)*%
X12700000Y19685000D03*
D14*
%TO.P,R4,1*%
%TO.N,/V5*%
X20320000Y19685000D03*
%TD*%
%TO.P,R5,1*%
%TO.N,/GHA*%
X40640000Y64770000D03*
D19*
%TO.P,R5,2*%
%TO.N,Net-(Q1-Pad1)*%
X40640000Y72390000D03*
%TD*%
%TO.P,R6,2*%
%TO.N,Net-(Q2-Pad1)*%
X55880000Y72390000D03*
D14*
%TO.P,R6,1*%
%TO.N,/GLA*%
X55880000Y64770000D03*
%TD*%
%TO.P,R7,1*%
%TO.N,Net-(Q1-Pad1)*%
X45720000Y64770000D03*
D19*
%TO.P,R7,2*%
%TO.N,/SA*%
X45720000Y72390000D03*
%TD*%
D14*
%TO.P,R8,1*%
%TO.N,Net-(Q2-Pad1)*%
X60960000Y72390000D03*
D19*
%TO.P,R8,2*%
%TO.N,GND*%
X60960000Y64770000D03*
%TD*%
%TO.P,R9,2*%
%TO.N,GND*%
X12700000Y32385000D03*
D14*
%TO.P,R9,1*%
%TO.N,/RDEAD*%
X20320000Y32385000D03*
%TD*%
D19*
%TO.P,R10,2*%
%TO.N,/SB*%
X45720000Y41910000D03*
D14*
%TO.P,R10,1*%
%TO.N,Net-(Q3-Pad1)*%
X45720000Y34290000D03*
%TD*%
%TO.P,R11,1*%
%TO.N,Net-(Q4-Pad1)*%
X60960000Y41910000D03*
D19*
%TO.P,R11,2*%
%TO.N,GND*%
X60960000Y34290000D03*
%TD*%
D14*
%TO.P,R12,1*%
%TO.N,+BATT*%
X45720000Y10160000D03*
D19*
%TO.P,R12,2*%
%TO.N,/RESET*%
X38100000Y10160000D03*
%TD*%
%TO.P,R13,2*%
%TO.N,Net-(Q3-Pad1)*%
X40640000Y41910000D03*
D14*
%TO.P,R13,1*%
%TO.N,/GHB*%
X40640000Y34290000D03*
%TD*%
%TO.P,R14,1*%
%TO.N,/GLB*%
X55880000Y34290000D03*
D19*
%TO.P,R14,2*%
%TO.N,Net-(Q4-Pad1)*%
X55880000Y41910000D03*
%TD*%
D10*
%TO.P,J2,1*%
%TO.N,/3.3V*%
X10795000Y62865000D03*
D11*
%TO.P,J2,2*%
%TO.N,/PHASE_IN*%
X10795000Y60325000D03*
%TO.P,J2,3*%
%TO.N,/SR_IN*%
X10795000Y57785000D03*
%TO.P,J2,4*%
%TO.N,GND1*%
X10795000Y55245000D03*
%TD*%
%TO.P,J4,4*%
%TO.N,GND*%
X18415000Y55245000D03*
%TO.P,J4,3*%
%TO.N,/SR*%
X18415000Y57785000D03*
%TO.P,J4,2*%
%TO.N,/PHASE*%
X18415000Y60325000D03*
D10*
%TO.P,J4,1*%
%TO.N,/V5*%
X18415000Y62865000D03*
%TD*%
D11*
%TO.P,J5,4*%
%TO.N,GND*%
X18415000Y37465000D03*
%TO.P,J5,3*%
%TO.N,/PWML*%
X18415000Y40005000D03*
%TO.P,J5,2*%
%TO.N,/PWMH*%
X18415000Y42545000D03*
D10*
%TO.P,J5,1*%
%TO.N,/V5*%
X18415000Y45085000D03*
%TD*%
D20*
%TO.N,GND*%
X70485000Y83820000D03*
%TO.N,+BATT*%
X66040000Y34925000D03*
D21*
%TO.N,/V5*%
X43180000Y20320000D03*
X38100000Y20320000D03*
X10160000Y6350000D03*
X10160000Y15240000D03*
%TO.N,GND*%
X21590000Y49530000D03*
X21590000Y35560000D03*
X20320000Y29210000D03*
X10160000Y29210000D03*
D20*
%TO.N,/SA*%
X52070000Y28575000D03*
D22*
X52070000Y73025000D03*
X52070000Y73025000D03*
D23*
X55880000Y75565000D03*
D22*
%TO.N,/SB*%
X48895000Y21590000D03*
X48895000Y42545000D03*
D23*
X55880000Y45085000D03*
D21*
%TO.N,/FF1*%
X23495000Y16510000D03*
X16510000Y16510000D03*
D20*
%TO.N,+BATT*%
X50165000Y78740000D03*
X67310000Y78740000D03*
X50165000Y48260000D03*
X67310000Y48260000D03*
X70485000Y78740000D03*
X66040000Y26035000D03*
D21*
%TO.N,/PWML*%
X23495000Y32385000D03*
X33274000Y29718000D03*
%TO.N,GND1*%
X8255000Y49530000D03*
X8255000Y34290000D03*
%TD*%
D24*
%TO.N,/V5*%
X22225000Y62865000D02*
X23495000Y61595000D01*
X18415000Y62865000D02*
X22225000Y62865000D01*
X22225000Y45085000D02*
X23495000Y43815000D01*
X18415000Y45085000D02*
X22225000Y45085000D01*
D25*
X34290000Y17780000D02*
X38180000Y17780000D01*
D24*
X20320000Y15875000D02*
X12700000Y8255000D01*
X20320000Y19685000D02*
X20320000Y15875000D01*
X38180000Y20240000D02*
X38100000Y20320000D01*
X38180000Y17780000D02*
X38180000Y20240000D01*
X16764999Y46735001D02*
X18415000Y45085000D01*
X16764999Y61214999D02*
X16764999Y46735001D01*
X18415000Y62865000D02*
X16764999Y61214999D01*
X20320000Y26035000D02*
X20320000Y19685000D01*
X16764999Y38818001D02*
X16764999Y43434999D01*
X16764999Y43434999D02*
X18415000Y45085000D01*
X15875000Y30480000D02*
X12065000Y30480000D01*
X20320000Y26035000D02*
X15875000Y30480000D01*
X12065000Y30480000D02*
X11099999Y31445001D01*
X11099999Y31445001D02*
X11099999Y33153001D01*
X11099999Y33153001D02*
X16764999Y38818001D01*
X10160000Y10795000D02*
X12700000Y8255000D01*
X10160000Y15240000D02*
X10160000Y10795000D01*
X12140020Y4369980D02*
X10160000Y6350000D01*
X43180000Y20320000D02*
X43180000Y12953060D01*
X34596919Y4369979D02*
X12140020Y4369980D01*
X43180000Y12953060D02*
X34596919Y4369979D01*
%TO.N,GND*%
X22145000Y55245000D02*
X23495000Y56595000D01*
X18415000Y55245000D02*
X22145000Y55245000D01*
X22145000Y37465000D02*
X23495000Y38815000D01*
X18415000Y37465000D02*
X22145000Y37465000D01*
D26*
X55880000Y59690000D02*
X60960000Y64770000D01*
X55880000Y84013711D02*
X58226289Y86360000D01*
X55880000Y82550000D02*
X55880000Y84013711D01*
X61920002Y86360000D02*
X63660010Y84619992D01*
X58226289Y86360000D02*
X61920002Y86360000D01*
X63660010Y67470010D02*
X60960000Y64770000D01*
X63660010Y84619992D02*
X63660010Y67470010D01*
X63660010Y54449990D02*
X62230000Y55880000D01*
X57150000Y55880000D02*
X55880000Y54610000D01*
X62230000Y55880000D02*
X57150000Y55880000D01*
X55880000Y52070000D02*
X55880000Y54610000D01*
X55880000Y54610000D02*
X55880000Y59690000D01*
X64690000Y39450000D02*
X63660010Y40479990D01*
X68580000Y39450000D02*
X64690000Y39450000D01*
X63660010Y40479990D02*
X63660010Y54449990D01*
D24*
X13335000Y32385000D02*
X18415000Y37465000D01*
X12700000Y32385000D02*
X13335000Y32385000D01*
D25*
X60960000Y37779980D02*
X63660010Y40479990D01*
X60960000Y34290000D02*
X60960000Y37779980D01*
D24*
X21590000Y36910000D02*
X22145000Y37465000D01*
X21590000Y35560000D02*
X21590000Y36910000D01*
X21590000Y54690000D02*
X22145000Y55245000D01*
X21590000Y49530000D02*
X21590000Y54690000D01*
D25*
%TO.N,/VREG*%
X56515000Y17780000D02*
X52705000Y17780000D01*
X53340000Y17780000D02*
X50467500Y17780000D01*
X57150000Y17780000D02*
X56515000Y17780000D01*
%TO.N,/CP1*%
X34290000Y22860000D02*
X37465000Y22860000D01*
%TO.N,/CP2*%
X35574999Y27550001D02*
X37465000Y25660000D01*
X32697920Y27550001D02*
X35574999Y27550001D01*
X31750000Y26602081D02*
X32697920Y27550001D01*
X31750000Y25400000D02*
X31750000Y26602081D01*
%TO.N,/SA*%
X52070000Y28575000D02*
X52705000Y29210000D01*
X67310000Y29210000D02*
X68580000Y27940000D01*
X52705000Y29210000D02*
X67310000Y29210000D01*
X68580000Y27940000D02*
X68580000Y24765000D01*
X68580000Y24765000D02*
X68580000Y21590000D01*
X68580000Y21590000D02*
X67310000Y20320000D01*
X67310000Y20320000D02*
X62865000Y20320000D01*
%TO.N,/SB*%
X53672500Y12700000D02*
X53340000Y13032500D01*
X55880000Y12700000D02*
X53672500Y12700000D01*
X57150000Y12700000D02*
X55880000Y12700000D01*
X48895000Y22225000D02*
X48895000Y22225000D01*
X49530000Y12700000D02*
X53672500Y12700000D01*
X46990000Y21590000D02*
X45720000Y20320000D01*
X45720000Y15875000D02*
X48895000Y12700000D01*
X48895000Y21590000D02*
X46990000Y21590000D01*
X45720000Y20320000D02*
X45720000Y15875000D01*
X48895000Y12700000D02*
X49530000Y12700000D01*
D27*
%TO.N,Net-(D1-Pad2)*%
X11430000Y27305000D02*
X12700000Y26035000D01*
X7620000Y27305000D02*
X11430000Y27305000D01*
%TO.N,/FF1*%
X7620000Y24765000D02*
X9618002Y24765000D01*
X9618002Y24765000D02*
X12065000Y24765000D01*
X12065000Y24765000D02*
X15240000Y21590000D01*
X15240000Y21590000D02*
X15240000Y17780000D01*
X15240000Y17780000D02*
X16510000Y16510000D01*
X23495000Y15736384D02*
X23495000Y16510000D01*
X16510000Y16510000D02*
X16510000Y16510000D01*
X31750000Y12700000D02*
X25400000Y12700000D01*
X23495000Y14605000D02*
X25400000Y12700000D01*
X23495000Y16510000D02*
X23495000Y14605000D01*
%TO.N,/FF2*%
X35690001Y8759999D02*
X34290000Y10160000D01*
X7620000Y11336998D02*
X13537009Y5419989D01*
X7620000Y18415000D02*
X7620000Y11336998D01*
X13537009Y5419989D02*
X34161991Y5419989D01*
X34161991Y5419989D02*
X35690001Y6947999D01*
X35690001Y6947999D02*
X35690001Y8759999D01*
%TO.N,Net-(D2-Pad2)*%
X11430000Y20955000D02*
X12700000Y19685000D01*
X7620000Y20955000D02*
X11430000Y20955000D01*
D28*
%TO.N,/PWMH_IN*%
X19050000Y73660000D02*
X13545021Y68155021D01*
X13545021Y45295021D02*
X10795000Y42545000D01*
X13545021Y68155021D02*
X13545021Y45295021D01*
%TO.N,/PWML_IN*%
X10795000Y40005000D02*
X14245031Y43455031D01*
X14245031Y66315031D02*
X21590000Y73660000D01*
X14245031Y43455031D02*
X14245031Y66315031D01*
%TO.N,/SR_IN*%
X12845011Y59835011D02*
X10795000Y57785000D01*
X12845011Y68580000D02*
X12845011Y59835011D01*
X16510000Y73660000D02*
X16510000Y72244989D01*
X16510000Y72244989D02*
X12845011Y68580000D01*
D29*
%TO.N,/PHASE_IN*%
X10795000Y60399998D02*
X10795000Y60325000D01*
D28*
X12145001Y71835001D02*
X13970000Y73660000D01*
X12145001Y61675001D02*
X12145001Y71835001D01*
X10795000Y60325000D02*
X12145001Y61675001D01*
D24*
%TO.N,/RESET*%
X35560000Y12700000D02*
X38100000Y10160000D01*
X34290000Y12700000D02*
X35560000Y12700000D01*
D27*
X31750000Y35560000D02*
X31750000Y73660000D01*
X31750000Y34415584D02*
X31750000Y35560000D01*
X40330020Y25835564D02*
X31750000Y34415584D01*
X40330020Y16889435D02*
X40330020Y25835564D01*
X35560000Y12700000D02*
X36140585Y12700000D01*
X36140585Y12700000D02*
X40330020Y16889435D01*
D24*
%TO.N,+BATT*%
X59242080Y5969999D02*
X49910001Y5969999D01*
X59690000Y6417919D02*
X59242080Y5969999D01*
X49910001Y5969999D02*
X45720000Y10160000D01*
X59690000Y7620000D02*
X59690000Y6417919D01*
X59690000Y7620000D02*
X67878490Y7620000D01*
X73055010Y12796519D02*
X73055010Y41879990D01*
X67878490Y7620000D02*
X73055010Y12796519D01*
X73055010Y41879990D02*
X71755000Y43180000D01*
D26*
%TO.N,Net-(Q1-Pad1)*%
X45715001Y82554999D02*
X45715001Y85094999D01*
X45720000Y82550000D02*
X45715001Y82554999D01*
X45715001Y85094999D02*
X44450000Y86360000D01*
X44450000Y86360000D02*
X39370000Y86360000D01*
X39370000Y86360000D02*
X36830000Y83820000D01*
X36830000Y76200000D02*
X40640000Y72390000D01*
X36830000Y83820000D02*
X36830000Y76200000D01*
X45720000Y67310000D02*
X40640000Y72390000D01*
X45720000Y64770000D02*
X45720000Y67310000D01*
%TO.N,Net-(Q2-Pad1)*%
X60960000Y82550000D02*
X60960000Y72390000D01*
X60960000Y72390000D02*
X55880000Y72390000D01*
%TO.N,Net-(Q3-Pad1)*%
X45720000Y52070000D02*
X45720000Y54610000D01*
X45720000Y54610000D02*
X44450000Y55880000D01*
X44450000Y55880000D02*
X39370000Y55880000D01*
X39370000Y55880000D02*
X36830000Y53340000D01*
X36830000Y45720000D02*
X40640000Y41910000D01*
X36830000Y53340000D02*
X36830000Y45720000D01*
X40640000Y41910000D02*
X45720000Y36830000D01*
X45720000Y36830000D02*
X45720000Y34290000D01*
%TO.N,Net-(Q4-Pad1)*%
X60960000Y52070000D02*
X60960000Y41910000D01*
X55880000Y41910000D02*
X60960000Y41910000D01*
D27*
%TO.N,/VDSTH*%
X20320000Y8255000D02*
X20320000Y13335000D01*
X32889999Y6219999D02*
X34290000Y7620000D01*
X20320000Y8255000D02*
X22355001Y6219999D01*
X22355001Y6219999D02*
X32889999Y6219999D01*
D24*
%TO.N,/GHA*%
X57150000Y20417998D02*
X57150000Y20320000D01*
X52735010Y25369990D02*
X55499999Y22605001D01*
X44083517Y25369990D02*
X52735010Y25369990D01*
X38003088Y62133088D02*
X38003088Y59180020D01*
X55499999Y22605001D02*
X55499999Y21970001D01*
X40640000Y64770000D02*
X38003088Y62133088D01*
X38003088Y59180020D02*
X33529980Y54706912D01*
X33529980Y54706912D02*
X33529980Y35923527D01*
X55499999Y21970001D02*
X57150000Y20320000D01*
X33529980Y35923527D02*
X44083517Y25369990D01*
%TO.N,/GLA*%
X53340000Y26670000D02*
X57150000Y22860000D01*
X48990010Y57880010D02*
X38541569Y57880010D01*
X55880000Y64770000D02*
X48990010Y57880010D01*
X38541569Y57880010D02*
X34829990Y54168431D01*
X34829990Y54168431D02*
X34829990Y36462008D01*
X44621998Y26670000D02*
X53340000Y26670000D01*
X34829990Y36462008D02*
X44621998Y26670000D01*
D27*
%TO.N,/RDEAD*%
X22860000Y10160000D02*
X31750000Y10160000D01*
X20320000Y32385000D02*
X21670001Y31034999D01*
X21670001Y11349999D02*
X22860000Y10160000D01*
X21670001Y31034999D02*
X21670001Y11349999D01*
D24*
%TO.N,/GHB*%
X43815000Y31115000D02*
X40640000Y34290000D01*
X43919990Y31010010D02*
X43815000Y31115000D01*
X69215000Y12700000D02*
X70454990Y13939990D01*
X70454990Y13939990D02*
X70454990Y28610608D01*
X59690000Y12700000D02*
X69215000Y12700000D01*
X70454990Y28610608D02*
X68055588Y31010010D01*
X68055588Y31010010D02*
X43919990Y31010010D01*
%TO.N,/GLB*%
X57785000Y32385000D02*
X68519088Y32385000D01*
X55880000Y34290000D02*
X57785000Y32385000D01*
X68580000Y10160000D02*
X59690000Y10160000D01*
X68519088Y32385000D02*
X71755000Y29149088D01*
X71755000Y29149088D02*
X71755000Y13335000D01*
X71755000Y13335000D02*
X68580000Y10160000D01*
%TO.N,/3.3V*%
X6985000Y62865000D02*
X5715000Y61595000D01*
X10795000Y62865000D02*
X6985000Y62865000D01*
X6985000Y45085000D02*
X5715000Y43815000D01*
X10795000Y45085000D02*
X6985000Y45085000D01*
X6350000Y63500000D02*
X6985000Y62865000D01*
X6350000Y73660000D02*
X6350000Y63500000D01*
X4114999Y45415001D02*
X5715000Y43815000D01*
X4114999Y59994999D02*
X4114999Y45415001D01*
X5715000Y61595000D02*
X4114999Y59994999D01*
D30*
%TO.N,/PWML*%
X24745001Y39415001D02*
X24745001Y33635001D01*
X24745001Y33635001D02*
X23495000Y32385000D01*
X37690623Y15240000D02*
X34290000Y15240000D01*
X39630010Y17179387D02*
X37690623Y15240000D01*
X39630010Y18380613D02*
X39630010Y17179387D01*
X39370000Y25805622D02*
X39370000Y18640623D01*
X39370000Y18640623D02*
X39630010Y18380613D01*
X33274000Y29718000D02*
X35457622Y29718000D01*
X35457622Y29718000D02*
X39370000Y25805622D01*
X18415000Y40005000D02*
X19264999Y40854999D01*
X19264999Y40854999D02*
X23305003Y40854999D01*
X23305003Y40854999D02*
X24745001Y39415001D01*
%TO.N,/PWMH*%
X26670000Y15240000D02*
X31750000Y15240000D01*
X22370011Y19539989D02*
X26670000Y15240000D01*
X22463544Y42545000D02*
X25345010Y39663534D01*
X18415000Y42545000D02*
X22463544Y42545000D01*
X25345010Y39663534D02*
X25345010Y32330010D01*
X25345010Y32330010D02*
X22370011Y29355011D01*
X22370011Y29355011D02*
X22370011Y19539989D01*
%TO.N,/PHASE*%
X23073542Y60325000D02*
X18415000Y60325000D01*
X26670000Y56728542D02*
X23073542Y60325000D01*
X24557084Y20320000D02*
X23570031Y21307053D01*
X26670000Y31957916D02*
X26670000Y56728542D01*
X31750000Y20320000D02*
X24557084Y20320000D01*
X23570031Y21307053D02*
X23570031Y28857947D01*
X23570031Y28857947D02*
X26670000Y31957916D01*
%TO.N,/SR*%
X25400000Y17780000D02*
X31750000Y17780000D01*
X22970021Y20209979D02*
X25400000Y17780000D01*
X22970021Y29106479D02*
X22970021Y20209979D01*
X19264999Y58634999D02*
X23915001Y58634999D01*
X25945020Y56604980D02*
X25945020Y32081478D01*
X25945020Y32081478D02*
X22970021Y29106479D01*
X18415000Y57785000D02*
X19264999Y58634999D01*
X23915001Y58634999D02*
X25945020Y56604980D01*
D24*
%TO.N,GND1*%
X7065000Y55245000D02*
X5715000Y56595000D01*
X10795000Y55245000D02*
X7065000Y55245000D01*
X7065000Y37465000D02*
X5715000Y38815000D01*
X2814989Y41715011D02*
X5715000Y38815000D01*
X2814989Y72664989D02*
X2814989Y41715011D01*
X3810000Y73660000D02*
X2814989Y72664989D01*
X7065000Y55245000D02*
X7065000Y50720000D01*
X7065000Y50720000D02*
X8255000Y49530000D01*
X8255000Y36830000D02*
X8890000Y37465000D01*
X8255000Y34290000D02*
X8255000Y36830000D01*
X10795000Y37465000D02*
X8890000Y37465000D01*
X8255000Y36830000D02*
X7620000Y37465000D01*
X8890000Y37465000D02*
X7620000Y37465000D01*
X7620000Y37465000D02*
X7065000Y37465000D01*
%TD*%
D31*
%TO.N,+BATT*%
G36*
X44088001Y82634914D02*
G01*
X44080130Y82554999D01*
X44088001Y82475085D01*
X44088001Y82475075D01*
X44111543Y82236052D01*
X44204576Y81929362D01*
X44255934Y81833278D01*
X44255934Y81515000D01*
X44264178Y81431293D01*
X44288595Y81350804D01*
X44328245Y81276624D01*
X44381605Y81211605D01*
X44446624Y81158245D01*
X44520804Y81118595D01*
X44601293Y81094178D01*
X44685000Y81085934D01*
X45007632Y81085934D01*
X45094362Y81039576D01*
X45401053Y80946542D01*
X45720000Y80915128D01*
X46038947Y80946542D01*
X46345639Y81039576D01*
X46432368Y81085934D01*
X46755000Y81085934D01*
X46838707Y81094178D01*
X46919196Y81118595D01*
X46993376Y81158245D01*
X47058395Y81211605D01*
X47111755Y81276624D01*
X47151405Y81350804D01*
X47175822Y81431293D01*
X47184066Y81515000D01*
X47184066Y81837632D01*
X47230424Y81924361D01*
X47323458Y82231053D01*
X47354872Y82550000D01*
X47342001Y82680680D01*
X47342001Y84328000D01*
X50428766Y84328000D01*
X50605189Y84310624D01*
X50768850Y84260978D01*
X50919672Y84180362D01*
X51051870Y84071870D01*
X51160362Y83939672D01*
X51240978Y83788850D01*
X51290624Y83625189D01*
X51308000Y83448766D01*
X51308000Y78476234D01*
X51290624Y78299811D01*
X51240978Y78136150D01*
X51160362Y77985328D01*
X51051870Y77853130D01*
X50919672Y77744638D01*
X50768850Y77664022D01*
X50605189Y77614376D01*
X50428766Y77597000D01*
X44458328Y77597000D01*
X44318803Y77615369D01*
X44196546Y77666010D01*
X44091564Y77746564D01*
X44011010Y77851546D01*
X43960369Y77973803D01*
X43919277Y78285927D01*
X43910696Y78317951D01*
X43847259Y78471101D01*
X43830682Y78499812D01*
X43729769Y78631325D01*
X43706325Y78654769D01*
X43574812Y78755682D01*
X43546101Y78772259D01*
X43392951Y78835696D01*
X43360927Y78844277D01*
X43196577Y78865914D01*
X43180000Y78867000D01*
X42868734Y78867000D01*
X42701573Y78883464D01*
X42546831Y78930405D01*
X42404218Y79006633D01*
X42279218Y79109218D01*
X42176633Y79234218D01*
X42100405Y79376831D01*
X42053464Y79531573D01*
X42037000Y79698734D01*
X42037000Y82102266D01*
X42045816Y82123550D01*
X42102000Y82406006D01*
X42102000Y82693994D01*
X42045816Y82976450D01*
X42037000Y82997734D01*
X42037000Y83448766D01*
X42054376Y83625189D01*
X42104022Y83788850D01*
X42184638Y83939672D01*
X42293130Y84071870D01*
X42425328Y84180362D01*
X42576150Y84260978D01*
X42739811Y84310624D01*
X42916234Y84328000D01*
X44088002Y84328000D01*
X44088001Y82634914D01*
G37*
X44088001Y82634914D02*
X44080130Y82554999D01*
X44088001Y82475085D01*
X44088001Y82475075D01*
X44111543Y82236052D01*
X44204576Y81929362D01*
X44255934Y81833278D01*
X44255934Y81515000D01*
X44264178Y81431293D01*
X44288595Y81350804D01*
X44328245Y81276624D01*
X44381605Y81211605D01*
X44446624Y81158245D01*
X44520804Y81118595D01*
X44601293Y81094178D01*
X44685000Y81085934D01*
X45007632Y81085934D01*
X45094362Y81039576D01*
X45401053Y80946542D01*
X45720000Y80915128D01*
X46038947Y80946542D01*
X46345639Y81039576D01*
X46432368Y81085934D01*
X46755000Y81085934D01*
X46838707Y81094178D01*
X46919196Y81118595D01*
X46993376Y81158245D01*
X47058395Y81211605D01*
X47111755Y81276624D01*
X47151405Y81350804D01*
X47175822Y81431293D01*
X47184066Y81515000D01*
X47184066Y81837632D01*
X47230424Y81924361D01*
X47323458Y82231053D01*
X47354872Y82550000D01*
X47342001Y82680680D01*
X47342001Y84328000D01*
X50428766Y84328000D01*
X50605189Y84310624D01*
X50768850Y84260978D01*
X50919672Y84180362D01*
X51051870Y84071870D01*
X51160362Y83939672D01*
X51240978Y83788850D01*
X51290624Y83625189D01*
X51308000Y83448766D01*
X51308000Y78476234D01*
X51290624Y78299811D01*
X51240978Y78136150D01*
X51160362Y77985328D01*
X51051870Y77853130D01*
X50919672Y77744638D01*
X50768850Y77664022D01*
X50605189Y77614376D01*
X50428766Y77597000D01*
X44458328Y77597000D01*
X44318803Y77615369D01*
X44196546Y77666010D01*
X44091564Y77746564D01*
X44011010Y77851546D01*
X43960369Y77973803D01*
X43919277Y78285927D01*
X43910696Y78317951D01*
X43847259Y78471101D01*
X43830682Y78499812D01*
X43729769Y78631325D01*
X43706325Y78654769D01*
X43574812Y78755682D01*
X43546101Y78772259D01*
X43392951Y78835696D01*
X43360927Y78844277D01*
X43196577Y78865914D01*
X43180000Y78867000D01*
X42868734Y78867000D01*
X42701573Y78883464D01*
X42546831Y78930405D01*
X42404218Y79006633D01*
X42279218Y79109218D01*
X42176633Y79234218D01*
X42100405Y79376831D01*
X42053464Y79531573D01*
X42037000Y79698734D01*
X42037000Y82102266D01*
X42045816Y82123550D01*
X42102000Y82406006D01*
X42102000Y82693994D01*
X42045816Y82976450D01*
X42037000Y82997734D01*
X42037000Y83448766D01*
X42054376Y83625189D01*
X42104022Y83788850D01*
X42184638Y83939672D01*
X42293130Y84071870D01*
X42425328Y84180362D01*
X42576150Y84260978D01*
X42739811Y84310624D01*
X42916234Y84328000D01*
X44088002Y84328000D01*
X44088001Y82634914D01*
G36*
X71560189Y81770624D02*
G01*
X71723850Y81720978D01*
X71874672Y81640362D01*
X72006870Y81531870D01*
X72115362Y81399672D01*
X72195978Y81248850D01*
X72245624Y81085189D01*
X72263000Y80908766D01*
X72263000Y43551234D01*
X72245624Y43374811D01*
X72195978Y43211150D01*
X72115362Y43060328D01*
X72087828Y43026778D01*
X71844803Y43269803D01*
X71825557Y43285597D01*
X71803601Y43297333D01*
X71779776Y43304560D01*
X71755000Y43307000D01*
X70485000Y43307000D01*
X70460224Y43304560D01*
X70436399Y43297333D01*
X70414443Y43285597D01*
X70395197Y43269803D01*
X70379403Y43250557D01*
X70367667Y43228601D01*
X70360440Y43204776D01*
X70358000Y43180000D01*
X70358000Y42672000D01*
X67046234Y42672000D01*
X66869811Y42689376D01*
X66706150Y42739022D01*
X66555328Y42819638D01*
X66423130Y42928130D01*
X66314638Y43060328D01*
X66234022Y43211150D01*
X66184376Y43374811D01*
X66167000Y43551234D01*
X66167000Y80908766D01*
X66184376Y81085189D01*
X66234022Y81248850D01*
X66314638Y81399672D01*
X66423130Y81531870D01*
X66555328Y81640362D01*
X66706150Y81720978D01*
X66869811Y81770624D01*
X67046234Y81788000D01*
X71383766Y81788000D01*
X71560189Y81770624D01*
G37*
X71560189Y81770624D02*
X71723850Y81720978D01*
X71874672Y81640362D01*
X72006870Y81531870D01*
X72115362Y81399672D01*
X72195978Y81248850D01*
X72245624Y81085189D01*
X72263000Y80908766D01*
X72263000Y43551234D01*
X72245624Y43374811D01*
X72195978Y43211150D01*
X72115362Y43060328D01*
X72087828Y43026778D01*
X71844803Y43269803D01*
X71825557Y43285597D01*
X71803601Y43297333D01*
X71779776Y43304560D01*
X71755000Y43307000D01*
X70485000Y43307000D01*
X70460224Y43304560D01*
X70436399Y43297333D01*
X70414443Y43285597D01*
X70395197Y43269803D01*
X70379403Y43250557D01*
X70367667Y43228601D01*
X70360440Y43204776D01*
X70358000Y43180000D01*
X70358000Y42672000D01*
X67046234Y42672000D01*
X66869811Y42689376D01*
X66706150Y42739022D01*
X66555328Y42819638D01*
X66423130Y42928130D01*
X66314638Y43060328D01*
X66234022Y43211150D01*
X66184376Y43374811D01*
X66167000Y43551234D01*
X66167000Y80908766D01*
X66184376Y81085189D01*
X66234022Y81248850D01*
X66314638Y81399672D01*
X66423130Y81531870D01*
X66555328Y81640362D01*
X66706150Y81720978D01*
X66869811Y81770624D01*
X67046234Y81788000D01*
X71383766Y81788000D01*
X71560189Y81770624D01*
G36*
X44093000Y51990076D02*
G01*
X44116542Y51751053D01*
X44209575Y51444363D01*
X44255934Y51357632D01*
X44255934Y51035000D01*
X44264178Y50951293D01*
X44288595Y50870804D01*
X44328245Y50796624D01*
X44381605Y50731605D01*
X44446624Y50678245D01*
X44520804Y50638595D01*
X44601293Y50614178D01*
X44685000Y50605934D01*
X45007631Y50605934D01*
X45094362Y50559575D01*
X45401052Y50466542D01*
X45720000Y50435128D01*
X46038947Y50466542D01*
X46345637Y50559575D01*
X46432368Y50605934D01*
X46755000Y50605934D01*
X46838707Y50614178D01*
X46919196Y50638595D01*
X46993376Y50678245D01*
X47058395Y50731605D01*
X47111755Y50796624D01*
X47151405Y50870804D01*
X47175822Y50951293D01*
X47184066Y51035000D01*
X47184066Y51357631D01*
X47230425Y51444362D01*
X47323458Y51751052D01*
X47347000Y51990075D01*
X47347000Y53848000D01*
X50428766Y53848000D01*
X50605189Y53830624D01*
X50768850Y53780978D01*
X50919672Y53700362D01*
X51051870Y53591870D01*
X51160362Y53459672D01*
X51240978Y53308850D01*
X51290624Y53145189D01*
X51308000Y52968766D01*
X51308000Y47996234D01*
X51290624Y47819811D01*
X51240978Y47656150D01*
X51160362Y47505328D01*
X51051870Y47373130D01*
X50919672Y47264638D01*
X50768850Y47184022D01*
X50605189Y47134376D01*
X50428766Y47117000D01*
X44458328Y47117000D01*
X44318803Y47135369D01*
X44196546Y47186010D01*
X44091564Y47266564D01*
X44011010Y47371546D01*
X43960369Y47493803D01*
X43919277Y47805927D01*
X43910696Y47837951D01*
X43847259Y47991101D01*
X43830682Y48019812D01*
X43729769Y48151325D01*
X43706325Y48174769D01*
X43574812Y48275682D01*
X43546101Y48292259D01*
X43392951Y48355696D01*
X43360927Y48364277D01*
X43196577Y48385914D01*
X43180000Y48387000D01*
X42868734Y48387000D01*
X42701573Y48403464D01*
X42546831Y48450405D01*
X42404218Y48526633D01*
X42279218Y48629218D01*
X42176633Y48754218D01*
X42100405Y48896831D01*
X42053464Y49051573D01*
X42037000Y49218734D01*
X42037000Y51622266D01*
X42045816Y51643550D01*
X42102000Y51926006D01*
X42102000Y52213994D01*
X42045816Y52496450D01*
X42037000Y52517734D01*
X42037000Y52968766D01*
X42054376Y53145189D01*
X42104022Y53308850D01*
X42184638Y53459672D01*
X42293130Y53591870D01*
X42425328Y53700362D01*
X42576150Y53780978D01*
X42739811Y53830624D01*
X42916234Y53848000D01*
X44093001Y53848000D01*
X44093000Y51990076D01*
G37*
X44093000Y51990076D02*
X44116542Y51751053D01*
X44209575Y51444363D01*
X44255934Y51357632D01*
X44255934Y51035000D01*
X44264178Y50951293D01*
X44288595Y50870804D01*
X44328245Y50796624D01*
X44381605Y50731605D01*
X44446624Y50678245D01*
X44520804Y50638595D01*
X44601293Y50614178D01*
X44685000Y50605934D01*
X45007631Y50605934D01*
X45094362Y50559575D01*
X45401052Y50466542D01*
X45720000Y50435128D01*
X46038947Y50466542D01*
X46345637Y50559575D01*
X46432368Y50605934D01*
X46755000Y50605934D01*
X46838707Y50614178D01*
X46919196Y50638595D01*
X46993376Y50678245D01*
X47058395Y50731605D01*
X47111755Y50796624D01*
X47151405Y50870804D01*
X47175822Y50951293D01*
X47184066Y51035000D01*
X47184066Y51357631D01*
X47230425Y51444362D01*
X47323458Y51751052D01*
X47347000Y51990075D01*
X47347000Y53848000D01*
X50428766Y53848000D01*
X50605189Y53830624D01*
X50768850Y53780978D01*
X50919672Y53700362D01*
X51051870Y53591870D01*
X51160362Y53459672D01*
X51240978Y53308850D01*
X51290624Y53145189D01*
X51308000Y52968766D01*
X51308000Y47996234D01*
X51290624Y47819811D01*
X51240978Y47656150D01*
X51160362Y47505328D01*
X51051870Y47373130D01*
X50919672Y47264638D01*
X50768850Y47184022D01*
X50605189Y47134376D01*
X50428766Y47117000D01*
X44458328Y47117000D01*
X44318803Y47135369D01*
X44196546Y47186010D01*
X44091564Y47266564D01*
X44011010Y47371546D01*
X43960369Y47493803D01*
X43919277Y47805927D01*
X43910696Y47837951D01*
X43847259Y47991101D01*
X43830682Y48019812D01*
X43729769Y48151325D01*
X43706325Y48174769D01*
X43574812Y48275682D01*
X43546101Y48292259D01*
X43392951Y48355696D01*
X43360927Y48364277D01*
X43196577Y48385914D01*
X43180000Y48387000D01*
X42868734Y48387000D01*
X42701573Y48403464D01*
X42546831Y48450405D01*
X42404218Y48526633D01*
X42279218Y48629218D01*
X42176633Y48754218D01*
X42100405Y48896831D01*
X42053464Y49051573D01*
X42037000Y49218734D01*
X42037000Y51622266D01*
X42045816Y51643550D01*
X42102000Y51926006D01*
X42102000Y52213994D01*
X42045816Y52496450D01*
X42037000Y52517734D01*
X42037000Y52968766D01*
X42054376Y53145189D01*
X42104022Y53308850D01*
X42184638Y53459672D01*
X42293130Y53591870D01*
X42425328Y53700362D01*
X42576150Y53780978D01*
X42739811Y53830624D01*
X42916234Y53848000D01*
X44093001Y53848000D01*
X44093000Y51990076D01*
%TO.N,/SB*%
G36*
X41748454Y53801456D02*
G01*
X41701950Y53731856D01*
X41609540Y53558969D01*
X41577506Y53481633D01*
X41520601Y53294040D01*
X41504271Y53211944D01*
X41485056Y53016854D01*
X41483000Y52975000D01*
X41483000Y49212500D01*
X41485056Y49170647D01*
X41503358Y48984823D01*
X41519689Y48902724D01*
X41573892Y48724042D01*
X41605924Y48646709D01*
X41693944Y48482034D01*
X41740451Y48412432D01*
X41858907Y48268094D01*
X41918094Y48208907D01*
X42062432Y48090451D01*
X42132034Y48043944D01*
X42296709Y47955924D01*
X42374042Y47923892D01*
X42552724Y47869689D01*
X42634823Y47853358D01*
X42820647Y47835056D01*
X42862500Y47833000D01*
X43152013Y47833000D01*
X43232882Y47822353D01*
X43282159Y47801942D01*
X43324473Y47769473D01*
X43356942Y47727159D01*
X43377353Y47677882D01*
X43413290Y47404916D01*
X43442141Y47297244D01*
X43505578Y47144094D01*
X43561312Y47047560D01*
X43662225Y46916047D01*
X43741047Y46837225D01*
X43872560Y46736312D01*
X43969094Y46680578D01*
X44122244Y46617141D01*
X44229916Y46588290D01*
X44394266Y46566653D01*
X44450000Y46563000D01*
X50435000Y46563000D01*
X50476854Y46565056D01*
X50671944Y46584271D01*
X50754040Y46600601D01*
X50941633Y46657506D01*
X51018969Y46689540D01*
X51191856Y46781950D01*
X51261456Y46828454D01*
X51412993Y46952817D01*
X51472183Y47012007D01*
X51596546Y47163544D01*
X51643050Y47233144D01*
X51735460Y47406031D01*
X51767494Y47483367D01*
X51824399Y47670960D01*
X51840729Y47753056D01*
X51859944Y47948146D01*
X51862000Y47990000D01*
X51862000Y52975000D01*
X51859944Y53016854D01*
X51840729Y53211944D01*
X51824399Y53294040D01*
X51767494Y53481633D01*
X51735460Y53558969D01*
X51643050Y53731856D01*
X51596546Y53801456D01*
X51558348Y53848000D01*
X54253001Y53848000D01*
X54253000Y51990076D01*
X54276542Y51751053D01*
X54369575Y51444363D01*
X54520654Y51161715D01*
X54723971Y50913971D01*
X54971714Y50710654D01*
X55254362Y50559575D01*
X55561052Y50466542D01*
X55880000Y50435128D01*
X56198947Y50466542D01*
X56505637Y50559575D01*
X56788285Y50710654D01*
X57036029Y50913971D01*
X57239346Y51161714D01*
X57390425Y51444362D01*
X57483458Y51751052D01*
X57507000Y51990075D01*
X57507000Y53848000D01*
X58683766Y53848000D01*
X58860189Y53830624D01*
X59023850Y53780978D01*
X59174672Y53700362D01*
X59306870Y53591870D01*
X59415362Y53459672D01*
X59495978Y53308850D01*
X59518301Y53235262D01*
X59504178Y53188707D01*
X59495934Y53105000D01*
X59495934Y52782368D01*
X59449575Y52695637D01*
X59356542Y52388947D01*
X59333000Y52149924D01*
X59333001Y43537000D01*
X55800075Y43537000D01*
X55561052Y43513458D01*
X55254362Y43420425D01*
X54971714Y43269346D01*
X54723971Y43066029D01*
X54520654Y42818286D01*
X54369575Y42535638D01*
X54276542Y42228948D01*
X54245128Y41910000D01*
X54276542Y41591052D01*
X54369575Y41284362D01*
X54520654Y41001714D01*
X54713278Y40767000D01*
X44083925Y40767000D01*
X38862000Y45988925D01*
X38862000Y52968766D01*
X38873177Y53082252D01*
X39627748Y53836823D01*
X39741234Y53848000D01*
X41786652Y53848000D01*
X41748454Y53801456D01*
G37*
X41748454Y53801456D02*
X41701950Y53731856D01*
X41609540Y53558969D01*
X41577506Y53481633D01*
X41520601Y53294040D01*
X41504271Y53211944D01*
X41485056Y53016854D01*
X41483000Y52975000D01*
X41483000Y49212500D01*
X41485056Y49170647D01*
X41503358Y48984823D01*
X41519689Y48902724D01*
X41573892Y48724042D01*
X41605924Y48646709D01*
X41693944Y48482034D01*
X41740451Y48412432D01*
X41858907Y48268094D01*
X41918094Y48208907D01*
X42062432Y48090451D01*
X42132034Y48043944D01*
X42296709Y47955924D01*
X42374042Y47923892D01*
X42552724Y47869689D01*
X42634823Y47853358D01*
X42820647Y47835056D01*
X42862500Y47833000D01*
X43152013Y47833000D01*
X43232882Y47822353D01*
X43282159Y47801942D01*
X43324473Y47769473D01*
X43356942Y47727159D01*
X43377353Y47677882D01*
X43413290Y47404916D01*
X43442141Y47297244D01*
X43505578Y47144094D01*
X43561312Y47047560D01*
X43662225Y46916047D01*
X43741047Y46837225D01*
X43872560Y46736312D01*
X43969094Y46680578D01*
X44122244Y46617141D01*
X44229916Y46588290D01*
X44394266Y46566653D01*
X44450000Y46563000D01*
X50435000Y46563000D01*
X50476854Y46565056D01*
X50671944Y46584271D01*
X50754040Y46600601D01*
X50941633Y46657506D01*
X51018969Y46689540D01*
X51191856Y46781950D01*
X51261456Y46828454D01*
X51412993Y46952817D01*
X51472183Y47012007D01*
X51596546Y47163544D01*
X51643050Y47233144D01*
X51735460Y47406031D01*
X51767494Y47483367D01*
X51824399Y47670960D01*
X51840729Y47753056D01*
X51859944Y47948146D01*
X51862000Y47990000D01*
X51862000Y52975000D01*
X51859944Y53016854D01*
X51840729Y53211944D01*
X51824399Y53294040D01*
X51767494Y53481633D01*
X51735460Y53558969D01*
X51643050Y53731856D01*
X51596546Y53801456D01*
X51558348Y53848000D01*
X54253001Y53848000D01*
X54253000Y51990076D01*
X54276542Y51751053D01*
X54369575Y51444363D01*
X54520654Y51161715D01*
X54723971Y50913971D01*
X54971714Y50710654D01*
X55254362Y50559575D01*
X55561052Y50466542D01*
X55880000Y50435128D01*
X56198947Y50466542D01*
X56505637Y50559575D01*
X56788285Y50710654D01*
X57036029Y50913971D01*
X57239346Y51161714D01*
X57390425Y51444362D01*
X57483458Y51751052D01*
X57507000Y51990075D01*
X57507000Y53848000D01*
X58683766Y53848000D01*
X58860189Y53830624D01*
X59023850Y53780978D01*
X59174672Y53700362D01*
X59306870Y53591870D01*
X59415362Y53459672D01*
X59495978Y53308850D01*
X59518301Y53235262D01*
X59504178Y53188707D01*
X59495934Y53105000D01*
X59495934Y52782368D01*
X59449575Y52695637D01*
X59356542Y52388947D01*
X59333000Y52149924D01*
X59333001Y43537000D01*
X55800075Y43537000D01*
X55561052Y43513458D01*
X55254362Y43420425D01*
X54971714Y43269346D01*
X54723971Y43066029D01*
X54520654Y42818286D01*
X54369575Y42535638D01*
X54276542Y42228948D01*
X54245128Y41910000D01*
X54276542Y41591052D01*
X54369575Y41284362D01*
X54520654Y41001714D01*
X54713278Y40767000D01*
X44083925Y40767000D01*
X38862000Y45988925D01*
X38862000Y52968766D01*
X38873177Y53082252D01*
X39627748Y53836823D01*
X39741234Y53848000D01*
X41786652Y53848000D01*
X41748454Y53801456D01*
%TO.N,/SA*%
G36*
X41748454Y84281456D02*
G01*
X41701950Y84211856D01*
X41609540Y84038969D01*
X41577506Y83961633D01*
X41520601Y83774040D01*
X41504271Y83691944D01*
X41485056Y83496854D01*
X41483000Y83455000D01*
X41483000Y79692500D01*
X41485056Y79650647D01*
X41503358Y79464823D01*
X41519689Y79382724D01*
X41573892Y79204042D01*
X41605924Y79126709D01*
X41693944Y78962034D01*
X41740451Y78892432D01*
X41858907Y78748094D01*
X41918094Y78688907D01*
X42062432Y78570451D01*
X42132034Y78523944D01*
X42296709Y78435924D01*
X42374042Y78403892D01*
X42552724Y78349689D01*
X42634823Y78333358D01*
X42820647Y78315056D01*
X42862500Y78313000D01*
X43152013Y78313000D01*
X43232882Y78302353D01*
X43282159Y78281942D01*
X43324473Y78249473D01*
X43356942Y78207159D01*
X43377353Y78157882D01*
X43413290Y77884916D01*
X43442141Y77777244D01*
X43505578Y77624094D01*
X43561312Y77527560D01*
X43662225Y77396047D01*
X43741047Y77317225D01*
X43872560Y77216312D01*
X43969094Y77160578D01*
X44122244Y77097141D01*
X44229916Y77068290D01*
X44394266Y77046653D01*
X44450000Y77043000D01*
X50435000Y77043000D01*
X50476854Y77045056D01*
X50671944Y77064271D01*
X50754040Y77080601D01*
X50941633Y77137506D01*
X51018969Y77169540D01*
X51191856Y77261950D01*
X51261456Y77308454D01*
X51412993Y77432817D01*
X51472183Y77492007D01*
X51596546Y77643544D01*
X51643050Y77713144D01*
X51735460Y77886031D01*
X51767494Y77963367D01*
X51824399Y78150960D01*
X51840729Y78233056D01*
X51859944Y78428146D01*
X51862000Y78470000D01*
X51862000Y83455000D01*
X51859944Y83496854D01*
X51840729Y83691944D01*
X51824399Y83774040D01*
X51767494Y83961633D01*
X51735460Y84038969D01*
X51643050Y84211856D01*
X51596546Y84281456D01*
X51558348Y84328000D01*
X54276083Y84328000D01*
X54253000Y84093636D01*
X54253000Y84093625D01*
X54245129Y84013711D01*
X54253000Y83933797D01*
X54253000Y82470076D01*
X54276542Y82231053D01*
X54369575Y81924363D01*
X54520654Y81641715D01*
X54723971Y81393971D01*
X54971714Y81190654D01*
X55254362Y81039575D01*
X55561052Y80946542D01*
X55880000Y80915128D01*
X56198947Y80946542D01*
X56505637Y81039575D01*
X56788285Y81190654D01*
X57036029Y81393971D01*
X57239346Y81641714D01*
X57390425Y81924362D01*
X57483458Y82231052D01*
X57507000Y82470075D01*
X57507000Y83339786D01*
X58495215Y84328000D01*
X58683766Y84328000D01*
X58860189Y84310624D01*
X59023850Y84260978D01*
X59174672Y84180362D01*
X59306870Y84071870D01*
X59415362Y83939672D01*
X59495978Y83788850D01*
X59518301Y83715262D01*
X59504178Y83668707D01*
X59495934Y83585000D01*
X59495934Y83262368D01*
X59449575Y83175637D01*
X59356542Y82868947D01*
X59333000Y82629924D01*
X59333001Y74017000D01*
X55800075Y74017000D01*
X55561052Y73993458D01*
X55254362Y73900425D01*
X54971714Y73749346D01*
X54723971Y73546029D01*
X54520654Y73298286D01*
X54369575Y73015638D01*
X54276542Y72708948D01*
X54245128Y72390000D01*
X54276542Y72071052D01*
X54369575Y71764362D01*
X54520654Y71481714D01*
X54713278Y71247000D01*
X44083925Y71247000D01*
X38862000Y76468925D01*
X38862000Y83448766D01*
X38873177Y83562252D01*
X39627748Y84316823D01*
X39741234Y84328000D01*
X41786652Y84328000D01*
X41748454Y84281456D01*
G37*
X41748454Y84281456D02*
X41701950Y84211856D01*
X41609540Y84038969D01*
X41577506Y83961633D01*
X41520601Y83774040D01*
X41504271Y83691944D01*
X41485056Y83496854D01*
X41483000Y83455000D01*
X41483000Y79692500D01*
X41485056Y79650647D01*
X41503358Y79464823D01*
X41519689Y79382724D01*
X41573892Y79204042D01*
X41605924Y79126709D01*
X41693944Y78962034D01*
X41740451Y78892432D01*
X41858907Y78748094D01*
X41918094Y78688907D01*
X42062432Y78570451D01*
X42132034Y78523944D01*
X42296709Y78435924D01*
X42374042Y78403892D01*
X42552724Y78349689D01*
X42634823Y78333358D01*
X42820647Y78315056D01*
X42862500Y78313000D01*
X43152013Y78313000D01*
X43232882Y78302353D01*
X43282159Y78281942D01*
X43324473Y78249473D01*
X43356942Y78207159D01*
X43377353Y78157882D01*
X43413290Y77884916D01*
X43442141Y77777244D01*
X43505578Y77624094D01*
X43561312Y77527560D01*
X43662225Y77396047D01*
X43741047Y77317225D01*
X43872560Y77216312D01*
X43969094Y77160578D01*
X44122244Y77097141D01*
X44229916Y77068290D01*
X44394266Y77046653D01*
X44450000Y77043000D01*
X50435000Y77043000D01*
X50476854Y77045056D01*
X50671944Y77064271D01*
X50754040Y77080601D01*
X50941633Y77137506D01*
X51018969Y77169540D01*
X51191856Y77261950D01*
X51261456Y77308454D01*
X51412993Y77432817D01*
X51472183Y77492007D01*
X51596546Y77643544D01*
X51643050Y77713144D01*
X51735460Y77886031D01*
X51767494Y77963367D01*
X51824399Y78150960D01*
X51840729Y78233056D01*
X51859944Y78428146D01*
X51862000Y78470000D01*
X51862000Y83455000D01*
X51859944Y83496854D01*
X51840729Y83691944D01*
X51824399Y83774040D01*
X51767494Y83961633D01*
X51735460Y84038969D01*
X51643050Y84211856D01*
X51596546Y84281456D01*
X51558348Y84328000D01*
X54276083Y84328000D01*
X54253000Y84093636D01*
X54253000Y84093625D01*
X54245129Y84013711D01*
X54253000Y83933797D01*
X54253000Y82470076D01*
X54276542Y82231053D01*
X54369575Y81924363D01*
X54520654Y81641715D01*
X54723971Y81393971D01*
X54971714Y81190654D01*
X55254362Y81039575D01*
X55561052Y80946542D01*
X55880000Y80915128D01*
X56198947Y80946542D01*
X56505637Y81039575D01*
X56788285Y81190654D01*
X57036029Y81393971D01*
X57239346Y81641714D01*
X57390425Y81924362D01*
X57483458Y82231052D01*
X57507000Y82470075D01*
X57507000Y83339786D01*
X58495215Y84328000D01*
X58683766Y84328000D01*
X58860189Y84310624D01*
X59023850Y84260978D01*
X59174672Y84180362D01*
X59306870Y84071870D01*
X59415362Y83939672D01*
X59495978Y83788850D01*
X59518301Y83715262D01*
X59504178Y83668707D01*
X59495934Y83585000D01*
X59495934Y83262368D01*
X59449575Y83175637D01*
X59356542Y82868947D01*
X59333000Y82629924D01*
X59333001Y74017000D01*
X55800075Y74017000D01*
X55561052Y73993458D01*
X55254362Y73900425D01*
X54971714Y73749346D01*
X54723971Y73546029D01*
X54520654Y73298286D01*
X54369575Y73015638D01*
X54276542Y72708948D01*
X54245128Y72390000D01*
X54276542Y72071052D01*
X54369575Y71764362D01*
X54520654Y71481714D01*
X54713278Y71247000D01*
X44083925Y71247000D01*
X38862000Y76468925D01*
X38862000Y83448766D01*
X38873177Y83562252D01*
X39627748Y84316823D01*
X39741234Y84328000D01*
X41786652Y84328000D01*
X41748454Y84281456D01*
%TO.N,/VBB*%
G36*
X63940189Y23985624D02*
G01*
X64103850Y23935978D01*
X64254672Y23855362D01*
X64386870Y23746870D01*
X64495362Y23614672D01*
X64575978Y23463850D01*
X64625624Y23300189D01*
X64643000Y23123766D01*
X64643000Y22596234D01*
X64625624Y22419811D01*
X64575978Y22256150D01*
X64495362Y22105328D01*
X64386870Y21973130D01*
X64254672Y21864638D01*
X64103850Y21784022D01*
X63981805Y21747000D01*
X63953428Y21747000D01*
X63811854Y21760944D01*
X63770000Y21763000D01*
X59420000Y21763000D01*
X59378146Y21760944D01*
X59215151Y21744890D01*
X59086150Y21784022D01*
X58935328Y21864638D01*
X58803130Y21973130D01*
X58694638Y22105328D01*
X58614022Y22256150D01*
X58564376Y22419811D01*
X58547000Y22596234D01*
X58547000Y23123766D01*
X58564376Y23300189D01*
X58614022Y23463850D01*
X58694638Y23614672D01*
X58803130Y23746870D01*
X58935328Y23855362D01*
X59086150Y23935978D01*
X59249811Y23985624D01*
X59426234Y24003000D01*
X63763766Y24003000D01*
X63940189Y23985624D01*
G37*
X63940189Y23985624D02*
X64103850Y23935978D01*
X64254672Y23855362D01*
X64386870Y23746870D01*
X64495362Y23614672D01*
X64575978Y23463850D01*
X64625624Y23300189D01*
X64643000Y23123766D01*
X64643000Y22596234D01*
X64625624Y22419811D01*
X64575978Y22256150D01*
X64495362Y22105328D01*
X64386870Y21973130D01*
X64254672Y21864638D01*
X64103850Y21784022D01*
X63981805Y21747000D01*
X63953428Y21747000D01*
X63811854Y21760944D01*
X63770000Y21763000D01*
X59420000Y21763000D01*
X59378146Y21760944D01*
X59215151Y21744890D01*
X59086150Y21784022D01*
X58935328Y21864638D01*
X58803130Y21973130D01*
X58694638Y22105328D01*
X58614022Y22256150D01*
X58564376Y22419811D01*
X58547000Y22596234D01*
X58547000Y23123766D01*
X58564376Y23300189D01*
X58614022Y23463850D01*
X58694638Y23614672D01*
X58803130Y23746870D01*
X58935328Y23855362D01*
X59086150Y23935978D01*
X59249811Y23985624D01*
X59426234Y24003000D01*
X63763766Y24003000D01*
X63940189Y23985624D01*
%TO.N,/CB*%
G36*
X57590189Y16365624D02*
G01*
X57753850Y16315978D01*
X57904672Y16235362D01*
X58036870Y16126870D01*
X58145362Y15994672D01*
X58225978Y15843850D01*
X58275624Y15680189D01*
X58293000Y15503766D01*
X58293000Y14976234D01*
X58275624Y14799811D01*
X58225978Y14636150D01*
X58145362Y14485328D01*
X58036870Y14353130D01*
X57904672Y14244638D01*
X57753850Y14164022D01*
X57590189Y14114376D01*
X57449099Y14100480D01*
X57429741Y14106352D01*
X57220098Y14127000D01*
X54255739Y14127000D01*
X54136634Y14224747D01*
X53888731Y14357254D01*
X53619741Y14438851D01*
X53340000Y14466403D01*
X53060259Y14438851D01*
X52791269Y14357254D01*
X52583455Y14246175D01*
X52453130Y14353130D01*
X52344638Y14485328D01*
X52264022Y14636150D01*
X52214376Y14799811D01*
X52197000Y14976234D01*
X52197000Y15503766D01*
X52214376Y15680189D01*
X52264022Y15843850D01*
X52344638Y15994672D01*
X52453130Y16126870D01*
X52585328Y16235362D01*
X52736150Y16315978D01*
X52858195Y16353000D01*
X57220098Y16353000D01*
X57429741Y16373648D01*
X57449099Y16379520D01*
X57590189Y16365624D01*
G37*
X57590189Y16365624D02*
X57753850Y16315978D01*
X57904672Y16235362D01*
X58036870Y16126870D01*
X58145362Y15994672D01*
X58225978Y15843850D01*
X58275624Y15680189D01*
X58293000Y15503766D01*
X58293000Y14976234D01*
X58275624Y14799811D01*
X58225978Y14636150D01*
X58145362Y14485328D01*
X58036870Y14353130D01*
X57904672Y14244638D01*
X57753850Y14164022D01*
X57590189Y14114376D01*
X57449099Y14100480D01*
X57429741Y14106352D01*
X57220098Y14127000D01*
X54255739Y14127000D01*
X54136634Y14224747D01*
X53888731Y14357254D01*
X53619741Y14438851D01*
X53340000Y14466403D01*
X53060259Y14438851D01*
X52791269Y14357254D01*
X52583455Y14246175D01*
X52453130Y14353130D01*
X52344638Y14485328D01*
X52264022Y14636150D01*
X52214376Y14799811D01*
X52197000Y14976234D01*
X52197000Y15503766D01*
X52214376Y15680189D01*
X52264022Y15843850D01*
X52344638Y15994672D01*
X52453130Y16126870D01*
X52585328Y16235362D01*
X52736150Y16315978D01*
X52858195Y16353000D01*
X57220098Y16353000D01*
X57429741Y16373648D01*
X57449099Y16379520D01*
X57590189Y16365624D01*
%TO.N,/CA*%
G36*
X59378146Y18879056D02*
G01*
X59420000Y18877000D01*
X60847849Y18877000D01*
X60883818Y18866089D01*
X61011689Y18797740D01*
X61264846Y18589979D01*
X61285546Y18576147D01*
X61435475Y18496008D01*
X61458477Y18486481D01*
X61621160Y18437132D01*
X61645578Y18432275D01*
X61814762Y18415612D01*
X61827210Y18415000D01*
X63763766Y18415000D01*
X63940189Y18397624D01*
X64103850Y18347978D01*
X64254672Y18267362D01*
X64386870Y18158870D01*
X64495362Y18026672D01*
X64575978Y17875850D01*
X64625624Y17712189D01*
X64643000Y17535766D01*
X64643000Y17516234D01*
X64625624Y17339811D01*
X64575978Y17176150D01*
X64495362Y17025328D01*
X64386870Y16893130D01*
X64254672Y16784638D01*
X64103850Y16704022D01*
X63940189Y16654376D01*
X63763766Y16637000D01*
X59426234Y16637000D01*
X59249811Y16654376D01*
X59086150Y16704022D01*
X58935328Y16784638D01*
X58803130Y16893130D01*
X58694638Y17025328D01*
X58614022Y17176150D01*
X58564376Y17339811D01*
X58550480Y17480901D01*
X58556352Y17500259D01*
X58583904Y17780000D01*
X58556352Y18059741D01*
X58550480Y18079099D01*
X58564376Y18220189D01*
X58614022Y18383850D01*
X58694638Y18534672D01*
X58803130Y18666870D01*
X58935328Y18775362D01*
X59086150Y18855978D01*
X59215151Y18895110D01*
X59378146Y18879056D01*
G37*
X59378146Y18879056D02*
X59420000Y18877000D01*
X60847849Y18877000D01*
X60883818Y18866089D01*
X61011689Y18797740D01*
X61264846Y18589979D01*
X61285546Y18576147D01*
X61435475Y18496008D01*
X61458477Y18486481D01*
X61621160Y18437132D01*
X61645578Y18432275D01*
X61814762Y18415612D01*
X61827210Y18415000D01*
X63763766Y18415000D01*
X63940189Y18397624D01*
X64103850Y18347978D01*
X64254672Y18267362D01*
X64386870Y18158870D01*
X64495362Y18026672D01*
X64575978Y17875850D01*
X64625624Y17712189D01*
X64643000Y17535766D01*
X64643000Y17516234D01*
X64625624Y17339811D01*
X64575978Y17176150D01*
X64495362Y17025328D01*
X64386870Y16893130D01*
X64254672Y16784638D01*
X64103850Y16704022D01*
X63940189Y16654376D01*
X63763766Y16637000D01*
X59426234Y16637000D01*
X59249811Y16654376D01*
X59086150Y16704022D01*
X58935328Y16784638D01*
X58803130Y16893130D01*
X58694638Y17025328D01*
X58614022Y17176150D01*
X58564376Y17339811D01*
X58550480Y17480901D01*
X58556352Y17500259D01*
X58583904Y17780000D01*
X58556352Y18059741D01*
X58550480Y18079099D01*
X58564376Y18220189D01*
X58614022Y18383850D01*
X58694638Y18534672D01*
X58803130Y18666870D01*
X58935328Y18775362D01*
X59086150Y18855978D01*
X59215151Y18895110D01*
X59378146Y18879056D01*
%TO.N,/SA*%
G36*
X63940189Y21191624D02*
G01*
X64103850Y21141978D01*
X64254672Y21061362D01*
X64386870Y20952870D01*
X64495362Y20820672D01*
X64575978Y20669850D01*
X64625624Y20506189D01*
X64643000Y20329766D01*
X64643000Y20056234D01*
X64625624Y19879811D01*
X64575978Y19716150D01*
X64495362Y19565328D01*
X64386870Y19433130D01*
X64254672Y19324638D01*
X64103850Y19244022D01*
X63940189Y19194376D01*
X63763766Y19177000D01*
X61965439Y19177000D01*
X61757692Y19201189D01*
X61561054Y19272463D01*
X61481942Y19312019D01*
X61468424Y19317826D01*
X61250963Y19396648D01*
X61222373Y19403397D01*
X60992620Y19430148D01*
X60977932Y19431000D01*
X59426234Y19431000D01*
X59249811Y19448376D01*
X59086150Y19498022D01*
X58935328Y19578638D01*
X58803130Y19687130D01*
X58694638Y19819328D01*
X58614022Y19970150D01*
X58564376Y20133811D01*
X58547000Y20310234D01*
X58547000Y20329766D01*
X58564376Y20506189D01*
X58614022Y20669850D01*
X58694638Y20820672D01*
X58803130Y20952870D01*
X58935328Y21061362D01*
X59086150Y21141978D01*
X59249811Y21191624D01*
X59426234Y21209000D01*
X63763766Y21209000D01*
X63940189Y21191624D01*
G37*
X63940189Y21191624D02*
X64103850Y21141978D01*
X64254672Y21061362D01*
X64386870Y20952870D01*
X64495362Y20820672D01*
X64575978Y20669850D01*
X64625624Y20506189D01*
X64643000Y20329766D01*
X64643000Y20056234D01*
X64625624Y19879811D01*
X64575978Y19716150D01*
X64495362Y19565328D01*
X64386870Y19433130D01*
X64254672Y19324638D01*
X64103850Y19244022D01*
X63940189Y19194376D01*
X63763766Y19177000D01*
X61965439Y19177000D01*
X61757692Y19201189D01*
X61561054Y19272463D01*
X61481942Y19312019D01*
X61468424Y19317826D01*
X61250963Y19396648D01*
X61222373Y19403397D01*
X60992620Y19430148D01*
X60977932Y19431000D01*
X59426234Y19431000D01*
X59249811Y19448376D01*
X59086150Y19498022D01*
X58935328Y19578638D01*
X58803130Y19687130D01*
X58694638Y19819328D01*
X58614022Y19970150D01*
X58564376Y20133811D01*
X58547000Y20310234D01*
X58547000Y20329766D01*
X58564376Y20506189D01*
X58614022Y20669850D01*
X58694638Y20820672D01*
X58803130Y20952870D01*
X58935328Y21061362D01*
X59086150Y21141978D01*
X59249811Y21191624D01*
X59426234Y21209000D01*
X63763766Y21209000D01*
X63940189Y21191624D01*
%TO.N,+BATT*%
G36*
X66643850Y27745978D02*
G01*
X66794672Y27665362D01*
X66926870Y27556870D01*
X67035362Y27424672D01*
X67115978Y27273850D01*
X67153000Y27151805D01*
X67153001Y24835107D01*
X67153000Y24835097D01*
X67153001Y22336954D01*
X67119595Y22226831D01*
X67043367Y22084218D01*
X66984928Y22013010D01*
X66886990Y21915072D01*
X66815782Y21856633D01*
X66673169Y21780405D01*
X66563049Y21747000D01*
X66151951Y21747000D01*
X66041831Y21780405D01*
X65899218Y21856633D01*
X65774218Y21959218D01*
X65671633Y22084218D01*
X65595405Y22226831D01*
X65548464Y22381573D01*
X65532000Y22548734D01*
X65532000Y23765000D01*
X65531388Y23777448D01*
X65512173Y23972538D01*
X65507317Y23996956D01*
X65450412Y24184549D01*
X65440884Y24207550D01*
X65348474Y24380437D01*
X65334642Y24401138D01*
X65210279Y24552675D01*
X65192675Y24570279D01*
X65041138Y24694642D01*
X65020437Y24708474D01*
X64847550Y24800884D01*
X64824549Y24810412D01*
X64636956Y24867317D01*
X64612538Y24872173D01*
X64417448Y24891388D01*
X64405000Y24892000D01*
X62601234Y24892000D01*
X62424811Y24909376D01*
X62261150Y24959022D01*
X62110328Y25039638D01*
X61978130Y25148130D01*
X61869638Y25280328D01*
X61789022Y25431150D01*
X61739376Y25594811D01*
X61722000Y25771234D01*
X61722000Y26933766D01*
X61739376Y27110189D01*
X61789022Y27273850D01*
X61869638Y27424672D01*
X61978130Y27556870D01*
X62110328Y27665362D01*
X62261150Y27745978D01*
X62383195Y27783000D01*
X66521805Y27783000D01*
X66643850Y27745978D01*
G37*
X66643850Y27745978D02*
X66794672Y27665362D01*
X66926870Y27556870D01*
X67035362Y27424672D01*
X67115978Y27273850D01*
X67153000Y27151805D01*
X67153001Y24835107D01*
X67153000Y24835097D01*
X67153001Y22336954D01*
X67119595Y22226831D01*
X67043367Y22084218D01*
X66984928Y22013010D01*
X66886990Y21915072D01*
X66815782Y21856633D01*
X66673169Y21780405D01*
X66563049Y21747000D01*
X66151951Y21747000D01*
X66041831Y21780405D01*
X65899218Y21856633D01*
X65774218Y21959218D01*
X65671633Y22084218D01*
X65595405Y22226831D01*
X65548464Y22381573D01*
X65532000Y22548734D01*
X65532000Y23765000D01*
X65531388Y23777448D01*
X65512173Y23972538D01*
X65507317Y23996956D01*
X65450412Y24184549D01*
X65440884Y24207550D01*
X65348474Y24380437D01*
X65334642Y24401138D01*
X65210279Y24552675D01*
X65192675Y24570279D01*
X65041138Y24694642D01*
X65020437Y24708474D01*
X64847550Y24800884D01*
X64824549Y24810412D01*
X64636956Y24867317D01*
X64612538Y24872173D01*
X64417448Y24891388D01*
X64405000Y24892000D01*
X62601234Y24892000D01*
X62424811Y24909376D01*
X62261150Y24959022D01*
X62110328Y25039638D01*
X61978130Y25148130D01*
X61869638Y25280328D01*
X61789022Y25431150D01*
X61739376Y25594811D01*
X61722000Y25771234D01*
X61722000Y26933766D01*
X61739376Y27110189D01*
X61789022Y27273850D01*
X61869638Y27424672D01*
X61978130Y27556870D01*
X62110328Y27665362D01*
X62261150Y27745978D01*
X62383195Y27783000D01*
X66521805Y27783000D01*
X66643850Y27745978D01*
G36*
X72898000Y41857394D02*
G01*
X72898000Y33782000D01*
X63627000Y33782000D01*
X63627000Y37338000D01*
X70485000Y37338000D01*
X70509776Y37340440D01*
X70533601Y37347667D01*
X70555557Y37359403D01*
X70574803Y37375197D01*
X70590597Y37394443D01*
X70602333Y37416399D01*
X70609560Y37440224D01*
X70612000Y37465000D01*
X70612000Y43053000D01*
X71702394Y43053000D01*
X72898000Y41857394D01*
G37*
X72898000Y41857394D02*
X72898000Y33782000D01*
X63627000Y33782000D01*
X63627000Y37338000D01*
X70485000Y37338000D01*
X70509776Y37340440D01*
X70533601Y37347667D01*
X70555557Y37359403D01*
X70574803Y37375197D01*
X70590597Y37394443D01*
X70602333Y37416399D01*
X70609560Y37440224D01*
X70612000Y37465000D01*
X70612000Y43053000D01*
X71702394Y43053000D01*
X72898000Y41857394D01*
%TO.N,GND1*%
G36*
X11870189Y90025624D02*
G01*
X12033850Y89975978D01*
X12184672Y89895362D01*
X12316870Y89786870D01*
X12425362Y89654672D01*
X12505978Y89503850D01*
X12555624Y89340189D01*
X12573000Y89163766D01*
X12573000Y73149712D01*
X11723423Y72300135D01*
X11699501Y72280502D01*
X11621149Y72185029D01*
X11587500Y72122076D01*
X11562927Y72076104D01*
X11527074Y71957913D01*
X11514968Y71835001D01*
X11518002Y71804197D01*
X11518001Y64144066D01*
X9945000Y64144066D01*
X9861293Y64135822D01*
X9780804Y64111405D01*
X9706624Y64071755D01*
X9641605Y64018395D01*
X9588245Y63953376D01*
X9548595Y63879196D01*
X9524178Y63798707D01*
X9523517Y63792000D01*
X7368976Y63792000D01*
X7277000Y63883975D01*
X7277000Y72781049D01*
X7341911Y72845960D01*
X7481663Y73055114D01*
X7577926Y73287513D01*
X7627000Y73534226D01*
X7627000Y73785774D01*
X7577926Y74032487D01*
X7481663Y74264886D01*
X7341911Y74474040D01*
X7164040Y74651911D01*
X6954886Y74791663D01*
X6722487Y74887926D01*
X6475774Y74937000D01*
X6224226Y74937000D01*
X5977513Y74887926D01*
X5745114Y74791663D01*
X5535960Y74651911D01*
X5358089Y74474040D01*
X5218337Y74264886D01*
X5122074Y74032487D01*
X5073000Y73785774D01*
X5073000Y73534226D01*
X5122074Y73287513D01*
X5218337Y73055114D01*
X5358089Y72845960D01*
X5423000Y72781049D01*
X5423001Y63545537D01*
X5418516Y63500000D01*
X5436414Y63318277D01*
X5489420Y63143537D01*
X5575499Y62982495D01*
X5662312Y62876713D01*
X5662317Y62876708D01*
X5672872Y62863847D01*
X5631025Y62822000D01*
X5594151Y62822000D01*
X5357097Y62774847D01*
X5133798Y62682353D01*
X4932833Y62548073D01*
X4761927Y62377167D01*
X4627647Y62176202D01*
X4535153Y61952903D01*
X4488000Y61715849D01*
X4488000Y61678976D01*
X3491712Y60682687D01*
X3456340Y60653658D01*
X3427312Y60618287D01*
X3427311Y60618286D01*
X3340498Y60512504D01*
X3288463Y60415153D01*
X3254419Y60351462D01*
X3201412Y60176722D01*
X3187999Y60040536D01*
X3187999Y60040526D01*
X3183515Y59994999D01*
X3187999Y59949472D01*
X3188000Y45460538D01*
X3183515Y45415001D01*
X3201413Y45233278D01*
X3254419Y45058538D01*
X3340498Y44897496D01*
X3427311Y44791714D01*
X3427316Y44791709D01*
X3456341Y44756342D01*
X3491707Y44727318D01*
X4488000Y43731024D01*
X4488000Y43694151D01*
X4535153Y43457097D01*
X4627647Y43233798D01*
X4761927Y43032833D01*
X4932833Y42861927D01*
X5133798Y42727647D01*
X5357097Y42635153D01*
X5594151Y42588000D01*
X5835849Y42588000D01*
X6072903Y42635153D01*
X6296202Y42727647D01*
X6497167Y42861927D01*
X6668073Y43032833D01*
X6802353Y43233798D01*
X6894847Y43457097D01*
X6942000Y43694151D01*
X6942000Y43731025D01*
X7368976Y44158000D01*
X9523517Y44158000D01*
X9524178Y44151293D01*
X9548595Y44070804D01*
X9588245Y43996624D01*
X9641605Y43931605D01*
X9706624Y43878245D01*
X9780804Y43838595D01*
X9861293Y43814178D01*
X9945000Y43805934D01*
X10588456Y43805934D01*
X10422513Y43772926D01*
X10190114Y43676663D01*
X9980960Y43536911D01*
X9803089Y43359040D01*
X9663337Y43149886D01*
X9567074Y42917487D01*
X9518000Y42670774D01*
X9518000Y42419226D01*
X9567074Y42172513D01*
X9663337Y41940114D01*
X9803089Y41730960D01*
X9980960Y41553089D01*
X10190114Y41413337D01*
X10422513Y41317074D01*
X10634034Y41275000D01*
X10422513Y41232926D01*
X10190114Y41136663D01*
X9980960Y40996911D01*
X9803089Y40819040D01*
X9663337Y40609886D01*
X9567074Y40377487D01*
X9518000Y40130774D01*
X9518000Y39879226D01*
X9567074Y39632513D01*
X9663337Y39400114D01*
X9803089Y39190960D01*
X9980960Y39013089D01*
X10190114Y38873337D01*
X10422513Y38777074D01*
X10669226Y38728000D01*
X10920774Y38728000D01*
X11167487Y38777074D01*
X11399886Y38873337D01*
X11609040Y39013089D01*
X11786911Y39190960D01*
X11926663Y39400114D01*
X12022926Y39632513D01*
X12072000Y39879226D01*
X12072000Y40130774D01*
X12028114Y40351403D01*
X12573000Y40896289D01*
X12573000Y35980448D01*
X12568251Y35932228D01*
X10476708Y33840685D01*
X10441341Y33811660D01*
X10412316Y33776293D01*
X10412311Y33776288D01*
X10325498Y33670506D01*
X10239419Y33509464D01*
X10186413Y33334724D01*
X10174537Y33214143D01*
X7827496Y30867102D01*
X7690458Y30754637D01*
X7539637Y30674022D01*
X7375976Y30624376D01*
X7199552Y30607000D01*
X2276234Y30607000D01*
X2099811Y30624376D01*
X1936150Y30674022D01*
X1785328Y30754638D01*
X1653130Y30863130D01*
X1544638Y30995328D01*
X1464022Y31146150D01*
X1414376Y31309811D01*
X1397000Y31486234D01*
X1397000Y89163766D01*
X1414376Y89340189D01*
X1464022Y89503850D01*
X1544638Y89654672D01*
X1653130Y89786870D01*
X1785328Y89895362D01*
X1936150Y89975978D01*
X2099811Y90025624D01*
X2276234Y90043000D01*
X11693766Y90043000D01*
X11870189Y90025624D01*
G37*
X11870189Y90025624D02*
X12033850Y89975978D01*
X12184672Y89895362D01*
X12316870Y89786870D01*
X12425362Y89654672D01*
X12505978Y89503850D01*
X12555624Y89340189D01*
X12573000Y89163766D01*
X12573000Y73149712D01*
X11723423Y72300135D01*
X11699501Y72280502D01*
X11621149Y72185029D01*
X11587500Y72122076D01*
X11562927Y72076104D01*
X11527074Y71957913D01*
X11514968Y71835001D01*
X11518002Y71804197D01*
X11518001Y64144066D01*
X9945000Y64144066D01*
X9861293Y64135822D01*
X9780804Y64111405D01*
X9706624Y64071755D01*
X9641605Y64018395D01*
X9588245Y63953376D01*
X9548595Y63879196D01*
X9524178Y63798707D01*
X9523517Y63792000D01*
X7368976Y63792000D01*
X7277000Y63883975D01*
X7277000Y72781049D01*
X7341911Y72845960D01*
X7481663Y73055114D01*
X7577926Y73287513D01*
X7627000Y73534226D01*
X7627000Y73785774D01*
X7577926Y74032487D01*
X7481663Y74264886D01*
X7341911Y74474040D01*
X7164040Y74651911D01*
X6954886Y74791663D01*
X6722487Y74887926D01*
X6475774Y74937000D01*
X6224226Y74937000D01*
X5977513Y74887926D01*
X5745114Y74791663D01*
X5535960Y74651911D01*
X5358089Y74474040D01*
X5218337Y74264886D01*
X5122074Y74032487D01*
X5073000Y73785774D01*
X5073000Y73534226D01*
X5122074Y73287513D01*
X5218337Y73055114D01*
X5358089Y72845960D01*
X5423000Y72781049D01*
X5423001Y63545537D01*
X5418516Y63500000D01*
X5436414Y63318277D01*
X5489420Y63143537D01*
X5575499Y62982495D01*
X5662312Y62876713D01*
X5662317Y62876708D01*
X5672872Y62863847D01*
X5631025Y62822000D01*
X5594151Y62822000D01*
X5357097Y62774847D01*
X5133798Y62682353D01*
X4932833Y62548073D01*
X4761927Y62377167D01*
X4627647Y62176202D01*
X4535153Y61952903D01*
X4488000Y61715849D01*
X4488000Y61678976D01*
X3491712Y60682687D01*
X3456340Y60653658D01*
X3427312Y60618287D01*
X3427311Y60618286D01*
X3340498Y60512504D01*
X3288463Y60415153D01*
X3254419Y60351462D01*
X3201412Y60176722D01*
X3187999Y60040536D01*
X3187999Y60040526D01*
X3183515Y59994999D01*
X3187999Y59949472D01*
X3188000Y45460538D01*
X3183515Y45415001D01*
X3201413Y45233278D01*
X3254419Y45058538D01*
X3340498Y44897496D01*
X3427311Y44791714D01*
X3427316Y44791709D01*
X3456341Y44756342D01*
X3491707Y44727318D01*
X4488000Y43731024D01*
X4488000Y43694151D01*
X4535153Y43457097D01*
X4627647Y43233798D01*
X4761927Y43032833D01*
X4932833Y42861927D01*
X5133798Y42727647D01*
X5357097Y42635153D01*
X5594151Y42588000D01*
X5835849Y42588000D01*
X6072903Y42635153D01*
X6296202Y42727647D01*
X6497167Y42861927D01*
X6668073Y43032833D01*
X6802353Y43233798D01*
X6894847Y43457097D01*
X6942000Y43694151D01*
X6942000Y43731025D01*
X7368976Y44158000D01*
X9523517Y44158000D01*
X9524178Y44151293D01*
X9548595Y44070804D01*
X9588245Y43996624D01*
X9641605Y43931605D01*
X9706624Y43878245D01*
X9780804Y43838595D01*
X9861293Y43814178D01*
X9945000Y43805934D01*
X10588456Y43805934D01*
X10422513Y43772926D01*
X10190114Y43676663D01*
X9980960Y43536911D01*
X9803089Y43359040D01*
X9663337Y43149886D01*
X9567074Y42917487D01*
X9518000Y42670774D01*
X9518000Y42419226D01*
X9567074Y42172513D01*
X9663337Y41940114D01*
X9803089Y41730960D01*
X9980960Y41553089D01*
X10190114Y41413337D01*
X10422513Y41317074D01*
X10634034Y41275000D01*
X10422513Y41232926D01*
X10190114Y41136663D01*
X9980960Y40996911D01*
X9803089Y40819040D01*
X9663337Y40609886D01*
X9567074Y40377487D01*
X9518000Y40130774D01*
X9518000Y39879226D01*
X9567074Y39632513D01*
X9663337Y39400114D01*
X9803089Y39190960D01*
X9980960Y39013089D01*
X10190114Y38873337D01*
X10422513Y38777074D01*
X10669226Y38728000D01*
X10920774Y38728000D01*
X11167487Y38777074D01*
X11399886Y38873337D01*
X11609040Y39013089D01*
X11786911Y39190960D01*
X11926663Y39400114D01*
X12022926Y39632513D01*
X12072000Y39879226D01*
X12072000Y40130774D01*
X12028114Y40351403D01*
X12573000Y40896289D01*
X12573000Y35980448D01*
X12568251Y35932228D01*
X10476708Y33840685D01*
X10441341Y33811660D01*
X10412316Y33776293D01*
X10412311Y33776288D01*
X10325498Y33670506D01*
X10239419Y33509464D01*
X10186413Y33334724D01*
X10174537Y33214143D01*
X7827496Y30867102D01*
X7690458Y30754637D01*
X7539637Y30674022D01*
X7375976Y30624376D01*
X7199552Y30607000D01*
X2276234Y30607000D01*
X2099811Y30624376D01*
X1936150Y30674022D01*
X1785328Y30754638D01*
X1653130Y30863130D01*
X1544638Y30995328D01*
X1464022Y31146150D01*
X1414376Y31309811D01*
X1397000Y31486234D01*
X1397000Y89163766D01*
X1414376Y89340189D01*
X1464022Y89503850D01*
X1544638Y89654672D01*
X1653130Y89786870D01*
X1785328Y89895362D01*
X1936150Y89975978D01*
X2099811Y90025624D01*
X2276234Y90043000D01*
X11693766Y90043000D01*
X11870189Y90025624D01*
G36*
X9524178Y61931293D02*
G01*
X9548595Y61850804D01*
X9588245Y61776624D01*
X9641605Y61711605D01*
X9706624Y61658245D01*
X9780804Y61618595D01*
X9861293Y61594178D01*
X9945000Y61585934D01*
X10588456Y61585934D01*
X10422513Y61552926D01*
X10190114Y61456663D01*
X9980960Y61316911D01*
X9803089Y61139040D01*
X9663337Y60929886D01*
X9567074Y60697487D01*
X9518000Y60450774D01*
X9518000Y60199226D01*
X9567074Y59952513D01*
X9663337Y59720114D01*
X9803089Y59510960D01*
X9980960Y59333089D01*
X10190114Y59193337D01*
X10422513Y59097074D01*
X10634034Y59055000D01*
X10422513Y59012926D01*
X10190114Y58916663D01*
X9980960Y58776911D01*
X9803089Y58599040D01*
X9663337Y58389886D01*
X9567074Y58157487D01*
X9518000Y57910774D01*
X9518000Y57659226D01*
X9567074Y57412513D01*
X9663337Y57180114D01*
X9803089Y56970960D01*
X9980960Y56793089D01*
X10190114Y56653337D01*
X10422513Y56557074D01*
X10669226Y56508000D01*
X10920774Y56508000D01*
X11167487Y56557074D01*
X11399886Y56653337D01*
X11609040Y56793089D01*
X11786911Y56970960D01*
X11926663Y57180114D01*
X12022926Y57412513D01*
X12072000Y57659226D01*
X12072000Y57910774D01*
X12028114Y58131403D01*
X12573000Y58676289D01*
X12573000Y45209712D01*
X12074066Y44710778D01*
X12074066Y45935000D01*
X12065822Y46018707D01*
X12041405Y46099196D01*
X12001755Y46173376D01*
X11948395Y46238395D01*
X11883376Y46291755D01*
X11809196Y46331405D01*
X11728707Y46355822D01*
X11645000Y46364066D01*
X9945000Y46364066D01*
X9861293Y46355822D01*
X9780804Y46331405D01*
X9706624Y46291755D01*
X9641605Y46238395D01*
X9588245Y46173376D01*
X9548595Y46099196D01*
X9524178Y46018707D01*
X9523517Y46012000D01*
X7030526Y46012000D01*
X6984999Y46016484D01*
X6939472Y46012000D01*
X6939462Y46012000D01*
X6803276Y45998587D01*
X6628536Y45945580D01*
X6553573Y45905511D01*
X6467494Y45859501D01*
X6361712Y45772688D01*
X6361708Y45772684D01*
X6326341Y45743659D01*
X6297316Y45708292D01*
X5715000Y45125976D01*
X5041999Y45798976D01*
X5041999Y59611024D01*
X5798976Y60368000D01*
X5835849Y60368000D01*
X6072903Y60415153D01*
X6296202Y60507647D01*
X6497167Y60641927D01*
X6668073Y60812833D01*
X6802353Y61013798D01*
X6894847Y61237097D01*
X6942000Y61474151D01*
X6942000Y61511025D01*
X7368976Y61938000D01*
X9523517Y61938000D01*
X9524178Y61931293D01*
G37*
X9524178Y61931293D02*
X9548595Y61850804D01*
X9588245Y61776624D01*
X9641605Y61711605D01*
X9706624Y61658245D01*
X9780804Y61618595D01*
X9861293Y61594178D01*
X9945000Y61585934D01*
X10588456Y61585934D01*
X10422513Y61552926D01*
X10190114Y61456663D01*
X9980960Y61316911D01*
X9803089Y61139040D01*
X9663337Y60929886D01*
X9567074Y60697487D01*
X9518000Y60450774D01*
X9518000Y60199226D01*
X9567074Y59952513D01*
X9663337Y59720114D01*
X9803089Y59510960D01*
X9980960Y59333089D01*
X10190114Y59193337D01*
X10422513Y59097074D01*
X10634034Y59055000D01*
X10422513Y59012926D01*
X10190114Y58916663D01*
X9980960Y58776911D01*
X9803089Y58599040D01*
X9663337Y58389886D01*
X9567074Y58157487D01*
X9518000Y57910774D01*
X9518000Y57659226D01*
X9567074Y57412513D01*
X9663337Y57180114D01*
X9803089Y56970960D01*
X9980960Y56793089D01*
X10190114Y56653337D01*
X10422513Y56557074D01*
X10669226Y56508000D01*
X10920774Y56508000D01*
X11167487Y56557074D01*
X11399886Y56653337D01*
X11609040Y56793089D01*
X11786911Y56970960D01*
X11926663Y57180114D01*
X12022926Y57412513D01*
X12072000Y57659226D01*
X12072000Y57910774D01*
X12028114Y58131403D01*
X12573000Y58676289D01*
X12573000Y45209712D01*
X12074066Y44710778D01*
X12074066Y45935000D01*
X12065822Y46018707D01*
X12041405Y46099196D01*
X12001755Y46173376D01*
X11948395Y46238395D01*
X11883376Y46291755D01*
X11809196Y46331405D01*
X11728707Y46355822D01*
X11645000Y46364066D01*
X9945000Y46364066D01*
X9861293Y46355822D01*
X9780804Y46331405D01*
X9706624Y46291755D01*
X9641605Y46238395D01*
X9588245Y46173376D01*
X9548595Y46099196D01*
X9524178Y46018707D01*
X9523517Y46012000D01*
X7030526Y46012000D01*
X6984999Y46016484D01*
X6939472Y46012000D01*
X6939462Y46012000D01*
X6803276Y45998587D01*
X6628536Y45945580D01*
X6553573Y45905511D01*
X6467494Y45859501D01*
X6361712Y45772688D01*
X6361708Y45772684D01*
X6326341Y45743659D01*
X6297316Y45708292D01*
X5715000Y45125976D01*
X5041999Y45798976D01*
X5041999Y59611024D01*
X5798976Y60368000D01*
X5835849Y60368000D01*
X6072903Y60415153D01*
X6296202Y60507647D01*
X6497167Y60641927D01*
X6668073Y60812833D01*
X6802353Y61013798D01*
X6894847Y61237097D01*
X6942000Y61474151D01*
X6942000Y61511025D01*
X7368976Y61938000D01*
X9523517Y61938000D01*
X9524178Y61931293D01*
%TO.N,GND*%
G36*
X74100189Y90025624D02*
G01*
X74263850Y89975978D01*
X74414672Y89895362D01*
X74546870Y89786870D01*
X74655362Y89654672D01*
X74735978Y89503850D01*
X74785624Y89340189D01*
X74803000Y89163766D01*
X74803000Y2276234D01*
X74785624Y2099811D01*
X74735978Y1936150D01*
X74655362Y1785328D01*
X74546870Y1653130D01*
X74414672Y1544638D01*
X74263850Y1464022D01*
X74100189Y1414376D01*
X73923766Y1397000D01*
X2276234Y1397000D01*
X2099811Y1414376D01*
X1936150Y1464022D01*
X1785328Y1544638D01*
X1653130Y1653130D01*
X1544638Y1785328D01*
X1464022Y1936150D01*
X1414376Y2099811D01*
X1397000Y2276234D01*
X1397000Y25665000D01*
X6290934Y25665000D01*
X6290934Y23865000D01*
X6299178Y23781293D01*
X6323595Y23700804D01*
X6363245Y23626624D01*
X6416605Y23561605D01*
X6481624Y23508245D01*
X6555804Y23468595D01*
X6636293Y23444178D01*
X6720000Y23435934D01*
X8520000Y23435934D01*
X8603707Y23444178D01*
X8684196Y23468595D01*
X8758376Y23508245D01*
X8823395Y23561605D01*
X8876755Y23626624D01*
X8916405Y23700804D01*
X8940822Y23781293D01*
X8949066Y23865000D01*
X8949066Y24088000D01*
X11784578Y24088000D01*
X14563000Y21309578D01*
X14563001Y17813254D01*
X14559726Y17780000D01*
X14572796Y17647286D01*
X14611508Y17519671D01*
X14674372Y17402060D01*
X14737776Y17324802D01*
X14737779Y17324799D01*
X14758974Y17298973D01*
X14784800Y17277778D01*
X15265154Y16797424D01*
X15233000Y16635774D01*
X15233000Y16384226D01*
X15282074Y16137513D01*
X15378337Y15905114D01*
X15518089Y15695960D01*
X15695960Y15518089D01*
X15905114Y15378337D01*
X16137513Y15282074D01*
X16384226Y15233000D01*
X16635774Y15233000D01*
X16882487Y15282074D01*
X17114886Y15378337D01*
X17324040Y15518089D01*
X17501911Y15695960D01*
X17641663Y15905114D01*
X17737926Y16137513D01*
X17787000Y16384226D01*
X17787000Y16635774D01*
X17737926Y16882487D01*
X17641663Y17114886D01*
X17501911Y17324040D01*
X17324040Y17501911D01*
X17114886Y17641663D01*
X16882487Y17737926D01*
X16635774Y17787000D01*
X16384226Y17787000D01*
X16222576Y17754846D01*
X15917000Y18060422D01*
X15917000Y21556759D01*
X15920274Y21590001D01*
X15917000Y21623243D01*
X15917000Y21623252D01*
X15907204Y21722715D01*
X15868492Y21850330D01*
X15805628Y21967941D01*
X15721026Y22071027D01*
X15695200Y22092222D01*
X12953113Y24834309D01*
X13057903Y24855153D01*
X13281202Y24947647D01*
X13482167Y25081927D01*
X13653073Y25252833D01*
X13787353Y25453798D01*
X13879847Y25677097D01*
X13927000Y25914151D01*
X13927000Y26155849D01*
X13879847Y26392903D01*
X13787353Y26616202D01*
X13653073Y26817167D01*
X13482167Y26988073D01*
X13281202Y27122353D01*
X13057903Y27214847D01*
X12820849Y27262000D01*
X12579151Y27262000D01*
X12455098Y27237324D01*
X11932226Y27760196D01*
X11911027Y27786027D01*
X11807941Y27870628D01*
X11690330Y27933492D01*
X11562715Y27972204D01*
X11463252Y27982000D01*
X11463245Y27982000D01*
X11430000Y27985274D01*
X11396755Y27982000D01*
X8763612Y27982000D01*
X8650748Y28150913D01*
X8465913Y28335748D01*
X8248570Y28480972D01*
X8007072Y28581004D01*
X7750698Y28632000D01*
X7489302Y28632000D01*
X7232928Y28581004D01*
X6991430Y28480972D01*
X6774087Y28335748D01*
X6589252Y28150913D01*
X6444028Y27933570D01*
X6343996Y27692072D01*
X6293000Y27435698D01*
X6293000Y27174302D01*
X6343996Y26917928D01*
X6444028Y26676430D01*
X6589252Y26459087D01*
X6774087Y26274252D01*
X6991430Y26129028D01*
X7075836Y26094066D01*
X6720000Y26094066D01*
X6636293Y26085822D01*
X6555804Y26061405D01*
X6481624Y26021755D01*
X6416605Y25968395D01*
X6363245Y25903376D01*
X6323595Y25829196D01*
X6299178Y25748707D01*
X6290934Y25665000D01*
X1397000Y25665000D01*
X1397000Y29473766D01*
X1414376Y29650189D01*
X1464022Y29813850D01*
X1544638Y29964672D01*
X1653130Y30096870D01*
X1731111Y30160867D01*
X1763367Y30147506D01*
X1950960Y30090601D01*
X2033056Y30074271D01*
X2228146Y30055056D01*
X2270000Y30053000D01*
X7205786Y30053000D01*
X7247640Y30055056D01*
X7442731Y30074271D01*
X7524827Y30090601D01*
X7712420Y30147506D01*
X7789756Y30179540D01*
X7962643Y30271950D01*
X8032244Y30318455D01*
X8183780Y30442818D01*
X8214828Y30470958D01*
X10173000Y32429130D01*
X10172999Y31490529D01*
X10168515Y31445001D01*
X10172999Y31399474D01*
X10172999Y31399464D01*
X10186412Y31263278D01*
X10215409Y31167688D01*
X10239419Y31088538D01*
X10325498Y30927496D01*
X10351321Y30896031D01*
X10441340Y30786342D01*
X10476712Y30757313D01*
X11377316Y29856708D01*
X11406341Y29821341D01*
X11441708Y29792316D01*
X11441712Y29792312D01*
X11547495Y29705498D01*
X11708536Y29619420D01*
X11883276Y29566413D01*
X12019462Y29553000D01*
X12019473Y29553000D01*
X12065000Y29548516D01*
X12110527Y29553000D01*
X15491025Y29553000D01*
X19093000Y25951024D01*
X19093000Y25914151D01*
X19140153Y25677097D01*
X19232647Y25453798D01*
X19366927Y25252833D01*
X19393000Y25226760D01*
X19393001Y20493241D01*
X19366927Y20467167D01*
X19232647Y20266202D01*
X19140153Y20042903D01*
X19093000Y19805849D01*
X19093000Y19564151D01*
X19140153Y19327097D01*
X19232647Y19103798D01*
X19366927Y18902833D01*
X19393000Y18876760D01*
X19393001Y16258977D01*
X12700000Y9565975D01*
X11087000Y11178975D01*
X11087000Y14361049D01*
X11151911Y14425960D01*
X11291663Y14635114D01*
X11387926Y14867513D01*
X11437000Y15114226D01*
X11437000Y15365774D01*
X11387926Y15612487D01*
X11291663Y15844886D01*
X11151911Y16054040D01*
X10974040Y16231911D01*
X10764886Y16371663D01*
X10532487Y16467926D01*
X10285774Y16517000D01*
X10034226Y16517000D01*
X9787513Y16467926D01*
X9555114Y16371663D01*
X9345960Y16231911D01*
X9168089Y16054040D01*
X9028337Y15844886D01*
X8932074Y15612487D01*
X8883000Y15365774D01*
X8883000Y15114226D01*
X8932074Y14867513D01*
X9028337Y14635114D01*
X9168089Y14425960D01*
X9233000Y14361049D01*
X9233001Y10840537D01*
X9228516Y10795000D01*
X9233001Y10749463D01*
X9233001Y10749462D01*
X9240435Y10673985D01*
X8297000Y11617420D01*
X8297000Y17085934D01*
X8520000Y17085934D01*
X8603707Y17094178D01*
X8684196Y17118595D01*
X8758376Y17158245D01*
X8823395Y17211605D01*
X8876755Y17276624D01*
X8916405Y17350804D01*
X8940822Y17431293D01*
X8949066Y17515000D01*
X8949066Y19315000D01*
X8940822Y19398707D01*
X8916405Y19479196D01*
X8876755Y19553376D01*
X8823395Y19618395D01*
X8758376Y19671755D01*
X8684196Y19711405D01*
X8603707Y19735822D01*
X8520000Y19744066D01*
X8164164Y19744066D01*
X8248570Y19779028D01*
X8465913Y19924252D01*
X8650748Y20109087D01*
X8763612Y20278000D01*
X11149578Y20278000D01*
X11497676Y19929902D01*
X11473000Y19805849D01*
X11473000Y19564151D01*
X11520153Y19327097D01*
X11612647Y19103798D01*
X11746927Y18902833D01*
X11917833Y18731927D01*
X12118798Y18597647D01*
X12342097Y18505153D01*
X12579151Y18458000D01*
X12820849Y18458000D01*
X13057903Y18505153D01*
X13281202Y18597647D01*
X13482167Y18731927D01*
X13653073Y18902833D01*
X13787353Y19103798D01*
X13879847Y19327097D01*
X13927000Y19564151D01*
X13927000Y19805849D01*
X13879847Y20042903D01*
X13787353Y20266202D01*
X13653073Y20467167D01*
X13482167Y20638073D01*
X13281202Y20772353D01*
X13057903Y20864847D01*
X12820849Y20912000D01*
X12579151Y20912000D01*
X12455098Y20887324D01*
X11932226Y21410196D01*
X11911027Y21436027D01*
X11807941Y21520628D01*
X11690330Y21583492D01*
X11562715Y21622204D01*
X11463252Y21632000D01*
X11463245Y21632000D01*
X11430000Y21635274D01*
X11396755Y21632000D01*
X8763612Y21632000D01*
X8650748Y21800913D01*
X8465913Y21985748D01*
X8248570Y22130972D01*
X8007072Y22231004D01*
X7750698Y22282000D01*
X7489302Y22282000D01*
X7232928Y22231004D01*
X6991430Y22130972D01*
X6774087Y21985748D01*
X6589252Y21800913D01*
X6444028Y21583570D01*
X6343996Y21342072D01*
X6293000Y21085698D01*
X6293000Y20824302D01*
X6343996Y20567928D01*
X6444028Y20326430D01*
X6589252Y20109087D01*
X6774087Y19924252D01*
X6991430Y19779028D01*
X7075836Y19744066D01*
X6720000Y19744066D01*
X6636293Y19735822D01*
X6555804Y19711405D01*
X6481624Y19671755D01*
X6416605Y19618395D01*
X6363245Y19553376D01*
X6323595Y19479196D01*
X6299178Y19398707D01*
X6290934Y19315000D01*
X6290934Y17515000D01*
X6299178Y17431293D01*
X6323595Y17350804D01*
X6363245Y17276624D01*
X6416605Y17211605D01*
X6481624Y17158245D01*
X6555804Y17118595D01*
X6636293Y17094178D01*
X6720000Y17085934D01*
X6943000Y17085934D01*
X6943001Y11370253D01*
X6939726Y11336998D01*
X6952796Y11204284D01*
X6991508Y11076669D01*
X7054372Y10959058D01*
X7117776Y10881800D01*
X7117779Y10881797D01*
X7138974Y10855971D01*
X7164800Y10834776D01*
X10394129Y7605447D01*
X10285774Y7627000D01*
X10034226Y7627000D01*
X9787513Y7577926D01*
X9555114Y7481663D01*
X9345960Y7341911D01*
X9168089Y7164040D01*
X9028337Y6954886D01*
X8932074Y6722487D01*
X8883000Y6475774D01*
X8883000Y6224226D01*
X8932074Y5977513D01*
X9028337Y5745114D01*
X9168089Y5535960D01*
X9345960Y5358089D01*
X9555114Y5218337D01*
X9787513Y5122074D01*
X10034226Y5073000D01*
X10126025Y5073000D01*
X11452341Y3746683D01*
X11481361Y3711322D01*
X11516722Y3682302D01*
X11516732Y3682292D01*
X11622514Y3595479D01*
X11783556Y3509401D01*
X11958296Y3456394D01*
X12140019Y3438496D01*
X12185557Y3442981D01*
X34551392Y3442979D01*
X34596919Y3438495D01*
X34642446Y3442979D01*
X34642456Y3442979D01*
X34778642Y3456392D01*
X34953382Y3509399D01*
X34953386Y3509401D01*
X35114424Y3595478D01*
X35220206Y3682291D01*
X35220210Y3682295D01*
X35255577Y3711320D01*
X35284602Y3746687D01*
X43803292Y12265376D01*
X43838659Y12294401D01*
X43867684Y12329768D01*
X43867688Y12329772D01*
X43954502Y12435555D01*
X44040580Y12596596D01*
X44071947Y12700000D01*
X44093587Y12771336D01*
X44107000Y12907522D01*
X44107000Y12907533D01*
X44111484Y12953060D01*
X44107000Y12998587D01*
X44107000Y19441049D01*
X44171911Y19505960D01*
X44293000Y19687183D01*
X44293001Y15945097D01*
X44286097Y15875000D01*
X44313649Y15595259D01*
X44395246Y15326269D01*
X44527753Y15078366D01*
X44661392Y14915526D01*
X44661396Y14915522D01*
X44706078Y14861077D01*
X44760523Y14816395D01*
X47836395Y11740522D01*
X47881077Y11686077D01*
X47935522Y11641395D01*
X47935525Y11641392D01*
X48023125Y11569501D01*
X48098366Y11507752D01*
X48346269Y11375245D01*
X48615259Y11293648D01*
X48824902Y11273000D01*
X48824911Y11273000D01*
X48894999Y11266097D01*
X48965087Y11273000D01*
X53602411Y11273000D01*
X53672499Y11266097D01*
X53742587Y11273000D01*
X57220098Y11273000D01*
X57429741Y11293648D01*
X57698731Y11375245D01*
X57946634Y11507752D01*
X58163923Y11686077D01*
X58342248Y11903366D01*
X58474755Y12151269D01*
X58500256Y12235334D01*
X58558337Y12095114D01*
X58698089Y11885960D01*
X58875960Y11708089D01*
X59085114Y11568337D01*
X59317513Y11472074D01*
X59529034Y11430000D01*
X59317513Y11387926D01*
X59085114Y11291663D01*
X58875960Y11151911D01*
X58698089Y10974040D01*
X58558337Y10764886D01*
X58462074Y10532487D01*
X58413000Y10285774D01*
X58413000Y10034226D01*
X58462074Y9787513D01*
X58558337Y9555114D01*
X58698089Y9345960D01*
X58875960Y9168089D01*
X59085114Y9028337D01*
X59317513Y8932074D01*
X59529034Y8890000D01*
X59317513Y8847926D01*
X59085114Y8751663D01*
X58875960Y8611911D01*
X58698089Y8434040D01*
X58558337Y8224886D01*
X58462074Y7992487D01*
X58429066Y7826544D01*
X58429066Y8470000D01*
X58420822Y8553707D01*
X58396405Y8634196D01*
X58356755Y8708376D01*
X58303395Y8773395D01*
X58238376Y8826755D01*
X58164196Y8866405D01*
X58083707Y8890822D01*
X58000000Y8899066D01*
X56300000Y8899066D01*
X56216293Y8890822D01*
X56135804Y8866405D01*
X56061624Y8826755D01*
X55996605Y8773395D01*
X55943245Y8708376D01*
X55903595Y8634196D01*
X55879178Y8553707D01*
X55870934Y8470000D01*
X55870934Y6896999D01*
X50293977Y6896999D01*
X46947000Y10243975D01*
X46947000Y10280849D01*
X46899847Y10517903D01*
X46807353Y10741202D01*
X46673073Y10942167D01*
X46502167Y11113073D01*
X46301202Y11247353D01*
X46077903Y11339847D01*
X45840849Y11387000D01*
X45599151Y11387000D01*
X45362097Y11339847D01*
X45138798Y11247353D01*
X44937833Y11113073D01*
X44766927Y10942167D01*
X44632647Y10741202D01*
X44540153Y10517903D01*
X44493000Y10280849D01*
X44493000Y10039151D01*
X44540153Y9802097D01*
X44632647Y9578798D01*
X44766927Y9377833D01*
X44937833Y9206927D01*
X45138798Y9072647D01*
X45362097Y8980153D01*
X45599151Y8933000D01*
X45636025Y8933000D01*
X49222317Y5346707D01*
X49251342Y5311340D01*
X49286709Y5282315D01*
X49286713Y5282311D01*
X49392495Y5195498D01*
X49459545Y5159659D01*
X49553537Y5109419D01*
X49728277Y5056412D01*
X49864463Y5042999D01*
X49864473Y5042999D01*
X49910000Y5038515D01*
X49955527Y5042999D01*
X59196553Y5042999D01*
X59242080Y5038515D01*
X59287607Y5042999D01*
X59287618Y5042999D01*
X59423804Y5056412D01*
X59598544Y5109419D01*
X59759585Y5195498D01*
X59900739Y5311340D01*
X59929768Y5346712D01*
X60313287Y5730231D01*
X60348659Y5759260D01*
X60464501Y5900414D01*
X60496175Y5959670D01*
X60550580Y6061455D01*
X60603587Y6236195D01*
X60617000Y6372381D01*
X60617000Y6372392D01*
X60621484Y6417919D01*
X60617000Y6463446D01*
X60617000Y6693000D01*
X67832963Y6693000D01*
X67878490Y6688516D01*
X67924017Y6693000D01*
X67924028Y6693000D01*
X68060214Y6706413D01*
X68234954Y6759420D01*
X68395995Y6845499D01*
X68537149Y6961341D01*
X68566178Y6996713D01*
X73678303Y12108836D01*
X73713669Y12137860D01*
X73742694Y12173227D01*
X73742698Y12173231D01*
X73829511Y12279013D01*
X73863999Y12343536D01*
X73915590Y12440055D01*
X73968597Y12614795D01*
X73982010Y12750981D01*
X73982010Y12750991D01*
X73986494Y12796518D01*
X73982010Y12842045D01*
X73982010Y41834463D01*
X73986494Y41879990D01*
X73982010Y41925517D01*
X73982010Y41925528D01*
X73968597Y42061714D01*
X73915590Y42236454D01*
X73879541Y42303897D01*
X73829511Y42397496D01*
X73742698Y42503278D01*
X73742694Y42503282D01*
X73713669Y42538649D01*
X73678302Y42567674D01*
X72808478Y43437497D01*
X72814944Y43503146D01*
X72817000Y43545000D01*
X72817000Y80915000D01*
X72814944Y80956854D01*
X72795729Y81151944D01*
X72779399Y81234040D01*
X72722494Y81421633D01*
X72690460Y81498969D01*
X72598050Y81671856D01*
X72551546Y81741456D01*
X72427183Y81892993D01*
X72367993Y81952183D01*
X72216456Y82076546D01*
X72146856Y82123050D01*
X71973969Y82215460D01*
X71896633Y82247494D01*
X71709040Y82304399D01*
X71626944Y82320729D01*
X71431854Y82339944D01*
X71390000Y82342000D01*
X67040000Y82342000D01*
X66998146Y82339944D01*
X66803056Y82320729D01*
X66720960Y82304399D01*
X66533367Y82247494D01*
X66456031Y82215460D01*
X66283144Y82123050D01*
X66213544Y82076546D01*
X66062007Y81952183D01*
X66002817Y81892993D01*
X65878454Y81741456D01*
X65831950Y81671856D01*
X65739540Y81498969D01*
X65707506Y81421633D01*
X65650601Y81234040D01*
X65634271Y81151944D01*
X65615056Y80956854D01*
X65613000Y80915000D01*
X65613000Y43545000D01*
X65615056Y43503146D01*
X65634271Y43308056D01*
X65650601Y43225960D01*
X65707506Y43038367D01*
X65739540Y42961031D01*
X65831950Y42788144D01*
X65878454Y42718544D01*
X66002817Y42567007D01*
X66062007Y42507817D01*
X66213544Y42383454D01*
X66283144Y42336950D01*
X66456031Y42244540D01*
X66533367Y42212506D01*
X66720960Y42155601D01*
X66803056Y42139271D01*
X66998146Y42120056D01*
X67040000Y42118000D01*
X70058000Y42118000D01*
X70058000Y37892000D01*
X63500000Y37892000D01*
X63416696Y37883795D01*
X63336594Y37859497D01*
X63262772Y37820038D01*
X63198065Y37766935D01*
X63144962Y37702228D01*
X63105503Y37628406D01*
X63081205Y37548304D01*
X63073000Y37465000D01*
X63073000Y33655000D01*
X63081205Y33571696D01*
X63105503Y33491594D01*
X63144962Y33417772D01*
X63198065Y33353065D01*
X63248103Y33312000D01*
X58168976Y33312000D01*
X57107000Y34373975D01*
X57107000Y34410849D01*
X57059847Y34647903D01*
X56967353Y34871202D01*
X56833073Y35072167D01*
X56662167Y35243073D01*
X56461202Y35377353D01*
X56237903Y35469847D01*
X56000849Y35517000D01*
X55759151Y35517000D01*
X55522097Y35469847D01*
X55298798Y35377353D01*
X55097833Y35243073D01*
X54926927Y35072167D01*
X54792647Y34871202D01*
X54700153Y34647903D01*
X54653000Y34410849D01*
X54653000Y34169151D01*
X54700153Y33932097D01*
X54792647Y33708798D01*
X54926927Y33507833D01*
X55097833Y33336927D01*
X55298798Y33202647D01*
X55522097Y33110153D01*
X55759151Y33063000D01*
X55796025Y33063000D01*
X56922014Y31937010D01*
X44303966Y31937010D01*
X41867000Y34373975D01*
X41867000Y34410849D01*
X41819847Y34647903D01*
X41727353Y34871202D01*
X41593073Y35072167D01*
X41422167Y35243073D01*
X41221202Y35377353D01*
X40997903Y35469847D01*
X40760849Y35517000D01*
X40519151Y35517000D01*
X40282097Y35469847D01*
X40058798Y35377353D01*
X39857833Y35243073D01*
X39686927Y35072167D01*
X39552647Y34871202D01*
X39460153Y34647903D01*
X39413000Y34410849D01*
X39413000Y34169151D01*
X39460153Y33932097D01*
X39552647Y33708798D01*
X39686927Y33507833D01*
X39857833Y33336927D01*
X40058798Y33202647D01*
X40282097Y33110153D01*
X40519151Y33063000D01*
X40556025Y33063000D01*
X43191712Y30427312D01*
X43191718Y30427307D01*
X43232302Y30386723D01*
X43261331Y30351351D01*
X43402485Y30235509D01*
X43563526Y30149430D01*
X43738266Y30096423D01*
X43874452Y30083010D01*
X43874462Y30083010D01*
X43919989Y30078526D01*
X43965516Y30083010D01*
X51328446Y30083010D01*
X51275643Y30061138D01*
X51000975Y29877611D01*
X50767389Y29644025D01*
X50583862Y29369357D01*
X50457446Y29064163D01*
X50393000Y28740170D01*
X50393000Y28409830D01*
X50457446Y28085837D01*
X50583862Y27780643D01*
X50706568Y27597000D01*
X45005974Y27597000D01*
X35756990Y36845983D01*
X35756990Y44492085D01*
X38308000Y41941075D01*
X38308000Y41640000D01*
X38310056Y41598146D01*
X38329271Y41403056D01*
X38345601Y41320960D01*
X38402506Y41133367D01*
X38434540Y41056031D01*
X38526950Y40883144D01*
X38573454Y40813544D01*
X38697817Y40662007D01*
X38757007Y40602817D01*
X38908544Y40478454D01*
X38978144Y40431950D01*
X39151031Y40339540D01*
X39228367Y40307506D01*
X39415960Y40250601D01*
X39498056Y40234271D01*
X39693146Y40215056D01*
X39735000Y40213000D01*
X40036075Y40213000D01*
X44093000Y36156074D01*
X44093001Y34210075D01*
X44116543Y33971052D01*
X44209576Y33664362D01*
X44360655Y33381714D01*
X44563972Y33133971D01*
X44811715Y32930654D01*
X45094363Y32779575D01*
X45401053Y32686542D01*
X45720000Y32655128D01*
X46038948Y32686542D01*
X46345638Y32779575D01*
X46628286Y32930654D01*
X46876029Y33133971D01*
X47079346Y33381714D01*
X47230425Y33664362D01*
X47323458Y33971052D01*
X47347000Y34210075D01*
X47347000Y36750083D01*
X47354871Y36830000D01*
X47347000Y36909917D01*
X47347000Y36909925D01*
X47323458Y37148948D01*
X47230425Y37455638D01*
X47079346Y37738286D01*
X47060307Y37761485D01*
X46926978Y37923948D01*
X46926975Y37923951D01*
X46876029Y37986029D01*
X46813952Y38036974D01*
X44637926Y40213000D01*
X48182889Y40213000D01*
X48187070Y40211268D01*
X48655961Y40118000D01*
X49134039Y40118000D01*
X49602930Y40211268D01*
X49607111Y40213000D01*
X58690000Y40213000D01*
X58731854Y40215056D01*
X58926944Y40234271D01*
X59009040Y40250601D01*
X59115847Y40283000D01*
X60880075Y40283000D01*
X60960000Y40275128D01*
X61073928Y40286349D01*
X61278948Y40306542D01*
X61585638Y40399575D01*
X61868286Y40550654D01*
X62116029Y40753971D01*
X62319346Y41001714D01*
X62470425Y41284362D01*
X62563458Y41591052D01*
X62594872Y41910000D01*
X62587000Y41989925D01*
X62587000Y52149925D01*
X62563458Y52388948D01*
X62470425Y52695638D01*
X62424066Y52782369D01*
X62424066Y53105000D01*
X62415822Y53188707D01*
X62391405Y53269196D01*
X62351755Y53343376D01*
X62298395Y53408395D01*
X62233376Y53461755D01*
X62159196Y53501405D01*
X62078707Y53525822D01*
X61995000Y53534066D01*
X61672368Y53534066D01*
X61585637Y53580425D01*
X61278947Y53673458D01*
X60960000Y53704872D01*
X60641052Y53673458D01*
X60334362Y53580425D01*
X60247631Y53534066D01*
X60000775Y53534066D01*
X59990460Y53558969D01*
X59898050Y53731856D01*
X59851546Y53801456D01*
X59727183Y53952993D01*
X59667993Y54012183D01*
X59516456Y54136546D01*
X59446856Y54183050D01*
X59273969Y54275460D01*
X59196633Y54307494D01*
X59009040Y54364399D01*
X58926944Y54380729D01*
X58731854Y54399944D01*
X58690000Y54402000D01*
X47347000Y54402000D01*
X47347000Y54530086D01*
X47354871Y54610001D01*
X47347000Y54689915D01*
X47347000Y54689925D01*
X47323458Y54928948D01*
X47230425Y55235638D01*
X47079346Y55518286D01*
X46977877Y55641927D01*
X46926978Y55703948D01*
X46926975Y55703951D01*
X46876029Y55766029D01*
X46813951Y55816975D01*
X45677915Y56953010D01*
X48944483Y56953010D01*
X48990010Y56948526D01*
X49035537Y56953010D01*
X49035548Y56953010D01*
X49171734Y56966423D01*
X49346474Y57019430D01*
X49507515Y57105509D01*
X49648669Y57221351D01*
X49677698Y57256723D01*
X55963976Y63543000D01*
X56000849Y63543000D01*
X56237903Y63590153D01*
X56461202Y63682647D01*
X56662167Y63816927D01*
X56833073Y63987833D01*
X56967353Y64188798D01*
X57059847Y64412097D01*
X57107000Y64649151D01*
X57107000Y64890849D01*
X57059847Y65127903D01*
X56967353Y65351202D01*
X56833073Y65552167D01*
X56662167Y65723073D01*
X56461202Y65857353D01*
X56237903Y65949847D01*
X56000849Y65997000D01*
X55759151Y65997000D01*
X55522097Y65949847D01*
X55298798Y65857353D01*
X55097833Y65723073D01*
X54926927Y65552167D01*
X54792647Y65351202D01*
X54700153Y65127903D01*
X54653000Y64890849D01*
X54653000Y64853976D01*
X48606035Y58807010D01*
X38854824Y58807010D01*
X38863668Y58823556D01*
X38873775Y58856875D01*
X38916675Y58998296D01*
X38930088Y59134482D01*
X38930088Y59134493D01*
X38934572Y59180020D01*
X38930088Y59225547D01*
X38930088Y61749113D01*
X40723976Y63543000D01*
X40760849Y63543000D01*
X40997903Y63590153D01*
X41221202Y63682647D01*
X41422167Y63816927D01*
X41593073Y63987833D01*
X41727353Y64188798D01*
X41819847Y64412097D01*
X41867000Y64649151D01*
X41867000Y64890849D01*
X41819847Y65127903D01*
X41727353Y65351202D01*
X41593073Y65552167D01*
X41422167Y65723073D01*
X41221202Y65857353D01*
X40997903Y65949847D01*
X40760849Y65997000D01*
X40519151Y65997000D01*
X40282097Y65949847D01*
X40058798Y65857353D01*
X39857833Y65723073D01*
X39686927Y65552167D01*
X39552647Y65351202D01*
X39460153Y65127903D01*
X39413000Y64890849D01*
X39413000Y64853976D01*
X37379801Y62820776D01*
X37344429Y62791747D01*
X37315401Y62756376D01*
X37315400Y62756375D01*
X37228587Y62650593D01*
X37152656Y62508537D01*
X37142508Y62489551D01*
X37089501Y62314811D01*
X37076088Y62178625D01*
X37076088Y62178615D01*
X37071604Y62133088D01*
X37076088Y62087560D01*
X37076089Y59563997D01*
X32906693Y55394600D01*
X32871321Y55365571D01*
X32842293Y55330200D01*
X32842292Y55330199D01*
X32755479Y55224417D01*
X32699253Y55119226D01*
X32669400Y55063375D01*
X32616393Y54888635D01*
X32602980Y54752449D01*
X32602980Y54752439D01*
X32598496Y54706912D01*
X32602980Y54661385D01*
X32602981Y35969064D01*
X32598496Y35923527D01*
X32602981Y35877990D01*
X32602981Y35877989D01*
X32616394Y35741803D01*
X32623203Y35719357D01*
X32669400Y35567064D01*
X32755479Y35406022D01*
X32842292Y35300240D01*
X32842297Y35300235D01*
X32871322Y35264868D01*
X32906689Y35235843D01*
X43395833Y24746698D01*
X43424858Y24711331D01*
X43460225Y24682306D01*
X43460229Y24682302D01*
X43566011Y24595489D01*
X43583839Y24585960D01*
X43727053Y24509410D01*
X43901793Y24456403D01*
X44037979Y24442990D01*
X44037989Y24442990D01*
X44083516Y24438506D01*
X44129043Y24442990D01*
X52351035Y24442990D01*
X54572999Y22221025D01*
X54572999Y22015528D01*
X54568515Y21970001D01*
X54572999Y21924474D01*
X54572999Y21924463D01*
X54586412Y21788277D01*
X54620390Y21676269D01*
X54639419Y21613538D01*
X54725498Y21452496D01*
X54812311Y21346714D01*
X54812316Y21346709D01*
X54841341Y21311342D01*
X54876707Y21282318D01*
X55873000Y20286024D01*
X55873000Y20194226D01*
X55922074Y19947513D01*
X56018337Y19715114D01*
X56158089Y19505960D01*
X56335960Y19328089D01*
X56517183Y19207000D01*
X50397402Y19207000D01*
X50187759Y19186352D01*
X49918769Y19104755D01*
X49670866Y18972248D01*
X49453577Y18793923D01*
X49275252Y18576634D01*
X49142745Y18328731D01*
X49061148Y18059741D01*
X49033596Y17780000D01*
X49061148Y17500259D01*
X49142745Y17231269D01*
X49275252Y16983366D01*
X49453577Y16766077D01*
X49670866Y16587752D01*
X49918769Y16455245D01*
X50187759Y16373648D01*
X50397402Y16353000D01*
X51922031Y16353000D01*
X51908454Y16336456D01*
X51861950Y16266856D01*
X51769540Y16093969D01*
X51737506Y16016633D01*
X51680601Y15829040D01*
X51664271Y15746944D01*
X51645056Y15551854D01*
X51643000Y15510000D01*
X51643000Y14970000D01*
X51645056Y14928146D01*
X51664271Y14733056D01*
X51680601Y14650960D01*
X51737506Y14463367D01*
X51769540Y14386031D01*
X51861950Y14213144D01*
X51908454Y14143544D01*
X51922031Y14127000D01*
X49486083Y14127000D01*
X47147000Y16466082D01*
X47147000Y19728918D01*
X47235393Y19817311D01*
X47347878Y19704826D01*
X47745385Y19439221D01*
X48187070Y19256268D01*
X48655961Y19163000D01*
X49134039Y19163000D01*
X49602930Y19256268D01*
X50044615Y19439221D01*
X50442122Y19704826D01*
X50780174Y20042878D01*
X51045779Y20440385D01*
X51228732Y20882070D01*
X51322000Y21350961D01*
X51322000Y21829039D01*
X51228732Y22297930D01*
X51045779Y22739615D01*
X50780174Y23137122D01*
X50442122Y23475174D01*
X50044615Y23740779D01*
X49602930Y23923732D01*
X49134039Y24017000D01*
X48655961Y24017000D01*
X48187070Y23923732D01*
X47745385Y23740779D01*
X47347878Y23475174D01*
X47009826Y23137122D01*
X46930243Y23018018D01*
X46919911Y23017000D01*
X46919902Y23017000D01*
X46710259Y22996352D01*
X46441269Y22914755D01*
X46193366Y22782248D01*
X45976077Y22603923D01*
X45931390Y22549472D01*
X44760523Y21378605D01*
X44706077Y21333922D01*
X44661395Y21279477D01*
X44661392Y21279474D01*
X44565358Y21162456D01*
X44527752Y21116633D01*
X44395245Y20868730D01*
X44369744Y20784665D01*
X44311663Y20924886D01*
X44171911Y21134040D01*
X43994040Y21311911D01*
X43784886Y21451663D01*
X43552487Y21547926D01*
X43305774Y21597000D01*
X43054226Y21597000D01*
X42807513Y21547926D01*
X42575114Y21451663D01*
X42365960Y21311911D01*
X42188089Y21134040D01*
X42048337Y20924886D01*
X41952074Y20692487D01*
X41903000Y20445774D01*
X41903000Y20194226D01*
X41952074Y19947513D01*
X42048337Y19715114D01*
X42188089Y19505960D01*
X42253000Y19441049D01*
X42253001Y13337037D01*
X39305401Y10389436D01*
X39279847Y10517903D01*
X39187353Y10741202D01*
X39053073Y10942167D01*
X38882167Y11113073D01*
X38681202Y11247353D01*
X38457903Y11339847D01*
X38220849Y11387000D01*
X38183976Y11387000D01*
X36984491Y12586484D01*
X40785226Y16387218D01*
X40811046Y16408408D01*
X40832238Y16434230D01*
X40832244Y16434236D01*
X40895648Y16511494D01*
X40958512Y16629105D01*
X40997224Y16756720D01*
X41010295Y16889435D01*
X41007020Y16922687D01*
X41007020Y25802312D01*
X41010295Y25835564D01*
X40997224Y25968279D01*
X40958512Y26095894D01*
X40895648Y26213505D01*
X40832244Y26290763D01*
X40832242Y26290765D01*
X40811047Y26316591D01*
X40785221Y26337786D01*
X32427000Y34696006D01*
X32427000Y72576522D01*
X32564040Y72668089D01*
X32741911Y72845960D01*
X32881663Y73055114D01*
X32977926Y73287513D01*
X33027000Y73534226D01*
X33027000Y73785774D01*
X32977926Y74032487D01*
X32881663Y74264886D01*
X32741911Y74474040D01*
X32564040Y74651911D01*
X32354886Y74791663D01*
X32122487Y74887926D01*
X31875774Y74937000D01*
X31624226Y74937000D01*
X31377513Y74887926D01*
X31145114Y74791663D01*
X30935960Y74651911D01*
X30758089Y74474040D01*
X30618337Y74264886D01*
X30522074Y74032487D01*
X30473000Y73785774D01*
X30473000Y73534226D01*
X30522074Y73287513D01*
X30618337Y73055114D01*
X30758089Y72845960D01*
X30935960Y72668089D01*
X31073001Y72576521D01*
X31073000Y35526749D01*
X31073001Y35526739D01*
X31073000Y34448829D01*
X31069726Y34415584D01*
X31073000Y34382339D01*
X31073000Y34382333D01*
X31082796Y34282870D01*
X31121508Y34155255D01*
X31184372Y34037644D01*
X31268973Y33934558D01*
X31294800Y33913362D01*
X34913162Y30295000D01*
X34417214Y30295000D01*
X34405663Y30322886D01*
X34265911Y30532040D01*
X34088040Y30709911D01*
X33878886Y30849663D01*
X33646487Y30945926D01*
X33399774Y30995000D01*
X33148226Y30995000D01*
X32901513Y30945926D01*
X32669114Y30849663D01*
X32459960Y30709911D01*
X32282089Y30532040D01*
X32142337Y30322886D01*
X32046074Y30090487D01*
X31997000Y29843774D01*
X31997000Y29592226D01*
X32046074Y29345513D01*
X32142337Y29113114D01*
X32275916Y28913198D01*
X32149189Y28874756D01*
X31901286Y28742249D01*
X31683997Y28563924D01*
X31639306Y28509468D01*
X30790523Y27660686D01*
X30736078Y27616004D01*
X30691396Y27561559D01*
X30691392Y27561555D01*
X30589759Y27437714D01*
X30557753Y27398715D01*
X30425245Y27150812D01*
X30343648Y26881822D01*
X30323000Y26672179D01*
X30323000Y26672169D01*
X30316097Y26602081D01*
X30323000Y26531993D01*
X30323000Y25329903D01*
X30343648Y25120260D01*
X30425245Y24851270D01*
X30557752Y24603367D01*
X30736077Y24386078D01*
X30953366Y24207752D01*
X31201269Y24075245D01*
X31470259Y23993648D01*
X31750000Y23966096D01*
X32029740Y23993648D01*
X32298730Y24075245D01*
X32546633Y24207752D01*
X32763922Y24386077D01*
X32942248Y24603366D01*
X33074755Y24851269D01*
X33100256Y24935334D01*
X33158337Y24795114D01*
X33298089Y24585960D01*
X33475960Y24408089D01*
X33685114Y24268337D01*
X33825334Y24210256D01*
X33741269Y24184755D01*
X33493366Y24052248D01*
X33276077Y23873923D01*
X33097752Y23656634D01*
X32965245Y23408731D01*
X32883648Y23139741D01*
X32856096Y22860000D01*
X32883648Y22580259D01*
X32965245Y22311269D01*
X33097752Y22063366D01*
X33276077Y21846077D01*
X33493366Y21667752D01*
X33741269Y21535245D01*
X33825334Y21509744D01*
X33685114Y21451663D01*
X33475960Y21311911D01*
X33298089Y21134040D01*
X33158337Y20924886D01*
X33062074Y20692487D01*
X33020000Y20480966D01*
X32977926Y20692487D01*
X32881663Y20924886D01*
X32741911Y21134040D01*
X32564040Y21311911D01*
X32354886Y21451663D01*
X32122487Y21547926D01*
X31875774Y21597000D01*
X31624226Y21597000D01*
X31377513Y21547926D01*
X31145114Y21451663D01*
X30935960Y21311911D01*
X30758089Y21134040D01*
X30618337Y20924886D01*
X30606786Y20897000D01*
X24796085Y20897000D01*
X24147031Y21546054D01*
X24147031Y28618946D01*
X27057968Y31529883D01*
X27079974Y31547942D01*
X27152079Y31635801D01*
X27205657Y31736040D01*
X27238650Y31844804D01*
X27247000Y31929580D01*
X27247000Y31929586D01*
X27249790Y31957915D01*
X27247000Y31986244D01*
X27247000Y56700203D01*
X27249791Y56728542D01*
X27238651Y56841654D01*
X27212732Y56927095D01*
X27205657Y56950418D01*
X27152079Y57050657D01*
X27079974Y57138516D01*
X27057962Y57156581D01*
X23808268Y60406275D01*
X23852903Y60415153D01*
X24076202Y60507647D01*
X24277167Y60641927D01*
X24448073Y60812833D01*
X24582353Y61013798D01*
X24674847Y61237097D01*
X24722000Y61474151D01*
X24722000Y61715849D01*
X24674847Y61952903D01*
X24582353Y62176202D01*
X24448073Y62377167D01*
X24277167Y62548073D01*
X24076202Y62682353D01*
X23852903Y62774847D01*
X23615849Y62822000D01*
X23578976Y62822000D01*
X22912687Y63488288D01*
X22883659Y63523659D01*
X22742505Y63639501D01*
X22581464Y63725580D01*
X22406724Y63778587D01*
X22270538Y63792000D01*
X22270527Y63792000D01*
X22225000Y63796484D01*
X22179473Y63792000D01*
X19686483Y63792000D01*
X19685822Y63798707D01*
X19661405Y63879196D01*
X19621755Y63953376D01*
X19568395Y64018395D01*
X19503376Y64071755D01*
X19429196Y64111405D01*
X19348707Y64135822D01*
X19265000Y64144066D01*
X17565000Y64144066D01*
X17481293Y64135822D01*
X17400804Y64111405D01*
X17326624Y64071755D01*
X17261605Y64018395D01*
X17208245Y63953376D01*
X17168595Y63879196D01*
X17144178Y63798707D01*
X17135934Y63715000D01*
X17135934Y62896910D01*
X16141712Y61902687D01*
X16106340Y61873658D01*
X16077312Y61838287D01*
X16077311Y61838286D01*
X15990498Y61732504D01*
X15904420Y61571463D01*
X15904419Y61571462D01*
X15851412Y61396722D01*
X15837999Y61260536D01*
X15837999Y61260526D01*
X15833515Y61214999D01*
X15837999Y61169472D01*
X15838000Y46780538D01*
X15833515Y46735001D01*
X15838000Y46689464D01*
X15838000Y46689463D01*
X15844026Y46628285D01*
X15851413Y46553278D01*
X15904419Y46378538D01*
X15990498Y46217496D01*
X16077311Y46111714D01*
X16077316Y46111709D01*
X16106341Y46076342D01*
X16141707Y46047318D01*
X17104024Y45085000D01*
X16141707Y44122682D01*
X16106341Y44093658D01*
X16077316Y44058291D01*
X16077311Y44058286D01*
X15990498Y43952504D01*
X15904419Y43791462D01*
X15851413Y43616722D01*
X15833515Y43434999D01*
X15838000Y43389462D01*
X15837999Y39201977D01*
X15367000Y38730978D01*
X15367000Y65416102D01*
X15382353Y65582045D01*
X15426283Y65736683D01*
X15497844Y65880645D01*
X15594602Y66009030D01*
X15713271Y66117480D01*
X15854825Y66205423D01*
X22364010Y69460015D01*
X22374234Y69465731D01*
X22530750Y69562969D01*
X22549405Y69577097D01*
X22685424Y69701403D01*
X22701171Y69718714D01*
X22812073Y69865866D01*
X22824376Y69885772D01*
X22906396Y70050774D01*
X22914837Y70072600D01*
X22965190Y70249850D01*
X22969484Y70272855D01*
X22986460Y70456334D01*
X22987000Y70468034D01*
X22987000Y83820000D01*
X35195129Y83820000D01*
X35203000Y83740085D01*
X35203001Y76279924D01*
X35195129Y76200000D01*
X35226543Y75881053D01*
X35319576Y75574362D01*
X35470654Y75291715D01*
X35623022Y75106053D01*
X35623026Y75106049D01*
X35673972Y75043971D01*
X35736050Y74993025D01*
X38308000Y72421075D01*
X38308000Y72120000D01*
X38310056Y72078146D01*
X38329271Y71883056D01*
X38345601Y71800960D01*
X38402506Y71613367D01*
X38434540Y71536031D01*
X38526950Y71363144D01*
X38573454Y71293544D01*
X38697817Y71142007D01*
X38757007Y71082817D01*
X38908544Y70958454D01*
X38978144Y70911950D01*
X39151031Y70819540D01*
X39228367Y70787506D01*
X39415960Y70730601D01*
X39498056Y70714271D01*
X39693146Y70695056D01*
X39735000Y70693000D01*
X40036075Y70693000D01*
X44093001Y66636073D01*
X44093000Y64690076D01*
X44116542Y64451053D01*
X44209575Y64144363D01*
X44360654Y63861715D01*
X44563971Y63613971D01*
X44811714Y63410654D01*
X45094362Y63259575D01*
X45401052Y63166542D01*
X45720000Y63135128D01*
X46038947Y63166542D01*
X46345637Y63259575D01*
X46628285Y63410654D01*
X46876029Y63613971D01*
X47079346Y63861714D01*
X47230425Y64144362D01*
X47323458Y64451052D01*
X47347000Y64690075D01*
X47347000Y67230083D01*
X47354871Y67310000D01*
X47347000Y67389917D01*
X47347000Y67389925D01*
X47323458Y67628948D01*
X47230425Y67935638D01*
X47079346Y68218286D01*
X47030394Y68277934D01*
X46926978Y68403948D01*
X46926975Y68403951D01*
X46876029Y68466029D01*
X46813951Y68516975D01*
X44637926Y70693000D01*
X51357889Y70693000D01*
X51362070Y70691268D01*
X51830961Y70598000D01*
X52309039Y70598000D01*
X52777930Y70691268D01*
X52782111Y70693000D01*
X58690000Y70693000D01*
X58731854Y70695056D01*
X58926944Y70714271D01*
X59009040Y70730601D01*
X59115847Y70763000D01*
X60880075Y70763000D01*
X60960000Y70755128D01*
X61278948Y70786542D01*
X61585638Y70879575D01*
X61868286Y71030654D01*
X62116029Y71233971D01*
X62319346Y71481714D01*
X62470425Y71764362D01*
X62563458Y72071052D01*
X62587000Y72310075D01*
X62594872Y72390000D01*
X62587000Y72469925D01*
X62587000Y82629925D01*
X62563458Y82868948D01*
X62470425Y83175638D01*
X62424066Y83262369D01*
X62424066Y83585000D01*
X62415822Y83668707D01*
X62391405Y83749196D01*
X62351755Y83823376D01*
X62298395Y83888395D01*
X62233376Y83941755D01*
X62159196Y83981405D01*
X62078707Y84005822D01*
X61995000Y84014066D01*
X61672368Y84014066D01*
X61585637Y84060425D01*
X61278947Y84153458D01*
X60960000Y84184872D01*
X60641052Y84153458D01*
X60334362Y84060425D01*
X60247631Y84014066D01*
X60000775Y84014066D01*
X59990460Y84038969D01*
X59898050Y84211856D01*
X59851546Y84281456D01*
X59727183Y84432993D01*
X59667993Y84492183D01*
X59516456Y84616546D01*
X59446856Y84663050D01*
X59273969Y84755460D01*
X59196633Y84787494D01*
X59009040Y84844399D01*
X58926944Y84860729D01*
X58731854Y84879944D01*
X58690000Y84882000D01*
X47342001Y84882000D01*
X47342001Y85015074D01*
X47349873Y85094999D01*
X47318459Y85413947D01*
X47307003Y85451713D01*
X47225426Y85720637D01*
X47074347Y86003285D01*
X46871030Y86251028D01*
X46808946Y86301979D01*
X45656980Y87453945D01*
X45606029Y87516029D01*
X45358286Y87719346D01*
X45075638Y87870425D01*
X44768948Y87963458D01*
X44529925Y87987000D01*
X44529914Y87987000D01*
X44450000Y87994871D01*
X44370086Y87987000D01*
X39449914Y87987000D01*
X39369999Y87994871D01*
X39290085Y87987000D01*
X39290075Y87987000D01*
X39051052Y87963458D01*
X38744362Y87870425D01*
X38744360Y87870424D01*
X38461713Y87719346D01*
X38342117Y87621196D01*
X38213971Y87516029D01*
X38163020Y87453945D01*
X35736055Y85026980D01*
X35673971Y84976029D01*
X35470654Y84728285D01*
X35319575Y84445637D01*
X35226542Y84138947D01*
X35203000Y83899924D01*
X35203000Y83899914D01*
X35195129Y83820000D01*
X22987000Y83820000D01*
X22987000Y89163766D01*
X23004376Y89340189D01*
X23054022Y89503850D01*
X23134638Y89654672D01*
X23243130Y89786870D01*
X23375328Y89895362D01*
X23526150Y89975978D01*
X23689811Y90025624D01*
X23866234Y90043000D01*
X73923766Y90043000D01*
X74100189Y90025624D01*
G37*
X74100189Y90025624D02*
X74263850Y89975978D01*
X74414672Y89895362D01*
X74546870Y89786870D01*
X74655362Y89654672D01*
X74735978Y89503850D01*
X74785624Y89340189D01*
X74803000Y89163766D01*
X74803000Y2276234D01*
X74785624Y2099811D01*
X74735978Y1936150D01*
X74655362Y1785328D01*
X74546870Y1653130D01*
X74414672Y1544638D01*
X74263850Y1464022D01*
X74100189Y1414376D01*
X73923766Y1397000D01*
X2276234Y1397000D01*
X2099811Y1414376D01*
X1936150Y1464022D01*
X1785328Y1544638D01*
X1653130Y1653130D01*
X1544638Y1785328D01*
X1464022Y1936150D01*
X1414376Y2099811D01*
X1397000Y2276234D01*
X1397000Y25665000D01*
X6290934Y25665000D01*
X6290934Y23865000D01*
X6299178Y23781293D01*
X6323595Y23700804D01*
X6363245Y23626624D01*
X6416605Y23561605D01*
X6481624Y23508245D01*
X6555804Y23468595D01*
X6636293Y23444178D01*
X6720000Y23435934D01*
X8520000Y23435934D01*
X8603707Y23444178D01*
X8684196Y23468595D01*
X8758376Y23508245D01*
X8823395Y23561605D01*
X8876755Y23626624D01*
X8916405Y23700804D01*
X8940822Y23781293D01*
X8949066Y23865000D01*
X8949066Y24088000D01*
X11784578Y24088000D01*
X14563000Y21309578D01*
X14563001Y17813254D01*
X14559726Y17780000D01*
X14572796Y17647286D01*
X14611508Y17519671D01*
X14674372Y17402060D01*
X14737776Y17324802D01*
X14737779Y17324799D01*
X14758974Y17298973D01*
X14784800Y17277778D01*
X15265154Y16797424D01*
X15233000Y16635774D01*
X15233000Y16384226D01*
X15282074Y16137513D01*
X15378337Y15905114D01*
X15518089Y15695960D01*
X15695960Y15518089D01*
X15905114Y15378337D01*
X16137513Y15282074D01*
X16384226Y15233000D01*
X16635774Y15233000D01*
X16882487Y15282074D01*
X17114886Y15378337D01*
X17324040Y15518089D01*
X17501911Y15695960D01*
X17641663Y15905114D01*
X17737926Y16137513D01*
X17787000Y16384226D01*
X17787000Y16635774D01*
X17737926Y16882487D01*
X17641663Y17114886D01*
X17501911Y17324040D01*
X17324040Y17501911D01*
X17114886Y17641663D01*
X16882487Y17737926D01*
X16635774Y17787000D01*
X16384226Y17787000D01*
X16222576Y17754846D01*
X15917000Y18060422D01*
X15917000Y21556759D01*
X15920274Y21590001D01*
X15917000Y21623243D01*
X15917000Y21623252D01*
X15907204Y21722715D01*
X15868492Y21850330D01*
X15805628Y21967941D01*
X15721026Y22071027D01*
X15695200Y22092222D01*
X12953113Y24834309D01*
X13057903Y24855153D01*
X13281202Y24947647D01*
X13482167Y25081927D01*
X13653073Y25252833D01*
X13787353Y25453798D01*
X13879847Y25677097D01*
X13927000Y25914151D01*
X13927000Y26155849D01*
X13879847Y26392903D01*
X13787353Y26616202D01*
X13653073Y26817167D01*
X13482167Y26988073D01*
X13281202Y27122353D01*
X13057903Y27214847D01*
X12820849Y27262000D01*
X12579151Y27262000D01*
X12455098Y27237324D01*
X11932226Y27760196D01*
X11911027Y27786027D01*
X11807941Y27870628D01*
X11690330Y27933492D01*
X11562715Y27972204D01*
X11463252Y27982000D01*
X11463245Y27982000D01*
X11430000Y27985274D01*
X11396755Y27982000D01*
X8763612Y27982000D01*
X8650748Y28150913D01*
X8465913Y28335748D01*
X8248570Y28480972D01*
X8007072Y28581004D01*
X7750698Y28632000D01*
X7489302Y28632000D01*
X7232928Y28581004D01*
X6991430Y28480972D01*
X6774087Y28335748D01*
X6589252Y28150913D01*
X6444028Y27933570D01*
X6343996Y27692072D01*
X6293000Y27435698D01*
X6293000Y27174302D01*
X6343996Y26917928D01*
X6444028Y26676430D01*
X6589252Y26459087D01*
X6774087Y26274252D01*
X6991430Y26129028D01*
X7075836Y26094066D01*
X6720000Y26094066D01*
X6636293Y26085822D01*
X6555804Y26061405D01*
X6481624Y26021755D01*
X6416605Y25968395D01*
X6363245Y25903376D01*
X6323595Y25829196D01*
X6299178Y25748707D01*
X6290934Y25665000D01*
X1397000Y25665000D01*
X1397000Y29473766D01*
X1414376Y29650189D01*
X1464022Y29813850D01*
X1544638Y29964672D01*
X1653130Y30096870D01*
X1731111Y30160867D01*
X1763367Y30147506D01*
X1950960Y30090601D01*
X2033056Y30074271D01*
X2228146Y30055056D01*
X2270000Y30053000D01*
X7205786Y30053000D01*
X7247640Y30055056D01*
X7442731Y30074271D01*
X7524827Y30090601D01*
X7712420Y30147506D01*
X7789756Y30179540D01*
X7962643Y30271950D01*
X8032244Y30318455D01*
X8183780Y30442818D01*
X8214828Y30470958D01*
X10173000Y32429130D01*
X10172999Y31490529D01*
X10168515Y31445001D01*
X10172999Y31399474D01*
X10172999Y31399464D01*
X10186412Y31263278D01*
X10215409Y31167688D01*
X10239419Y31088538D01*
X10325498Y30927496D01*
X10351321Y30896031D01*
X10441340Y30786342D01*
X10476712Y30757313D01*
X11377316Y29856708D01*
X11406341Y29821341D01*
X11441708Y29792316D01*
X11441712Y29792312D01*
X11547495Y29705498D01*
X11708536Y29619420D01*
X11883276Y29566413D01*
X12019462Y29553000D01*
X12019473Y29553000D01*
X12065000Y29548516D01*
X12110527Y29553000D01*
X15491025Y29553000D01*
X19093000Y25951024D01*
X19093000Y25914151D01*
X19140153Y25677097D01*
X19232647Y25453798D01*
X19366927Y25252833D01*
X19393000Y25226760D01*
X19393001Y20493241D01*
X19366927Y20467167D01*
X19232647Y20266202D01*
X19140153Y20042903D01*
X19093000Y19805849D01*
X19093000Y19564151D01*
X19140153Y19327097D01*
X19232647Y19103798D01*
X19366927Y18902833D01*
X19393000Y18876760D01*
X19393001Y16258977D01*
X12700000Y9565975D01*
X11087000Y11178975D01*
X11087000Y14361049D01*
X11151911Y14425960D01*
X11291663Y14635114D01*
X11387926Y14867513D01*
X11437000Y15114226D01*
X11437000Y15365774D01*
X11387926Y15612487D01*
X11291663Y15844886D01*
X11151911Y16054040D01*
X10974040Y16231911D01*
X10764886Y16371663D01*
X10532487Y16467926D01*
X10285774Y16517000D01*
X10034226Y16517000D01*
X9787513Y16467926D01*
X9555114Y16371663D01*
X9345960Y16231911D01*
X9168089Y16054040D01*
X9028337Y15844886D01*
X8932074Y15612487D01*
X8883000Y15365774D01*
X8883000Y15114226D01*
X8932074Y14867513D01*
X9028337Y14635114D01*
X9168089Y14425960D01*
X9233000Y14361049D01*
X9233001Y10840537D01*
X9228516Y10795000D01*
X9233001Y10749463D01*
X9233001Y10749462D01*
X9240435Y10673985D01*
X8297000Y11617420D01*
X8297000Y17085934D01*
X8520000Y17085934D01*
X8603707Y17094178D01*
X8684196Y17118595D01*
X8758376Y17158245D01*
X8823395Y17211605D01*
X8876755Y17276624D01*
X8916405Y17350804D01*
X8940822Y17431293D01*
X8949066Y17515000D01*
X8949066Y19315000D01*
X8940822Y19398707D01*
X8916405Y19479196D01*
X8876755Y19553376D01*
X8823395Y19618395D01*
X8758376Y19671755D01*
X8684196Y19711405D01*
X8603707Y19735822D01*
X8520000Y19744066D01*
X8164164Y19744066D01*
X8248570Y19779028D01*
X8465913Y19924252D01*
X8650748Y20109087D01*
X8763612Y20278000D01*
X11149578Y20278000D01*
X11497676Y19929902D01*
X11473000Y19805849D01*
X11473000Y19564151D01*
X11520153Y19327097D01*
X11612647Y19103798D01*
X11746927Y18902833D01*
X11917833Y18731927D01*
X12118798Y18597647D01*
X12342097Y18505153D01*
X12579151Y18458000D01*
X12820849Y18458000D01*
X13057903Y18505153D01*
X13281202Y18597647D01*
X13482167Y18731927D01*
X13653073Y18902833D01*
X13787353Y19103798D01*
X13879847Y19327097D01*
X13927000Y19564151D01*
X13927000Y19805849D01*
X13879847Y20042903D01*
X13787353Y20266202D01*
X13653073Y20467167D01*
X13482167Y20638073D01*
X13281202Y20772353D01*
X13057903Y20864847D01*
X12820849Y20912000D01*
X12579151Y20912000D01*
X12455098Y20887324D01*
X11932226Y21410196D01*
X11911027Y21436027D01*
X11807941Y21520628D01*
X11690330Y21583492D01*
X11562715Y21622204D01*
X11463252Y21632000D01*
X11463245Y21632000D01*
X11430000Y21635274D01*
X11396755Y21632000D01*
X8763612Y21632000D01*
X8650748Y21800913D01*
X8465913Y21985748D01*
X8248570Y22130972D01*
X8007072Y22231004D01*
X7750698Y22282000D01*
X7489302Y22282000D01*
X7232928Y22231004D01*
X6991430Y22130972D01*
X6774087Y21985748D01*
X6589252Y21800913D01*
X6444028Y21583570D01*
X6343996Y21342072D01*
X6293000Y21085698D01*
X6293000Y20824302D01*
X6343996Y20567928D01*
X6444028Y20326430D01*
X6589252Y20109087D01*
X6774087Y19924252D01*
X6991430Y19779028D01*
X7075836Y19744066D01*
X6720000Y19744066D01*
X6636293Y19735822D01*
X6555804Y19711405D01*
X6481624Y19671755D01*
X6416605Y19618395D01*
X6363245Y19553376D01*
X6323595Y19479196D01*
X6299178Y19398707D01*
X6290934Y19315000D01*
X6290934Y17515000D01*
X6299178Y17431293D01*
X6323595Y17350804D01*
X6363245Y17276624D01*
X6416605Y17211605D01*
X6481624Y17158245D01*
X6555804Y17118595D01*
X6636293Y17094178D01*
X6720000Y17085934D01*
X6943000Y17085934D01*
X6943001Y11370253D01*
X6939726Y11336998D01*
X6952796Y11204284D01*
X6991508Y11076669D01*
X7054372Y10959058D01*
X7117776Y10881800D01*
X7117779Y10881797D01*
X7138974Y10855971D01*
X7164800Y10834776D01*
X10394129Y7605447D01*
X10285774Y7627000D01*
X10034226Y7627000D01*
X9787513Y7577926D01*
X9555114Y7481663D01*
X9345960Y7341911D01*
X9168089Y7164040D01*
X9028337Y6954886D01*
X8932074Y6722487D01*
X8883000Y6475774D01*
X8883000Y6224226D01*
X8932074Y5977513D01*
X9028337Y5745114D01*
X9168089Y5535960D01*
X9345960Y5358089D01*
X9555114Y5218337D01*
X9787513Y5122074D01*
X10034226Y5073000D01*
X10126025Y5073000D01*
X11452341Y3746683D01*
X11481361Y3711322D01*
X11516722Y3682302D01*
X11516732Y3682292D01*
X11622514Y3595479D01*
X11783556Y3509401D01*
X11958296Y3456394D01*
X12140019Y3438496D01*
X12185557Y3442981D01*
X34551392Y3442979D01*
X34596919Y3438495D01*
X34642446Y3442979D01*
X34642456Y3442979D01*
X34778642Y3456392D01*
X34953382Y3509399D01*
X34953386Y3509401D01*
X35114424Y3595478D01*
X35220206Y3682291D01*
X35220210Y3682295D01*
X35255577Y3711320D01*
X35284602Y3746687D01*
X43803292Y12265376D01*
X43838659Y12294401D01*
X43867684Y12329768D01*
X43867688Y12329772D01*
X43954502Y12435555D01*
X44040580Y12596596D01*
X44071947Y12700000D01*
X44093587Y12771336D01*
X44107000Y12907522D01*
X44107000Y12907533D01*
X44111484Y12953060D01*
X44107000Y12998587D01*
X44107000Y19441049D01*
X44171911Y19505960D01*
X44293000Y19687183D01*
X44293001Y15945097D01*
X44286097Y15875000D01*
X44313649Y15595259D01*
X44395246Y15326269D01*
X44527753Y15078366D01*
X44661392Y14915526D01*
X44661396Y14915522D01*
X44706078Y14861077D01*
X44760523Y14816395D01*
X47836395Y11740522D01*
X47881077Y11686077D01*
X47935522Y11641395D01*
X47935525Y11641392D01*
X48023125Y11569501D01*
X48098366Y11507752D01*
X48346269Y11375245D01*
X48615259Y11293648D01*
X48824902Y11273000D01*
X48824911Y11273000D01*
X48894999Y11266097D01*
X48965087Y11273000D01*
X53602411Y11273000D01*
X53672499Y11266097D01*
X53742587Y11273000D01*
X57220098Y11273000D01*
X57429741Y11293648D01*
X57698731Y11375245D01*
X57946634Y11507752D01*
X58163923Y11686077D01*
X58342248Y11903366D01*
X58474755Y12151269D01*
X58500256Y12235334D01*
X58558337Y12095114D01*
X58698089Y11885960D01*
X58875960Y11708089D01*
X59085114Y11568337D01*
X59317513Y11472074D01*
X59529034Y11430000D01*
X59317513Y11387926D01*
X59085114Y11291663D01*
X58875960Y11151911D01*
X58698089Y10974040D01*
X58558337Y10764886D01*
X58462074Y10532487D01*
X58413000Y10285774D01*
X58413000Y10034226D01*
X58462074Y9787513D01*
X58558337Y9555114D01*
X58698089Y9345960D01*
X58875960Y9168089D01*
X59085114Y9028337D01*
X59317513Y8932074D01*
X59529034Y8890000D01*
X59317513Y8847926D01*
X59085114Y8751663D01*
X58875960Y8611911D01*
X58698089Y8434040D01*
X58558337Y8224886D01*
X58462074Y7992487D01*
X58429066Y7826544D01*
X58429066Y8470000D01*
X58420822Y8553707D01*
X58396405Y8634196D01*
X58356755Y8708376D01*
X58303395Y8773395D01*
X58238376Y8826755D01*
X58164196Y8866405D01*
X58083707Y8890822D01*
X58000000Y8899066D01*
X56300000Y8899066D01*
X56216293Y8890822D01*
X56135804Y8866405D01*
X56061624Y8826755D01*
X55996605Y8773395D01*
X55943245Y8708376D01*
X55903595Y8634196D01*
X55879178Y8553707D01*
X55870934Y8470000D01*
X55870934Y6896999D01*
X50293977Y6896999D01*
X46947000Y10243975D01*
X46947000Y10280849D01*
X46899847Y10517903D01*
X46807353Y10741202D01*
X46673073Y10942167D01*
X46502167Y11113073D01*
X46301202Y11247353D01*
X46077903Y11339847D01*
X45840849Y11387000D01*
X45599151Y11387000D01*
X45362097Y11339847D01*
X45138798Y11247353D01*
X44937833Y11113073D01*
X44766927Y10942167D01*
X44632647Y10741202D01*
X44540153Y10517903D01*
X44493000Y10280849D01*
X44493000Y10039151D01*
X44540153Y9802097D01*
X44632647Y9578798D01*
X44766927Y9377833D01*
X44937833Y9206927D01*
X45138798Y9072647D01*
X45362097Y8980153D01*
X45599151Y8933000D01*
X45636025Y8933000D01*
X49222317Y5346707D01*
X49251342Y5311340D01*
X49286709Y5282315D01*
X49286713Y5282311D01*
X49392495Y5195498D01*
X49459545Y5159659D01*
X49553537Y5109419D01*
X49728277Y5056412D01*
X49864463Y5042999D01*
X49864473Y5042999D01*
X49910000Y5038515D01*
X49955527Y5042999D01*
X59196553Y5042999D01*
X59242080Y5038515D01*
X59287607Y5042999D01*
X59287618Y5042999D01*
X59423804Y5056412D01*
X59598544Y5109419D01*
X59759585Y5195498D01*
X59900739Y5311340D01*
X59929768Y5346712D01*
X60313287Y5730231D01*
X60348659Y5759260D01*
X60464501Y5900414D01*
X60496175Y5959670D01*
X60550580Y6061455D01*
X60603587Y6236195D01*
X60617000Y6372381D01*
X60617000Y6372392D01*
X60621484Y6417919D01*
X60617000Y6463446D01*
X60617000Y6693000D01*
X67832963Y6693000D01*
X67878490Y6688516D01*
X67924017Y6693000D01*
X67924028Y6693000D01*
X68060214Y6706413D01*
X68234954Y6759420D01*
X68395995Y6845499D01*
X68537149Y6961341D01*
X68566178Y6996713D01*
X73678303Y12108836D01*
X73713669Y12137860D01*
X73742694Y12173227D01*
X73742698Y12173231D01*
X73829511Y12279013D01*
X73863999Y12343536D01*
X73915590Y12440055D01*
X73968597Y12614795D01*
X73982010Y12750981D01*
X73982010Y12750991D01*
X73986494Y12796518D01*
X73982010Y12842045D01*
X73982010Y41834463D01*
X73986494Y41879990D01*
X73982010Y41925517D01*
X73982010Y41925528D01*
X73968597Y42061714D01*
X73915590Y42236454D01*
X73879541Y42303897D01*
X73829511Y42397496D01*
X73742698Y42503278D01*
X73742694Y42503282D01*
X73713669Y42538649D01*
X73678302Y42567674D01*
X72808478Y43437497D01*
X72814944Y43503146D01*
X72817000Y43545000D01*
X72817000Y80915000D01*
X72814944Y80956854D01*
X72795729Y81151944D01*
X72779399Y81234040D01*
X72722494Y81421633D01*
X72690460Y81498969D01*
X72598050Y81671856D01*
X72551546Y81741456D01*
X72427183Y81892993D01*
X72367993Y81952183D01*
X72216456Y82076546D01*
X72146856Y82123050D01*
X71973969Y82215460D01*
X71896633Y82247494D01*
X71709040Y82304399D01*
X71626944Y82320729D01*
X71431854Y82339944D01*
X71390000Y82342000D01*
X67040000Y82342000D01*
X66998146Y82339944D01*
X66803056Y82320729D01*
X66720960Y82304399D01*
X66533367Y82247494D01*
X66456031Y82215460D01*
X66283144Y82123050D01*
X66213544Y82076546D01*
X66062007Y81952183D01*
X66002817Y81892993D01*
X65878454Y81741456D01*
X65831950Y81671856D01*
X65739540Y81498969D01*
X65707506Y81421633D01*
X65650601Y81234040D01*
X65634271Y81151944D01*
X65615056Y80956854D01*
X65613000Y80915000D01*
X65613000Y43545000D01*
X65615056Y43503146D01*
X65634271Y43308056D01*
X65650601Y43225960D01*
X65707506Y43038367D01*
X65739540Y42961031D01*
X65831950Y42788144D01*
X65878454Y42718544D01*
X66002817Y42567007D01*
X66062007Y42507817D01*
X66213544Y42383454D01*
X66283144Y42336950D01*
X66456031Y42244540D01*
X66533367Y42212506D01*
X66720960Y42155601D01*
X66803056Y42139271D01*
X66998146Y42120056D01*
X67040000Y42118000D01*
X70058000Y42118000D01*
X70058000Y37892000D01*
X63500000Y37892000D01*
X63416696Y37883795D01*
X63336594Y37859497D01*
X63262772Y37820038D01*
X63198065Y37766935D01*
X63144962Y37702228D01*
X63105503Y37628406D01*
X63081205Y37548304D01*
X63073000Y37465000D01*
X63073000Y33655000D01*
X63081205Y33571696D01*
X63105503Y33491594D01*
X63144962Y33417772D01*
X63198065Y33353065D01*
X63248103Y33312000D01*
X58168976Y33312000D01*
X57107000Y34373975D01*
X57107000Y34410849D01*
X57059847Y34647903D01*
X56967353Y34871202D01*
X56833073Y35072167D01*
X56662167Y35243073D01*
X56461202Y35377353D01*
X56237903Y35469847D01*
X56000849Y35517000D01*
X55759151Y35517000D01*
X55522097Y35469847D01*
X55298798Y35377353D01*
X55097833Y35243073D01*
X54926927Y35072167D01*
X54792647Y34871202D01*
X54700153Y34647903D01*
X54653000Y34410849D01*
X54653000Y34169151D01*
X54700153Y33932097D01*
X54792647Y33708798D01*
X54926927Y33507833D01*
X55097833Y33336927D01*
X55298798Y33202647D01*
X55522097Y33110153D01*
X55759151Y33063000D01*
X55796025Y33063000D01*
X56922014Y31937010D01*
X44303966Y31937010D01*
X41867000Y34373975D01*
X41867000Y34410849D01*
X41819847Y34647903D01*
X41727353Y34871202D01*
X41593073Y35072167D01*
X41422167Y35243073D01*
X41221202Y35377353D01*
X40997903Y35469847D01*
X40760849Y35517000D01*
X40519151Y35517000D01*
X40282097Y35469847D01*
X40058798Y35377353D01*
X39857833Y35243073D01*
X39686927Y35072167D01*
X39552647Y34871202D01*
X39460153Y34647903D01*
X39413000Y34410849D01*
X39413000Y34169151D01*
X39460153Y33932097D01*
X39552647Y33708798D01*
X39686927Y33507833D01*
X39857833Y33336927D01*
X40058798Y33202647D01*
X40282097Y33110153D01*
X40519151Y33063000D01*
X40556025Y33063000D01*
X43191712Y30427312D01*
X43191718Y30427307D01*
X43232302Y30386723D01*
X43261331Y30351351D01*
X43402485Y30235509D01*
X43563526Y30149430D01*
X43738266Y30096423D01*
X43874452Y30083010D01*
X43874462Y30083010D01*
X43919989Y30078526D01*
X43965516Y30083010D01*
X51328446Y30083010D01*
X51275643Y30061138D01*
X51000975Y29877611D01*
X50767389Y29644025D01*
X50583862Y29369357D01*
X50457446Y29064163D01*
X50393000Y28740170D01*
X50393000Y28409830D01*
X50457446Y28085837D01*
X50583862Y27780643D01*
X50706568Y27597000D01*
X45005974Y27597000D01*
X35756990Y36845983D01*
X35756990Y44492085D01*
X38308000Y41941075D01*
X38308000Y41640000D01*
X38310056Y41598146D01*
X38329271Y41403056D01*
X38345601Y41320960D01*
X38402506Y41133367D01*
X38434540Y41056031D01*
X38526950Y40883144D01*
X38573454Y40813544D01*
X38697817Y40662007D01*
X38757007Y40602817D01*
X38908544Y40478454D01*
X38978144Y40431950D01*
X39151031Y40339540D01*
X39228367Y40307506D01*
X39415960Y40250601D01*
X39498056Y40234271D01*
X39693146Y40215056D01*
X39735000Y40213000D01*
X40036075Y40213000D01*
X44093000Y36156074D01*
X44093001Y34210075D01*
X44116543Y33971052D01*
X44209576Y33664362D01*
X44360655Y33381714D01*
X44563972Y33133971D01*
X44811715Y32930654D01*
X45094363Y32779575D01*
X45401053Y32686542D01*
X45720000Y32655128D01*
X46038948Y32686542D01*
X46345638Y32779575D01*
X46628286Y32930654D01*
X46876029Y33133971D01*
X47079346Y33381714D01*
X47230425Y33664362D01*
X47323458Y33971052D01*
X47347000Y34210075D01*
X47347000Y36750083D01*
X47354871Y36830000D01*
X47347000Y36909917D01*
X47347000Y36909925D01*
X47323458Y37148948D01*
X47230425Y37455638D01*
X47079346Y37738286D01*
X47060307Y37761485D01*
X46926978Y37923948D01*
X46926975Y37923951D01*
X46876029Y37986029D01*
X46813952Y38036974D01*
X44637926Y40213000D01*
X48182889Y40213000D01*
X48187070Y40211268D01*
X48655961Y40118000D01*
X49134039Y40118000D01*
X49602930Y40211268D01*
X49607111Y40213000D01*
X58690000Y40213000D01*
X58731854Y40215056D01*
X58926944Y40234271D01*
X59009040Y40250601D01*
X59115847Y40283000D01*
X60880075Y40283000D01*
X60960000Y40275128D01*
X61073928Y40286349D01*
X61278948Y40306542D01*
X61585638Y40399575D01*
X61868286Y40550654D01*
X62116029Y40753971D01*
X62319346Y41001714D01*
X62470425Y41284362D01*
X62563458Y41591052D01*
X62594872Y41910000D01*
X62587000Y41989925D01*
X62587000Y52149925D01*
X62563458Y52388948D01*
X62470425Y52695638D01*
X62424066Y52782369D01*
X62424066Y53105000D01*
X62415822Y53188707D01*
X62391405Y53269196D01*
X62351755Y53343376D01*
X62298395Y53408395D01*
X62233376Y53461755D01*
X62159196Y53501405D01*
X62078707Y53525822D01*
X61995000Y53534066D01*
X61672368Y53534066D01*
X61585637Y53580425D01*
X61278947Y53673458D01*
X60960000Y53704872D01*
X60641052Y53673458D01*
X60334362Y53580425D01*
X60247631Y53534066D01*
X60000775Y53534066D01*
X59990460Y53558969D01*
X59898050Y53731856D01*
X59851546Y53801456D01*
X59727183Y53952993D01*
X59667993Y54012183D01*
X59516456Y54136546D01*
X59446856Y54183050D01*
X59273969Y54275460D01*
X59196633Y54307494D01*
X59009040Y54364399D01*
X58926944Y54380729D01*
X58731854Y54399944D01*
X58690000Y54402000D01*
X47347000Y54402000D01*
X47347000Y54530086D01*
X47354871Y54610001D01*
X47347000Y54689915D01*
X47347000Y54689925D01*
X47323458Y54928948D01*
X47230425Y55235638D01*
X47079346Y55518286D01*
X46977877Y55641927D01*
X46926978Y55703948D01*
X46926975Y55703951D01*
X46876029Y55766029D01*
X46813951Y55816975D01*
X45677915Y56953010D01*
X48944483Y56953010D01*
X48990010Y56948526D01*
X49035537Y56953010D01*
X49035548Y56953010D01*
X49171734Y56966423D01*
X49346474Y57019430D01*
X49507515Y57105509D01*
X49648669Y57221351D01*
X49677698Y57256723D01*
X55963976Y63543000D01*
X56000849Y63543000D01*
X56237903Y63590153D01*
X56461202Y63682647D01*
X56662167Y63816927D01*
X56833073Y63987833D01*
X56967353Y64188798D01*
X57059847Y64412097D01*
X57107000Y64649151D01*
X57107000Y64890849D01*
X57059847Y65127903D01*
X56967353Y65351202D01*
X56833073Y65552167D01*
X56662167Y65723073D01*
X56461202Y65857353D01*
X56237903Y65949847D01*
X56000849Y65997000D01*
X55759151Y65997000D01*
X55522097Y65949847D01*
X55298798Y65857353D01*
X55097833Y65723073D01*
X54926927Y65552167D01*
X54792647Y65351202D01*
X54700153Y65127903D01*
X54653000Y64890849D01*
X54653000Y64853976D01*
X48606035Y58807010D01*
X38854824Y58807010D01*
X38863668Y58823556D01*
X38873775Y58856875D01*
X38916675Y58998296D01*
X38930088Y59134482D01*
X38930088Y59134493D01*
X38934572Y59180020D01*
X38930088Y59225547D01*
X38930088Y61749113D01*
X40723976Y63543000D01*
X40760849Y63543000D01*
X40997903Y63590153D01*
X41221202Y63682647D01*
X41422167Y63816927D01*
X41593073Y63987833D01*
X41727353Y64188798D01*
X41819847Y64412097D01*
X41867000Y64649151D01*
X41867000Y64890849D01*
X41819847Y65127903D01*
X41727353Y65351202D01*
X41593073Y65552167D01*
X41422167Y65723073D01*
X41221202Y65857353D01*
X40997903Y65949847D01*
X40760849Y65997000D01*
X40519151Y65997000D01*
X40282097Y65949847D01*
X40058798Y65857353D01*
X39857833Y65723073D01*
X39686927Y65552167D01*
X39552647Y65351202D01*
X39460153Y65127903D01*
X39413000Y64890849D01*
X39413000Y64853976D01*
X37379801Y62820776D01*
X37344429Y62791747D01*
X37315401Y62756376D01*
X37315400Y62756375D01*
X37228587Y62650593D01*
X37152656Y62508537D01*
X37142508Y62489551D01*
X37089501Y62314811D01*
X37076088Y62178625D01*
X37076088Y62178615D01*
X37071604Y62133088D01*
X37076088Y62087560D01*
X37076089Y59563997D01*
X32906693Y55394600D01*
X32871321Y55365571D01*
X32842293Y55330200D01*
X32842292Y55330199D01*
X32755479Y55224417D01*
X32699253Y55119226D01*
X32669400Y55063375D01*
X32616393Y54888635D01*
X32602980Y54752449D01*
X32602980Y54752439D01*
X32598496Y54706912D01*
X32602980Y54661385D01*
X32602981Y35969064D01*
X32598496Y35923527D01*
X32602981Y35877990D01*
X32602981Y35877989D01*
X32616394Y35741803D01*
X32623203Y35719357D01*
X32669400Y35567064D01*
X32755479Y35406022D01*
X32842292Y35300240D01*
X32842297Y35300235D01*
X32871322Y35264868D01*
X32906689Y35235843D01*
X43395833Y24746698D01*
X43424858Y24711331D01*
X43460225Y24682306D01*
X43460229Y24682302D01*
X43566011Y24595489D01*
X43583839Y24585960D01*
X43727053Y24509410D01*
X43901793Y24456403D01*
X44037979Y24442990D01*
X44037989Y24442990D01*
X44083516Y24438506D01*
X44129043Y24442990D01*
X52351035Y24442990D01*
X54572999Y22221025D01*
X54572999Y22015528D01*
X54568515Y21970001D01*
X54572999Y21924474D01*
X54572999Y21924463D01*
X54586412Y21788277D01*
X54620390Y21676269D01*
X54639419Y21613538D01*
X54725498Y21452496D01*
X54812311Y21346714D01*
X54812316Y21346709D01*
X54841341Y21311342D01*
X54876707Y21282318D01*
X55873000Y20286024D01*
X55873000Y20194226D01*
X55922074Y19947513D01*
X56018337Y19715114D01*
X56158089Y19505960D01*
X56335960Y19328089D01*
X56517183Y19207000D01*
X50397402Y19207000D01*
X50187759Y19186352D01*
X49918769Y19104755D01*
X49670866Y18972248D01*
X49453577Y18793923D01*
X49275252Y18576634D01*
X49142745Y18328731D01*
X49061148Y18059741D01*
X49033596Y17780000D01*
X49061148Y17500259D01*
X49142745Y17231269D01*
X49275252Y16983366D01*
X49453577Y16766077D01*
X49670866Y16587752D01*
X49918769Y16455245D01*
X50187759Y16373648D01*
X50397402Y16353000D01*
X51922031Y16353000D01*
X51908454Y16336456D01*
X51861950Y16266856D01*
X51769540Y16093969D01*
X51737506Y16016633D01*
X51680601Y15829040D01*
X51664271Y15746944D01*
X51645056Y15551854D01*
X51643000Y15510000D01*
X51643000Y14970000D01*
X51645056Y14928146D01*
X51664271Y14733056D01*
X51680601Y14650960D01*
X51737506Y14463367D01*
X51769540Y14386031D01*
X51861950Y14213144D01*
X51908454Y14143544D01*
X51922031Y14127000D01*
X49486083Y14127000D01*
X47147000Y16466082D01*
X47147000Y19728918D01*
X47235393Y19817311D01*
X47347878Y19704826D01*
X47745385Y19439221D01*
X48187070Y19256268D01*
X48655961Y19163000D01*
X49134039Y19163000D01*
X49602930Y19256268D01*
X50044615Y19439221D01*
X50442122Y19704826D01*
X50780174Y20042878D01*
X51045779Y20440385D01*
X51228732Y20882070D01*
X51322000Y21350961D01*
X51322000Y21829039D01*
X51228732Y22297930D01*
X51045779Y22739615D01*
X50780174Y23137122D01*
X50442122Y23475174D01*
X50044615Y23740779D01*
X49602930Y23923732D01*
X49134039Y24017000D01*
X48655961Y24017000D01*
X48187070Y23923732D01*
X47745385Y23740779D01*
X47347878Y23475174D01*
X47009826Y23137122D01*
X46930243Y23018018D01*
X46919911Y23017000D01*
X46919902Y23017000D01*
X46710259Y22996352D01*
X46441269Y22914755D01*
X46193366Y22782248D01*
X45976077Y22603923D01*
X45931390Y22549472D01*
X44760523Y21378605D01*
X44706077Y21333922D01*
X44661395Y21279477D01*
X44661392Y21279474D01*
X44565358Y21162456D01*
X44527752Y21116633D01*
X44395245Y20868730D01*
X44369744Y20784665D01*
X44311663Y20924886D01*
X44171911Y21134040D01*
X43994040Y21311911D01*
X43784886Y21451663D01*
X43552487Y21547926D01*
X43305774Y21597000D01*
X43054226Y21597000D01*
X42807513Y21547926D01*
X42575114Y21451663D01*
X42365960Y21311911D01*
X42188089Y21134040D01*
X42048337Y20924886D01*
X41952074Y20692487D01*
X41903000Y20445774D01*
X41903000Y20194226D01*
X41952074Y19947513D01*
X42048337Y19715114D01*
X42188089Y19505960D01*
X42253000Y19441049D01*
X42253001Y13337037D01*
X39305401Y10389436D01*
X39279847Y10517903D01*
X39187353Y10741202D01*
X39053073Y10942167D01*
X38882167Y11113073D01*
X38681202Y11247353D01*
X38457903Y11339847D01*
X38220849Y11387000D01*
X38183976Y11387000D01*
X36984491Y12586484D01*
X40785226Y16387218D01*
X40811046Y16408408D01*
X40832238Y16434230D01*
X40832244Y16434236D01*
X40895648Y16511494D01*
X40958512Y16629105D01*
X40997224Y16756720D01*
X41010295Y16889435D01*
X41007020Y16922687D01*
X41007020Y25802312D01*
X41010295Y25835564D01*
X40997224Y25968279D01*
X40958512Y26095894D01*
X40895648Y26213505D01*
X40832244Y26290763D01*
X40832242Y26290765D01*
X40811047Y26316591D01*
X40785221Y26337786D01*
X32427000Y34696006D01*
X32427000Y72576522D01*
X32564040Y72668089D01*
X32741911Y72845960D01*
X32881663Y73055114D01*
X32977926Y73287513D01*
X33027000Y73534226D01*
X33027000Y73785774D01*
X32977926Y74032487D01*
X32881663Y74264886D01*
X32741911Y74474040D01*
X32564040Y74651911D01*
X32354886Y74791663D01*
X32122487Y74887926D01*
X31875774Y74937000D01*
X31624226Y74937000D01*
X31377513Y74887926D01*
X31145114Y74791663D01*
X30935960Y74651911D01*
X30758089Y74474040D01*
X30618337Y74264886D01*
X30522074Y74032487D01*
X30473000Y73785774D01*
X30473000Y73534226D01*
X30522074Y73287513D01*
X30618337Y73055114D01*
X30758089Y72845960D01*
X30935960Y72668089D01*
X31073001Y72576521D01*
X31073000Y35526749D01*
X31073001Y35526739D01*
X31073000Y34448829D01*
X31069726Y34415584D01*
X31073000Y34382339D01*
X31073000Y34382333D01*
X31082796Y34282870D01*
X31121508Y34155255D01*
X31184372Y34037644D01*
X31268973Y33934558D01*
X31294800Y33913362D01*
X34913162Y30295000D01*
X34417214Y30295000D01*
X34405663Y30322886D01*
X34265911Y30532040D01*
X34088040Y30709911D01*
X33878886Y30849663D01*
X33646487Y30945926D01*
X33399774Y30995000D01*
X33148226Y30995000D01*
X32901513Y30945926D01*
X32669114Y30849663D01*
X32459960Y30709911D01*
X32282089Y30532040D01*
X32142337Y30322886D01*
X32046074Y30090487D01*
X31997000Y29843774D01*
X31997000Y29592226D01*
X32046074Y29345513D01*
X32142337Y29113114D01*
X32275916Y28913198D01*
X32149189Y28874756D01*
X31901286Y28742249D01*
X31683997Y28563924D01*
X31639306Y28509468D01*
X30790523Y27660686D01*
X30736078Y27616004D01*
X30691396Y27561559D01*
X30691392Y27561555D01*
X30589759Y27437714D01*
X30557753Y27398715D01*
X30425245Y27150812D01*
X30343648Y26881822D01*
X30323000Y26672179D01*
X30323000Y26672169D01*
X30316097Y26602081D01*
X30323000Y26531993D01*
X30323000Y25329903D01*
X30343648Y25120260D01*
X30425245Y24851270D01*
X30557752Y24603367D01*
X30736077Y24386078D01*
X30953366Y24207752D01*
X31201269Y24075245D01*
X31470259Y23993648D01*
X31750000Y23966096D01*
X32029740Y23993648D01*
X32298730Y24075245D01*
X32546633Y24207752D01*
X32763922Y24386077D01*
X32942248Y24603366D01*
X33074755Y24851269D01*
X33100256Y24935334D01*
X33158337Y24795114D01*
X33298089Y24585960D01*
X33475960Y24408089D01*
X33685114Y24268337D01*
X33825334Y24210256D01*
X33741269Y24184755D01*
X33493366Y24052248D01*
X33276077Y23873923D01*
X33097752Y23656634D01*
X32965245Y23408731D01*
X32883648Y23139741D01*
X32856096Y22860000D01*
X32883648Y22580259D01*
X32965245Y22311269D01*
X33097752Y22063366D01*
X33276077Y21846077D01*
X33493366Y21667752D01*
X33741269Y21535245D01*
X33825334Y21509744D01*
X33685114Y21451663D01*
X33475960Y21311911D01*
X33298089Y21134040D01*
X33158337Y20924886D01*
X33062074Y20692487D01*
X33020000Y20480966D01*
X32977926Y20692487D01*
X32881663Y20924886D01*
X32741911Y21134040D01*
X32564040Y21311911D01*
X32354886Y21451663D01*
X32122487Y21547926D01*
X31875774Y21597000D01*
X31624226Y21597000D01*
X31377513Y21547926D01*
X31145114Y21451663D01*
X30935960Y21311911D01*
X30758089Y21134040D01*
X30618337Y20924886D01*
X30606786Y20897000D01*
X24796085Y20897000D01*
X24147031Y21546054D01*
X24147031Y28618946D01*
X27057968Y31529883D01*
X27079974Y31547942D01*
X27152079Y31635801D01*
X27205657Y31736040D01*
X27238650Y31844804D01*
X27247000Y31929580D01*
X27247000Y31929586D01*
X27249790Y31957915D01*
X27247000Y31986244D01*
X27247000Y56700203D01*
X27249791Y56728542D01*
X27238651Y56841654D01*
X27212732Y56927095D01*
X27205657Y56950418D01*
X27152079Y57050657D01*
X27079974Y57138516D01*
X27057962Y57156581D01*
X23808268Y60406275D01*
X23852903Y60415153D01*
X24076202Y60507647D01*
X24277167Y60641927D01*
X24448073Y60812833D01*
X24582353Y61013798D01*
X24674847Y61237097D01*
X24722000Y61474151D01*
X24722000Y61715849D01*
X24674847Y61952903D01*
X24582353Y62176202D01*
X24448073Y62377167D01*
X24277167Y62548073D01*
X24076202Y62682353D01*
X23852903Y62774847D01*
X23615849Y62822000D01*
X23578976Y62822000D01*
X22912687Y63488288D01*
X22883659Y63523659D01*
X22742505Y63639501D01*
X22581464Y63725580D01*
X22406724Y63778587D01*
X22270538Y63792000D01*
X22270527Y63792000D01*
X22225000Y63796484D01*
X22179473Y63792000D01*
X19686483Y63792000D01*
X19685822Y63798707D01*
X19661405Y63879196D01*
X19621755Y63953376D01*
X19568395Y64018395D01*
X19503376Y64071755D01*
X19429196Y64111405D01*
X19348707Y64135822D01*
X19265000Y64144066D01*
X17565000Y64144066D01*
X17481293Y64135822D01*
X17400804Y64111405D01*
X17326624Y64071755D01*
X17261605Y64018395D01*
X17208245Y63953376D01*
X17168595Y63879196D01*
X17144178Y63798707D01*
X17135934Y63715000D01*
X17135934Y62896910D01*
X16141712Y61902687D01*
X16106340Y61873658D01*
X16077312Y61838287D01*
X16077311Y61838286D01*
X15990498Y61732504D01*
X15904420Y61571463D01*
X15904419Y61571462D01*
X15851412Y61396722D01*
X15837999Y61260536D01*
X15837999Y61260526D01*
X15833515Y61214999D01*
X15837999Y61169472D01*
X15838000Y46780538D01*
X15833515Y46735001D01*
X15838000Y46689464D01*
X15838000Y46689463D01*
X15844026Y46628285D01*
X15851413Y46553278D01*
X15904419Y46378538D01*
X15990498Y46217496D01*
X16077311Y46111714D01*
X16077316Y46111709D01*
X16106341Y46076342D01*
X16141707Y46047318D01*
X17104024Y45085000D01*
X16141707Y44122682D01*
X16106341Y44093658D01*
X16077316Y44058291D01*
X16077311Y44058286D01*
X15990498Y43952504D01*
X15904419Y43791462D01*
X15851413Y43616722D01*
X15833515Y43434999D01*
X15838000Y43389462D01*
X15837999Y39201977D01*
X15367000Y38730978D01*
X15367000Y65416102D01*
X15382353Y65582045D01*
X15426283Y65736683D01*
X15497844Y65880645D01*
X15594602Y66009030D01*
X15713271Y66117480D01*
X15854825Y66205423D01*
X22364010Y69460015D01*
X22374234Y69465731D01*
X22530750Y69562969D01*
X22549405Y69577097D01*
X22685424Y69701403D01*
X22701171Y69718714D01*
X22812073Y69865866D01*
X22824376Y69885772D01*
X22906396Y70050774D01*
X22914837Y70072600D01*
X22965190Y70249850D01*
X22969484Y70272855D01*
X22986460Y70456334D01*
X22987000Y70468034D01*
X22987000Y83820000D01*
X35195129Y83820000D01*
X35203000Y83740085D01*
X35203001Y76279924D01*
X35195129Y76200000D01*
X35226543Y75881053D01*
X35319576Y75574362D01*
X35470654Y75291715D01*
X35623022Y75106053D01*
X35623026Y75106049D01*
X35673972Y75043971D01*
X35736050Y74993025D01*
X38308000Y72421075D01*
X38308000Y72120000D01*
X38310056Y72078146D01*
X38329271Y71883056D01*
X38345601Y71800960D01*
X38402506Y71613367D01*
X38434540Y71536031D01*
X38526950Y71363144D01*
X38573454Y71293544D01*
X38697817Y71142007D01*
X38757007Y71082817D01*
X38908544Y70958454D01*
X38978144Y70911950D01*
X39151031Y70819540D01*
X39228367Y70787506D01*
X39415960Y70730601D01*
X39498056Y70714271D01*
X39693146Y70695056D01*
X39735000Y70693000D01*
X40036075Y70693000D01*
X44093001Y66636073D01*
X44093000Y64690076D01*
X44116542Y64451053D01*
X44209575Y64144363D01*
X44360654Y63861715D01*
X44563971Y63613971D01*
X44811714Y63410654D01*
X45094362Y63259575D01*
X45401052Y63166542D01*
X45720000Y63135128D01*
X46038947Y63166542D01*
X46345637Y63259575D01*
X46628285Y63410654D01*
X46876029Y63613971D01*
X47079346Y63861714D01*
X47230425Y64144362D01*
X47323458Y64451052D01*
X47347000Y64690075D01*
X47347000Y67230083D01*
X47354871Y67310000D01*
X47347000Y67389917D01*
X47347000Y67389925D01*
X47323458Y67628948D01*
X47230425Y67935638D01*
X47079346Y68218286D01*
X47030394Y68277934D01*
X46926978Y68403948D01*
X46926975Y68403951D01*
X46876029Y68466029D01*
X46813951Y68516975D01*
X44637926Y70693000D01*
X51357889Y70693000D01*
X51362070Y70691268D01*
X51830961Y70598000D01*
X52309039Y70598000D01*
X52777930Y70691268D01*
X52782111Y70693000D01*
X58690000Y70693000D01*
X58731854Y70695056D01*
X58926944Y70714271D01*
X59009040Y70730601D01*
X59115847Y70763000D01*
X60880075Y70763000D01*
X60960000Y70755128D01*
X61278948Y70786542D01*
X61585638Y70879575D01*
X61868286Y71030654D01*
X62116029Y71233971D01*
X62319346Y71481714D01*
X62470425Y71764362D01*
X62563458Y72071052D01*
X62587000Y72310075D01*
X62594872Y72390000D01*
X62587000Y72469925D01*
X62587000Y82629925D01*
X62563458Y82868948D01*
X62470425Y83175638D01*
X62424066Y83262369D01*
X62424066Y83585000D01*
X62415822Y83668707D01*
X62391405Y83749196D01*
X62351755Y83823376D01*
X62298395Y83888395D01*
X62233376Y83941755D01*
X62159196Y83981405D01*
X62078707Y84005822D01*
X61995000Y84014066D01*
X61672368Y84014066D01*
X61585637Y84060425D01*
X61278947Y84153458D01*
X60960000Y84184872D01*
X60641052Y84153458D01*
X60334362Y84060425D01*
X60247631Y84014066D01*
X60000775Y84014066D01*
X59990460Y84038969D01*
X59898050Y84211856D01*
X59851546Y84281456D01*
X59727183Y84432993D01*
X59667993Y84492183D01*
X59516456Y84616546D01*
X59446856Y84663050D01*
X59273969Y84755460D01*
X59196633Y84787494D01*
X59009040Y84844399D01*
X58926944Y84860729D01*
X58731854Y84879944D01*
X58690000Y84882000D01*
X47342001Y84882000D01*
X47342001Y85015074D01*
X47349873Y85094999D01*
X47318459Y85413947D01*
X47307003Y85451713D01*
X47225426Y85720637D01*
X47074347Y86003285D01*
X46871030Y86251028D01*
X46808946Y86301979D01*
X45656980Y87453945D01*
X45606029Y87516029D01*
X45358286Y87719346D01*
X45075638Y87870425D01*
X44768948Y87963458D01*
X44529925Y87987000D01*
X44529914Y87987000D01*
X44450000Y87994871D01*
X44370086Y87987000D01*
X39449914Y87987000D01*
X39369999Y87994871D01*
X39290085Y87987000D01*
X39290075Y87987000D01*
X39051052Y87963458D01*
X38744362Y87870425D01*
X38744360Y87870424D01*
X38461713Y87719346D01*
X38342117Y87621196D01*
X38213971Y87516029D01*
X38163020Y87453945D01*
X35736055Y85026980D01*
X35673971Y84976029D01*
X35470654Y84728285D01*
X35319575Y84445637D01*
X35226542Y84138947D01*
X35203000Y83899924D01*
X35203000Y83899914D01*
X35195129Y83820000D01*
X22987000Y83820000D01*
X22987000Y89163766D01*
X23004376Y89340189D01*
X23054022Y89503850D01*
X23134638Y89654672D01*
X23243130Y89786870D01*
X23375328Y89895362D01*
X23526150Y89975978D01*
X23689811Y90025624D01*
X23866234Y90043000D01*
X73923766Y90043000D01*
X74100189Y90025624D01*
G36*
X24168001Y39176000D02*
G01*
X24168002Y33874003D01*
X23895374Y33601375D01*
X23867487Y33612926D01*
X23620774Y33662000D01*
X23369226Y33662000D01*
X23122513Y33612926D01*
X22890114Y33516663D01*
X22680960Y33376911D01*
X22503089Y33199040D01*
X22363337Y32989886D01*
X22267074Y32757487D01*
X22218000Y32510774D01*
X22218000Y32259226D01*
X22267074Y32012513D01*
X22363337Y31780114D01*
X22503089Y31570960D01*
X22680960Y31393089D01*
X22890114Y31253337D01*
X23122513Y31157074D01*
X23317323Y31118324D01*
X22347001Y30148002D01*
X22347001Y31001747D01*
X22350276Y31034999D01*
X22337205Y31167714D01*
X22298493Y31295329D01*
X22235629Y31412940D01*
X22172225Y31490198D01*
X22172219Y31490204D01*
X22151027Y31516026D01*
X22125207Y31537216D01*
X21522324Y32140098D01*
X21547000Y32264151D01*
X21547000Y32505849D01*
X21499847Y32742903D01*
X21407353Y32966202D01*
X21273073Y33167167D01*
X21102167Y33338073D01*
X20901202Y33472353D01*
X20677903Y33564847D01*
X20440849Y33612000D01*
X20199151Y33612000D01*
X19962097Y33564847D01*
X19738798Y33472353D01*
X19537833Y33338073D01*
X19366927Y33167167D01*
X19232647Y32966202D01*
X19140153Y32742903D01*
X19093000Y32505849D01*
X19093000Y32264151D01*
X19140153Y32027097D01*
X19232647Y31803798D01*
X19366927Y31602833D01*
X19537833Y31431927D01*
X19738798Y31297647D01*
X19962097Y31205153D01*
X20199151Y31158000D01*
X20440849Y31158000D01*
X20564902Y31182676D01*
X20993001Y30754576D01*
X20993001Y27061015D01*
X20901202Y27122353D01*
X20677903Y27214847D01*
X20440849Y27262000D01*
X20403976Y27262000D01*
X16562687Y31103288D01*
X16533659Y31138659D01*
X16392505Y31254501D01*
X16231464Y31340580D01*
X16056724Y31393587D01*
X15920538Y31407000D01*
X15920527Y31407000D01*
X15875000Y31411484D01*
X15829473Y31407000D01*
X12448976Y31407000D01*
X12026999Y31828976D01*
X12026999Y32769026D01*
X17388293Y38130319D01*
X17423658Y38159342D01*
X17452683Y38194709D01*
X17452687Y38194713D01*
X17539500Y38300495D01*
X17625579Y38461537D01*
X17626591Y38464872D01*
X17678586Y38636277D01*
X17691999Y38772463D01*
X17691999Y38772474D01*
X17696483Y38818001D01*
X17691999Y38863528D01*
X17691999Y38952259D01*
X17810114Y38873337D01*
X18042513Y38777074D01*
X18289226Y38728000D01*
X18540774Y38728000D01*
X18787487Y38777074D01*
X19019886Y38873337D01*
X19229040Y39013089D01*
X19406911Y39190960D01*
X19546663Y39400114D01*
X19642926Y39632513D01*
X19692000Y39879226D01*
X19692000Y40130774D01*
X19662715Y40277999D01*
X23066002Y40277999D01*
X24168001Y39176000D01*
G37*
X24168001Y39176000D02*
X24168002Y33874003D01*
X23895374Y33601375D01*
X23867487Y33612926D01*
X23620774Y33662000D01*
X23369226Y33662000D01*
X23122513Y33612926D01*
X22890114Y33516663D01*
X22680960Y33376911D01*
X22503089Y33199040D01*
X22363337Y32989886D01*
X22267074Y32757487D01*
X22218000Y32510774D01*
X22218000Y32259226D01*
X22267074Y32012513D01*
X22363337Y31780114D01*
X22503089Y31570960D01*
X22680960Y31393089D01*
X22890114Y31253337D01*
X23122513Y31157074D01*
X23317323Y31118324D01*
X22347001Y30148002D01*
X22347001Y31001747D01*
X22350276Y31034999D01*
X22337205Y31167714D01*
X22298493Y31295329D01*
X22235629Y31412940D01*
X22172225Y31490198D01*
X22172219Y31490204D01*
X22151027Y31516026D01*
X22125207Y31537216D01*
X21522324Y32140098D01*
X21547000Y32264151D01*
X21547000Y32505849D01*
X21499847Y32742903D01*
X21407353Y32966202D01*
X21273073Y33167167D01*
X21102167Y33338073D01*
X20901202Y33472353D01*
X20677903Y33564847D01*
X20440849Y33612000D01*
X20199151Y33612000D01*
X19962097Y33564847D01*
X19738798Y33472353D01*
X19537833Y33338073D01*
X19366927Y33167167D01*
X19232647Y32966202D01*
X19140153Y32742903D01*
X19093000Y32505849D01*
X19093000Y32264151D01*
X19140153Y32027097D01*
X19232647Y31803798D01*
X19366927Y31602833D01*
X19537833Y31431927D01*
X19738798Y31297647D01*
X19962097Y31205153D01*
X20199151Y31158000D01*
X20440849Y31158000D01*
X20564902Y31182676D01*
X20993001Y30754576D01*
X20993001Y27061015D01*
X20901202Y27122353D01*
X20677903Y27214847D01*
X20440849Y27262000D01*
X20403976Y27262000D01*
X16562687Y31103288D01*
X16533659Y31138659D01*
X16392505Y31254501D01*
X16231464Y31340580D01*
X16056724Y31393587D01*
X15920538Y31407000D01*
X15920527Y31407000D01*
X15875000Y31411484D01*
X15829473Y31407000D01*
X12448976Y31407000D01*
X12026999Y31828976D01*
X12026999Y32769026D01*
X17388293Y38130319D01*
X17423658Y38159342D01*
X17452683Y38194709D01*
X17452687Y38194713D01*
X17539500Y38300495D01*
X17625579Y38461537D01*
X17626591Y38464872D01*
X17678586Y38636277D01*
X17691999Y38772463D01*
X17691999Y38772474D01*
X17696483Y38818001D01*
X17691999Y38863528D01*
X17691999Y38952259D01*
X17810114Y38873337D01*
X18042513Y38777074D01*
X18289226Y38728000D01*
X18540774Y38728000D01*
X18787487Y38777074D01*
X19019886Y38873337D01*
X19229040Y39013089D01*
X19406911Y39190960D01*
X19546663Y39400114D01*
X19642926Y39632513D01*
X19692000Y39879226D01*
X19692000Y40130774D01*
X19662715Y40277999D01*
X23066002Y40277999D01*
X24168001Y39176000D01*
G36*
X25368020Y56365979D02*
G01*
X25368021Y40456524D01*
X23202377Y42622168D01*
X23374151Y42588000D01*
X23615849Y42588000D01*
X23852903Y42635153D01*
X24076202Y42727647D01*
X24277167Y42861927D01*
X24448073Y43032833D01*
X24582353Y43233798D01*
X24674847Y43457097D01*
X24722000Y43694151D01*
X24722000Y43935849D01*
X24674847Y44172903D01*
X24582353Y44396202D01*
X24448073Y44597167D01*
X24277167Y44768073D01*
X24076202Y44902353D01*
X23852903Y44994847D01*
X23615849Y45042000D01*
X23578976Y45042000D01*
X22912687Y45708288D01*
X22883659Y45743659D01*
X22742505Y45859501D01*
X22581464Y45945580D01*
X22406724Y45998587D01*
X22270538Y46012000D01*
X22270527Y46012000D01*
X22225000Y46016484D01*
X22179473Y46012000D01*
X19686483Y46012000D01*
X19685822Y46018707D01*
X19661405Y46099196D01*
X19621755Y46173376D01*
X19568395Y46238395D01*
X19503376Y46291755D01*
X19429196Y46331405D01*
X19348707Y46355822D01*
X19265000Y46364066D01*
X18446910Y46364066D01*
X17691999Y47118976D01*
X17691999Y56732259D01*
X17810114Y56653337D01*
X18042513Y56557074D01*
X18289226Y56508000D01*
X18540774Y56508000D01*
X18787487Y56557074D01*
X19019886Y56653337D01*
X19229040Y56793089D01*
X19406911Y56970960D01*
X19546663Y57180114D01*
X19642926Y57412513D01*
X19692000Y57659226D01*
X19692000Y57910774D01*
X19662715Y58057999D01*
X23676000Y58057999D01*
X25368020Y56365979D01*
G37*
X25368020Y56365979D02*
X25368021Y40456524D01*
X23202377Y42622168D01*
X23374151Y42588000D01*
X23615849Y42588000D01*
X23852903Y42635153D01*
X24076202Y42727647D01*
X24277167Y42861927D01*
X24448073Y43032833D01*
X24582353Y43233798D01*
X24674847Y43457097D01*
X24722000Y43694151D01*
X24722000Y43935849D01*
X24674847Y44172903D01*
X24582353Y44396202D01*
X24448073Y44597167D01*
X24277167Y44768073D01*
X24076202Y44902353D01*
X23852903Y44994847D01*
X23615849Y45042000D01*
X23578976Y45042000D01*
X22912687Y45708288D01*
X22883659Y45743659D01*
X22742505Y45859501D01*
X22581464Y45945580D01*
X22406724Y45998587D01*
X22270538Y46012000D01*
X22270527Y46012000D01*
X22225000Y46016484D01*
X22179473Y46012000D01*
X19686483Y46012000D01*
X19685822Y46018707D01*
X19661405Y46099196D01*
X19621755Y46173376D01*
X19568395Y46238395D01*
X19503376Y46291755D01*
X19429196Y46331405D01*
X19348707Y46355822D01*
X19265000Y46364066D01*
X18446910Y46364066D01*
X17691999Y47118976D01*
X17691999Y56732259D01*
X17810114Y56653337D01*
X18042513Y56557074D01*
X18289226Y56508000D01*
X18540774Y56508000D01*
X18787487Y56557074D01*
X19019886Y56653337D01*
X19229040Y56793089D01*
X19406911Y56970960D01*
X19546663Y57180114D01*
X19642926Y57412513D01*
X19692000Y57659226D01*
X19692000Y57910774D01*
X19662715Y58057999D01*
X23676000Y58057999D01*
X25368020Y56365979D01*
%TD*%
M02*
