%TF.GenerationSoftware,KiCad,Pcbnew,(5.1.6)-1*%
%TF.CreationDate,2021-12-16T17:16:20+09:00*%
%TF.ProjectId,Mars_ver4.0.0_prototype,4d617273-5f76-4657-9234-2e302e305f70,rev?*%
%TF.SameCoordinates,PX66f2fb0PY9c3d8f0*%
%TF.FileFunction,Legend,Top*%
%TF.FilePolarity,Positive*%
%FSLAX46Y46*%
G04 Gerber Fmt 4.6, Leading zero omitted, Abs format (unit mm)*
G04 Created by KiCad (PCBNEW (5.1.6)-1) date 2021-12-16 17:16:20*
%MOMM*%
%LPD*%
G01*
G04 APERTURE LIST*
%ADD10C,0.120000*%
%ADD11C,0.200000*%
%ADD12C,0.150000*%
%ADD13C,0.254000*%
G04 APERTURE END LIST*
D10*
%TO.C,J1*%
X12640000Y75100000D02*
X22920000Y75100000D01*
X22920000Y75100000D02*
X22920000Y77760000D01*
X22920000Y77760000D02*
X12640000Y77760000D01*
X12640000Y77760000D02*
X12640000Y75100000D01*
X13590000Y77760000D02*
X13590000Y83760000D01*
X13590000Y83760000D02*
X14350000Y83760000D01*
X14350000Y83760000D02*
X14350000Y77760000D01*
X13650000Y77760000D02*
X13650000Y83760000D01*
X13770000Y77760000D02*
X13770000Y83760000D01*
X13890000Y77760000D02*
X13890000Y83760000D01*
X14010000Y77760000D02*
X14010000Y83760000D01*
X14130000Y77760000D02*
X14130000Y83760000D01*
X14250000Y77760000D02*
X14250000Y83760000D01*
X13590000Y74770000D02*
X13590000Y75100000D01*
X14350000Y74770000D02*
X14350000Y75100000D01*
X15240000Y75100000D02*
X15240000Y77760000D01*
X16130000Y77760000D02*
X16130000Y83760000D01*
X16130000Y83760000D02*
X16890000Y83760000D01*
X16890000Y83760000D02*
X16890000Y77760000D01*
X16130000Y74702929D02*
X16130000Y75100000D01*
X16890000Y74702929D02*
X16890000Y75100000D01*
X17780000Y75100000D02*
X17780000Y77760000D01*
X18670000Y77760000D02*
X18670000Y83760000D01*
X18670000Y83760000D02*
X19430000Y83760000D01*
X19430000Y83760000D02*
X19430000Y77760000D01*
X18670000Y74702929D02*
X18670000Y75100000D01*
X19430000Y74702929D02*
X19430000Y75100000D01*
X20320000Y75100000D02*
X20320000Y77760000D01*
X21210000Y77760000D02*
X21210000Y83760000D01*
X21210000Y83760000D02*
X21970000Y83760000D01*
X21970000Y83760000D02*
X21970000Y77760000D01*
X21210000Y74702929D02*
X21210000Y75100000D01*
X21970000Y74702929D02*
X21970000Y75100000D01*
X13970000Y72390000D02*
X12700000Y72390000D01*
X12700000Y72390000D02*
X12700000Y73660000D01*
%TO.C,J3*%
X9465000Y43815000D02*
X12125000Y43815000D01*
X9465000Y43815000D02*
X9465000Y36135000D01*
X9465000Y36135000D02*
X12125000Y36135000D01*
X12125000Y43815000D02*
X12125000Y36135000D01*
X12125000Y46415000D02*
X12125000Y45085000D01*
X10795000Y46415000D02*
X12125000Y46415000D01*
%TO.C,J8*%
X31750000Y6290000D02*
X30420000Y6290000D01*
X30420000Y6290000D02*
X30420000Y7620000D01*
X33020000Y6290000D02*
X33020000Y8890000D01*
X33020000Y8890000D02*
X30420000Y8890000D01*
X30420000Y8890000D02*
X30420000Y26730000D01*
X35620000Y26730000D02*
X30420000Y26730000D01*
X35620000Y6290000D02*
X35620000Y26730000D01*
X35620000Y6290000D02*
X33020000Y6290000D01*
D11*
%TO.C,Q1*%
X37845000Y84155000D02*
X37845000Y79325000D01*
X37845000Y79325000D02*
X48515000Y79325000D01*
X48515000Y79325000D02*
X48515000Y82550000D01*
%TO.C,Q3*%
X37845000Y53675000D02*
X37845000Y48845000D01*
X37845000Y48845000D02*
X48515000Y48845000D01*
X48515000Y48845000D02*
X48515000Y52070000D01*
D10*
%TO.C,J7*%
X27880000Y75100000D02*
X33080000Y75100000D01*
X33080000Y75100000D02*
X33080000Y77760000D01*
X33080000Y77760000D02*
X27880000Y77760000D01*
X27880000Y77760000D02*
X27880000Y75100000D01*
X28830000Y77760000D02*
X28830000Y83760000D01*
X28830000Y83760000D02*
X29590000Y83760000D01*
X29590000Y83760000D02*
X29590000Y77760000D01*
X28890000Y77760000D02*
X28890000Y83760000D01*
X29010000Y77760000D02*
X29010000Y83760000D01*
X29130000Y77760000D02*
X29130000Y83760000D01*
X29250000Y77760000D02*
X29250000Y83760000D01*
X29370000Y77760000D02*
X29370000Y83760000D01*
X29490000Y77760000D02*
X29490000Y83760000D01*
X28830000Y74770000D02*
X28830000Y75100000D01*
X29590000Y74770000D02*
X29590000Y75100000D01*
X30480000Y75100000D02*
X30480000Y77760000D01*
X31370000Y77760000D02*
X31370000Y83760000D01*
X31370000Y83760000D02*
X32130000Y83760000D01*
X32130000Y83760000D02*
X32130000Y77760000D01*
X31370000Y74702929D02*
X31370000Y75100000D01*
X32130000Y74702929D02*
X32130000Y75100000D01*
X29210000Y72390000D02*
X27940000Y72390000D01*
X27940000Y72390000D02*
X27940000Y73660000D01*
%TO.C,C11*%
X71295000Y45959698D02*
X70495000Y45959698D01*
X70895000Y46359698D02*
X70895000Y45559698D01*
X69113000Y37869000D02*
X68047000Y37869000D01*
X69348000Y37909000D02*
X67812000Y37909000D01*
X69528000Y37949000D02*
X67632000Y37949000D01*
X69678000Y37989000D02*
X67482000Y37989000D01*
X69809000Y38029000D02*
X67351000Y38029000D01*
X69926000Y38069000D02*
X67234000Y38069000D01*
X70033000Y38109000D02*
X67127000Y38109000D01*
X70132000Y38149000D02*
X67028000Y38149000D01*
X70225000Y38189000D02*
X66935000Y38189000D01*
X70311000Y38229000D02*
X66849000Y38229000D01*
X70393000Y38269000D02*
X66767000Y38269000D01*
X70470000Y38309000D02*
X66690000Y38309000D01*
X70544000Y38349000D02*
X66616000Y38349000D01*
X70614000Y38389000D02*
X66546000Y38389000D01*
X67540000Y38429000D02*
X66478000Y38429000D01*
X70682000Y38429000D02*
X69620000Y38429000D01*
X67540000Y38469000D02*
X66414000Y38469000D01*
X70746000Y38469000D02*
X69620000Y38469000D01*
X67540000Y38509000D02*
X66352000Y38509000D01*
X70808000Y38509000D02*
X69620000Y38509000D01*
X67540000Y38549000D02*
X66293000Y38549000D01*
X70867000Y38549000D02*
X69620000Y38549000D01*
X67540000Y38589000D02*
X66235000Y38589000D01*
X70925000Y38589000D02*
X69620000Y38589000D01*
X67540000Y38629000D02*
X66180000Y38629000D01*
X70980000Y38629000D02*
X69620000Y38629000D01*
X67540000Y38669000D02*
X66126000Y38669000D01*
X71034000Y38669000D02*
X69620000Y38669000D01*
X67540000Y38709000D02*
X66075000Y38709000D01*
X71085000Y38709000D02*
X69620000Y38709000D01*
X67540000Y38749000D02*
X66024000Y38749000D01*
X71136000Y38749000D02*
X69620000Y38749000D01*
X67540000Y38789000D02*
X65976000Y38789000D01*
X71184000Y38789000D02*
X69620000Y38789000D01*
X67540000Y38829000D02*
X65929000Y38829000D01*
X71231000Y38829000D02*
X69620000Y38829000D01*
X67540000Y38869000D02*
X65883000Y38869000D01*
X71277000Y38869000D02*
X69620000Y38869000D01*
X67540000Y38909000D02*
X65839000Y38909000D01*
X71321000Y38909000D02*
X69620000Y38909000D01*
X67540000Y38949000D02*
X65796000Y38949000D01*
X71364000Y38949000D02*
X69620000Y38949000D01*
X67540000Y38989000D02*
X65754000Y38989000D01*
X71406000Y38989000D02*
X69620000Y38989000D01*
X67540000Y39029000D02*
X65713000Y39029000D01*
X71447000Y39029000D02*
X69620000Y39029000D01*
X67540000Y39069000D02*
X65673000Y39069000D01*
X71487000Y39069000D02*
X69620000Y39069000D01*
X67540000Y39109000D02*
X65635000Y39109000D01*
X71525000Y39109000D02*
X69620000Y39109000D01*
X67540000Y39149000D02*
X65597000Y39149000D01*
X71563000Y39149000D02*
X69620000Y39149000D01*
X67540000Y39189000D02*
X65561000Y39189000D01*
X71599000Y39189000D02*
X69620000Y39189000D01*
X67540000Y39229000D02*
X65525000Y39229000D01*
X71635000Y39229000D02*
X69620000Y39229000D01*
X67540000Y39269000D02*
X65490000Y39269000D01*
X71670000Y39269000D02*
X69620000Y39269000D01*
X67540000Y39309000D02*
X65456000Y39309000D01*
X71704000Y39309000D02*
X69620000Y39309000D01*
X67540000Y39349000D02*
X65424000Y39349000D01*
X71736000Y39349000D02*
X69620000Y39349000D01*
X67540000Y39389000D02*
X65391000Y39389000D01*
X71769000Y39389000D02*
X69620000Y39389000D01*
X67540000Y39429000D02*
X65360000Y39429000D01*
X71800000Y39429000D02*
X69620000Y39429000D01*
X67540000Y39469000D02*
X65330000Y39469000D01*
X71830000Y39469000D02*
X69620000Y39469000D01*
X67540000Y39509000D02*
X65300000Y39509000D01*
X71860000Y39509000D02*
X69620000Y39509000D01*
X67540000Y39549000D02*
X65271000Y39549000D01*
X71889000Y39549000D02*
X69620000Y39549000D01*
X67540000Y39589000D02*
X65242000Y39589000D01*
X71918000Y39589000D02*
X69620000Y39589000D01*
X67540000Y39629000D02*
X65215000Y39629000D01*
X71945000Y39629000D02*
X69620000Y39629000D01*
X67540000Y39669000D02*
X65188000Y39669000D01*
X71972000Y39669000D02*
X69620000Y39669000D01*
X67540000Y39709000D02*
X65162000Y39709000D01*
X71998000Y39709000D02*
X69620000Y39709000D01*
X67540000Y39749000D02*
X65136000Y39749000D01*
X72024000Y39749000D02*
X69620000Y39749000D01*
X67540000Y39789000D02*
X65111000Y39789000D01*
X72049000Y39789000D02*
X69620000Y39789000D01*
X67540000Y39829000D02*
X65087000Y39829000D01*
X72073000Y39829000D02*
X69620000Y39829000D01*
X67540000Y39869000D02*
X65063000Y39869000D01*
X72097000Y39869000D02*
X69620000Y39869000D01*
X67540000Y39909000D02*
X65040000Y39909000D01*
X72120000Y39909000D02*
X69620000Y39909000D01*
X67540000Y39949000D02*
X65018000Y39949000D01*
X72142000Y39949000D02*
X69620000Y39949000D01*
X67540000Y39989000D02*
X64996000Y39989000D01*
X72164000Y39989000D02*
X69620000Y39989000D01*
X67540000Y40029000D02*
X64974000Y40029000D01*
X72186000Y40029000D02*
X69620000Y40029000D01*
X67540000Y40069000D02*
X64953000Y40069000D01*
X72207000Y40069000D02*
X69620000Y40069000D01*
X67540000Y40109000D02*
X64933000Y40109000D01*
X72227000Y40109000D02*
X69620000Y40109000D01*
X67540000Y40149000D02*
X64914000Y40149000D01*
X72246000Y40149000D02*
X69620000Y40149000D01*
X67540000Y40189000D02*
X64894000Y40189000D01*
X72266000Y40189000D02*
X69620000Y40189000D01*
X67540000Y40229000D02*
X64876000Y40229000D01*
X72284000Y40229000D02*
X69620000Y40229000D01*
X67540000Y40269000D02*
X64858000Y40269000D01*
X72302000Y40269000D02*
X69620000Y40269000D01*
X67540000Y40309000D02*
X64840000Y40309000D01*
X72320000Y40309000D02*
X69620000Y40309000D01*
X67540000Y40349000D02*
X64823000Y40349000D01*
X72337000Y40349000D02*
X69620000Y40349000D01*
X67540000Y40389000D02*
X64806000Y40389000D01*
X72354000Y40389000D02*
X69620000Y40389000D01*
X67540000Y40429000D02*
X64790000Y40429000D01*
X72370000Y40429000D02*
X69620000Y40429000D01*
X67540000Y40469000D02*
X64775000Y40469000D01*
X72385000Y40469000D02*
X69620000Y40469000D01*
X72401000Y40509000D02*
X64759000Y40509000D01*
X72415000Y40549000D02*
X64745000Y40549000D01*
X72430000Y40589000D02*
X64730000Y40589000D01*
X72443000Y40629000D02*
X64717000Y40629000D01*
X72457000Y40669000D02*
X64703000Y40669000D01*
X72469000Y40709000D02*
X64691000Y40709000D01*
X72482000Y40749000D02*
X64678000Y40749000D01*
X72494000Y40789000D02*
X64666000Y40789000D01*
X72505000Y40829000D02*
X64655000Y40829000D01*
X72516000Y40869000D02*
X64644000Y40869000D01*
X72527000Y40909000D02*
X64633000Y40909000D01*
X72537000Y40949000D02*
X64623000Y40949000D01*
X72547000Y40989000D02*
X64613000Y40989000D01*
X72556000Y41029000D02*
X64604000Y41029000D01*
X72565000Y41069000D02*
X64595000Y41069000D01*
X72574000Y41109000D02*
X64586000Y41109000D01*
X72582000Y41149000D02*
X64578000Y41149000D01*
X72590000Y41189000D02*
X64570000Y41189000D01*
X72597000Y41229000D02*
X64563000Y41229000D01*
X72604000Y41270000D02*
X64556000Y41270000D01*
X72610000Y41310000D02*
X64550000Y41310000D01*
X72617000Y41350000D02*
X64543000Y41350000D01*
X72622000Y41390000D02*
X64538000Y41390000D01*
X72628000Y41430000D02*
X64532000Y41430000D01*
X72632000Y41470000D02*
X64528000Y41470000D01*
X72637000Y41510000D02*
X64523000Y41510000D01*
X72641000Y41550000D02*
X64519000Y41550000D01*
X72645000Y41590000D02*
X64515000Y41590000D01*
X72648000Y41630000D02*
X64512000Y41630000D01*
X72651000Y41670000D02*
X64509000Y41670000D01*
X72654000Y41710000D02*
X64506000Y41710000D01*
X72656000Y41750000D02*
X64504000Y41750000D01*
X72657000Y41790000D02*
X64503000Y41790000D01*
X72659000Y41830000D02*
X64501000Y41830000D01*
X72660000Y41870000D02*
X64500000Y41870000D01*
X72660000Y41910000D02*
X64500000Y41910000D01*
X72660000Y41950000D02*
X64500000Y41950000D01*
X72700000Y41950000D02*
G75*
G03*
X72700000Y41950000I-4120000J0D01*
G01*
%TO.C,J9*%
X2480000Y75100000D02*
X7680000Y75100000D01*
X7680000Y75100000D02*
X7680000Y77760000D01*
X7680000Y77760000D02*
X2480000Y77760000D01*
X2480000Y77760000D02*
X2480000Y75100000D01*
X3430000Y77760000D02*
X3430000Y83760000D01*
X3430000Y83760000D02*
X4190000Y83760000D01*
X4190000Y83760000D02*
X4190000Y77760000D01*
X3490000Y77760000D02*
X3490000Y83760000D01*
X3610000Y77760000D02*
X3610000Y83760000D01*
X3730000Y77760000D02*
X3730000Y83760000D01*
X3850000Y77760000D02*
X3850000Y83760000D01*
X3970000Y77760000D02*
X3970000Y83760000D01*
X4090000Y77760000D02*
X4090000Y83760000D01*
X3430000Y74770000D02*
X3430000Y75100000D01*
X4190000Y74770000D02*
X4190000Y75100000D01*
X5080000Y75100000D02*
X5080000Y77760000D01*
X5970000Y77760000D02*
X5970000Y83760000D01*
X5970000Y83760000D02*
X6730000Y83760000D01*
X6730000Y83760000D02*
X6730000Y77760000D01*
X5970000Y74702929D02*
X5970000Y75100000D01*
X6730000Y74702929D02*
X6730000Y75100000D01*
X3810000Y72390000D02*
X2540000Y72390000D01*
X2540000Y72390000D02*
X2540000Y73660000D01*
%TO.C,C8*%
X53760000Y22950000D02*
X54426000Y22950000D01*
X50984000Y22950000D02*
X51650000Y22950000D01*
X53760000Y17610000D02*
X54426000Y17610000D01*
X50984000Y17610000D02*
X51650000Y17610000D01*
X54426000Y17610000D02*
X54426000Y22950000D01*
X50984000Y17610000D02*
X50984000Y22950000D01*
%TO.C,C7*%
X37125000Y12610000D02*
X36459000Y12610000D01*
X39901000Y12610000D02*
X39235000Y12610000D01*
X37125000Y17950000D02*
X36459000Y17950000D01*
X39901000Y17950000D02*
X39235000Y17950000D01*
X36459000Y17950000D02*
X36459000Y12610000D01*
X39901000Y17950000D02*
X39901000Y12610000D01*
%TO.C,J6*%
X57150000Y6290000D02*
X55820000Y6290000D01*
X55820000Y6290000D02*
X55820000Y7620000D01*
X58420000Y6290000D02*
X58420000Y8890000D01*
X58420000Y8890000D02*
X55820000Y8890000D01*
X55820000Y8890000D02*
X55820000Y26730000D01*
X61020000Y26730000D02*
X55820000Y26730000D01*
X61020000Y6290000D02*
X61020000Y26730000D01*
X61020000Y6290000D02*
X58420000Y6290000D01*
D11*
%TO.C,Q4*%
X53085000Y53675000D02*
X53085000Y48845000D01*
X53085000Y48845000D02*
X63755000Y48845000D01*
X63755000Y48845000D02*
X63755000Y52070000D01*
%TO.C,Q2*%
X53085000Y84155000D02*
X53085000Y79325000D01*
X53085000Y79325000D02*
X63755000Y79325000D01*
X63755000Y79325000D02*
X63755000Y82550000D01*
D10*
%TO.C,C10*%
X4660000Y38645000D02*
X3994000Y38645000D01*
X7436000Y38645000D02*
X6770000Y38645000D01*
X4660000Y43985000D02*
X3994000Y43985000D01*
X7436000Y43985000D02*
X6770000Y43985000D01*
X3994000Y43985000D02*
X3994000Y38645000D01*
X7436000Y43985000D02*
X7436000Y38645000D01*
%TO.C,C9*%
X4660000Y56425000D02*
X3994000Y56425000D01*
X7436000Y56425000D02*
X6770000Y56425000D01*
X4660000Y61765000D02*
X3994000Y61765000D01*
X7436000Y61765000D02*
X6770000Y61765000D01*
X3994000Y61765000D02*
X3994000Y56425000D01*
X7436000Y61765000D02*
X7436000Y56425000D01*
%TO.C,C1*%
X25216000Y61765000D02*
X25216000Y56425000D01*
X21774000Y61765000D02*
X21774000Y56425000D01*
X25216000Y61765000D02*
X24550000Y61765000D01*
X22440000Y61765000D02*
X21774000Y61765000D01*
X25216000Y56425000D02*
X24550000Y56425000D01*
X22440000Y56425000D02*
X21774000Y56425000D01*
%TO.C,C2*%
X25216000Y43985000D02*
X25216000Y38645000D01*
X21774000Y43985000D02*
X21774000Y38645000D01*
X25216000Y43985000D02*
X24550000Y43985000D01*
X22440000Y43985000D02*
X21774000Y43985000D01*
X25216000Y38645000D02*
X24550000Y38645000D01*
X22440000Y38645000D02*
X21774000Y38645000D01*
%TO.C,D1*%
X8700000Y24475000D02*
X8856000Y24475000D01*
X6384000Y24475000D02*
X6540000Y24475000D01*
X8699837Y27076130D02*
G75*
G02*
X8700000Y24994039I-1079837J-1041130D01*
G01*
X6540163Y27076130D02*
G75*
G03*
X6540000Y24994039I1079837J-1041130D01*
G01*
X8698608Y27707335D02*
G75*
G02*
X8855516Y24475000I-1078608J-1672335D01*
G01*
X6541392Y27707335D02*
G75*
G03*
X6384484Y24475000I1078608J-1672335D01*
G01*
%TO.C,D2*%
X6384000Y18125000D02*
X6540000Y18125000D01*
X8700000Y18125000D02*
X8856000Y18125000D01*
X6541392Y21357335D02*
G75*
G03*
X6384484Y18125000I1078608J-1672335D01*
G01*
X8698608Y21357335D02*
G75*
G02*
X8855516Y18125000I-1078608J-1672335D01*
G01*
X6540163Y20726130D02*
G75*
G03*
X6540000Y18644039I1079837J-1041130D01*
G01*
X8699837Y20726130D02*
G75*
G02*
X8700000Y18644039I-1079837J-1041130D01*
G01*
%TO.C,R1*%
X13240000Y9625000D02*
X13240000Y9295000D01*
X19780000Y9625000D02*
X13240000Y9625000D01*
X19780000Y9295000D02*
X19780000Y9625000D01*
X13240000Y6885000D02*
X13240000Y7215000D01*
X19780000Y6885000D02*
X13240000Y6885000D01*
X19780000Y7215000D02*
X19780000Y6885000D01*
%TO.C,R2*%
X13240000Y14375000D02*
X13240000Y14705000D01*
X13240000Y14705000D02*
X19780000Y14705000D01*
X19780000Y14705000D02*
X19780000Y14375000D01*
X13240000Y12295000D02*
X13240000Y11965000D01*
X13240000Y11965000D02*
X19780000Y11965000D01*
X19780000Y11965000D02*
X19780000Y12295000D01*
%TO.C,R3*%
X19780000Y24995000D02*
X19780000Y24665000D01*
X19780000Y24665000D02*
X13240000Y24665000D01*
X13240000Y24665000D02*
X13240000Y24995000D01*
X19780000Y27075000D02*
X19780000Y27405000D01*
X19780000Y27405000D02*
X13240000Y27405000D01*
X13240000Y27405000D02*
X13240000Y27075000D01*
%TO.C,R4*%
X13240000Y21055000D02*
X13240000Y20725000D01*
X19780000Y21055000D02*
X13240000Y21055000D01*
X19780000Y20725000D02*
X19780000Y21055000D01*
X13240000Y18315000D02*
X13240000Y18645000D01*
X19780000Y18315000D02*
X13240000Y18315000D01*
X19780000Y18645000D02*
X19780000Y18315000D01*
%TO.C,R5*%
X39600000Y65310000D02*
X39270000Y65310000D01*
X39270000Y65310000D02*
X39270000Y71850000D01*
X39270000Y71850000D02*
X39600000Y71850000D01*
X41680000Y65310000D02*
X42010000Y65310000D01*
X42010000Y65310000D02*
X42010000Y71850000D01*
X42010000Y71850000D02*
X41680000Y71850000D01*
%TO.C,R6*%
X57250000Y71850000D02*
X56920000Y71850000D01*
X57250000Y65310000D02*
X57250000Y71850000D01*
X56920000Y65310000D02*
X57250000Y65310000D01*
X54510000Y71850000D02*
X54840000Y71850000D01*
X54510000Y65310000D02*
X54510000Y71850000D01*
X54840000Y65310000D02*
X54510000Y65310000D01*
%TO.C,R7*%
X44680000Y65310000D02*
X44350000Y65310000D01*
X44350000Y65310000D02*
X44350000Y71850000D01*
X44350000Y71850000D02*
X44680000Y71850000D01*
X46760000Y65310000D02*
X47090000Y65310000D01*
X47090000Y65310000D02*
X47090000Y71850000D01*
X47090000Y71850000D02*
X46760000Y71850000D01*
%TO.C,R8*%
X62000000Y71850000D02*
X62330000Y71850000D01*
X62330000Y71850000D02*
X62330000Y65310000D01*
X62330000Y65310000D02*
X62000000Y65310000D01*
X59920000Y71850000D02*
X59590000Y71850000D01*
X59590000Y71850000D02*
X59590000Y65310000D01*
X59590000Y65310000D02*
X59920000Y65310000D01*
%TO.C,R9*%
X13240000Y33755000D02*
X13240000Y33425000D01*
X19780000Y33755000D02*
X13240000Y33755000D01*
X19780000Y33425000D02*
X19780000Y33755000D01*
X13240000Y31015000D02*
X13240000Y31345000D01*
X19780000Y31015000D02*
X13240000Y31015000D01*
X19780000Y31345000D02*
X19780000Y31015000D01*
%TO.C,R10*%
X47090000Y41370000D02*
X46760000Y41370000D01*
X47090000Y34830000D02*
X47090000Y41370000D01*
X46760000Y34830000D02*
X47090000Y34830000D01*
X44350000Y41370000D02*
X44680000Y41370000D01*
X44350000Y34830000D02*
X44350000Y41370000D01*
X44680000Y34830000D02*
X44350000Y34830000D01*
%TO.C,R11*%
X62000000Y41370000D02*
X62330000Y41370000D01*
X62330000Y41370000D02*
X62330000Y34830000D01*
X62330000Y34830000D02*
X62000000Y34830000D01*
X59920000Y41370000D02*
X59590000Y41370000D01*
X59590000Y41370000D02*
X59590000Y34830000D01*
X59590000Y34830000D02*
X59920000Y34830000D01*
%TO.C,R12*%
X45180000Y9120000D02*
X45180000Y8790000D01*
X45180000Y8790000D02*
X38640000Y8790000D01*
X38640000Y8790000D02*
X38640000Y9120000D01*
X45180000Y11200000D02*
X45180000Y11530000D01*
X45180000Y11530000D02*
X38640000Y11530000D01*
X38640000Y11530000D02*
X38640000Y11200000D01*
%TO.C,R13*%
X42010000Y41370000D02*
X41680000Y41370000D01*
X42010000Y34830000D02*
X42010000Y41370000D01*
X41680000Y34830000D02*
X42010000Y34830000D01*
X39270000Y41370000D02*
X39600000Y41370000D01*
X39270000Y34830000D02*
X39270000Y41370000D01*
X39600000Y34830000D02*
X39270000Y34830000D01*
%TO.C,R14*%
X54840000Y34830000D02*
X54510000Y34830000D01*
X54510000Y34830000D02*
X54510000Y41370000D01*
X54510000Y41370000D02*
X54840000Y41370000D01*
X56920000Y34830000D02*
X57250000Y34830000D01*
X57250000Y34830000D02*
X57250000Y41370000D01*
X57250000Y41370000D02*
X56920000Y41370000D01*
%TO.C,J2*%
X9465000Y61595000D02*
X12125000Y61595000D01*
X9465000Y61595000D02*
X9465000Y53915000D01*
X9465000Y53915000D02*
X12125000Y53915000D01*
X12125000Y61595000D02*
X12125000Y53915000D01*
X12125000Y64195000D02*
X12125000Y62865000D01*
X10795000Y64195000D02*
X12125000Y64195000D01*
%TO.C,J4*%
X18415000Y64195000D02*
X19745000Y64195000D01*
X19745000Y64195000D02*
X19745000Y62865000D01*
X19745000Y61595000D02*
X19745000Y53915000D01*
X17085000Y53915000D02*
X19745000Y53915000D01*
X17085000Y61595000D02*
X17085000Y53915000D01*
X17085000Y61595000D02*
X19745000Y61595000D01*
%TO.C,J5*%
X18415000Y46415000D02*
X19745000Y46415000D01*
X19745000Y46415000D02*
X19745000Y45085000D01*
X19745000Y43815000D02*
X19745000Y36135000D01*
X17085000Y36135000D02*
X19745000Y36135000D01*
X17085000Y43815000D02*
X17085000Y36135000D01*
X17085000Y43815000D02*
X19745000Y43815000D01*
%TO.C,J1*%
D12*
X11152380Y77711667D02*
X11866666Y77711667D01*
X12009523Y77664048D01*
X12104761Y77568810D01*
X12152380Y77425953D01*
X12152380Y77330715D01*
X12152380Y78711667D02*
X12152380Y78140239D01*
X12152380Y78425953D02*
X11152380Y78425953D01*
X11295238Y78330715D01*
X11390476Y78235477D01*
X11438095Y78140239D01*
%TO.C,J3*%
X10461666Y48402620D02*
X10461666Y47688334D01*
X10414047Y47545477D01*
X10318809Y47450239D01*
X10175952Y47402620D01*
X10080714Y47402620D01*
X10842619Y48402620D02*
X11461666Y48402620D01*
X11128333Y48021667D01*
X11271190Y48021667D01*
X11366428Y47974048D01*
X11414047Y47926429D01*
X11461666Y47831191D01*
X11461666Y47593096D01*
X11414047Y47497858D01*
X11366428Y47450239D01*
X11271190Y47402620D01*
X10985476Y47402620D01*
X10890238Y47450239D01*
X10842619Y47497858D01*
%TO.C,J8*%
X32686666Y5397620D02*
X32686666Y4683334D01*
X32639047Y4540477D01*
X32543809Y4445239D01*
X32400952Y4397620D01*
X32305714Y4397620D01*
X33305714Y4969048D02*
X33210476Y5016667D01*
X33162857Y5064286D01*
X33115238Y5159524D01*
X33115238Y5207143D01*
X33162857Y5302381D01*
X33210476Y5350000D01*
X33305714Y5397620D01*
X33496190Y5397620D01*
X33591428Y5350000D01*
X33639047Y5302381D01*
X33686666Y5207143D01*
X33686666Y5159524D01*
X33639047Y5064286D01*
X33591428Y5016667D01*
X33496190Y4969048D01*
X33305714Y4969048D01*
X33210476Y4921429D01*
X33162857Y4873810D01*
X33115238Y4778572D01*
X33115238Y4588096D01*
X33162857Y4492858D01*
X33210476Y4445239D01*
X33305714Y4397620D01*
X33496190Y4397620D01*
X33591428Y4445239D01*
X33639047Y4492858D01*
X33686666Y4588096D01*
X33686666Y4778572D01*
X33639047Y4873810D01*
X33591428Y4921429D01*
X33496190Y4969048D01*
%TO.C,Q1*%
D13*
X45599047Y81854524D02*
X45478095Y81915000D01*
X45357142Y82035953D01*
X45175714Y82217381D01*
X45054761Y82277858D01*
X44933809Y82277858D01*
X44994285Y81975477D02*
X44873333Y82035953D01*
X44752380Y82156905D01*
X44691904Y82398810D01*
X44691904Y82822143D01*
X44752380Y83064048D01*
X44873333Y83185000D01*
X44994285Y83245477D01*
X45236190Y83245477D01*
X45357142Y83185000D01*
X45478095Y83064048D01*
X45538571Y82822143D01*
X45538571Y82398810D01*
X45478095Y82156905D01*
X45357142Y82035953D01*
X45236190Y81975477D01*
X44994285Y81975477D01*
X46748095Y81975477D02*
X46022380Y81975477D01*
X46385238Y81975477D02*
X46385238Y83245477D01*
X46264285Y83064048D01*
X46143333Y82943096D01*
X46022380Y82882620D01*
%TO.C,Q3*%
X45599047Y51374524D02*
X45478095Y51435000D01*
X45357142Y51555953D01*
X45175714Y51737381D01*
X45054761Y51797858D01*
X44933809Y51797858D01*
X44994285Y51495477D02*
X44873333Y51555953D01*
X44752380Y51676905D01*
X44691904Y51918810D01*
X44691904Y52342143D01*
X44752380Y52584048D01*
X44873333Y52705000D01*
X44994285Y52765477D01*
X45236190Y52765477D01*
X45357142Y52705000D01*
X45478095Y52584048D01*
X45538571Y52342143D01*
X45538571Y51918810D01*
X45478095Y51676905D01*
X45357142Y51555953D01*
X45236190Y51495477D01*
X44994285Y51495477D01*
X45961904Y52765477D02*
X46748095Y52765477D01*
X46324761Y52281667D01*
X46506190Y52281667D01*
X46627142Y52221191D01*
X46687619Y52160715D01*
X46748095Y52039762D01*
X46748095Y51737381D01*
X46687619Y51616429D01*
X46627142Y51555953D01*
X46506190Y51495477D01*
X46143333Y51495477D01*
X46022380Y51555953D01*
X45961904Y51616429D01*
%TO.C,J7*%
D12*
X26392380Y77711667D02*
X27106666Y77711667D01*
X27249523Y77664048D01*
X27344761Y77568810D01*
X27392380Y77425953D01*
X27392380Y77330715D01*
X26392380Y78092620D02*
X26392380Y78759286D01*
X27392380Y78330715D01*
%TO.C,C11*%
X74187142Y41307143D02*
X74234761Y41259524D01*
X74282380Y41116667D01*
X74282380Y41021429D01*
X74234761Y40878572D01*
X74139523Y40783334D01*
X74044285Y40735715D01*
X73853809Y40688096D01*
X73710952Y40688096D01*
X73520476Y40735715D01*
X73425238Y40783334D01*
X73330000Y40878572D01*
X73282380Y41021429D01*
X73282380Y41116667D01*
X73330000Y41259524D01*
X73377619Y41307143D01*
X74282380Y42259524D02*
X74282380Y41688096D01*
X74282380Y41973810D02*
X73282380Y41973810D01*
X73425238Y41878572D01*
X73520476Y41783334D01*
X73568095Y41688096D01*
X74282380Y43211905D02*
X74282380Y42640477D01*
X74282380Y42926191D02*
X73282380Y42926191D01*
X73425238Y42830953D01*
X73520476Y42735715D01*
X73568095Y42640477D01*
%TO.C,J9*%
X992380Y77711667D02*
X1706666Y77711667D01*
X1849523Y77664048D01*
X1944761Y77568810D01*
X1992380Y77425953D01*
X1992380Y77330715D01*
X1992380Y78235477D02*
X1992380Y78425953D01*
X1944761Y78521191D01*
X1897142Y78568810D01*
X1754285Y78664048D01*
X1563809Y78711667D01*
X1182857Y78711667D01*
X1087619Y78664048D01*
X1040000Y78616429D01*
X992380Y78521191D01*
X992380Y78330715D01*
X1040000Y78235477D01*
X1087619Y78187858D01*
X1182857Y78140239D01*
X1420952Y78140239D01*
X1516190Y78187858D01*
X1563809Y78235477D01*
X1611428Y78330715D01*
X1611428Y78521191D01*
X1563809Y78616429D01*
X1516190Y78664048D01*
X1420952Y78711667D01*
%TO.C,C8*%
X50212142Y20113334D02*
X50259761Y20065715D01*
X50307380Y19922858D01*
X50307380Y19827620D01*
X50259761Y19684762D01*
X50164523Y19589524D01*
X50069285Y19541905D01*
X49878809Y19494286D01*
X49735952Y19494286D01*
X49545476Y19541905D01*
X49450238Y19589524D01*
X49355000Y19684762D01*
X49307380Y19827620D01*
X49307380Y19922858D01*
X49355000Y20065715D01*
X49402619Y20113334D01*
X49735952Y20684762D02*
X49688333Y20589524D01*
X49640714Y20541905D01*
X49545476Y20494286D01*
X49497857Y20494286D01*
X49402619Y20541905D01*
X49355000Y20589524D01*
X49307380Y20684762D01*
X49307380Y20875239D01*
X49355000Y20970477D01*
X49402619Y21018096D01*
X49497857Y21065715D01*
X49545476Y21065715D01*
X49640714Y21018096D01*
X49688333Y20970477D01*
X49735952Y20875239D01*
X49735952Y20684762D01*
X49783571Y20589524D01*
X49831190Y20541905D01*
X49926428Y20494286D01*
X50116904Y20494286D01*
X50212142Y20541905D01*
X50259761Y20589524D01*
X50307380Y20684762D01*
X50307380Y20875239D01*
X50259761Y20970477D01*
X50212142Y21018096D01*
X50116904Y21065715D01*
X49926428Y21065715D01*
X49831190Y21018096D01*
X49783571Y20970477D01*
X49735952Y20875239D01*
%TO.C,C7*%
X41387142Y15113334D02*
X41434761Y15065715D01*
X41482380Y14922858D01*
X41482380Y14827620D01*
X41434761Y14684762D01*
X41339523Y14589524D01*
X41244285Y14541905D01*
X41053809Y14494286D01*
X40910952Y14494286D01*
X40720476Y14541905D01*
X40625238Y14589524D01*
X40530000Y14684762D01*
X40482380Y14827620D01*
X40482380Y14922858D01*
X40530000Y15065715D01*
X40577619Y15113334D01*
X40482380Y15446667D02*
X40482380Y16113334D01*
X41482380Y15684762D01*
%TO.C,J6*%
X58086666Y5397620D02*
X58086666Y4683334D01*
X58039047Y4540477D01*
X57943809Y4445239D01*
X57800952Y4397620D01*
X57705714Y4397620D01*
X58991428Y5397620D02*
X58800952Y5397620D01*
X58705714Y5350000D01*
X58658095Y5302381D01*
X58562857Y5159524D01*
X58515238Y4969048D01*
X58515238Y4588096D01*
X58562857Y4492858D01*
X58610476Y4445239D01*
X58705714Y4397620D01*
X58896190Y4397620D01*
X58991428Y4445239D01*
X59039047Y4492858D01*
X59086666Y4588096D01*
X59086666Y4826191D01*
X59039047Y4921429D01*
X58991428Y4969048D01*
X58896190Y5016667D01*
X58705714Y5016667D01*
X58610476Y4969048D01*
X58562857Y4921429D01*
X58515238Y4826191D01*
%TO.C,Q4*%
D13*
X60839047Y51374524D02*
X60718095Y51435000D01*
X60597142Y51555953D01*
X60415714Y51737381D01*
X60294761Y51797858D01*
X60173809Y51797858D01*
X60234285Y51495477D02*
X60113333Y51555953D01*
X59992380Y51676905D01*
X59931904Y51918810D01*
X59931904Y52342143D01*
X59992380Y52584048D01*
X60113333Y52705000D01*
X60234285Y52765477D01*
X60476190Y52765477D01*
X60597142Y52705000D01*
X60718095Y52584048D01*
X60778571Y52342143D01*
X60778571Y51918810D01*
X60718095Y51676905D01*
X60597142Y51555953D01*
X60476190Y51495477D01*
X60234285Y51495477D01*
X61867142Y52342143D02*
X61867142Y51495477D01*
X61564761Y52825953D02*
X61262380Y51918810D01*
X62048571Y51918810D01*
%TO.C,Q2*%
X60839047Y81854524D02*
X60718095Y81915000D01*
X60597142Y82035953D01*
X60415714Y82217381D01*
X60294761Y82277858D01*
X60173809Y82277858D01*
X60234285Y81975477D02*
X60113333Y82035953D01*
X59992380Y82156905D01*
X59931904Y82398810D01*
X59931904Y82822143D01*
X59992380Y83064048D01*
X60113333Y83185000D01*
X60234285Y83245477D01*
X60476190Y83245477D01*
X60597142Y83185000D01*
X60718095Y83064048D01*
X60778571Y82822143D01*
X60778571Y82398810D01*
X60718095Y82156905D01*
X60597142Y82035953D01*
X60476190Y81975477D01*
X60234285Y81975477D01*
X61262380Y83124524D02*
X61322857Y83185000D01*
X61443809Y83245477D01*
X61746190Y83245477D01*
X61867142Y83185000D01*
X61927619Y83124524D01*
X61988095Y83003572D01*
X61988095Y82882620D01*
X61927619Y82701191D01*
X61201904Y81975477D01*
X61988095Y81975477D01*
%TO.C,C10*%
D12*
X8922142Y40672143D02*
X8969761Y40624524D01*
X9017380Y40481667D01*
X9017380Y40386429D01*
X8969761Y40243572D01*
X8874523Y40148334D01*
X8779285Y40100715D01*
X8588809Y40053096D01*
X8445952Y40053096D01*
X8255476Y40100715D01*
X8160238Y40148334D01*
X8065000Y40243572D01*
X8017380Y40386429D01*
X8017380Y40481667D01*
X8065000Y40624524D01*
X8112619Y40672143D01*
X9017380Y41624524D02*
X9017380Y41053096D01*
X9017380Y41338810D02*
X8017380Y41338810D01*
X8160238Y41243572D01*
X8255476Y41148334D01*
X8303095Y41053096D01*
X8017380Y42243572D02*
X8017380Y42338810D01*
X8065000Y42434048D01*
X8112619Y42481667D01*
X8207857Y42529286D01*
X8398333Y42576905D01*
X8636428Y42576905D01*
X8826904Y42529286D01*
X8922142Y42481667D01*
X8969761Y42434048D01*
X9017380Y42338810D01*
X9017380Y42243572D01*
X8969761Y42148334D01*
X8922142Y42100715D01*
X8826904Y42053096D01*
X8636428Y42005477D01*
X8398333Y42005477D01*
X8207857Y42053096D01*
X8112619Y42100715D01*
X8065000Y42148334D01*
X8017380Y42243572D01*
%TO.C,C9*%
X8922142Y58928334D02*
X8969761Y58880715D01*
X9017380Y58737858D01*
X9017380Y58642620D01*
X8969761Y58499762D01*
X8874523Y58404524D01*
X8779285Y58356905D01*
X8588809Y58309286D01*
X8445952Y58309286D01*
X8255476Y58356905D01*
X8160238Y58404524D01*
X8065000Y58499762D01*
X8017380Y58642620D01*
X8017380Y58737858D01*
X8065000Y58880715D01*
X8112619Y58928334D01*
X9017380Y59404524D02*
X9017380Y59595000D01*
X8969761Y59690239D01*
X8922142Y59737858D01*
X8779285Y59833096D01*
X8588809Y59880715D01*
X8207857Y59880715D01*
X8112619Y59833096D01*
X8065000Y59785477D01*
X8017380Y59690239D01*
X8017380Y59499762D01*
X8065000Y59404524D01*
X8112619Y59356905D01*
X8207857Y59309286D01*
X8445952Y59309286D01*
X8541190Y59356905D01*
X8588809Y59404524D01*
X8636428Y59499762D01*
X8636428Y59690239D01*
X8588809Y59785477D01*
X8541190Y59833096D01*
X8445952Y59880715D01*
%TO.C,C1*%
X26702142Y58928334D02*
X26749761Y58880715D01*
X26797380Y58737858D01*
X26797380Y58642620D01*
X26749761Y58499762D01*
X26654523Y58404524D01*
X26559285Y58356905D01*
X26368809Y58309286D01*
X26225952Y58309286D01*
X26035476Y58356905D01*
X25940238Y58404524D01*
X25845000Y58499762D01*
X25797380Y58642620D01*
X25797380Y58737858D01*
X25845000Y58880715D01*
X25892619Y58928334D01*
X26797380Y59880715D02*
X26797380Y59309286D01*
X26797380Y59595000D02*
X25797380Y59595000D01*
X25940238Y59499762D01*
X26035476Y59404524D01*
X26083095Y59309286D01*
%TO.C,C2*%
X26702142Y41148334D02*
X26749761Y41100715D01*
X26797380Y40957858D01*
X26797380Y40862620D01*
X26749761Y40719762D01*
X26654523Y40624524D01*
X26559285Y40576905D01*
X26368809Y40529286D01*
X26225952Y40529286D01*
X26035476Y40576905D01*
X25940238Y40624524D01*
X25845000Y40719762D01*
X25797380Y40862620D01*
X25797380Y40957858D01*
X25845000Y41100715D01*
X25892619Y41148334D01*
X25892619Y41529286D02*
X25845000Y41576905D01*
X25797380Y41672143D01*
X25797380Y41910239D01*
X25845000Y42005477D01*
X25892619Y42053096D01*
X25987857Y42100715D01*
X26083095Y42100715D01*
X26225952Y42053096D01*
X26797380Y41481667D01*
X26797380Y42100715D01*
%TO.C,D1*%
X5112380Y25296905D02*
X4112380Y25296905D01*
X4112380Y25535000D01*
X4160000Y25677858D01*
X4255238Y25773096D01*
X4350476Y25820715D01*
X4540952Y25868334D01*
X4683809Y25868334D01*
X4874285Y25820715D01*
X4969523Y25773096D01*
X5064761Y25677858D01*
X5112380Y25535000D01*
X5112380Y25296905D01*
X5112380Y26820715D02*
X5112380Y26249286D01*
X5112380Y26535000D02*
X4112380Y26535000D01*
X4255238Y26439762D01*
X4350476Y26344524D01*
X4398095Y26249286D01*
%TO.C,D2*%
X5112380Y18946905D02*
X4112380Y18946905D01*
X4112380Y19185000D01*
X4160000Y19327858D01*
X4255238Y19423096D01*
X4350476Y19470715D01*
X4540952Y19518334D01*
X4683809Y19518334D01*
X4874285Y19470715D01*
X4969523Y19423096D01*
X5064761Y19327858D01*
X5112380Y19185000D01*
X5112380Y18946905D01*
X4207619Y19899286D02*
X4160000Y19946905D01*
X4112380Y20042143D01*
X4112380Y20280239D01*
X4160000Y20375477D01*
X4207619Y20423096D01*
X4302857Y20470715D01*
X4398095Y20470715D01*
X4540952Y20423096D01*
X5112380Y19851667D01*
X5112380Y20470715D01*
%TO.C,R1*%
X16343333Y5432620D02*
X16010000Y5908810D01*
X15771904Y5432620D02*
X15771904Y6432620D01*
X16152857Y6432620D01*
X16248095Y6385000D01*
X16295714Y6337381D01*
X16343333Y6242143D01*
X16343333Y6099286D01*
X16295714Y6004048D01*
X16248095Y5956429D01*
X16152857Y5908810D01*
X15771904Y5908810D01*
X17295714Y5432620D02*
X16724285Y5432620D01*
X17010000Y5432620D02*
X17010000Y6432620D01*
X16914761Y6289762D01*
X16819523Y6194524D01*
X16724285Y6146905D01*
%TO.C,R2*%
X16343333Y15252620D02*
X16010000Y15728810D01*
X15771904Y15252620D02*
X15771904Y16252620D01*
X16152857Y16252620D01*
X16248095Y16205000D01*
X16295714Y16157381D01*
X16343333Y16062143D01*
X16343333Y15919286D01*
X16295714Y15824048D01*
X16248095Y15776429D01*
X16152857Y15728810D01*
X15771904Y15728810D01*
X16724285Y16157381D02*
X16771904Y16205000D01*
X16867142Y16252620D01*
X17105238Y16252620D01*
X17200476Y16205000D01*
X17248095Y16157381D01*
X17295714Y16062143D01*
X17295714Y15966905D01*
X17248095Y15824048D01*
X16676666Y15252620D01*
X17295714Y15252620D01*
%TO.C,R3*%
X16343333Y23212620D02*
X16010000Y23688810D01*
X15771904Y23212620D02*
X15771904Y24212620D01*
X16152857Y24212620D01*
X16248095Y24165000D01*
X16295714Y24117381D01*
X16343333Y24022143D01*
X16343333Y23879286D01*
X16295714Y23784048D01*
X16248095Y23736429D01*
X16152857Y23688810D01*
X15771904Y23688810D01*
X16676666Y24212620D02*
X17295714Y24212620D01*
X16962380Y23831667D01*
X17105238Y23831667D01*
X17200476Y23784048D01*
X17248095Y23736429D01*
X17295714Y23641191D01*
X17295714Y23403096D01*
X17248095Y23307858D01*
X17200476Y23260239D01*
X17105238Y23212620D01*
X16819523Y23212620D01*
X16724285Y23260239D01*
X16676666Y23307858D01*
%TO.C,R4*%
X16343333Y16862620D02*
X16010000Y17338810D01*
X15771904Y16862620D02*
X15771904Y17862620D01*
X16152857Y17862620D01*
X16248095Y17815000D01*
X16295714Y17767381D01*
X16343333Y17672143D01*
X16343333Y17529286D01*
X16295714Y17434048D01*
X16248095Y17386429D01*
X16152857Y17338810D01*
X15771904Y17338810D01*
X17200476Y17529286D02*
X17200476Y16862620D01*
X16962380Y17910239D02*
X16724285Y17195953D01*
X17343333Y17195953D01*
%TO.C,R5*%
X38722380Y68413334D02*
X38246190Y68080000D01*
X38722380Y67841905D02*
X37722380Y67841905D01*
X37722380Y68222858D01*
X37770000Y68318096D01*
X37817619Y68365715D01*
X37912857Y68413334D01*
X38055714Y68413334D01*
X38150952Y68365715D01*
X38198571Y68318096D01*
X38246190Y68222858D01*
X38246190Y67841905D01*
X37722380Y69318096D02*
X37722380Y68841905D01*
X38198571Y68794286D01*
X38150952Y68841905D01*
X38103333Y68937143D01*
X38103333Y69175239D01*
X38150952Y69270477D01*
X38198571Y69318096D01*
X38293809Y69365715D01*
X38531904Y69365715D01*
X38627142Y69318096D01*
X38674761Y69270477D01*
X38722380Y69175239D01*
X38722380Y68937143D01*
X38674761Y68841905D01*
X38627142Y68794286D01*
%TO.C,R6*%
X53962380Y68413334D02*
X53486190Y68080000D01*
X53962380Y67841905D02*
X52962380Y67841905D01*
X52962380Y68222858D01*
X53010000Y68318096D01*
X53057619Y68365715D01*
X53152857Y68413334D01*
X53295714Y68413334D01*
X53390952Y68365715D01*
X53438571Y68318096D01*
X53486190Y68222858D01*
X53486190Y67841905D01*
X52962380Y69270477D02*
X52962380Y69080000D01*
X53010000Y68984762D01*
X53057619Y68937143D01*
X53200476Y68841905D01*
X53390952Y68794286D01*
X53771904Y68794286D01*
X53867142Y68841905D01*
X53914761Y68889524D01*
X53962380Y68984762D01*
X53962380Y69175239D01*
X53914761Y69270477D01*
X53867142Y69318096D01*
X53771904Y69365715D01*
X53533809Y69365715D01*
X53438571Y69318096D01*
X53390952Y69270477D01*
X53343333Y69175239D01*
X53343333Y68984762D01*
X53390952Y68889524D01*
X53438571Y68841905D01*
X53533809Y68794286D01*
%TO.C,R7*%
X43802380Y68413334D02*
X43326190Y68080000D01*
X43802380Y67841905D02*
X42802380Y67841905D01*
X42802380Y68222858D01*
X42850000Y68318096D01*
X42897619Y68365715D01*
X42992857Y68413334D01*
X43135714Y68413334D01*
X43230952Y68365715D01*
X43278571Y68318096D01*
X43326190Y68222858D01*
X43326190Y67841905D01*
X42802380Y68746667D02*
X42802380Y69413334D01*
X43802380Y68984762D01*
%TO.C,R8*%
X63782380Y68413334D02*
X63306190Y68080000D01*
X63782380Y67841905D02*
X62782380Y67841905D01*
X62782380Y68222858D01*
X62830000Y68318096D01*
X62877619Y68365715D01*
X62972857Y68413334D01*
X63115714Y68413334D01*
X63210952Y68365715D01*
X63258571Y68318096D01*
X63306190Y68222858D01*
X63306190Y67841905D01*
X63210952Y68984762D02*
X63163333Y68889524D01*
X63115714Y68841905D01*
X63020476Y68794286D01*
X62972857Y68794286D01*
X62877619Y68841905D01*
X62830000Y68889524D01*
X62782380Y68984762D01*
X62782380Y69175239D01*
X62830000Y69270477D01*
X62877619Y69318096D01*
X62972857Y69365715D01*
X63020476Y69365715D01*
X63115714Y69318096D01*
X63163333Y69270477D01*
X63210952Y69175239D01*
X63210952Y68984762D01*
X63258571Y68889524D01*
X63306190Y68841905D01*
X63401428Y68794286D01*
X63591904Y68794286D01*
X63687142Y68841905D01*
X63734761Y68889524D01*
X63782380Y68984762D01*
X63782380Y69175239D01*
X63734761Y69270477D01*
X63687142Y69318096D01*
X63591904Y69365715D01*
X63401428Y69365715D01*
X63306190Y69318096D01*
X63258571Y69270477D01*
X63210952Y69175239D01*
%TO.C,R9*%
X16343333Y29562620D02*
X16010000Y30038810D01*
X15771904Y29562620D02*
X15771904Y30562620D01*
X16152857Y30562620D01*
X16248095Y30515000D01*
X16295714Y30467381D01*
X16343333Y30372143D01*
X16343333Y30229286D01*
X16295714Y30134048D01*
X16248095Y30086429D01*
X16152857Y30038810D01*
X15771904Y30038810D01*
X16819523Y29562620D02*
X17010000Y29562620D01*
X17105238Y29610239D01*
X17152857Y29657858D01*
X17248095Y29800715D01*
X17295714Y29991191D01*
X17295714Y30372143D01*
X17248095Y30467381D01*
X17200476Y30515000D01*
X17105238Y30562620D01*
X16914761Y30562620D01*
X16819523Y30515000D01*
X16771904Y30467381D01*
X16724285Y30372143D01*
X16724285Y30134048D01*
X16771904Y30038810D01*
X16819523Y29991191D01*
X16914761Y29943572D01*
X17105238Y29943572D01*
X17200476Y29991191D01*
X17248095Y30038810D01*
X17295714Y30134048D01*
%TO.C,R10*%
X43802380Y37457143D02*
X43326190Y37123810D01*
X43802380Y36885715D02*
X42802380Y36885715D01*
X42802380Y37266667D01*
X42850000Y37361905D01*
X42897619Y37409524D01*
X42992857Y37457143D01*
X43135714Y37457143D01*
X43230952Y37409524D01*
X43278571Y37361905D01*
X43326190Y37266667D01*
X43326190Y36885715D01*
X43802380Y38409524D02*
X43802380Y37838096D01*
X43802380Y38123810D02*
X42802380Y38123810D01*
X42945238Y38028572D01*
X43040476Y37933334D01*
X43088095Y37838096D01*
X42802380Y39028572D02*
X42802380Y39123810D01*
X42850000Y39219048D01*
X42897619Y39266667D01*
X42992857Y39314286D01*
X43183333Y39361905D01*
X43421428Y39361905D01*
X43611904Y39314286D01*
X43707142Y39266667D01*
X43754761Y39219048D01*
X43802380Y39123810D01*
X43802380Y39028572D01*
X43754761Y38933334D01*
X43707142Y38885715D01*
X43611904Y38838096D01*
X43421428Y38790477D01*
X43183333Y38790477D01*
X42992857Y38838096D01*
X42897619Y38885715D01*
X42850000Y38933334D01*
X42802380Y39028572D01*
%TO.C,R11*%
X63782380Y37457143D02*
X63306190Y37123810D01*
X63782380Y36885715D02*
X62782380Y36885715D01*
X62782380Y37266667D01*
X62830000Y37361905D01*
X62877619Y37409524D01*
X62972857Y37457143D01*
X63115714Y37457143D01*
X63210952Y37409524D01*
X63258571Y37361905D01*
X63306190Y37266667D01*
X63306190Y36885715D01*
X63782380Y38409524D02*
X63782380Y37838096D01*
X63782380Y38123810D02*
X62782380Y38123810D01*
X62925238Y38028572D01*
X63020476Y37933334D01*
X63068095Y37838096D01*
X63782380Y39361905D02*
X63782380Y38790477D01*
X63782380Y39076191D02*
X62782380Y39076191D01*
X62925238Y38980953D01*
X63020476Y38885715D01*
X63068095Y38790477D01*
%TO.C,R12*%
X41267142Y7337620D02*
X40933809Y7813810D01*
X40695714Y7337620D02*
X40695714Y8337620D01*
X41076666Y8337620D01*
X41171904Y8290000D01*
X41219523Y8242381D01*
X41267142Y8147143D01*
X41267142Y8004286D01*
X41219523Y7909048D01*
X41171904Y7861429D01*
X41076666Y7813810D01*
X40695714Y7813810D01*
X42219523Y7337620D02*
X41648095Y7337620D01*
X41933809Y7337620D02*
X41933809Y8337620D01*
X41838571Y8194762D01*
X41743333Y8099524D01*
X41648095Y8051905D01*
X42600476Y8242381D02*
X42648095Y8290000D01*
X42743333Y8337620D01*
X42981428Y8337620D01*
X43076666Y8290000D01*
X43124285Y8242381D01*
X43171904Y8147143D01*
X43171904Y8051905D01*
X43124285Y7909048D01*
X42552857Y7337620D01*
X43171904Y7337620D01*
%TO.C,R13*%
X38722380Y37457143D02*
X38246190Y37123810D01*
X38722380Y36885715D02*
X37722380Y36885715D01*
X37722380Y37266667D01*
X37770000Y37361905D01*
X37817619Y37409524D01*
X37912857Y37457143D01*
X38055714Y37457143D01*
X38150952Y37409524D01*
X38198571Y37361905D01*
X38246190Y37266667D01*
X38246190Y36885715D01*
X38722380Y38409524D02*
X38722380Y37838096D01*
X38722380Y38123810D02*
X37722380Y38123810D01*
X37865238Y38028572D01*
X37960476Y37933334D01*
X38008095Y37838096D01*
X37722380Y38742858D02*
X37722380Y39361905D01*
X38103333Y39028572D01*
X38103333Y39171429D01*
X38150952Y39266667D01*
X38198571Y39314286D01*
X38293809Y39361905D01*
X38531904Y39361905D01*
X38627142Y39314286D01*
X38674761Y39266667D01*
X38722380Y39171429D01*
X38722380Y38885715D01*
X38674761Y38790477D01*
X38627142Y38742858D01*
%TO.C,R14*%
X53962380Y37457143D02*
X53486190Y37123810D01*
X53962380Y36885715D02*
X52962380Y36885715D01*
X52962380Y37266667D01*
X53010000Y37361905D01*
X53057619Y37409524D01*
X53152857Y37457143D01*
X53295714Y37457143D01*
X53390952Y37409524D01*
X53438571Y37361905D01*
X53486190Y37266667D01*
X53486190Y36885715D01*
X53962380Y38409524D02*
X53962380Y37838096D01*
X53962380Y38123810D02*
X52962380Y38123810D01*
X53105238Y38028572D01*
X53200476Y37933334D01*
X53248095Y37838096D01*
X53295714Y39266667D02*
X53962380Y39266667D01*
X52914761Y39028572D02*
X53629047Y38790477D01*
X53629047Y39409524D01*
%TO.C,J2*%
X10461666Y66182620D02*
X10461666Y65468334D01*
X10414047Y65325477D01*
X10318809Y65230239D01*
X10175952Y65182620D01*
X10080714Y65182620D01*
X10890238Y66087381D02*
X10937857Y66135000D01*
X11033095Y66182620D01*
X11271190Y66182620D01*
X11366428Y66135000D01*
X11414047Y66087381D01*
X11461666Y65992143D01*
X11461666Y65896905D01*
X11414047Y65754048D01*
X10842619Y65182620D01*
X11461666Y65182620D01*
%TO.C,J4*%
X18081666Y66182620D02*
X18081666Y65468334D01*
X18034047Y65325477D01*
X17938809Y65230239D01*
X17795952Y65182620D01*
X17700714Y65182620D01*
X18986428Y65849286D02*
X18986428Y65182620D01*
X18748333Y66230239D02*
X18510238Y65515953D01*
X19129285Y65515953D01*
%TO.C,J5*%
X18081666Y48402620D02*
X18081666Y47688334D01*
X18034047Y47545477D01*
X17938809Y47450239D01*
X17795952Y47402620D01*
X17700714Y47402620D01*
X19034047Y48402620D02*
X18557857Y48402620D01*
X18510238Y47926429D01*
X18557857Y47974048D01*
X18653095Y48021667D01*
X18891190Y48021667D01*
X18986428Y47974048D01*
X19034047Y47926429D01*
X19081666Y47831191D01*
X19081666Y47593096D01*
X19034047Y47497858D01*
X18986428Y47450239D01*
X18891190Y47402620D01*
X18653095Y47402620D01*
X18557857Y47450239D01*
X18510238Y47497858D01*
%TD*%
M02*
