%TF.GenerationSoftware,KiCad,Pcbnew,(5.1.6)-1*%
%TF.CreationDate,2021-12-16T17:16:20+09:00*%
%TF.ProjectId,Mars_ver4.0.0_prototype,4d617273-5f76-4657-9234-2e302e305f70,rev?*%
%TF.SameCoordinates,PX66f2fb0PY9c3d8f0*%
%TF.FileFunction,Soldermask,Bot*%
%TF.FilePolarity,Negative*%
%FSLAX46Y46*%
G04 Gerber Fmt 4.6, Leading zero omitted, Abs format (unit mm)*
G04 Created by KiCad (PCBNEW (5.1.6)-1) date 2021-12-16 17:16:20*
%MOMM*%
%LPD*%
G01*
G04 APERTURE LIST*
%ADD10R,1.800000X1.800000*%
%ADD11O,1.800000X1.800000*%
%ADD12C,2.170000*%
%ADD13R,2.170000X2.170000*%
%ADD14C,1.700000*%
%ADD15R,1.700000X1.700000*%
%ADD16R,1.140000X1.100000*%
%ADD17C,1.900000*%
%ADD18R,1.900000X1.900000*%
%ADD19O,1.700000X1.700000*%
G04 APERTURE END LIST*
D10*
%TO.C,J1*%
X13970000Y73660000D03*
D11*
X16510000Y73660000D03*
X19050000Y73660000D03*
X21590000Y73660000D03*
%TD*%
D10*
%TO.C,J3*%
X10795000Y45085000D03*
D11*
X10795000Y42545000D03*
X10795000Y40005000D03*
X10795000Y37465000D03*
%TD*%
%TO.C,J8*%
X34290000Y25400000D03*
X31750000Y25400000D03*
X34290000Y22860000D03*
X31750000Y22860000D03*
X34290000Y20320000D03*
X31750000Y20320000D03*
X34290000Y17780000D03*
X31750000Y17780000D03*
X34290000Y15240000D03*
X31750000Y15240000D03*
X34290000Y12700000D03*
X31750000Y12700000D03*
X34290000Y10160000D03*
X31750000Y10160000D03*
X34290000Y7620000D03*
D10*
X31750000Y7620000D03*
%TD*%
D12*
%TO.C,Q1*%
X40640000Y82550000D03*
X43180000Y82550000D03*
D13*
X45720000Y82550000D03*
%TD*%
D12*
%TO.C,Q3*%
X40640000Y52070000D03*
X43180000Y52070000D03*
D13*
X45720000Y52070000D03*
%TD*%
D10*
%TO.C,J7*%
X29210000Y73660000D03*
D11*
X31750000Y73660000D03*
%TD*%
D14*
%TO.C,C11*%
X68580000Y39450000D03*
D15*
X68580000Y44450000D03*
%TD*%
D11*
%TO.C,J9*%
X6350000Y73660000D03*
D10*
X3810000Y73660000D03*
%TD*%
D14*
%TO.C,C8*%
X52705000Y22780000D03*
X52705000Y17780000D03*
%TD*%
%TO.C,C7*%
X38180000Y12780000D03*
X38180000Y17780000D03*
%TD*%
D16*
%TO.C,D3*%
X63500000Y26340000D03*
X63500000Y23190000D03*
%TD*%
D11*
%TO.C,J6*%
X59690000Y25400000D03*
X57150000Y25400000D03*
X59690000Y22860000D03*
X57150000Y22860000D03*
X59690000Y20320000D03*
X57150000Y20320000D03*
X59690000Y17780000D03*
X57150000Y17780000D03*
X59690000Y15240000D03*
X57150000Y15240000D03*
X59690000Y12700000D03*
X57150000Y12700000D03*
X59690000Y10160000D03*
X57150000Y10160000D03*
X59690000Y7620000D03*
D10*
X57150000Y7620000D03*
%TD*%
D12*
%TO.C,Q4*%
X55880000Y52070000D03*
X58420000Y52070000D03*
D13*
X60960000Y52070000D03*
%TD*%
D12*
%TO.C,Q2*%
X55880000Y82550000D03*
X58420000Y82550000D03*
D13*
X60960000Y82550000D03*
%TD*%
D14*
%TO.C,C10*%
X5715000Y38815000D03*
X5715000Y43815000D03*
%TD*%
%TO.C,C9*%
X5715000Y56595000D03*
X5715000Y61595000D03*
%TD*%
%TO.C,C1*%
X23495000Y61595000D03*
X23495000Y56595000D03*
%TD*%
%TO.C,C2*%
X23495000Y43815000D03*
X23495000Y38815000D03*
%TD*%
%TO.C,C3*%
G36*
G01*
X51005000Y18261250D02*
X51005000Y17298750D01*
G75*
G02*
X50736250Y17030000I-268750J0D01*
G01*
X50198750Y17030000D01*
G75*
G02*
X49930000Y17298750I0J268750D01*
G01*
X49930000Y18261250D01*
G75*
G02*
X50198750Y18530000I268750J0D01*
G01*
X50736250Y18530000D01*
G75*
G02*
X51005000Y18261250I0J-268750D01*
G01*
G37*
G36*
G01*
X49130000Y18261250D02*
X49130000Y17298750D01*
G75*
G02*
X48861250Y17030000I-268750J0D01*
G01*
X48323750Y17030000D01*
G75*
G02*
X48055000Y17298750I0J268750D01*
G01*
X48055000Y18261250D01*
G75*
G02*
X48323750Y18530000I268750J0D01*
G01*
X48861250Y18530000D01*
G75*
G02*
X49130000Y18261250I0J-268750D01*
G01*
G37*
%TD*%
%TO.C,C4*%
G36*
G01*
X38120000Y22185000D02*
X36810000Y22185000D01*
G75*
G02*
X36540000Y22455000I0J270000D01*
G01*
X36540000Y23265000D01*
G75*
G02*
X36810000Y23535000I270000J0D01*
G01*
X38120000Y23535000D01*
G75*
G02*
X38390000Y23265000I0J-270000D01*
G01*
X38390000Y22455000D01*
G75*
G02*
X38120000Y22185000I-270000J0D01*
G01*
G37*
G36*
G01*
X38120000Y24985000D02*
X36810000Y24985000D01*
G75*
G02*
X36540000Y25255000I0J270000D01*
G01*
X36540000Y26065000D01*
G75*
G02*
X36810000Y26335000I270000J0D01*
G01*
X38120000Y26335000D01*
G75*
G02*
X38390000Y26065000I0J-270000D01*
G01*
X38390000Y25255000D01*
G75*
G02*
X38120000Y24985000I-270000J0D01*
G01*
G37*
%TD*%
%TO.C,C5*%
G36*
G01*
X63981250Y17242500D02*
X63018750Y17242500D01*
G75*
G02*
X62750000Y17511250I0J268750D01*
G01*
X62750000Y18048750D01*
G75*
G02*
X63018750Y18317500I268750J0D01*
G01*
X63981250Y18317500D01*
G75*
G02*
X64250000Y18048750I0J-268750D01*
G01*
X64250000Y17511250D01*
G75*
G02*
X63981250Y17242500I-268750J0D01*
G01*
G37*
G36*
G01*
X63981250Y19117500D02*
X63018750Y19117500D01*
G75*
G02*
X62750000Y19386250I0J268750D01*
G01*
X62750000Y19923750D01*
G75*
G02*
X63018750Y20192500I268750J0D01*
G01*
X63981250Y20192500D01*
G75*
G02*
X64250000Y19923750I0J-268750D01*
G01*
X64250000Y19386250D01*
G75*
G02*
X63981250Y19117500I-268750J0D01*
G01*
G37*
%TD*%
%TO.C,C6*%
G36*
G01*
X52858750Y13570000D02*
X53821250Y13570000D01*
G75*
G02*
X54090000Y13301250I0J-268750D01*
G01*
X54090000Y12763750D01*
G75*
G02*
X53821250Y12495000I-268750J0D01*
G01*
X52858750Y12495000D01*
G75*
G02*
X52590000Y12763750I0J268750D01*
G01*
X52590000Y13301250D01*
G75*
G02*
X52858750Y13570000I268750J0D01*
G01*
G37*
G36*
G01*
X52858750Y15445000D02*
X53821250Y15445000D01*
G75*
G02*
X54090000Y15176250I0J-268750D01*
G01*
X54090000Y14638750D01*
G75*
G02*
X53821250Y14370000I-268750J0D01*
G01*
X52858750Y14370000D01*
G75*
G02*
X52590000Y14638750I0J268750D01*
G01*
X52590000Y15176250D01*
G75*
G02*
X52858750Y15445000I268750J0D01*
G01*
G37*
%TD*%
D17*
%TO.C,D1*%
X7620000Y27305000D03*
D18*
X7620000Y24765000D03*
%TD*%
%TO.C,D2*%
X7620000Y18415000D03*
D17*
X7620000Y20955000D03*
%TD*%
D19*
%TO.C,R1*%
X12700000Y8255000D03*
D14*
X20320000Y8255000D03*
%TD*%
%TO.C,R2*%
X12700000Y13335000D03*
D19*
X20320000Y13335000D03*
%TD*%
D14*
%TO.C,R3*%
X20320000Y26035000D03*
D19*
X12700000Y26035000D03*
%TD*%
%TO.C,R4*%
X12700000Y19685000D03*
D14*
X20320000Y19685000D03*
%TD*%
%TO.C,R5*%
X40640000Y64770000D03*
D19*
X40640000Y72390000D03*
%TD*%
%TO.C,R6*%
X55880000Y72390000D03*
D14*
X55880000Y64770000D03*
%TD*%
%TO.C,R7*%
X45720000Y64770000D03*
D19*
X45720000Y72390000D03*
%TD*%
D14*
%TO.C,R8*%
X60960000Y72390000D03*
D19*
X60960000Y64770000D03*
%TD*%
%TO.C,R9*%
X12700000Y32385000D03*
D14*
X20320000Y32385000D03*
%TD*%
D19*
%TO.C,R10*%
X45720000Y41910000D03*
D14*
X45720000Y34290000D03*
%TD*%
%TO.C,R11*%
X60960000Y41910000D03*
D19*
X60960000Y34290000D03*
%TD*%
D14*
%TO.C,R12*%
X45720000Y10160000D03*
D19*
X38100000Y10160000D03*
%TD*%
%TO.C,R13*%
X40640000Y41910000D03*
D14*
X40640000Y34290000D03*
%TD*%
%TO.C,R14*%
X55880000Y34290000D03*
D19*
X55880000Y41910000D03*
%TD*%
D10*
%TO.C,J2*%
X10795000Y62865000D03*
D11*
X10795000Y60325000D03*
X10795000Y57785000D03*
X10795000Y55245000D03*
%TD*%
%TO.C,J4*%
X18415000Y55245000D03*
X18415000Y57785000D03*
X18415000Y60325000D03*
D10*
X18415000Y62865000D03*
%TD*%
D11*
%TO.C,J5*%
X18415000Y37465000D03*
X18415000Y40005000D03*
X18415000Y42545000D03*
D10*
X18415000Y45085000D03*
%TD*%
M02*
