%TF.GenerationSoftware,KiCad,Pcbnew,(5.1.6)-1*%
%TF.CreationDate,2021-12-16T17:16:20+09:00*%
%TF.ProjectId,Mars_ver4.0.0_prototype,4d617273-5f76-4657-9234-2e302e305f70,rev?*%
%TF.SameCoordinates,PX66f2fb0PY9c3d8f0*%
%TF.FileFunction,Copper,L1,Top*%
%TF.FilePolarity,Positive*%
%FSLAX46Y46*%
G04 Gerber Fmt 4.6, Leading zero omitted, Abs format (unit mm)*
G04 Created by KiCad (PCBNEW (5.1.6)-1) date 2021-12-16 17:16:20*
%MOMM*%
%LPD*%
G01*
G04 APERTURE LIST*
%TA.AperFunction,ComponentPad*%
%ADD10R,1.700000X1.700000*%
%TD*%
%TA.AperFunction,ComponentPad*%
%ADD11O,1.700000X1.700000*%
%TD*%
%TA.AperFunction,ComponentPad*%
%ADD12C,2.070000*%
%TD*%
%TA.AperFunction,ComponentPad*%
%ADD13R,2.070000X2.070000*%
%TD*%
%TA.AperFunction,ComponentPad*%
%ADD14C,1.600000*%
%TD*%
%TA.AperFunction,ComponentPad*%
%ADD15R,1.600000X1.600000*%
%TD*%
%TA.AperFunction,ComponentPad*%
%ADD16C,1.800000*%
%TD*%
%TA.AperFunction,ComponentPad*%
%ADD17R,1.800000X1.800000*%
%TD*%
%TA.AperFunction,ComponentPad*%
%ADD18O,1.600000X1.600000*%
%TD*%
%TA.AperFunction,ViaPad*%
%ADD19C,2.500000*%
%TD*%
%TA.AperFunction,ViaPad*%
%ADD20C,1.700000*%
%TD*%
%TA.AperFunction,ViaPad*%
%ADD21C,4.000000*%
%TD*%
%TA.AperFunction,ViaPad*%
%ADD22C,3.500000*%
%TD*%
%TA.AperFunction,Conductor*%
%ADD23C,1.000000*%
%TD*%
%TA.AperFunction,Conductor*%
%ADD24C,2.000000*%
%TD*%
%TA.AperFunction,Conductor*%
%ADD25C,0.500000*%
%TD*%
%TA.AperFunction,Conductor*%
%ADD26C,0.300000*%
%TD*%
G04 APERTURE END LIST*
D10*
%TO.P,J1,1*%
%TO.N,/PHASE_IN*%
X13970000Y73660000D03*
D11*
%TO.P,J1,2*%
%TO.N,/SR_IN*%
X16510000Y73660000D03*
%TO.P,J1,3*%
%TO.N,/PWMH_IN*%
X19050000Y73660000D03*
%TO.P,J1,4*%
%TO.N,/PWML_IN*%
X21590000Y73660000D03*
%TD*%
D10*
%TO.P,J3,1*%
%TO.N,/3.3V*%
X10795000Y45085000D03*
D11*
%TO.P,J3,2*%
%TO.N,/PWMH_IN*%
X10795000Y42545000D03*
%TO.P,J3,3*%
%TO.N,/PWML_IN*%
X10795000Y40005000D03*
%TO.P,J3,4*%
%TO.N,GND1*%
X10795000Y37465000D03*
%TD*%
%TO.P,J8,16*%
%TO.N,Net-(J8-Pad16)*%
X34290000Y25400000D03*
%TO.P,J8,15*%
%TO.N,/CP2*%
X31750000Y25400000D03*
%TO.P,J8,14*%
%TO.N,/CP1*%
X34290000Y22860000D03*
%TO.P,J8,13*%
%TO.N,GND*%
X31750000Y22860000D03*
%TO.P,J8,12*%
%TO.N,/NC*%
X34290000Y20320000D03*
%TO.P,J8,11*%
%TO.N,/PHASE*%
X31750000Y20320000D03*
%TO.P,J8,10*%
%TO.N,/V5*%
X34290000Y17780000D03*
%TO.P,J8,9*%
%TO.N,/SR*%
X31750000Y17780000D03*
%TO.P,J8,8*%
%TO.N,/PWML*%
X34290000Y15240000D03*
%TO.P,J8,7*%
%TO.N,/PWMH*%
X31750000Y15240000D03*
%TO.P,J8,6*%
%TO.N,/RESET*%
X34290000Y12700000D03*
%TO.P,J8,5*%
%TO.N,/FF1*%
X31750000Y12700000D03*
%TO.P,J8,4*%
%TO.N,/FF2*%
X34290000Y10160000D03*
%TO.P,J8,3*%
%TO.N,/RDEAD*%
X31750000Y10160000D03*
%TO.P,J8,2*%
%TO.N,/VDSTH*%
X34290000Y7620000D03*
D10*
%TO.P,J8,1*%
%TO.N,Net-(J8-Pad1)*%
X31750000Y7620000D03*
%TD*%
D12*
%TO.P,Q1,3*%
%TO.N,/SA*%
X40640000Y82550000D03*
%TO.P,Q1,2*%
%TO.N,+BATT*%
X43180000Y82550000D03*
D13*
%TO.P,Q1,1*%
%TO.N,Net-(Q1-Pad1)*%
X45720000Y82550000D03*
%TD*%
D12*
%TO.P,Q3,3*%
%TO.N,/SB*%
X40640000Y52070000D03*
%TO.P,Q3,2*%
%TO.N,+BATT*%
X43180000Y52070000D03*
D13*
%TO.P,Q3,1*%
%TO.N,Net-(Q3-Pad1)*%
X45720000Y52070000D03*
%TD*%
D10*
%TO.P,J7,1*%
%TO.N,GND*%
X29210000Y73660000D03*
D11*
%TO.P,J7,2*%
%TO.N,/RESET*%
X31750000Y73660000D03*
%TD*%
D14*
%TO.P,C11,2*%
%TO.N,GND*%
X68580000Y39450000D03*
D15*
%TO.P,C11,1*%
%TO.N,+BATT*%
X68580000Y44450000D03*
%TD*%
D11*
%TO.P,J9,2*%
%TO.N,/3.3V*%
X6350000Y73660000D03*
D10*
%TO.P,J9,1*%
%TO.N,GND1*%
X3810000Y73660000D03*
%TD*%
D14*
%TO.P,C8,2*%
%TO.N,GND*%
X52705000Y22780000D03*
%TO.P,C8,1*%
%TO.N,/VREG*%
X52705000Y17780000D03*
%TD*%
%TO.P,C7,2*%
%TO.N,GND*%
X38180000Y12780000D03*
%TO.P,C7,1*%
%TO.N,/V5*%
X38180000Y17780000D03*
%TD*%
D11*
%TO.P,J6,16*%
%TO.N,Net-(J6-Pad16)*%
X59690000Y25400000D03*
%TO.P,J6,15*%
%TO.N,/NC*%
X57150000Y25400000D03*
%TO.P,J6,14*%
%TO.N,/VBB*%
X59690000Y22860000D03*
%TO.P,J6,13*%
%TO.N,/GLA*%
X57150000Y22860000D03*
%TO.P,J6,12*%
%TO.N,/SA*%
X59690000Y20320000D03*
%TO.P,J6,11*%
%TO.N,/GHA*%
X57150000Y20320000D03*
%TO.P,J6,10*%
%TO.N,/CA*%
X59690000Y17780000D03*
%TO.P,J6,9*%
%TO.N,/VREG*%
X57150000Y17780000D03*
%TO.P,J6,8*%
%TO.N,/NC*%
X59690000Y15240000D03*
%TO.P,J6,7*%
%TO.N,/CB*%
X57150000Y15240000D03*
%TO.P,J6,6*%
%TO.N,/GHB*%
X59690000Y12700000D03*
%TO.P,J6,5*%
%TO.N,/SB*%
X57150000Y12700000D03*
%TO.P,J6,4*%
%TO.N,/GLB*%
X59690000Y10160000D03*
%TO.P,J6,3*%
%TO.N,GND*%
X57150000Y10160000D03*
%TO.P,J6,2*%
%TO.N,+BATT*%
X59690000Y7620000D03*
D10*
%TO.P,J6,1*%
%TO.N,Net-(J6-Pad1)*%
X57150000Y7620000D03*
%TD*%
D12*
%TO.P,Q4,3*%
%TO.N,GND*%
X55880000Y52070000D03*
%TO.P,Q4,2*%
%TO.N,/SB*%
X58420000Y52070000D03*
D13*
%TO.P,Q4,1*%
%TO.N,Net-(Q4-Pad1)*%
X60960000Y52070000D03*
%TD*%
D12*
%TO.P,Q2,3*%
%TO.N,GND*%
X55880000Y82550000D03*
%TO.P,Q2,2*%
%TO.N,/SA*%
X58420000Y82550000D03*
D13*
%TO.P,Q2,1*%
%TO.N,Net-(Q2-Pad1)*%
X60960000Y82550000D03*
%TD*%
D14*
%TO.P,C10,2*%
%TO.N,GND1*%
X5715000Y38815000D03*
%TO.P,C10,1*%
%TO.N,/3.3V*%
X5715000Y43815000D03*
%TD*%
%TO.P,C9,2*%
%TO.N,GND1*%
X5715000Y56595000D03*
%TO.P,C9,1*%
%TO.N,/3.3V*%
X5715000Y61595000D03*
%TD*%
%TO.P,C1,1*%
%TO.N,/V5*%
X23495000Y61595000D03*
%TO.P,C1,2*%
%TO.N,GND*%
X23495000Y56595000D03*
%TD*%
%TO.P,C2,1*%
%TO.N,/V5*%
X23495000Y43815000D03*
%TO.P,C2,2*%
%TO.N,GND*%
X23495000Y38815000D03*
%TD*%
D16*
%TO.P,D1,2*%
%TO.N,Net-(D1-Pad2)*%
X7620000Y27305000D03*
D17*
%TO.P,D1,1*%
%TO.N,/FF1*%
X7620000Y24765000D03*
%TD*%
%TO.P,D2,1*%
%TO.N,/FF2*%
X7620000Y18415000D03*
D16*
%TO.P,D2,2*%
%TO.N,Net-(D2-Pad2)*%
X7620000Y20955000D03*
%TD*%
D18*
%TO.P,R1,2*%
%TO.N,/V5*%
X12700000Y8255000D03*
D14*
%TO.P,R1,1*%
%TO.N,/VDSTH*%
X20320000Y8255000D03*
%TD*%
%TO.P,R2,1*%
%TO.N,GND*%
X12700000Y13335000D03*
D18*
%TO.P,R2,2*%
%TO.N,/VDSTH*%
X20320000Y13335000D03*
%TD*%
D14*
%TO.P,R3,1*%
%TO.N,/V5*%
X20320000Y26035000D03*
D18*
%TO.P,R3,2*%
%TO.N,Net-(D1-Pad2)*%
X12700000Y26035000D03*
%TD*%
%TO.P,R4,2*%
%TO.N,Net-(D2-Pad2)*%
X12700000Y19685000D03*
D14*
%TO.P,R4,1*%
%TO.N,/V5*%
X20320000Y19685000D03*
%TD*%
%TO.P,R5,1*%
%TO.N,/GHA*%
X40640000Y64770000D03*
D18*
%TO.P,R5,2*%
%TO.N,Net-(Q1-Pad1)*%
X40640000Y72390000D03*
%TD*%
%TO.P,R6,2*%
%TO.N,Net-(Q2-Pad1)*%
X55880000Y72390000D03*
D14*
%TO.P,R6,1*%
%TO.N,/GLA*%
X55880000Y64770000D03*
%TD*%
%TO.P,R7,1*%
%TO.N,Net-(Q1-Pad1)*%
X45720000Y64770000D03*
D18*
%TO.P,R7,2*%
%TO.N,/SA*%
X45720000Y72390000D03*
%TD*%
D14*
%TO.P,R8,1*%
%TO.N,Net-(Q2-Pad1)*%
X60960000Y72390000D03*
D18*
%TO.P,R8,2*%
%TO.N,GND*%
X60960000Y64770000D03*
%TD*%
%TO.P,R9,2*%
%TO.N,GND*%
X12700000Y32385000D03*
D14*
%TO.P,R9,1*%
%TO.N,/RDEAD*%
X20320000Y32385000D03*
%TD*%
D18*
%TO.P,R10,2*%
%TO.N,/SB*%
X45720000Y41910000D03*
D14*
%TO.P,R10,1*%
%TO.N,Net-(Q3-Pad1)*%
X45720000Y34290000D03*
%TD*%
%TO.P,R11,1*%
%TO.N,Net-(Q4-Pad1)*%
X60960000Y41910000D03*
D18*
%TO.P,R11,2*%
%TO.N,GND*%
X60960000Y34290000D03*
%TD*%
D14*
%TO.P,R12,1*%
%TO.N,+BATT*%
X45720000Y10160000D03*
D18*
%TO.P,R12,2*%
%TO.N,/RESET*%
X38100000Y10160000D03*
%TD*%
%TO.P,R13,2*%
%TO.N,Net-(Q3-Pad1)*%
X40640000Y41910000D03*
D14*
%TO.P,R13,1*%
%TO.N,/GHB*%
X40640000Y34290000D03*
%TD*%
%TO.P,R14,1*%
%TO.N,/GLB*%
X55880000Y34290000D03*
D18*
%TO.P,R14,2*%
%TO.N,Net-(Q4-Pad1)*%
X55880000Y41910000D03*
%TD*%
D10*
%TO.P,J2,1*%
%TO.N,/3.3V*%
X10795000Y62865000D03*
D11*
%TO.P,J2,2*%
%TO.N,/PHASE_IN*%
X10795000Y60325000D03*
%TO.P,J2,3*%
%TO.N,/SR_IN*%
X10795000Y57785000D03*
%TO.P,J2,4*%
%TO.N,GND1*%
X10795000Y55245000D03*
%TD*%
%TO.P,J4,4*%
%TO.N,GND*%
X18415000Y55245000D03*
%TO.P,J4,3*%
%TO.N,/SR*%
X18415000Y57785000D03*
%TO.P,J4,2*%
%TO.N,/PHASE*%
X18415000Y60325000D03*
D10*
%TO.P,J4,1*%
%TO.N,/V5*%
X18415000Y62865000D03*
%TD*%
D11*
%TO.P,J5,4*%
%TO.N,GND*%
X18415000Y37465000D03*
%TO.P,J5,3*%
%TO.N,/PWML*%
X18415000Y40005000D03*
%TO.P,J5,2*%
%TO.N,/PWMH*%
X18415000Y42545000D03*
D10*
%TO.P,J5,1*%
%TO.N,/V5*%
X18415000Y45085000D03*
%TD*%
D19*
%TO.N,GND*%
X70485000Y83820000D03*
%TO.N,+BATT*%
X66040000Y34925000D03*
D20*
%TO.N,/V5*%
X43180000Y20320000D03*
X38100000Y20320000D03*
X10160000Y6350000D03*
X10160000Y15240000D03*
%TO.N,GND*%
X21590000Y49530000D03*
X21590000Y35560000D03*
X20320000Y29210000D03*
X10160000Y29210000D03*
D19*
%TO.N,/SA*%
X52070000Y28575000D03*
D21*
X52070000Y73025000D03*
X52070000Y73025000D03*
D22*
X55880000Y75565000D03*
D21*
%TO.N,/SB*%
X48895000Y21590000D03*
X48895000Y42545000D03*
D22*
X55880000Y45085000D03*
D20*
%TO.N,/FF1*%
X23495000Y16510000D03*
X16510000Y16510000D03*
D19*
%TO.N,+BATT*%
X50165000Y78740000D03*
X67310000Y78740000D03*
X50165000Y48260000D03*
X67310000Y48260000D03*
X70485000Y78740000D03*
X66040000Y26035000D03*
D20*
%TO.N,/PWML*%
X23495000Y32385000D03*
X33274000Y29718000D03*
%TO.N,GND1*%
X8255000Y49530000D03*
X8255000Y34290000D03*
%TD*%
D23*
%TO.N,/V5*%
X38100000Y20320000D02*
X41910000Y20320000D01*
X10160000Y6350000D02*
X10160000Y15240000D01*
X41910000Y20320000D02*
X43180000Y20320000D01*
%TO.N,GND*%
X21590000Y49530000D02*
X21590000Y35560000D01*
X10160000Y29210000D02*
X20320000Y29210000D01*
D24*
%TO.N,/SA*%
X54805001Y25839999D02*
X52070000Y28575000D01*
X54805001Y16771999D02*
X54805001Y25839999D01*
X49920999Y15679999D02*
X53713001Y15679999D01*
X53713001Y15679999D02*
X54805001Y16771999D01*
X52070000Y54009998D02*
X43619999Y45559997D01*
X52070000Y73025000D02*
X52070000Y54009998D01*
X45594999Y20005999D02*
X49920999Y15679999D01*
X43619999Y27500001D02*
X45594999Y25525001D01*
X45594999Y25525001D02*
X45594999Y20005999D01*
X43619999Y45559997D02*
X43619999Y27500001D01*
%TO.N,/SB*%
X48895000Y42545000D02*
X48895000Y21590000D01*
D25*
%TO.N,/FF1*%
X23495000Y16510000D02*
X16510000Y16510000D01*
D24*
%TO.N,+BATT*%
X67310000Y78740000D02*
X50165000Y78740000D01*
X50165000Y48260000D02*
X67310000Y48260000D01*
D23*
X66040000Y26035000D02*
X66040000Y34925000D01*
D26*
%TO.N,/PWML*%
X30607000Y32385000D02*
X33274000Y29718000D01*
X27305000Y32385000D02*
X30607000Y32385000D01*
X27305000Y32385000D02*
X23495000Y32385000D01*
D23*
%TO.N,GND1*%
X8255000Y49530000D02*
X8255000Y34290000D01*
%TD*%
M02*
