%TF.GenerationSoftware,KiCad,Pcbnew,(5.1.6)-1*%
%TF.CreationDate,2021-12-16T17:16:20+09:00*%
%TF.ProjectId,Mars_ver4.0.0_prototype,4d617273-5f76-4657-9234-2e302e305f70,rev?*%
%TF.SameCoordinates,PX66f2fb0PY9c3d8f0*%
%TF.FileFunction,Paste,Bot*%
%TF.FilePolarity,Positive*%
%FSLAX46Y46*%
G04 Gerber Fmt 4.6, Leading zero omitted, Abs format (unit mm)*
G04 Created by KiCad (PCBNEW (5.1.6)-1) date 2021-12-16 17:16:20*
%MOMM*%
%LPD*%
G01*
G04 APERTURE LIST*
%ADD10R,1.040000X1.000000*%
G04 APERTURE END LIST*
D10*
%TO.C,D3*%
X63500000Y26340000D03*
X63500000Y23190000D03*
%TD*%
%TO.C,C3*%
G36*
G01*
X50955000Y18236250D02*
X50955000Y17323750D01*
G75*
G02*
X50711250Y17080000I-243750J0D01*
G01*
X50223750Y17080000D01*
G75*
G02*
X49980000Y17323750I0J243750D01*
G01*
X49980000Y18236250D01*
G75*
G02*
X50223750Y18480000I243750J0D01*
G01*
X50711250Y18480000D01*
G75*
G02*
X50955000Y18236250I0J-243750D01*
G01*
G37*
G36*
G01*
X49080000Y18236250D02*
X49080000Y17323750D01*
G75*
G02*
X48836250Y17080000I-243750J0D01*
G01*
X48348750Y17080000D01*
G75*
G02*
X48105000Y17323750I0J243750D01*
G01*
X48105000Y18236250D01*
G75*
G02*
X48348750Y18480000I243750J0D01*
G01*
X48836250Y18480000D01*
G75*
G02*
X49080000Y18236250I0J-243750D01*
G01*
G37*
%TD*%
%TO.C,C4*%
G36*
G01*
X38090000Y22235000D02*
X36840000Y22235000D01*
G75*
G02*
X36590000Y22485000I0J250000D01*
G01*
X36590000Y23235000D01*
G75*
G02*
X36840000Y23485000I250000J0D01*
G01*
X38090000Y23485000D01*
G75*
G02*
X38340000Y23235000I0J-250000D01*
G01*
X38340000Y22485000D01*
G75*
G02*
X38090000Y22235000I-250000J0D01*
G01*
G37*
G36*
G01*
X38090000Y25035000D02*
X36840000Y25035000D01*
G75*
G02*
X36590000Y25285000I0J250000D01*
G01*
X36590000Y26035000D01*
G75*
G02*
X36840000Y26285000I250000J0D01*
G01*
X38090000Y26285000D01*
G75*
G02*
X38340000Y26035000I0J-250000D01*
G01*
X38340000Y25285000D01*
G75*
G02*
X38090000Y25035000I-250000J0D01*
G01*
G37*
%TD*%
%TO.C,C5*%
G36*
G01*
X63956250Y17292500D02*
X63043750Y17292500D01*
G75*
G02*
X62800000Y17536250I0J243750D01*
G01*
X62800000Y18023750D01*
G75*
G02*
X63043750Y18267500I243750J0D01*
G01*
X63956250Y18267500D01*
G75*
G02*
X64200000Y18023750I0J-243750D01*
G01*
X64200000Y17536250D01*
G75*
G02*
X63956250Y17292500I-243750J0D01*
G01*
G37*
G36*
G01*
X63956250Y19167500D02*
X63043750Y19167500D01*
G75*
G02*
X62800000Y19411250I0J243750D01*
G01*
X62800000Y19898750D01*
G75*
G02*
X63043750Y20142500I243750J0D01*
G01*
X63956250Y20142500D01*
G75*
G02*
X64200000Y19898750I0J-243750D01*
G01*
X64200000Y19411250D01*
G75*
G02*
X63956250Y19167500I-243750J0D01*
G01*
G37*
%TD*%
%TO.C,C6*%
G36*
G01*
X52883750Y13520000D02*
X53796250Y13520000D01*
G75*
G02*
X54040000Y13276250I0J-243750D01*
G01*
X54040000Y12788750D01*
G75*
G02*
X53796250Y12545000I-243750J0D01*
G01*
X52883750Y12545000D01*
G75*
G02*
X52640000Y12788750I0J243750D01*
G01*
X52640000Y13276250D01*
G75*
G02*
X52883750Y13520000I243750J0D01*
G01*
G37*
G36*
G01*
X52883750Y15395000D02*
X53796250Y15395000D01*
G75*
G02*
X54040000Y15151250I0J-243750D01*
G01*
X54040000Y14663750D01*
G75*
G02*
X53796250Y14420000I-243750J0D01*
G01*
X52883750Y14420000D01*
G75*
G02*
X52640000Y14663750I0J243750D01*
G01*
X52640000Y15151250D01*
G75*
G02*
X52883750Y15395000I243750J0D01*
G01*
G37*
%TD*%
M02*
