M48
; DRILL file {KiCad (5.1.6)-1} date 12/16/21 17:16:40
; FORMAT={-:-/ absolute / metric / decimal}
; #@! TF.CreationDate,2021-12-16T17:16:40+09:00
; #@! TF.GenerationSoftware,Kicad,Pcbnew,(5.1.6)-1
; #@! TF.FileFunction,Plated,1,2,PTH
FMAT,2
METRIC
T1C0.800
T2C0.900
T3C1.000
T4C1.380
T5C2.000
T6C3.000
%
G90
G05
T1
X60.96Y72.39
X60.96Y64.77
X12.7Y19.685
X20.32Y19.685
X45.72Y41.91
X45.72Y34.29
X12.7Y26.035
X20.32Y26.035
X45.72Y72.39
X45.72Y64.77
X12.7Y13.335
X20.32Y13.335
X12.7Y32.385
X20.32Y32.385
X5.715Y43.815
X5.715Y38.815
X12.7Y8.255
X20.32Y8.255
X38.18Y17.78
X38.18Y12.78
X55.88Y72.39
X55.88Y64.77
X23.495Y43.815
X23.495Y38.815
X55.88Y41.91
X55.88Y34.29
X38.1Y10.16
X45.72Y10.16
X52.705Y22.78
X52.705Y17.78
X40.64Y41.91
X40.64Y34.29
X60.96Y41.91
X60.96Y34.29
X23.495Y61.595
X23.495Y56.595
X68.58Y44.45
X68.58Y39.45
X40.64Y72.39
X40.64Y64.77
X5.715Y61.595
X5.715Y56.595
T2
X7.62Y20.955
X7.62Y18.415
X7.62Y27.305
X7.62Y24.765
T3
X8.255Y49.53
X8.255Y34.29
X10.16Y29.21
X10.16Y15.24
X10.16Y6.35
X16.51Y16.51
X20.32Y29.21
X21.59Y49.53
X21.59Y35.56
X23.495Y32.385
X23.495Y16.51
X33.274Y29.718
X38.1Y20.32
X43.18Y20.32
X10.795Y62.865
X10.795Y60.325
X10.795Y57.785
X10.795Y55.245
X57.15Y25.4
X57.15Y22.86
X57.15Y20.32
X57.15Y17.78
X57.15Y15.24
X57.15Y12.7
X57.15Y10.16
X57.15Y7.62
X59.69Y25.4
X59.69Y22.86
X59.69Y20.32
X59.69Y17.78
X59.69Y15.24
X59.69Y12.7
X59.69Y10.16
X59.69Y7.62
X18.415Y62.865
X18.415Y60.325
X18.415Y57.785
X18.415Y55.245
X29.21Y73.66
X31.75Y73.66
X18.415Y45.085
X18.415Y42.545
X18.415Y40.005
X18.415Y37.465
X31.75Y25.4
X31.75Y22.86
X31.75Y20.32
X31.75Y17.78
X31.75Y15.24
X31.75Y12.7
X31.75Y10.16
X31.75Y7.62
X34.29Y25.4
X34.29Y22.86
X34.29Y20.32
X34.29Y17.78
X34.29Y15.24
X34.29Y12.7
X34.29Y10.16
X34.29Y7.62
X10.795Y45.085
X10.795Y42.545
X10.795Y40.005
X10.795Y37.465
X3.81Y73.66
X6.35Y73.66
X13.97Y73.66
X16.51Y73.66
X19.05Y73.66
X21.59Y73.66
T4
X55.88Y52.07
X58.42Y52.07
X60.96Y52.07
X40.64Y82.55
X43.18Y82.55
X45.72Y82.55
X55.88Y82.55
X58.42Y82.55
X60.96Y82.55
X40.64Y52.07
X43.18Y52.07
X45.72Y52.07
T5
X48.895Y42.545
X48.895Y21.59
X50.165Y78.74
X50.165Y48.26
X52.07Y73.025
X52.07Y73.025
X52.07Y28.575
X66.04Y34.925
X66.04Y26.035
X67.31Y78.74
X67.31Y48.26
X70.485Y83.82
X70.485Y78.74
T6
X55.88Y75.565
X55.88Y45.085
T0
M30
