%TF.GenerationSoftware,KiCad,Pcbnew,(5.1.6)-1*%
%TF.CreationDate,2021-12-16T17:16:20+09:00*%
%TF.ProjectId,Mars_ver4.0.0_prototype,4d617273-5f76-4657-9234-2e302e305f70,rev?*%
%TF.SameCoordinates,PX66f2fb0PY9c3d8f0*%
%TF.FileFunction,Soldermask,Top*%
%TF.FilePolarity,Negative*%
%FSLAX46Y46*%
G04 Gerber Fmt 4.6, Leading zero omitted, Abs format (unit mm)*
G04 Created by KiCad (PCBNEW (5.1.6)-1) date 2021-12-16 17:16:20*
%MOMM*%
%LPD*%
G01*
G04 APERTURE LIST*
%ADD10R,1.800000X1.800000*%
%ADD11O,1.800000X1.800000*%
%ADD12C,2.170000*%
%ADD13R,2.170000X2.170000*%
%ADD14C,1.700000*%
%ADD15R,1.700000X1.700000*%
%ADD16C,1.900000*%
%ADD17R,1.900000X1.900000*%
%ADD18O,1.700000X1.700000*%
G04 APERTURE END LIST*
D10*
%TO.C,J1*%
X13970000Y73660000D03*
D11*
X16510000Y73660000D03*
X19050000Y73660000D03*
X21590000Y73660000D03*
%TD*%
D10*
%TO.C,J3*%
X10795000Y45085000D03*
D11*
X10795000Y42545000D03*
X10795000Y40005000D03*
X10795000Y37465000D03*
%TD*%
%TO.C,J8*%
X34290000Y25400000D03*
X31750000Y25400000D03*
X34290000Y22860000D03*
X31750000Y22860000D03*
X34290000Y20320000D03*
X31750000Y20320000D03*
X34290000Y17780000D03*
X31750000Y17780000D03*
X34290000Y15240000D03*
X31750000Y15240000D03*
X34290000Y12700000D03*
X31750000Y12700000D03*
X34290000Y10160000D03*
X31750000Y10160000D03*
X34290000Y7620000D03*
D10*
X31750000Y7620000D03*
%TD*%
D12*
%TO.C,Q1*%
X40640000Y82550000D03*
X43180000Y82550000D03*
D13*
X45720000Y82550000D03*
%TD*%
D12*
%TO.C,Q3*%
X40640000Y52070000D03*
X43180000Y52070000D03*
D13*
X45720000Y52070000D03*
%TD*%
D10*
%TO.C,J7*%
X29210000Y73660000D03*
D11*
X31750000Y73660000D03*
%TD*%
D14*
%TO.C,C11*%
X68580000Y39450000D03*
D15*
X68580000Y44450000D03*
%TD*%
D11*
%TO.C,J9*%
X6350000Y73660000D03*
D10*
X3810000Y73660000D03*
%TD*%
D14*
%TO.C,C8*%
X52705000Y22780000D03*
X52705000Y17780000D03*
%TD*%
%TO.C,C7*%
X38180000Y12780000D03*
X38180000Y17780000D03*
%TD*%
D11*
%TO.C,J6*%
X59690000Y25400000D03*
X57150000Y25400000D03*
X59690000Y22860000D03*
X57150000Y22860000D03*
X59690000Y20320000D03*
X57150000Y20320000D03*
X59690000Y17780000D03*
X57150000Y17780000D03*
X59690000Y15240000D03*
X57150000Y15240000D03*
X59690000Y12700000D03*
X57150000Y12700000D03*
X59690000Y10160000D03*
X57150000Y10160000D03*
X59690000Y7620000D03*
D10*
X57150000Y7620000D03*
%TD*%
D12*
%TO.C,Q4*%
X55880000Y52070000D03*
X58420000Y52070000D03*
D13*
X60960000Y52070000D03*
%TD*%
D12*
%TO.C,Q2*%
X55880000Y82550000D03*
X58420000Y82550000D03*
D13*
X60960000Y82550000D03*
%TD*%
D14*
%TO.C,C10*%
X5715000Y38815000D03*
X5715000Y43815000D03*
%TD*%
%TO.C,C9*%
X5715000Y56595000D03*
X5715000Y61595000D03*
%TD*%
%TO.C,C1*%
X23495000Y61595000D03*
X23495000Y56595000D03*
%TD*%
%TO.C,C2*%
X23495000Y43815000D03*
X23495000Y38815000D03*
%TD*%
D16*
%TO.C,D1*%
X7620000Y27305000D03*
D17*
X7620000Y24765000D03*
%TD*%
%TO.C,D2*%
X7620000Y18415000D03*
D16*
X7620000Y20955000D03*
%TD*%
D18*
%TO.C,R1*%
X12700000Y8255000D03*
D14*
X20320000Y8255000D03*
%TD*%
%TO.C,R2*%
X12700000Y13335000D03*
D18*
X20320000Y13335000D03*
%TD*%
D14*
%TO.C,R3*%
X20320000Y26035000D03*
D18*
X12700000Y26035000D03*
%TD*%
%TO.C,R4*%
X12700000Y19685000D03*
D14*
X20320000Y19685000D03*
%TD*%
%TO.C,R5*%
X40640000Y64770000D03*
D18*
X40640000Y72390000D03*
%TD*%
%TO.C,R6*%
X55880000Y72390000D03*
D14*
X55880000Y64770000D03*
%TD*%
%TO.C,R7*%
X45720000Y64770000D03*
D18*
X45720000Y72390000D03*
%TD*%
D14*
%TO.C,R8*%
X60960000Y72390000D03*
D18*
X60960000Y64770000D03*
%TD*%
%TO.C,R9*%
X12700000Y32385000D03*
D14*
X20320000Y32385000D03*
%TD*%
D18*
%TO.C,R10*%
X45720000Y41910000D03*
D14*
X45720000Y34290000D03*
%TD*%
%TO.C,R11*%
X60960000Y41910000D03*
D18*
X60960000Y34290000D03*
%TD*%
D14*
%TO.C,R12*%
X45720000Y10160000D03*
D18*
X38100000Y10160000D03*
%TD*%
%TO.C,R13*%
X40640000Y41910000D03*
D14*
X40640000Y34290000D03*
%TD*%
%TO.C,R14*%
X55880000Y34290000D03*
D18*
X55880000Y41910000D03*
%TD*%
D10*
%TO.C,J2*%
X10795000Y62865000D03*
D11*
X10795000Y60325000D03*
X10795000Y57785000D03*
X10795000Y55245000D03*
%TD*%
%TO.C,J4*%
X18415000Y55245000D03*
X18415000Y57785000D03*
X18415000Y60325000D03*
D10*
X18415000Y62865000D03*
%TD*%
D11*
%TO.C,J5*%
X18415000Y37465000D03*
X18415000Y40005000D03*
X18415000Y42545000D03*
D10*
X18415000Y45085000D03*
%TD*%
M02*
